0
SECTION
2
HEADER
9
$INSUNITS
70
1
9
$ACADVER
1
AC1014
9
$HANDSEED
5
FFFF
0
ENDSEC
0
SECTION
2
TABLES
0
TABLE
2
VPORT
5
8
100
AcDbSymbolTable
0
ENDTAB
0
TABLE
2
LTYPE
5
5
100
AcDbSymbolTable
0
LTYPE
5
14
100
AcDbSymbolTableRecord
100
AcDbLinetypeTableRecord
2
BYBLOCK
70
0
0
LTYPE
5
15
100
AcDbSymbolTableRecord
100
AcDbLinetypeTableRecord
2
BYLAYER
70
0
0
ENDTAB
0
TABLE
2
LAYER
5
2
100
AcDbSymbolTable
70
2
0
LAYER
5
50
100
AcDbSymbolTableRecord
100
AcDbLayerTableRecord
2
0
70
0
6
CONTINUOUS
0
ENDTAB
0
TABLE
2
STYLE
5
3
100
AcDbSymbolTable
70
1
0
STYLE
5
11
100
AcDbSymbolTableRecord
100
AcDbTextStyleTableRecord
2
STANDARD
70
0
0
ENDTAB
0
TABLE
2
VIEW
5
6
100
AcDbSymbolTable
70
0
0
ENDTAB
0
TABLE
2
UCS
5
7
100
AcDbSymbolTable
70
0
0
ENDTAB
0
TABLE
2
APPID
5
9
100
AcDbSymbolTable
70
2
0
APPID
5
12
100
AcDbSymbolTableRecord
100
AcDbRegAppTableRecord
2
ACAD
70
0
0
ENDTAB
0
TABLE
2
DIMSTYLE
5
A
100
AcDbSymbolTable
70
1
0
ENDTAB
0
TABLE
2
BLOCK_RECORD
5
1
100
AcDbSymbolTable
70
1
0
BLOCK_RECORD
5
1F
100
AcDbSymbolTableRecord
100
AcDbBlockTableRecord
2
*MODEL_SPACE
0
BLOCK_RECORD
5
1B
100
AcDbSymbolTableRecord
100
AcDbBlockTableRecord
2
*PAPER_SPACE
0
ENDTAB
0
ENDSEC
0
SECTION
2
BLOCKS
0
BLOCK
5
20
100
AcDbEntity
100
AcDbBlockBegin
2
*MODEL_SPACE
0
ENDBLK
5
21
100
AcDbEntity
100
AcDbBlockEnd
0
BLOCK
5
1C
100
AcDbEntity
100
AcDbBlockBegin
2
*PAPER_SPACE
0
ENDBLK
5
1D
100
AcDbEntity
100
AcDbBlockEnd
0
ENDSEC
0
SECTION
2
ENTITIES
0
LWPOLYLINE
5
100
100
AcDbEntity
8
0
100
AcDbPolyline
90
56
70
1
43
0.0
10
-40.011286225225007
20
-7.4999999999999982
10
-39.833157921766464
20
-7.9999999999999982
10
-37.463157921766403
20
-7.9999999999999964
10
-37.285029618307853
20
-7.4999999999999982
10
-37.106901314849317
20
-7.9999999999999964
10
-32.761901314849268
20
-7.9999999999999964
10
-32.583773011390718
20
-7.4999999999999982
10
-32.405644707932183
20
-7.9999999999999964
10
-29.893635683180044
20
-7.9999999999999964
10
-29.715507379721494
20
-7.4999999999999964
10
-29.537379076262955
20
-7.9999999999999964
10
-19.947385760928029
20
-7.9999999999999964
10
-19.769257457469472
20
-7.4999999999999956
10
-19.59112915401094
20
-7.9999999999999964
10
-12.129646970224808
20
-7.9999999999999964
10
-11.951518666766264
20
-7.4999999999999964
10
-11.773390363307719
20
-7.9999999999999964
10
-2.1715188398210117
20
-7.9999999999999964
10
-1.9933905363624678
20
-7.4999999999999964
10
-1.8152622329039236
20
-7.9999999999999964
10
0
20
-7.9999999999999982
10
1.7483827159451283e-16
20
-5.0743486398744615
42
-1.5683921749990679
10
-3.4967654318902565e-16
20
-2.9256513601255349
10
0
20
0
10
-1.8152622329039265
20
0
10
-1.9933905363624649
20
-0.49999999999999994
10
-2.1715188398210148
20
0
10
-11.773390363307723
20
0
10
-11.95151866676626
20
-0.49999999999999994
10
-12.12964697022481
20
0
10
-19.591129154010936
20
-6.9935308637805131e-16
10
-19.769257457469475
20
-0.50000000000000067
10
-19.947385760928025
20
-6.9935308637805131e-16
10
-29.537379076262955
20
-1.3987061727561026e-15
10
-29.715507379721494
20
-0.50000000000000133
10
-29.893635683180044
20
-1.3987061727561026e-15
10
-32.405644707932183
20
-6.9935308637805131e-16
10
-32.583773011390718
20
-0.50000000000000067
10
-32.761901314849268
20
-6.9935308637805131e-16
10
-37.106901314849317
20
-6.9935308637805131e-16
10
-37.285029618307853
20
-0.50000000000000067
10
-37.463157921766403
20
-6.9935308637805131e-16
10
-39.833157921766464
20
0
10
-40.011286225225007
20
-0.49999999999999994
10
-40.18941452868355
20
0
10
-44.351914528683551
20
0
10
-44.530042832142094
20
-0.49999999999999994
10
-44.708171135600644
20
0
10
-46.393171135600632
20
0
10
-46.393171135600632
20
-2.9256513601255252
42
-1.5683921749990348
10
-46.393171135600632
20
-5.0743486398744722
10
-46.393171135600632
20
-7.9999999999999982
10
-44.708171135600644
20
-7.9999999999999982
10
-44.530042832142094
20
-7.4999999999999982
10
-44.351914528683551
20
-7.9999999999999982
10
-40.18941452868355
20
-7.9999999999999982
0
CIRCLE
5
101
100
AcDbEntity
8
0
100
AcDbCircle
10
-19.074245033952014
20
-0.49999999999999978
30
-1.9876810210293209e-29
40
0.12499999999999994
210
0
220
-0
230
1
0
CIRCLE
5
102
100
AcDbEntity
8
0
100
AcDbCircle
10
-12.646531090283718
20
-0.49999999999999978
30
1.9876810210293209e-29
40
0.1249999999999996
210
0
220
-0
230
1
0
CIRCLE
5
103
100
AcDbEntity
8
0
100
AcDbCircle
10
-19.074245033952014
20
-7.4999999999999982
30
-1.9876810210293209e-29
40
0.12499999999999994
210
0
220
-0
230
1
0
CIRCLE
5
104
100
AcDbEntity
8
0
100
AcDbCircle
10
-12.646531090283718
20
-7.4999999999999982
30
1.9876810210293209e-29
40
0.1249999999999996
210
0
220
-0
230
1
0
CIRCLE
5
105
100
AcDbEntity
8
0
100
AcDbCircle
10
-31.220644707932244
20
-3.9999999999999982
30
0
40
1.1850000000000327
210
-1.5777218104420236e-30
220
-0
230
1
0
CIRCLE
5
106
100
AcDbEntity
8
0
100
AcDbCircle
10
-32.063144707932246
20
-0.49999999999999911
30
0
40
0.12500000000000031
210
0
220
-0
230
1
0
CIRCLE
5
107
100
AcDbEntity
8
0
100
AcDbCircle
10
-31.214915284688772
20
-6.8944982695869905
30
0
40
0.12499999999999994
210
0
220
-0
230
1
0
CIRCLE
5
108
100
AcDbEntity
8
0
100
AcDbCircle
10
-30.285644707932217
20
-6.8969089378005917
30
0
40
0.12499999999999994
210
0
220
-0
230
1
0
CIRCLE
5
109
100
AcDbEntity
8
0
100
AcDbCircle
10
-30.285915381474258
20
-7.4969088767470948
30
0
40
0.12500000000000031
210
0
220
-0
230
1
0
CIRCLE
5
110
100
AcDbEntity
8
0
100
AcDbCircle
10
-31.217757574746646
20
-7.4944915373719123
30
0
40
0.12500000000000031
210
0
220
-0
230
1
0
CIRCLE
5
111
100
AcDbEntity
8
0
100
AcDbCircle
10
-32.063144707932246
20
-7.4999999999999982
30
0
40
0.12500000000000031
210
0
220
-0
230
1
0
CIRCLE
5
112
100
AcDbEntity
8
0
100
AcDbCircle
10
-31.181471780032759
20
-0.50076791470901638
30
0
40
0.12500000000000031
210
0
220
-0
230
1
0
CIRCLE
5
113
100
AcDbEntity
8
0
100
AcDbCircle
10
-30.28564470793221
20
-1.1030910621994061
30
0
40
0.12499999999999994
210
0
220
-0
230
1
0
CIRCLE
5
114
100
AcDbEntity
8
0
100
AcDbCircle
10
-30.2859153814743
20
-0.50309112325288818
30
0
40
0.12500000000000031
210
0
220
-0
230
1
0
CIRCLE
5
115
100
AcDbEntity
8
0
100
AcDbCircle
10
-31.184855409888815
20
-1.1007583738406603
30
0
40
0.12499999999999994
210
0
220
-0
230
1
0
CIRCLE
5
116
100
AcDbEntity
8
0
100
AcDbCircle
10
-38.683947219809859
20
-1.1007583738406603
30
0
40
0.12499999999999994
210
0
220
-0
230
1
0
CIRCLE
5
117
100
AcDbEntity
8
0
100
AcDbCircle
10
-39.582887248224374
20
-0.50309112325288818
30
3.9753620420586418e-29
40
0.12500000000000031
210
0
220
-0
230
1
0
CIRCLE
5
118
100
AcDbEntity
8
0
100
AcDbCircle
10
-39.583157921766464
20
-1.1030910621994061
30
3.9753620420586418e-29
40
0.12499999999999994
210
0
220
-0
230
1
0
CIRCLE
5
119
100
AcDbEntity
8
0
100
AcDbCircle
10
-38.687330849665919
20
-0.50076791470901638
30
-3.9753620420586418e-29
40
0.12500000000000031
210
0
220
-0
230
1
0
CIRCLE
5
120
100
AcDbEntity
8
0
100
AcDbCircle
10
-37.805657921766432
20
-0.49999999999999911
30
-3.9753620420586418e-29
40
0.12500000000000031
210
0
220
-0
230
1
0
CIRCLE
5
121
100
AcDbEntity
8
0
100
AcDbCircle
10
-38.648157921766433
20
-3.9999999999999982
30
0
40
1.1850000000000327
210
-1.5777218104420236e-30
220
-0
230
1
0
CIRCLE
5
122
100
AcDbEntity
8
0
100
AcDbCircle
10
-38.653887345009906
20
-6.8944982695869905
30
-3.9753620420586418e-29
40
0.12499999999999994
210
0
220
-0
230
1
0
CIRCLE
5
123
100
AcDbEntity
8
0
100
AcDbCircle
10
-39.583157921766457
20
-6.8969089378005917
30
0
40
0.12499999999999994
210
0
220
-0
230
1
0
CIRCLE
5
124
100
AcDbEntity
8
0
100
AcDbCircle
10
-39.582887248224417
20
-7.4969088767470948
30
0
40
0.12500000000000031
210
0
220
-0
230
1
0
CIRCLE
5
125
100
AcDbEntity
8
0
100
AcDbCircle
10
-38.651045054952021
20
-7.4944915373719123
30
3.9753620420586418e-29
40
0.12500000000000031
210
0
220
-0
230
1
0
CIRCLE
5
126
100
AcDbEntity
8
0
100
AcDbCircle
10
-37.805657921766425
20
-7.4999999999999982
30
3.9753620420586418e-29
40
0.12500000000000031
210
0
220
-0
230
1
0
CIRCLE
5
127
100
AcDbEntity
8
0
100
AcDbCircle
10
-45.853998207701203
20
-0.50076791470901638
30
-3.9753620420586418e-29
40
0.12500000000000031
210
0
220
-0
230
1
0
CIRCLE
5
128
100
AcDbEntity
8
0
100
AcDbCircle
10
-44.958171135600651
20
-1.1030910621994061
30
-3.9753620420586418e-29
40
0.12499999999999994
210
0
220
-0
230
1
0
CIRCLE
5
129
100
AcDbEntity
8
0
100
AcDbCircle
10
-44.958441809142741
20
-0.50309112325288818
30
-3.9753620420586418e-29
40
0.12500000000000031
210
0
220
-0
230
1
0
CIRCLE
5
130
100
AcDbEntity
8
0
100
AcDbCircle
10
-45.857381837557256
20
-1.1007583738406603
30
3.9753620420586418e-29
40
0.12499999999999994
210
0
220
-0
230
1
0
CIRCLE
5
131
100
AcDbEntity
8
0
100
AcDbCircle
10
-45.890284002415093
20
-7.4944915373719123
30
3.9753620420586418e-29
40
0.12500000000000031
210
0
220
-0
230
1
0
CIRCLE
5
132
100
AcDbEntity
8
0
100
AcDbCircle
10
-44.958441809142698
20
-7.4969088767470948
30
-3.9753620420586418e-29
40
0.12500000000000031
210
0
220
-0
230
1
0
CIRCLE
5
133
100
AcDbEntity
8
0
100
AcDbCircle
10
-44.958171135600658
20
-6.8969089378005917
30
3.9753620420586418e-29
40
0.12499999999999994
210
0
220
-0
230
1
0
CIRCLE
5
134
100
AcDbEntity
8
0
100
AcDbCircle
10
-45.887441712357216
20
-6.8944982695869905
30
3.9753620420586418e-29
40
0.12499999999999994
210
0
220
-0
230
1
0
CIRCLE
5
135
100
AcDbEntity
8
0
100
AcDbCircle
10
-0.53578929804339825
20
-1.1007583738406603
30
0
40
0.12499999999999994
210
0
220
-0
230
1
0
CIRCLE
5
136
100
AcDbEntity
8
0
100
AcDbCircle
10
-1.4347293264579128
20
-0.50309112325288818
30
0
40
0.12500000000000031
210
0
220
-0
230
1
0
CIRCLE
5
137
100
AcDbEntity
8
0
100
AcDbCircle
10
-1.4350000000000025
20
-1.1030910621994061
30
0
40
0.12499999999999994
210
0
220
-0
230
1
0
CIRCLE
5
138
100
AcDbEntity
8
0
100
AcDbCircle
10
-0.5391729278994537
20
-0.50076791470901638
30
0
40
0.12500000000000031
210
0
220
-0
230
1
0
CIRCLE
5
139
100
AcDbEntity
8
0
100
AcDbCircle
10
-0.50288713318556144
20
-7.4944915373719123
30
0
40
0.12500000000000031
210
0
220
-0
230
1
0
CIRCLE
5
140
100
AcDbEntity
8
0
100
AcDbCircle
10
-1.4347293264579577
20
-7.4969088767470948
30
0
40
0.12500000000000031
210
0
220
-0
230
1
0
CIRCLE
5
141
100
AcDbEntity
8
0
100
AcDbCircle
10
-1.4349999999999969
20
-6.8969089378005917
30
0
40
0.12499999999999994
210
0
220
-0
230
1
0
CIRCLE
5
142
100
AcDbEntity
8
0
100
AcDbCircle
10
-0.50572942324344339
20
-6.8944982695869905
30
0
40
0.12499999999999994
210
0
220
-0
230
1
0
ENDSEC
0
SECTION
2
OBJECTS
0
DICTIONARY
5
C
100
AcDbDictionary
3
ACAD_GROUP
350
D
3
ACAD_MLINESTYLE
350
17
0
DICTIONARY
5
D
100
AcDbDictionary
0
DICTIONARY
5
1A
330
C
100
AcDbDictionary
0
DICTIONARY
5
17
100
AcDbDictionary
0
ENDSEC
0
EOF
