G04 EAGLE Gerber RS-274X export*
G75*
%MOMM*%
%FSLAX34Y34*%
%LPD*%
%INBottom Copper*%
%IPPOS*%
%AMOC8*
5,1,8,0,0,1.08239X$1,22.5*%
G01*
G04 Define Apertures*
%ADD10R,1.524000X1.524000*%
%ADD11P,1.64956X8X22.5*%
%ADD12C,2.184400*%
%ADD13C,1.524000*%
%ADD14C,1.117600*%
%ADD15C,0.304800*%
%ADD16C,0.756400*%
%ADD17C,0.406400*%
%ADD18C,0.406400*%
G36*
X458501Y10321D02*
X459168Y10778D01*
X459603Y11460D01*
X459740Y12192D01*
X459740Y648208D01*
X459579Y649001D01*
X459122Y649668D01*
X458441Y650103D01*
X457708Y650240D01*
X-508Y650240D01*
X-1301Y650079D01*
X-1968Y649622D01*
X-2403Y648941D01*
X-2540Y648208D01*
X-2540Y12192D01*
X-2379Y11399D01*
X-1922Y10732D01*
X-1241Y10297D01*
X-508Y10160D01*
X457708Y10160D01*
X458501Y10321D01*
G37*
%LPC*%
G36*
X391679Y591820D02*
X387945Y593367D01*
X385087Y596225D01*
X383540Y599959D01*
X383540Y619241D01*
X385087Y622975D01*
X387945Y625833D01*
X391679Y627380D01*
X395721Y627380D01*
X399455Y625833D01*
X402313Y622975D01*
X403860Y619241D01*
X403860Y599959D01*
X402313Y596225D01*
X399455Y593367D01*
X395721Y591820D01*
X391679Y591820D01*
G37*
G36*
X366279Y591820D02*
X362545Y593367D01*
X359687Y596225D01*
X358140Y599959D01*
X358140Y619241D01*
X359687Y622975D01*
X362545Y625833D01*
X366279Y627380D01*
X370321Y627380D01*
X374055Y625833D01*
X376913Y622975D01*
X378460Y619241D01*
X378460Y599959D01*
X376913Y596225D01*
X374055Y593367D01*
X370321Y591820D01*
X366279Y591820D01*
G37*
G36*
X340879Y591820D02*
X337145Y593367D01*
X334287Y596225D01*
X332740Y599959D01*
X332740Y619241D01*
X334287Y622975D01*
X337145Y625833D01*
X340879Y627380D01*
X344921Y627380D01*
X348655Y625833D01*
X351513Y622975D01*
X353060Y619241D01*
X353060Y599959D01*
X351513Y596225D01*
X348655Y593367D01*
X344921Y591820D01*
X340879Y591820D01*
G37*
G36*
X303183Y601472D02*
X300196Y602709D01*
X297909Y604996D01*
X296672Y607983D01*
X296672Y611217D01*
X297909Y614204D01*
X300196Y616491D01*
X303183Y617728D01*
X306417Y617728D01*
X309404Y616491D01*
X311691Y614204D01*
X312928Y611217D01*
X312928Y607983D01*
X311691Y604996D01*
X309404Y602709D01*
X306417Y601472D01*
X303183Y601472D01*
G37*
G36*
X252383Y601472D02*
X249396Y602709D01*
X247109Y604996D01*
X245872Y607983D01*
X245872Y611217D01*
X247109Y614204D01*
X249396Y616491D01*
X252383Y617728D01*
X255617Y617728D01*
X258604Y616491D01*
X260891Y614204D01*
X262128Y611217D01*
X262128Y607983D01*
X260891Y604996D01*
X258604Y602709D01*
X255617Y601472D01*
X252383Y601472D01*
G37*
G36*
X201583Y601472D02*
X198596Y602709D01*
X196309Y604996D01*
X195072Y607983D01*
X195072Y611217D01*
X196309Y614204D01*
X198596Y616491D01*
X201583Y617728D01*
X204817Y617728D01*
X207804Y616491D01*
X210091Y614204D01*
X211328Y611217D01*
X211328Y607983D01*
X210091Y604996D01*
X207804Y602709D01*
X204817Y601472D01*
X201583Y601472D01*
G37*
G36*
X150783Y601472D02*
X147796Y602709D01*
X145509Y604996D01*
X144272Y607983D01*
X144272Y611217D01*
X145509Y614204D01*
X147796Y616491D01*
X150783Y617728D01*
X154017Y617728D01*
X157004Y616491D01*
X159291Y614204D01*
X160528Y611217D01*
X160528Y607983D01*
X159291Y604996D01*
X157004Y602709D01*
X154017Y601472D01*
X150783Y601472D01*
G37*
G36*
X277783Y576072D02*
X274796Y577309D01*
X272509Y579596D01*
X271272Y582583D01*
X271272Y585817D01*
X272509Y588804D01*
X274796Y591091D01*
X277783Y592328D01*
X281017Y592328D01*
X284004Y591091D01*
X286291Y588804D01*
X287528Y585817D01*
X287528Y582583D01*
X286291Y579596D01*
X284004Y577309D01*
X281017Y576072D01*
X277783Y576072D01*
G37*
G36*
X176183Y576072D02*
X173196Y577309D01*
X170909Y579596D01*
X169672Y582583D01*
X169672Y585817D01*
X170909Y588804D01*
X173196Y591091D01*
X176183Y592328D01*
X179417Y592328D01*
X182404Y591091D01*
X184691Y588804D01*
X185928Y585817D01*
X185928Y582583D01*
X184691Y579596D01*
X182404Y577309D01*
X179417Y576072D01*
X176183Y576072D01*
G37*
G36*
X125383Y576072D02*
X122396Y577309D01*
X120109Y579596D01*
X118872Y582583D01*
X118872Y585817D01*
X120109Y588804D01*
X122396Y591091D01*
X125383Y592328D01*
X128617Y592328D01*
X131604Y591091D01*
X133891Y588804D01*
X135128Y585817D01*
X135128Y582583D01*
X133891Y579596D01*
X131604Y577309D01*
X128617Y576072D01*
X125383Y576072D01*
G37*
G36*
X80228Y218440D02*
X78740Y219928D01*
X78740Y234696D01*
X78579Y235489D01*
X78122Y236156D01*
X77441Y236591D01*
X76708Y236728D01*
X62591Y236728D01*
X60910Y237424D01*
X46924Y251410D01*
X46228Y253091D01*
X46228Y254508D01*
X46067Y255301D01*
X45610Y255968D01*
X44929Y256403D01*
X44196Y256540D01*
X29428Y256540D01*
X27940Y258028D01*
X27940Y275372D01*
X29428Y276860D01*
X44196Y276860D01*
X44989Y277021D01*
X45656Y277478D01*
X46091Y278160D01*
X46228Y278892D01*
X46228Y279908D01*
X46067Y280701D01*
X45610Y281368D01*
X44929Y281803D01*
X44196Y281940D01*
X29428Y281940D01*
X27940Y283428D01*
X27940Y300772D01*
X29428Y302260D01*
X46772Y302260D01*
X48260Y300772D01*
X48260Y288231D01*
X48421Y287439D01*
X48878Y286772D01*
X49560Y286336D01*
X50357Y286201D01*
X51144Y286387D01*
X51729Y286795D01*
X52745Y287811D01*
X53191Y288485D01*
X53340Y289247D01*
X53340Y296308D01*
X59292Y302260D01*
X67708Y302260D01*
X73660Y296308D01*
X73660Y287551D01*
X73538Y286895D01*
X73711Y286105D01*
X74179Y285446D01*
X74867Y285021D01*
X75667Y284898D01*
X76347Y285050D01*
X77486Y285522D01*
X78156Y285974D01*
X78597Y286651D01*
X78740Y287399D01*
X78740Y296308D01*
X84692Y302260D01*
X93108Y302260D01*
X96970Y298398D01*
X97645Y297951D01*
X98440Y297803D01*
X99230Y297977D01*
X99889Y298445D01*
X100033Y298667D01*
X107579Y306213D01*
X109073Y306832D01*
X122443Y306832D01*
X123236Y306993D01*
X123880Y307427D01*
X221683Y405230D01*
X222129Y405904D01*
X222278Y406667D01*
X222278Y407658D01*
X223240Y409981D01*
X225019Y411760D01*
X227342Y412722D01*
X229858Y412722D01*
X232181Y411760D01*
X233960Y409981D01*
X234311Y409132D01*
X234763Y408461D01*
X235441Y408020D01*
X236237Y407878D01*
X237026Y408058D01*
X237625Y408473D01*
X256171Y427018D01*
X256617Y427692D01*
X256766Y428455D01*
X256766Y444804D01*
X256605Y445597D01*
X256171Y446241D01*
X250555Y451857D01*
X249936Y453351D01*
X249936Y459262D01*
X249775Y460055D01*
X249318Y460722D01*
X248637Y461157D01*
X247839Y461293D01*
X247052Y461107D01*
X246467Y460699D01*
X245508Y459740D01*
X237092Y459740D01*
X231140Y465692D01*
X231140Y474108D01*
X237092Y480060D01*
X245508Y480060D01*
X246467Y479101D01*
X247141Y478655D01*
X247936Y478506D01*
X248726Y478680D01*
X249386Y479148D01*
X249811Y479836D01*
X249936Y480538D01*
X249936Y484662D01*
X249775Y485455D01*
X249318Y486122D01*
X248637Y486557D01*
X247839Y486693D01*
X247052Y486507D01*
X246467Y486099D01*
X245508Y485140D01*
X237092Y485140D01*
X231140Y491092D01*
X231140Y499508D01*
X237092Y505460D01*
X245887Y505460D01*
X246680Y505621D01*
X247347Y506078D01*
X247782Y506760D01*
X247918Y507557D01*
X247732Y508344D01*
X247324Y508929D01*
X206176Y550077D01*
X205502Y550523D01*
X204739Y550672D01*
X201583Y550672D01*
X198596Y551909D01*
X196309Y554196D01*
X195072Y557183D01*
X195072Y560417D01*
X196309Y563404D01*
X198596Y565691D01*
X201583Y566928D01*
X204817Y566928D01*
X207804Y565691D01*
X210091Y563404D01*
X211328Y560417D01*
X211328Y557261D01*
X211489Y556468D01*
X211923Y555824D01*
X257445Y510302D01*
X258064Y508808D01*
X258064Y505938D01*
X258225Y505146D01*
X258682Y504479D01*
X259364Y504043D01*
X260161Y503907D01*
X260948Y504093D01*
X261533Y504501D01*
X262492Y505460D01*
X270908Y505460D01*
X271867Y504501D01*
X272541Y504055D01*
X273336Y503906D01*
X274126Y504080D01*
X274786Y504548D01*
X275211Y505236D01*
X275336Y505938D01*
X275336Y518662D01*
X275175Y519454D01*
X274741Y520099D01*
X241919Y552921D01*
X241300Y554414D01*
X241300Y564911D01*
X241139Y565704D01*
X240705Y566348D01*
X231576Y575477D01*
X230902Y575923D01*
X230139Y576072D01*
X226983Y576072D01*
X223996Y577309D01*
X221709Y579596D01*
X220472Y582583D01*
X220472Y585817D01*
X221709Y588804D01*
X223996Y591091D01*
X226983Y592328D01*
X230217Y592328D01*
X233204Y591091D01*
X235491Y588804D01*
X236728Y585817D01*
X236728Y582661D01*
X236889Y581868D01*
X237323Y581224D01*
X248809Y569738D01*
X249428Y568244D01*
X249428Y557748D01*
X249589Y556955D01*
X250023Y556311D01*
X282845Y523489D01*
X283464Y521995D01*
X283464Y505938D01*
X283625Y505146D01*
X284082Y504479D01*
X284764Y504043D01*
X285561Y503907D01*
X286348Y504093D01*
X286933Y504501D01*
X287892Y505460D01*
X296308Y505460D01*
X297267Y504501D01*
X297941Y504055D01*
X298736Y503906D01*
X299526Y504080D01*
X300186Y504548D01*
X300611Y505236D01*
X300736Y505938D01*
X300736Y550528D01*
X300575Y551320D01*
X300141Y551964D01*
X297909Y554196D01*
X296672Y557183D01*
X296672Y560417D01*
X297909Y563404D01*
X300196Y565691D01*
X303183Y566928D01*
X306417Y566928D01*
X309404Y565691D01*
X311691Y563404D01*
X312928Y560417D01*
X312928Y557183D01*
X311691Y554196D01*
X309459Y551964D01*
X309013Y551290D01*
X308864Y550528D01*
X308864Y505938D01*
X309025Y505146D01*
X309482Y504479D01*
X310164Y504043D01*
X310961Y503907D01*
X311748Y504093D01*
X312333Y504501D01*
X313292Y505460D01*
X321708Y505460D01*
X327660Y499508D01*
X327660Y491092D01*
X321708Y485140D01*
X313292Y485140D01*
X312333Y486099D01*
X311659Y486545D01*
X310864Y486694D01*
X310074Y486520D01*
X309414Y486052D01*
X308989Y485364D01*
X308864Y484662D01*
X308864Y480538D01*
X309025Y479746D01*
X309482Y479079D01*
X310164Y478643D01*
X310961Y478507D01*
X311748Y478693D01*
X312333Y479101D01*
X313292Y480060D01*
X321708Y480060D01*
X327660Y474108D01*
X327660Y465692D01*
X321708Y459740D01*
X313292Y459740D01*
X312333Y460699D01*
X311659Y461145D01*
X310864Y461294D01*
X310074Y461120D01*
X309414Y460652D01*
X308989Y459964D01*
X308864Y459262D01*
X308864Y443692D01*
X308245Y442198D01*
X222817Y356770D01*
X222371Y356096D01*
X222222Y355333D01*
X222222Y354342D01*
X221260Y352019D01*
X219481Y350240D01*
X217158Y349278D01*
X214642Y349278D01*
X212319Y350240D01*
X210540Y352019D01*
X209578Y354342D01*
X209578Y356858D01*
X210540Y359181D01*
X211873Y360513D01*
X212319Y361187D01*
X212467Y361982D01*
X212294Y362772D01*
X211873Y363387D01*
X210540Y364719D01*
X209578Y367042D01*
X209578Y369558D01*
X210540Y371881D01*
X211873Y373213D01*
X212319Y373887D01*
X212467Y374682D01*
X212294Y375472D01*
X211873Y376087D01*
X210540Y377419D01*
X210189Y378268D01*
X209737Y378939D01*
X209059Y379380D01*
X208263Y379522D01*
X207474Y379342D01*
X206875Y378927D01*
X133676Y305729D01*
X133230Y305055D01*
X133081Y304260D01*
X133255Y303470D01*
X133723Y302810D01*
X134411Y302385D01*
X135113Y302260D01*
X143908Y302260D01*
X149860Y296308D01*
X149860Y287892D01*
X143908Y281940D01*
X135492Y281940D01*
X129540Y287892D01*
X129540Y296649D01*
X129662Y297305D01*
X129489Y298095D01*
X129021Y298755D01*
X128333Y299179D01*
X127533Y299302D01*
X126853Y299150D01*
X125776Y298704D01*
X112406Y298704D01*
X111614Y298543D01*
X110969Y298109D01*
X108291Y295431D01*
X107845Y294756D01*
X107696Y293994D01*
X107696Y290937D01*
X107077Y289443D01*
X95433Y277798D01*
X95187Y277633D01*
X94745Y276955D01*
X94603Y276159D01*
X94783Y275370D01*
X95198Y274770D01*
X99060Y270908D01*
X99060Y262492D01*
X93108Y256540D01*
X84692Y256540D01*
X78740Y262492D01*
X78740Y271287D01*
X78579Y272080D01*
X78122Y272747D01*
X77441Y273182D01*
X76643Y273318D01*
X75856Y273132D01*
X75271Y272724D01*
X74255Y271708D01*
X73809Y271034D01*
X73660Y270271D01*
X73660Y262492D01*
X67708Y256540D01*
X59631Y256540D01*
X58839Y256379D01*
X58172Y255922D01*
X57736Y255241D01*
X57601Y254443D01*
X57787Y253656D01*
X58195Y253071D01*
X64799Y246467D01*
X65473Y246021D01*
X66235Y245872D01*
X365565Y245872D01*
X366357Y246033D01*
X367001Y246467D01*
X373605Y253071D01*
X374052Y253745D01*
X374200Y254540D01*
X374027Y255330D01*
X373559Y255990D01*
X372871Y256415D01*
X372169Y256540D01*
X364092Y256540D01*
X358140Y262492D01*
X358140Y270908D01*
X364092Y276860D01*
X372508Y276860D01*
X372959Y276409D01*
X373633Y275963D01*
X374428Y275814D01*
X375218Y275988D01*
X375878Y276456D01*
X376303Y277144D01*
X376428Y277846D01*
X376428Y280954D01*
X376267Y281747D01*
X375810Y282414D01*
X375129Y282849D01*
X374331Y282985D01*
X373544Y282799D01*
X372959Y282391D01*
X372508Y281940D01*
X364092Y281940D01*
X358140Y287892D01*
X358140Y296308D01*
X364092Y302260D01*
X372508Y302260D01*
X372959Y301809D01*
X373633Y301363D01*
X374428Y301214D01*
X375218Y301388D01*
X375878Y301856D01*
X376303Y302544D01*
X376428Y303246D01*
X376428Y458754D01*
X376267Y459547D01*
X375810Y460214D01*
X375129Y460649D01*
X374331Y460785D01*
X373544Y460599D01*
X372959Y460191D01*
X372508Y459740D01*
X364092Y459740D01*
X358140Y465692D01*
X358140Y474108D01*
X364092Y480060D01*
X372508Y480060D01*
X372959Y479609D01*
X373633Y479163D01*
X374428Y479014D01*
X375218Y479188D01*
X375878Y479656D01*
X376303Y480344D01*
X376428Y481046D01*
X376428Y484154D01*
X376267Y484947D01*
X375810Y485614D01*
X375129Y486049D01*
X374331Y486185D01*
X373544Y485999D01*
X372959Y485591D01*
X372508Y485140D01*
X364092Y485140D01*
X358140Y491092D01*
X358140Y499508D01*
X364092Y505460D01*
X372508Y505460D01*
X372959Y505009D01*
X373633Y504563D01*
X374428Y504414D01*
X375218Y504588D01*
X375878Y505056D01*
X376303Y505744D01*
X376428Y506446D01*
X376428Y508909D01*
X377124Y510590D01*
X386783Y520249D01*
X387229Y520923D01*
X387378Y521685D01*
X387378Y521958D01*
X388340Y524281D01*
X390119Y526060D01*
X392442Y527022D01*
X394958Y527022D01*
X397281Y526060D01*
X399060Y524281D01*
X400022Y521958D01*
X400022Y519442D01*
X399060Y517119D01*
X397281Y515340D01*
X394958Y514378D01*
X394685Y514378D01*
X393893Y514217D01*
X393249Y513783D01*
X388395Y508929D01*
X387948Y508255D01*
X387800Y507460D01*
X387973Y506670D01*
X388441Y506010D01*
X389129Y505585D01*
X389831Y505460D01*
X397908Y505460D01*
X403860Y499508D01*
X403860Y491092D01*
X397908Y485140D01*
X389492Y485140D01*
X389041Y485591D01*
X388367Y486037D01*
X387572Y486186D01*
X386782Y486012D01*
X386122Y485544D01*
X385697Y484856D01*
X385572Y484154D01*
X385572Y481046D01*
X385733Y480254D01*
X386190Y479587D01*
X386872Y479151D01*
X387669Y479015D01*
X388456Y479201D01*
X389041Y479609D01*
X389492Y480060D01*
X397908Y480060D01*
X403860Y474108D01*
X403860Y465692D01*
X397908Y459740D01*
X389492Y459740D01*
X389041Y460191D01*
X388367Y460637D01*
X387572Y460786D01*
X386782Y460612D01*
X386122Y460144D01*
X385697Y459456D01*
X385572Y458754D01*
X385572Y303246D01*
X385733Y302454D01*
X386190Y301787D01*
X386872Y301351D01*
X387669Y301215D01*
X388456Y301401D01*
X389041Y301809D01*
X389492Y302260D01*
X397908Y302260D01*
X403860Y296308D01*
X403860Y287892D01*
X397908Y281940D01*
X389492Y281940D01*
X389041Y282391D01*
X388367Y282837D01*
X387572Y282986D01*
X386782Y282812D01*
X386122Y282344D01*
X385697Y281656D01*
X385572Y280954D01*
X385572Y277846D01*
X385733Y277054D01*
X386190Y276387D01*
X386872Y275951D01*
X387669Y275815D01*
X388456Y276001D01*
X389041Y276409D01*
X389492Y276860D01*
X397908Y276860D01*
X403860Y270908D01*
X403860Y262492D01*
X397908Y256540D01*
X389492Y256540D01*
X389041Y256991D01*
X388367Y257437D01*
X387572Y257586D01*
X386782Y257412D01*
X386122Y256944D01*
X385697Y256256D01*
X385572Y255554D01*
X385572Y253091D01*
X384876Y251410D01*
X373804Y240338D01*
X373357Y239664D01*
X373209Y238869D01*
X373383Y238079D01*
X373804Y237464D01*
X378460Y232808D01*
X378460Y224392D01*
X372508Y218440D01*
X364092Y218440D01*
X358140Y224392D01*
X358140Y232808D01*
X358591Y233259D01*
X359037Y233933D01*
X359186Y234728D01*
X359012Y235518D01*
X358544Y236178D01*
X357856Y236603D01*
X357154Y236728D01*
X354046Y236728D01*
X353254Y236567D01*
X352587Y236110D01*
X352151Y235429D01*
X352015Y234631D01*
X352201Y233844D01*
X352609Y233259D01*
X353060Y232808D01*
X353060Y224392D01*
X347108Y218440D01*
X338692Y218440D01*
X332740Y224392D01*
X332740Y232808D01*
X333191Y233259D01*
X333637Y233933D01*
X333786Y234728D01*
X333612Y235518D01*
X333144Y236178D01*
X332456Y236603D01*
X331754Y236728D01*
X328646Y236728D01*
X327854Y236567D01*
X327187Y236110D01*
X326751Y235429D01*
X326615Y234631D01*
X326801Y233844D01*
X327209Y233259D01*
X327660Y232808D01*
X327660Y224392D01*
X321708Y218440D01*
X313292Y218440D01*
X307340Y224392D01*
X307340Y232808D01*
X307791Y233259D01*
X308237Y233933D01*
X308386Y234728D01*
X308212Y235518D01*
X307744Y236178D01*
X307056Y236603D01*
X306354Y236728D01*
X303246Y236728D01*
X302454Y236567D01*
X301787Y236110D01*
X301351Y235429D01*
X301215Y234631D01*
X301401Y233844D01*
X301809Y233259D01*
X302260Y232808D01*
X302260Y224392D01*
X296308Y218440D01*
X287892Y218440D01*
X281940Y224392D01*
X281940Y232808D01*
X282391Y233259D01*
X282837Y233933D01*
X282986Y234728D01*
X282812Y235518D01*
X282344Y236178D01*
X281656Y236603D01*
X280954Y236728D01*
X277846Y236728D01*
X277054Y236567D01*
X276387Y236110D01*
X275951Y235429D01*
X275815Y234631D01*
X276001Y233844D01*
X276409Y233259D01*
X276860Y232808D01*
X276860Y224392D01*
X270908Y218440D01*
X262492Y218440D01*
X256540Y224392D01*
X256540Y232808D01*
X256991Y233259D01*
X257437Y233933D01*
X257586Y234728D01*
X257412Y235518D01*
X256944Y236178D01*
X256256Y236603D01*
X255554Y236728D01*
X227046Y236728D01*
X226254Y236567D01*
X225587Y236110D01*
X225151Y235429D01*
X225015Y234631D01*
X225201Y233844D01*
X225609Y233259D01*
X226060Y232808D01*
X226060Y224392D01*
X220108Y218440D01*
X211692Y218440D01*
X205740Y224392D01*
X205740Y232808D01*
X206191Y233259D01*
X206637Y233933D01*
X206786Y234728D01*
X206612Y235518D01*
X206144Y236178D01*
X205456Y236603D01*
X204754Y236728D01*
X201646Y236728D01*
X200854Y236567D01*
X200187Y236110D01*
X199751Y235429D01*
X199615Y234631D01*
X199801Y233844D01*
X200209Y233259D01*
X200660Y232808D01*
X200660Y224392D01*
X194708Y218440D01*
X186292Y218440D01*
X180340Y224392D01*
X180340Y232808D01*
X180791Y233259D01*
X181237Y233933D01*
X181386Y234728D01*
X181212Y235518D01*
X180744Y236178D01*
X180056Y236603D01*
X179354Y236728D01*
X176246Y236728D01*
X175454Y236567D01*
X174787Y236110D01*
X174351Y235429D01*
X174215Y234631D01*
X174401Y233844D01*
X174809Y233259D01*
X175260Y232808D01*
X175260Y224392D01*
X169308Y218440D01*
X160892Y218440D01*
X154940Y224392D01*
X154940Y232808D01*
X155391Y233259D01*
X155837Y233933D01*
X155986Y234728D01*
X155812Y235518D01*
X155344Y236178D01*
X154656Y236603D01*
X153954Y236728D01*
X150846Y236728D01*
X150054Y236567D01*
X149387Y236110D01*
X148951Y235429D01*
X148815Y234631D01*
X149001Y233844D01*
X149409Y233259D01*
X149860Y232808D01*
X149860Y224392D01*
X143908Y218440D01*
X135492Y218440D01*
X129540Y224392D01*
X129540Y232808D01*
X129991Y233259D01*
X130437Y233933D01*
X130586Y234728D01*
X130412Y235518D01*
X129944Y236178D01*
X129256Y236603D01*
X128554Y236728D01*
X101092Y236728D01*
X100299Y236567D01*
X99632Y236110D01*
X99197Y235429D01*
X99060Y234696D01*
X99060Y219928D01*
X97572Y218440D01*
X80228Y218440D01*
G37*
G36*
X65122Y545338D02*
X60174Y547387D01*
X56387Y551174D01*
X54338Y556122D01*
X54338Y561478D01*
X56387Y566426D01*
X60174Y570213D01*
X65122Y572262D01*
X70478Y572262D01*
X75426Y570213D01*
X79213Y566426D01*
X81262Y561478D01*
X81262Y556122D01*
X79213Y551174D01*
X75426Y547387D01*
X70478Y545338D01*
X65122Y545338D01*
G37*
G36*
X186292Y485140D02*
X180340Y491092D01*
X180340Y499508D01*
X186292Y505460D01*
X194708Y505460D01*
X200660Y499508D01*
X200660Y491092D01*
X194708Y485140D01*
X186292Y485140D01*
G37*
G36*
X338692Y485140D02*
X332740Y491092D01*
X332740Y499508D01*
X338692Y505460D01*
X347108Y505460D01*
X353060Y499508D01*
X353060Y491092D01*
X347108Y485140D01*
X338692Y485140D01*
G37*
G36*
X160892Y485140D02*
X154940Y491092D01*
X154940Y499508D01*
X160892Y505460D01*
X169308Y505460D01*
X175260Y499508D01*
X175260Y491092D01*
X169308Y485140D01*
X160892Y485140D01*
G37*
G36*
X131028Y485140D02*
X129540Y486628D01*
X129540Y503972D01*
X131028Y505460D01*
X148372Y505460D01*
X149860Y503972D01*
X149860Y486628D01*
X148372Y485140D01*
X131028Y485140D01*
G37*
G36*
X414892Y485140D02*
X408940Y491092D01*
X408940Y499508D01*
X414892Y505460D01*
X423308Y505460D01*
X429260Y499508D01*
X429260Y491092D01*
X423308Y485140D01*
X414892Y485140D01*
G37*
G36*
X211692Y485140D02*
X205740Y491092D01*
X205740Y499508D01*
X211692Y505460D01*
X220108Y505460D01*
X226060Y499508D01*
X226060Y491092D01*
X220108Y485140D01*
X211692Y485140D01*
G37*
G36*
X131028Y459740D02*
X129540Y461228D01*
X129540Y478572D01*
X131028Y480060D01*
X148372Y480060D01*
X149860Y478572D01*
X149860Y461228D01*
X148372Y459740D01*
X131028Y459740D01*
G37*
G36*
X160892Y459740D02*
X154940Y465692D01*
X154940Y474108D01*
X160892Y480060D01*
X169308Y480060D01*
X175260Y474108D01*
X175260Y465692D01*
X169308Y459740D01*
X160892Y459740D01*
G37*
G36*
X186292Y459740D02*
X180340Y465692D01*
X180340Y474108D01*
X186292Y480060D01*
X194708Y480060D01*
X200660Y474108D01*
X200660Y465692D01*
X194708Y459740D01*
X186292Y459740D01*
G37*
G36*
X414892Y459740D02*
X408940Y465692D01*
X408940Y474108D01*
X414892Y480060D01*
X423308Y480060D01*
X429260Y474108D01*
X429260Y465692D01*
X423308Y459740D01*
X414892Y459740D01*
G37*
G36*
X211692Y459740D02*
X205740Y465692D01*
X205740Y474108D01*
X211692Y480060D01*
X220108Y480060D01*
X226060Y474108D01*
X226060Y465692D01*
X220108Y459740D01*
X211692Y459740D01*
G37*
G36*
X338692Y459740D02*
X332740Y465692D01*
X332740Y474108D01*
X338692Y480060D01*
X347108Y480060D01*
X353060Y474108D01*
X353060Y465692D01*
X347108Y459740D01*
X338692Y459740D01*
G37*
G36*
X414892Y281940D02*
X408940Y287892D01*
X408940Y296308D01*
X414892Y302260D01*
X423308Y302260D01*
X429260Y296308D01*
X429260Y287892D01*
X423308Y281940D01*
X414892Y281940D01*
G37*
G36*
X338692Y281940D02*
X332740Y287892D01*
X332740Y296308D01*
X338692Y302260D01*
X347108Y302260D01*
X353060Y296308D01*
X353060Y287892D01*
X347108Y281940D01*
X338692Y281940D01*
G37*
G36*
X160892Y281940D02*
X154940Y287892D01*
X154940Y296308D01*
X160892Y302260D01*
X169308Y302260D01*
X175260Y296308D01*
X175260Y287892D01*
X169308Y281940D01*
X160892Y281940D01*
G37*
G36*
X186292Y256540D02*
X180340Y262492D01*
X180340Y270908D01*
X185841Y276409D01*
X186287Y277083D01*
X186436Y277846D01*
X186436Y280954D01*
X186275Y281747D01*
X185841Y282391D01*
X180340Y287892D01*
X180340Y296308D01*
X186292Y302260D01*
X194708Y302260D01*
X200660Y296308D01*
X200660Y287892D01*
X195159Y282391D01*
X194713Y281717D01*
X194564Y280954D01*
X194564Y277846D01*
X194725Y277054D01*
X195159Y276409D01*
X200660Y270908D01*
X200660Y262492D01*
X194708Y256540D01*
X186292Y256540D01*
G37*
G36*
X313292Y281940D02*
X307340Y287892D01*
X307340Y296308D01*
X313292Y302260D01*
X321708Y302260D01*
X327660Y296308D01*
X327660Y287892D01*
X321708Y281940D01*
X313292Y281940D01*
G37*
G36*
X211692Y281940D02*
X205740Y287892D01*
X205740Y296308D01*
X211692Y302260D01*
X220108Y302260D01*
X226060Y296308D01*
X226060Y287892D01*
X220108Y281940D01*
X211692Y281940D01*
G37*
G36*
X237092Y281940D02*
X231140Y287892D01*
X231140Y296308D01*
X237092Y302260D01*
X245508Y302260D01*
X251460Y296308D01*
X251460Y287892D01*
X245508Y281940D01*
X237092Y281940D01*
G37*
G36*
X262492Y281940D02*
X256540Y287892D01*
X256540Y296308D01*
X262492Y302260D01*
X270908Y302260D01*
X276860Y296308D01*
X276860Y287892D01*
X270908Y281940D01*
X262492Y281940D01*
G37*
G36*
X287892Y281940D02*
X281940Y287892D01*
X281940Y296308D01*
X287892Y302260D01*
X296308Y302260D01*
X302260Y296308D01*
X302260Y287892D01*
X296308Y281940D01*
X287892Y281940D01*
G37*
G36*
X262492Y256540D02*
X256540Y262492D01*
X256540Y270908D01*
X262492Y276860D01*
X270908Y276860D01*
X276860Y270908D01*
X276860Y262492D01*
X270908Y256540D01*
X262492Y256540D01*
G37*
G36*
X135492Y256540D02*
X129540Y262492D01*
X129540Y270908D01*
X135492Y276860D01*
X143908Y276860D01*
X149860Y270908D01*
X149860Y262492D01*
X143908Y256540D01*
X135492Y256540D01*
G37*
G36*
X237092Y256540D02*
X231140Y262492D01*
X231140Y270908D01*
X237092Y276860D01*
X245508Y276860D01*
X251460Y270908D01*
X251460Y262492D01*
X245508Y256540D01*
X237092Y256540D01*
G37*
G36*
X211692Y256540D02*
X205740Y262492D01*
X205740Y270908D01*
X211692Y276860D01*
X220108Y276860D01*
X226060Y270908D01*
X226060Y262492D01*
X220108Y256540D01*
X211692Y256540D01*
G37*
G36*
X160892Y256540D02*
X154940Y262492D01*
X154940Y270908D01*
X160892Y276860D01*
X169308Y276860D01*
X175260Y270908D01*
X175260Y262492D01*
X169308Y256540D01*
X160892Y256540D01*
G37*
G36*
X414892Y256540D02*
X408940Y262492D01*
X408940Y270908D01*
X414892Y276860D01*
X423308Y276860D01*
X429260Y270908D01*
X429260Y262492D01*
X423308Y256540D01*
X414892Y256540D01*
G37*
G36*
X338692Y256540D02*
X332740Y262492D01*
X332740Y270908D01*
X338692Y276860D01*
X347108Y276860D01*
X353060Y270908D01*
X353060Y262492D01*
X347108Y256540D01*
X338692Y256540D01*
G37*
G36*
X313292Y256540D02*
X307340Y262492D01*
X307340Y270908D01*
X313292Y276860D01*
X321708Y276860D01*
X327660Y270908D01*
X327660Y262492D01*
X321708Y256540D01*
X313292Y256540D01*
G37*
G36*
X287892Y256540D02*
X281940Y262492D01*
X281940Y270908D01*
X287892Y276860D01*
X296308Y276860D01*
X302260Y270908D01*
X302260Y262492D01*
X296308Y256540D01*
X287892Y256540D01*
G37*
G36*
X414892Y218440D02*
X408940Y224392D01*
X408940Y232808D01*
X414892Y238760D01*
X423308Y238760D01*
X429260Y232808D01*
X429260Y224392D01*
X423308Y218440D01*
X414892Y218440D01*
G37*
G36*
X389492Y218440D02*
X383540Y224392D01*
X383540Y232808D01*
X389492Y238760D01*
X397908Y238760D01*
X403860Y232808D01*
X403860Y224392D01*
X397908Y218440D01*
X389492Y218440D01*
G37*
G36*
X226574Y114509D02*
X226221Y114540D01*
X225288Y114540D01*
X223235Y115090D01*
X223062Y115128D01*
X219862Y115693D01*
X212178Y120129D01*
X210089Y122618D01*
X209970Y122749D01*
X208467Y124251D01*
X208000Y125060D01*
X207797Y125350D01*
X206475Y126926D01*
X205771Y128859D01*
X205621Y129180D01*
X205155Y129989D01*
X204605Y132041D01*
X204551Y132210D01*
X203440Y135264D01*
X203440Y144136D01*
X204551Y147190D01*
X204605Y147359D01*
X205155Y149411D01*
X205621Y150220D01*
X205771Y150541D01*
X206475Y152474D01*
X207797Y154050D01*
X208000Y154340D01*
X208467Y155149D01*
X209970Y156651D01*
X210089Y156782D01*
X212178Y159271D01*
X219862Y163707D01*
X223062Y164272D01*
X223235Y164310D01*
X225288Y164860D01*
X226221Y164860D01*
X226574Y164891D01*
X228600Y165248D01*
X230626Y164891D01*
X230979Y164860D01*
X231912Y164860D01*
X233965Y164310D01*
X234138Y164272D01*
X237338Y163707D01*
X245022Y159271D01*
X247111Y156782D01*
X247230Y156651D01*
X248733Y155149D01*
X249200Y154340D01*
X249403Y154050D01*
X250725Y152474D01*
X251429Y150541D01*
X251579Y150220D01*
X252045Y149411D01*
X252595Y147359D01*
X252649Y147190D01*
X253760Y144136D01*
X253760Y135264D01*
X252649Y132210D01*
X252595Y132041D01*
X252045Y129989D01*
X251579Y129180D01*
X251429Y128859D01*
X250725Y126926D01*
X249403Y125350D01*
X249200Y125060D01*
X248733Y124251D01*
X247230Y122749D01*
X247111Y122618D01*
X245022Y120129D01*
X237338Y115693D01*
X234138Y115128D01*
X233965Y115090D01*
X231912Y114540D01*
X230979Y114540D01*
X230626Y114509D01*
X228600Y114152D01*
X226574Y114509D01*
G37*
G36*
X389492Y15240D02*
X383540Y21192D01*
X383540Y29608D01*
X389492Y35560D01*
X397908Y35560D01*
X403860Y29608D01*
X403860Y21192D01*
X397908Y15240D01*
X389492Y15240D01*
G37*
G36*
X364092Y15240D02*
X358140Y21192D01*
X358140Y29608D01*
X364092Y35560D01*
X372508Y35560D01*
X378460Y29608D01*
X378460Y21192D01*
X372508Y15240D01*
X364092Y15240D01*
G37*
G36*
X338692Y15240D02*
X332740Y21192D01*
X332740Y29608D01*
X338692Y35560D01*
X347108Y35560D01*
X353060Y29608D01*
X353060Y21192D01*
X347108Y15240D01*
X338692Y15240D01*
G37*
G36*
X313292Y15240D02*
X307340Y21192D01*
X307340Y29608D01*
X313292Y35560D01*
X321708Y35560D01*
X327660Y29608D01*
X327660Y21192D01*
X321708Y15240D01*
X313292Y15240D01*
G37*
G36*
X287892Y15240D02*
X281940Y21192D01*
X281940Y29608D01*
X287892Y35560D01*
X296308Y35560D01*
X302260Y29608D01*
X302260Y21192D01*
X296308Y15240D01*
X287892Y15240D01*
G37*
G36*
X262492Y15240D02*
X256540Y21192D01*
X256540Y29608D01*
X262492Y35560D01*
X270908Y35560D01*
X276860Y29608D01*
X276860Y21192D01*
X270908Y15240D01*
X262492Y15240D01*
G37*
G36*
X237092Y15240D02*
X231140Y21192D01*
X231140Y29608D01*
X237092Y35560D01*
X245508Y35560D01*
X251460Y29608D01*
X251460Y21192D01*
X245508Y15240D01*
X237092Y15240D01*
G37*
G36*
X211692Y15240D02*
X205740Y21192D01*
X205740Y29608D01*
X211692Y35560D01*
X220108Y35560D01*
X226060Y29608D01*
X226060Y21192D01*
X220108Y15240D01*
X211692Y15240D01*
G37*
G36*
X186292Y15240D02*
X180340Y21192D01*
X180340Y29608D01*
X186292Y35560D01*
X194708Y35560D01*
X200660Y29608D01*
X200660Y21192D01*
X194708Y15240D01*
X186292Y15240D01*
G37*
G36*
X160892Y15240D02*
X154940Y21192D01*
X154940Y29608D01*
X160892Y35560D01*
X169308Y35560D01*
X175260Y29608D01*
X175260Y21192D01*
X169308Y15240D01*
X160892Y15240D01*
G37*
G36*
X135492Y15240D02*
X129540Y21192D01*
X129540Y29608D01*
X135492Y35560D01*
X143908Y35560D01*
X149860Y29608D01*
X149860Y21192D01*
X143908Y15240D01*
X135492Y15240D01*
G37*
G36*
X110092Y15240D02*
X104140Y21192D01*
X104140Y29608D01*
X110092Y35560D01*
X118508Y35560D01*
X124460Y29608D01*
X124460Y21192D01*
X118508Y15240D01*
X110092Y15240D01*
G37*
G36*
X80228Y15240D02*
X78740Y16728D01*
X78740Y34072D01*
X80228Y35560D01*
X97572Y35560D01*
X99060Y34072D01*
X99060Y16728D01*
X97572Y15240D01*
X80228Y15240D01*
G37*
%LPD*%
D10*
X88900Y25400D03*
D11*
X114300Y25400D03*
X139700Y25400D03*
X165100Y25400D03*
X190500Y25400D03*
X215900Y25400D03*
X241300Y25400D03*
X266700Y25400D03*
X292100Y25400D03*
X317500Y25400D03*
X342900Y25400D03*
X368300Y25400D03*
X393700Y25400D03*
X419100Y25400D03*
D10*
X88900Y228600D03*
D11*
X114300Y228600D03*
X139700Y228600D03*
X165100Y228600D03*
X190500Y228600D03*
X215900Y228600D03*
X241300Y228600D03*
X266700Y228600D03*
X292100Y228600D03*
X317500Y228600D03*
X342900Y228600D03*
X368300Y228600D03*
X393700Y228600D03*
X419100Y228600D03*
D10*
X38100Y266700D03*
D11*
X63500Y266700D03*
X88900Y266700D03*
X114300Y266700D03*
X139700Y266700D03*
X165100Y266700D03*
X190500Y266700D03*
X215900Y266700D03*
X241300Y266700D03*
X266700Y266700D03*
X292100Y266700D03*
X317500Y266700D03*
X342900Y266700D03*
X368300Y266700D03*
X393700Y266700D03*
X419100Y266700D03*
D10*
X139700Y469900D03*
D11*
X165100Y469900D03*
X190500Y469900D03*
X215900Y469900D03*
X241300Y469900D03*
X266700Y469900D03*
X292100Y469900D03*
X317500Y469900D03*
X342900Y469900D03*
X368300Y469900D03*
X393700Y469900D03*
X419100Y469900D03*
D10*
X38100Y292100D03*
D11*
X63500Y292100D03*
X88900Y292100D03*
X114300Y292100D03*
X139700Y292100D03*
X165100Y292100D03*
X190500Y292100D03*
X215900Y292100D03*
X241300Y292100D03*
X266700Y292100D03*
X292100Y292100D03*
X317500Y292100D03*
X342900Y292100D03*
X368300Y292100D03*
X393700Y292100D03*
X419100Y292100D03*
D10*
X139700Y495300D03*
D11*
X165100Y495300D03*
X190500Y495300D03*
X215900Y495300D03*
X241300Y495300D03*
X266700Y495300D03*
X292100Y495300D03*
X317500Y495300D03*
X342900Y495300D03*
X368300Y495300D03*
X393700Y495300D03*
X419100Y495300D03*
D12*
X32800Y558800D03*
X67800Y558800D03*
D13*
X342900Y601980D02*
X342900Y617220D01*
X368300Y617220D02*
X368300Y601980D01*
X393700Y601980D02*
X393700Y617220D01*
X419100Y617220D02*
X419100Y601980D01*
D14*
X254000Y558800D03*
X228600Y584200D03*
X254000Y609600D03*
X152400Y558800D03*
X127000Y584200D03*
X152400Y609600D03*
X304800Y558800D03*
X279400Y584200D03*
X304800Y609600D03*
X203200Y558800D03*
X177800Y584200D03*
X203200Y609600D03*
D15*
X241300Y203200D02*
X419100Y25400D01*
X241300Y203200D02*
X241300Y228600D01*
X241300Y203200D02*
X139700Y203200D01*
X114300Y228600D01*
X190500Y266700D02*
X190500Y292100D01*
D16*
X215900Y368300D03*
D15*
X245364Y567436D02*
X228600Y584200D01*
X245364Y567436D02*
X245364Y555223D01*
X279400Y521187D02*
X279400Y431800D01*
X279400Y521187D02*
X245364Y555223D01*
X279400Y431800D02*
X215900Y368300D01*
D16*
X228600Y406400D03*
D15*
X78232Y281432D02*
X63500Y266700D01*
X78232Y281432D02*
X93319Y281432D01*
X103632Y296519D02*
X109881Y302768D01*
X124968Y302768D01*
X228600Y406400D01*
X103632Y296519D02*
X103632Y291745D01*
X93319Y281432D01*
D17*
X63500Y292100D02*
X50800Y279400D01*
X50800Y254000D01*
X63500Y241300D01*
X368300Y241300D01*
D16*
X393700Y520700D03*
D17*
X381000Y419100D02*
X381000Y254000D01*
X381000Y419100D02*
X381000Y508000D01*
X381000Y254000D02*
X368300Y241300D01*
X381000Y508000D02*
X393700Y520700D01*
D18*
X381000Y419100D03*
D15*
X304800Y444500D02*
X304800Y558800D01*
X304800Y444500D02*
X215900Y355600D01*
D16*
X215900Y355600D03*
X215900Y381000D03*
D15*
X254000Y508000D02*
X203200Y558800D01*
X254000Y508000D02*
X254000Y454159D01*
X260830Y447329D01*
X260830Y425930D01*
X215900Y381000D01*
M02*
