G04 EAGLE Gerber RS-274X export*
G75*
%MOMM*%
%FSLAX34Y34*%
%LPD*%
%INSilkscreen Top*%
%IPPOS*%
%AMOC8*
5,1,8,0,0,1.08239X$1,22.5*%
G01*
G04 Define Apertures*
%ADD10C,0.406400*%
%ADD11C,0.203200*%
%ADD12C,0.101600*%
%ADD13C,0.152400*%
%ADD14C,0.127000*%
%ADD15C,0.254000*%
%ADD16R,0.300000X2.100000*%
G36*
X384378Y388518D02*
X385027Y388566D01*
X385654Y388646D01*
X386261Y388757D01*
X386846Y388900D01*
X387410Y389075D01*
X387952Y389282D01*
X388474Y389521D01*
X388969Y389790D01*
X389435Y390087D01*
X389870Y390413D01*
X390275Y390767D01*
X390651Y391151D01*
X390996Y391562D01*
X391311Y392002D01*
X391596Y392471D01*
X391849Y392966D01*
X392068Y393483D01*
X392254Y394023D01*
X392405Y394586D01*
X392524Y395172D01*
X392608Y395780D01*
X392658Y396411D01*
X392675Y397066D01*
X392658Y397714D01*
X392607Y398341D01*
X392522Y398946D01*
X392402Y399528D01*
X392249Y400089D01*
X392061Y400629D01*
X391839Y401146D01*
X391584Y401642D01*
X391296Y402112D01*
X390979Y402554D01*
X390632Y402969D01*
X390256Y403355D01*
X389850Y403712D01*
X389414Y404042D01*
X388950Y404343D01*
X388455Y404617D01*
X387936Y404860D01*
X387395Y405070D01*
X386833Y405248D01*
X386250Y405394D01*
X385646Y405507D01*
X385021Y405588D01*
X384375Y405637D01*
X383707Y405653D01*
X383038Y405637D01*
X382391Y405589D01*
X381767Y405509D01*
X381165Y405397D01*
X380586Y405253D01*
X380029Y405077D01*
X379495Y404869D01*
X378984Y404629D01*
X378499Y404358D01*
X378044Y404060D01*
X377618Y403732D01*
X377222Y403376D01*
X376856Y402991D01*
X376519Y402578D01*
X376213Y402136D01*
X375936Y401666D01*
X375690Y401171D01*
X375477Y400653D01*
X375296Y400114D01*
X375149Y399553D01*
X375034Y398970D01*
X374952Y398365D01*
X374903Y397739D01*
X374887Y397090D01*
X374896Y396591D01*
X374923Y396106D01*
X374969Y395635D01*
X375033Y395177D01*
X375115Y394734D01*
X375215Y394304D01*
X375334Y393888D01*
X375471Y393486D01*
X375626Y393098D01*
X375800Y392724D01*
X375991Y392364D01*
X376201Y392018D01*
X376430Y391686D01*
X376676Y391367D01*
X376941Y391063D01*
X377224Y390772D01*
X377523Y390497D01*
X377836Y390240D01*
X378164Y390001D01*
X378505Y389779D01*
X378861Y389575D01*
X379231Y389389D01*
X379615Y389221D01*
X380013Y389070D01*
X380426Y388937D01*
X380852Y388822D01*
X381293Y388724D01*
X381747Y388644D01*
X382216Y388582D01*
X382699Y388538D01*
X383196Y388511D01*
X383707Y388503D01*
X384378Y388518D01*
G37*
G36*
X419100Y419123D02*
X411923Y419123D01*
X411923Y424509D01*
X419100Y428999D01*
X419100Y431698D01*
X414823Y428879D01*
X411653Y426791D01*
X411552Y427271D01*
X411421Y427725D01*
X411259Y428152D01*
X411068Y428553D01*
X410938Y428771D01*
X410845Y428926D01*
X410593Y429274D01*
X410310Y429594D01*
X409997Y429888D01*
X409659Y430151D01*
X409302Y430379D01*
X408926Y430572D01*
X408531Y430730D01*
X408117Y430853D01*
X407683Y430941D01*
X407230Y430993D01*
X406758Y431011D01*
X406471Y431005D01*
X406192Y430986D01*
X405920Y430955D01*
X405657Y430911D01*
X405154Y430787D01*
X404684Y430614D01*
X404245Y430390D01*
X403838Y430117D01*
X403464Y429794D01*
X403121Y429422D01*
X402815Y429004D01*
X402549Y428544D01*
X402325Y428043D01*
X402141Y427501D01*
X401998Y426916D01*
X401896Y426290D01*
X401835Y425623D01*
X401814Y424914D01*
X401814Y416780D01*
X419100Y416780D01*
X419100Y419123D01*
G37*
G36*
X388427Y431468D02*
X388946Y431536D01*
X389433Y431649D01*
X389889Y431808D01*
X390314Y432011D01*
X390709Y432260D01*
X391073Y432554D01*
X391406Y432893D01*
X391703Y433274D01*
X391961Y433692D01*
X392179Y434147D01*
X392358Y434639D01*
X392497Y435168D01*
X392596Y435734D01*
X392656Y436338D01*
X392675Y436979D01*
X392669Y437299D01*
X392649Y437616D01*
X392615Y437929D01*
X392568Y438239D01*
X392434Y438849D01*
X392246Y439445D01*
X392008Y440017D01*
X391725Y440558D01*
X391395Y441066D01*
X391019Y441542D01*
X391384Y441924D01*
X391701Y442328D01*
X391969Y442752D01*
X392188Y443199D01*
X392358Y443666D01*
X392480Y444156D01*
X392553Y444666D01*
X392571Y444930D01*
X392577Y445198D01*
X392560Y445697D01*
X392510Y446152D01*
X392425Y446562D01*
X392307Y446928D01*
X390651Y446928D01*
X390737Y446627D01*
X390798Y446287D01*
X390835Y445909D01*
X390847Y445493D01*
X390829Y445152D01*
X390772Y444818D01*
X390732Y444676D01*
X390678Y444490D01*
X390547Y444168D01*
X390378Y443852D01*
X390171Y443542D01*
X389927Y443238D01*
X389645Y442941D01*
X388965Y443381D01*
X388273Y443789D01*
X388039Y443914D01*
X387571Y444164D01*
X386857Y444505D01*
X386132Y444814D01*
X385397Y445089D01*
X384650Y445332D01*
X383891Y445542D01*
X383364Y443763D01*
X384097Y443575D01*
X384801Y443365D01*
X385388Y443164D01*
X385474Y443134D01*
X386118Y442883D01*
X386732Y442610D01*
X387316Y442316D01*
X387870Y442001D01*
X388394Y441665D01*
X387759Y441121D01*
X387126Y440603D01*
X386493Y440113D01*
X385860Y439650D01*
X385229Y439214D01*
X384598Y438806D01*
X383969Y438425D01*
X383339Y438071D01*
X383063Y438738D01*
X382786Y439354D01*
X382508Y439918D01*
X382229Y440431D01*
X381950Y440892D01*
X381669Y441301D01*
X381388Y441659D01*
X381116Y441955D01*
X381107Y441966D01*
X380819Y442229D01*
X380522Y442457D01*
X380215Y442650D01*
X379898Y442808D01*
X379571Y442930D01*
X379234Y443018D01*
X378887Y443071D01*
X378530Y443088D01*
X378136Y443070D01*
X377764Y443017D01*
X377412Y442929D01*
X377083Y442804D01*
X376774Y442645D01*
X376488Y442450D01*
X376222Y442219D01*
X375979Y441953D01*
X375760Y441658D01*
X375571Y441341D01*
X375410Y441001D01*
X375279Y440639D01*
X375177Y440255D01*
X375104Y439848D01*
X375061Y439418D01*
X375046Y438966D01*
X375062Y438466D01*
X375109Y437994D01*
X375189Y437552D01*
X375299Y437140D01*
X375442Y436756D01*
X375615Y436402D01*
X375821Y436078D01*
X376058Y435783D01*
X376324Y435519D01*
X376616Y435291D01*
X376934Y435099D01*
X377277Y434941D01*
X377647Y434818D01*
X378042Y434730D01*
X378464Y434678D01*
X378911Y434660D01*
X379352Y434678D01*
X379815Y434734D01*
X380302Y434826D01*
X380812Y434954D01*
X381316Y435109D01*
X381784Y435277D01*
X382218Y435458D01*
X382616Y435654D01*
X382853Y435144D01*
X383103Y434668D01*
X383365Y434224D01*
X383639Y433813D01*
X383926Y433435D01*
X384224Y433090D01*
X384535Y432777D01*
X384858Y432498D01*
X385193Y432251D01*
X385540Y432038D01*
X385899Y431857D01*
X386271Y431709D01*
X386654Y431594D01*
X387050Y431512D01*
X387458Y431462D01*
X387879Y431446D01*
X388427Y431468D01*
G37*
G36*
X392430Y356810D02*
X385695Y356810D01*
X385695Y361889D01*
X385672Y362559D01*
X385604Y363192D01*
X385491Y363789D01*
X385333Y364351D01*
X385129Y364876D01*
X384881Y365366D01*
X384587Y365820D01*
X384247Y366238D01*
X383870Y366614D01*
X383461Y366939D01*
X383020Y367214D01*
X382548Y367439D01*
X382045Y367614D01*
X381510Y367739D01*
X381231Y367783D01*
X380944Y367814D01*
X380649Y367833D01*
X380346Y367839D01*
X380041Y367833D01*
X379744Y367815D01*
X379456Y367783D01*
X379177Y367740D01*
X378906Y367684D01*
X378644Y367615D01*
X378147Y367441D01*
X377684Y367216D01*
X377257Y366942D01*
X376864Y366618D01*
X376506Y366245D01*
X376187Y365825D01*
X375910Y365365D01*
X375676Y364864D01*
X375485Y364322D01*
X375336Y363738D01*
X375229Y363114D01*
X375166Y362449D01*
X375144Y361742D01*
X375144Y354467D01*
X392430Y354467D01*
X392430Y356810D01*
G37*
%LPC*%
G36*
X383304Y390889D02*
X382911Y390908D01*
X382530Y390939D01*
X382161Y390984D01*
X381803Y391041D01*
X381456Y391110D01*
X381121Y391192D01*
X380797Y391287D01*
X380484Y391395D01*
X380183Y391515D01*
X379894Y391648D01*
X379615Y391793D01*
X379348Y391952D01*
X379093Y392122D01*
X378849Y392306D01*
X378616Y392502D01*
X378396Y392710D01*
X378191Y392928D01*
X377999Y393157D01*
X377822Y393396D01*
X377659Y393646D01*
X377510Y393906D01*
X377375Y394177D01*
X377254Y394459D01*
X377148Y394751D01*
X377056Y395053D01*
X376978Y395366D01*
X376914Y395690D01*
X376864Y396024D01*
X376829Y396369D01*
X376808Y396724D01*
X376801Y397090D01*
X376808Y397453D01*
X376829Y397805D01*
X376865Y398147D01*
X376916Y398479D01*
X376980Y398800D01*
X377059Y399111D01*
X377153Y399412D01*
X377261Y399702D01*
X377383Y399981D01*
X377519Y400251D01*
X377670Y400509D01*
X377836Y400758D01*
X378015Y400996D01*
X378209Y401224D01*
X378418Y401441D01*
X378641Y401648D01*
X378876Y401843D01*
X379122Y402026D01*
X379380Y402196D01*
X379647Y402354D01*
X379926Y402498D01*
X380216Y402631D01*
X380516Y402751D01*
X380828Y402858D01*
X381150Y402952D01*
X381483Y403034D01*
X381826Y403103D01*
X382181Y403160D01*
X382546Y403204D01*
X382922Y403236D01*
X383310Y403255D01*
X383707Y403261D01*
X384123Y403255D01*
X384527Y403236D01*
X384919Y403205D01*
X385299Y403161D01*
X385667Y403105D01*
X386023Y403036D01*
X386367Y402955D01*
X386699Y402861D01*
X387020Y402754D01*
X387328Y402636D01*
X387624Y402504D01*
X387909Y402360D01*
X388181Y402204D01*
X388442Y402035D01*
X388691Y401854D01*
X388927Y401660D01*
X389151Y401454D01*
X389360Y401238D01*
X389555Y401011D01*
X389735Y400772D01*
X389901Y400523D01*
X390053Y400263D01*
X390190Y399993D01*
X390312Y399711D01*
X390420Y399418D01*
X390514Y399115D01*
X390594Y398801D01*
X390658Y398475D01*
X390709Y398139D01*
X390745Y397792D01*
X390767Y397434D01*
X390774Y397066D01*
X390766Y396707D01*
X390744Y396359D01*
X390707Y396020D01*
X390655Y395691D01*
X390588Y395372D01*
X390506Y395064D01*
X390409Y394765D01*
X390297Y394476D01*
X390170Y394196D01*
X390029Y393927D01*
X389872Y393668D01*
X389701Y393419D01*
X389514Y393179D01*
X389313Y392950D01*
X389097Y392730D01*
X388866Y392520D01*
X388622Y392322D01*
X388368Y392136D01*
X388104Y391964D01*
X387828Y391804D01*
X387543Y391657D01*
X387246Y391522D01*
X386940Y391401D01*
X386623Y391292D01*
X386295Y391196D01*
X385957Y391113D01*
X385608Y391042D01*
X385249Y390985D01*
X384879Y390940D01*
X384499Y390908D01*
X384109Y390889D01*
X383707Y390883D01*
X383304Y390889D01*
G37*
%LPD*%
G36*
X419100Y352072D02*
X414046Y354059D01*
X414046Y361935D01*
X419100Y363911D01*
X419100Y366303D01*
X401814Y359359D01*
X401814Y356697D01*
X419100Y349643D01*
X419100Y352072D01*
G37*
G36*
X392430Y373303D02*
X380947Y373303D01*
X378898Y373242D01*
X377708Y373180D01*
X392430Y382430D01*
X392430Y385252D01*
X375144Y385252D01*
X375144Y383142D01*
X386480Y383142D01*
X387103Y383151D01*
X387891Y383179D01*
X389964Y383289D01*
X375144Y373941D01*
X375144Y371217D01*
X392430Y371217D01*
X392430Y373303D01*
G37*
G36*
X419100Y348522D02*
X417186Y348522D01*
X417186Y337248D01*
X411163Y337248D01*
X411163Y347283D01*
X409273Y347283D01*
X409273Y337248D01*
X403728Y337248D01*
X403728Y348019D01*
X401814Y348019D01*
X401814Y334905D01*
X419100Y334905D01*
X419100Y348522D01*
G37*
G36*
X419100Y413647D02*
X417186Y413647D01*
X417186Y402373D01*
X411163Y402373D01*
X411163Y412408D01*
X409273Y412408D01*
X409273Y402373D01*
X403728Y402373D01*
X403728Y413144D01*
X401814Y413144D01*
X401814Y400030D01*
X419100Y400030D01*
X419100Y413647D01*
G37*
G36*
X392430Y321904D02*
X384419Y321904D01*
X384419Y331253D01*
X392430Y331253D01*
X392430Y333596D01*
X375144Y333596D01*
X375144Y331253D01*
X382456Y331253D01*
X382456Y321904D01*
X375144Y321904D01*
X375144Y319561D01*
X392430Y319561D01*
X392430Y321904D01*
G37*
G36*
X419100Y384217D02*
X411089Y384217D01*
X411089Y393565D01*
X419100Y393565D01*
X419100Y395908D01*
X401814Y395908D01*
X401814Y393565D01*
X409126Y393565D01*
X409126Y384217D01*
X401814Y384217D01*
X401814Y381874D01*
X419100Y381874D01*
X419100Y384217D01*
G37*
G36*
X388815Y408131D02*
X389313Y408319D01*
X389776Y408549D01*
X390205Y408820D01*
X390600Y409132D01*
X390960Y409486D01*
X391286Y409882D01*
X391577Y410319D01*
X391835Y410797D01*
X392058Y411317D01*
X392246Y411879D01*
X392401Y412482D01*
X392521Y413126D01*
X392607Y413812D01*
X392658Y414540D01*
X392675Y415309D01*
X392655Y416134D01*
X392593Y416912D01*
X392491Y417643D01*
X392347Y418325D01*
X392163Y418960D01*
X391937Y419547D01*
X391670Y420086D01*
X391363Y420578D01*
X391018Y421016D01*
X390639Y421396D01*
X390437Y421564D01*
X390226Y421718D01*
X390007Y421857D01*
X389780Y421981D01*
X389544Y422091D01*
X389300Y422186D01*
X389047Y422266D01*
X388786Y422332D01*
X388517Y422383D01*
X388239Y422419D01*
X387953Y422441D01*
X387658Y422449D01*
X387201Y422432D01*
X386774Y422383D01*
X386379Y422300D01*
X386014Y422185D01*
X385676Y422040D01*
X385361Y421871D01*
X385068Y421675D01*
X384799Y421455D01*
X384552Y421212D01*
X384324Y420947D01*
X384116Y420663D01*
X383928Y420357D01*
X383595Y419702D01*
X383309Y419001D01*
X383063Y418261D01*
X382855Y417486D01*
X382481Y415898D01*
X382227Y414806D01*
X381995Y413913D01*
X381782Y413218D01*
X381591Y412720D01*
X381400Y412345D01*
X381189Y412016D01*
X380959Y411734D01*
X380708Y411499D01*
X380430Y411314D01*
X380278Y411242D01*
X380117Y411182D01*
X379948Y411136D01*
X379771Y411103D01*
X379584Y411083D01*
X379389Y411076D01*
X379059Y411093D01*
X378750Y411144D01*
X378463Y411230D01*
X378196Y411349D01*
X377950Y411503D01*
X377726Y411690D01*
X377523Y411912D01*
X377340Y412168D01*
X377179Y412456D01*
X377040Y412775D01*
X376922Y413125D01*
X376825Y413505D01*
X376750Y413916D01*
X376696Y414358D01*
X376664Y414830D01*
X376653Y415333D01*
X376663Y415793D01*
X376692Y416227D01*
X376740Y416635D01*
X376808Y417017D01*
X376895Y417374D01*
X377002Y417705D01*
X377128Y418010D01*
X377273Y418290D01*
X377440Y418546D01*
X377630Y418781D01*
X377844Y418994D01*
X378081Y419185D01*
X378342Y419356D01*
X378627Y419504D01*
X378935Y419632D01*
X379266Y419737D01*
X378862Y422044D01*
X378339Y421873D01*
X377855Y421673D01*
X377412Y421444D01*
X377008Y421185D01*
X376643Y420898D01*
X376319Y420581D01*
X376034Y420235D01*
X375788Y419860D01*
X375577Y419449D01*
X375394Y418995D01*
X375239Y418497D01*
X375112Y417956D01*
X375013Y417371D01*
X374943Y416743D01*
X374901Y416072D01*
X374887Y415358D01*
X374905Y414589D01*
X374962Y413867D01*
X375056Y413190D01*
X375187Y412559D01*
X375356Y411974D01*
X375563Y411435D01*
X375807Y410941D01*
X376089Y410493D01*
X376405Y410095D01*
X376754Y409750D01*
X377134Y409458D01*
X377546Y409219D01*
X377990Y409033D01*
X378223Y408960D01*
X378465Y408901D01*
X378715Y408854D01*
X378973Y408821D01*
X379238Y408801D01*
X379512Y408794D01*
X379983Y408815D01*
X380426Y408876D01*
X380841Y408977D01*
X381229Y409119D01*
X381592Y409300D01*
X381930Y409517D01*
X382245Y409769D01*
X382536Y410058D01*
X382808Y410393D01*
X383068Y410783D01*
X383314Y411230D01*
X383548Y411733D01*
X383775Y412325D01*
X384002Y413041D01*
X384229Y413880D01*
X384456Y414843D01*
X384959Y416989D01*
X385082Y417457D01*
X385219Y417891D01*
X385371Y418291D01*
X385535Y418658D01*
X385719Y418988D01*
X385925Y419279D01*
X386154Y419531D01*
X386406Y419744D01*
X386690Y419913D01*
X387014Y420033D01*
X387190Y420076D01*
X387377Y420106D01*
X387574Y420124D01*
X387780Y420130D01*
X388146Y420111D01*
X388489Y420053D01*
X388810Y419957D01*
X389107Y419822D01*
X389382Y419648D01*
X389633Y419437D01*
X389862Y419186D01*
X390068Y418897D01*
X390251Y418573D01*
X390409Y418216D01*
X390543Y417827D01*
X390653Y417405D01*
X390738Y416951D01*
X390799Y416465D01*
X390835Y415946D01*
X390847Y415395D01*
X390836Y414860D01*
X390802Y414354D01*
X390745Y413877D01*
X390665Y413429D01*
X390562Y413009D01*
X390437Y412618D01*
X390289Y412256D01*
X390118Y411923D01*
X389922Y411618D01*
X389701Y411340D01*
X389454Y411090D01*
X389181Y410868D01*
X388882Y410673D01*
X388557Y410506D01*
X388206Y410366D01*
X387830Y410254D01*
X388283Y407985D01*
X388815Y408131D01*
G37*
G36*
X419100Y321904D02*
X412095Y321904D01*
X412095Y331547D01*
X410157Y331547D01*
X410157Y321904D01*
X403728Y321904D01*
X403728Y331841D01*
X401814Y331841D01*
X401814Y319561D01*
X419100Y319561D01*
X419100Y321904D01*
G37*
G36*
X385265Y342858D02*
X392430Y342858D01*
X392430Y345189D01*
X385265Y345189D01*
X375144Y351862D01*
X375144Y349286D01*
X383376Y344048D01*
X375144Y338785D01*
X375144Y336208D01*
X385265Y342858D01*
G37*
G36*
X403728Y370971D02*
X419100Y370971D01*
X419100Y373302D01*
X403728Y373302D01*
X403728Y379240D01*
X401814Y379240D01*
X401814Y365033D01*
X403728Y365033D01*
X403728Y370971D01*
G37*
%LPC*%
G36*
X403691Y419123D02*
X403691Y424680D01*
X403704Y425148D01*
X403741Y425587D01*
X403803Y425998D01*
X403889Y426381D01*
X404000Y426736D01*
X404136Y427062D01*
X404297Y427361D01*
X404483Y427631D01*
X404692Y427871D01*
X404923Y428079D01*
X405177Y428255D01*
X405453Y428399D01*
X405752Y428511D01*
X406073Y428591D01*
X406417Y428639D01*
X406783Y428655D01*
X407162Y428639D01*
X407519Y428592D01*
X407854Y428513D01*
X408168Y428402D01*
X408460Y428260D01*
X408730Y428086D01*
X408979Y427880D01*
X409206Y427643D01*
X409409Y427377D01*
X409584Y427085D01*
X409733Y426766D01*
X409855Y426421D01*
X409949Y426050D01*
X410017Y425652D01*
X410057Y425229D01*
X410071Y424779D01*
X410071Y419123D01*
X403691Y419123D01*
G37*
G36*
X377021Y356810D02*
X377021Y361460D01*
X377034Y361947D01*
X377074Y362403D01*
X377139Y362828D01*
X377231Y363221D01*
X377348Y363582D01*
X377492Y363912D01*
X377662Y364211D01*
X377859Y364478D01*
X378081Y364714D01*
X378330Y364918D01*
X378604Y365091D01*
X378905Y365233D01*
X379232Y365343D01*
X379586Y365421D01*
X379965Y365468D01*
X380371Y365484D01*
X380791Y365469D01*
X381184Y365423D01*
X381550Y365346D01*
X381889Y365239D01*
X382201Y365101D01*
X382486Y364932D01*
X382744Y364733D01*
X382974Y364503D01*
X383178Y364242D01*
X383354Y363951D01*
X383503Y363628D01*
X383625Y363276D01*
X383720Y362892D01*
X383788Y362478D01*
X383829Y362034D01*
X383842Y361558D01*
X383842Y356810D01*
X377021Y356810D01*
G37*
G36*
X387551Y433518D02*
X387257Y433552D01*
X386973Y433609D01*
X386699Y433688D01*
X386434Y433790D01*
X386179Y433914D01*
X385934Y434061D01*
X385698Y434231D01*
X385472Y434423D01*
X385256Y434638D01*
X385049Y434875D01*
X384852Y435135D01*
X384665Y435418D01*
X384487Y435724D01*
X384320Y436052D01*
X384161Y436402D01*
X384847Y436788D01*
X385538Y437203D01*
X386232Y437648D01*
X386931Y438123D01*
X387634Y438627D01*
X388341Y439160D01*
X389052Y439723D01*
X389768Y440316D01*
X390063Y439977D01*
X390321Y439610D01*
X390544Y439216D01*
X390731Y438794D01*
X390879Y438359D01*
X390984Y437923D01*
X391047Y437488D01*
X391068Y437052D01*
X391055Y436652D01*
X391014Y436274D01*
X390947Y435917D01*
X390852Y435582D01*
X390730Y435268D01*
X390582Y434976D01*
X390406Y434706D01*
X390203Y434458D01*
X389977Y434235D01*
X389732Y434042D01*
X389468Y433878D01*
X389184Y433745D01*
X388880Y433641D01*
X388558Y433566D01*
X388215Y433522D01*
X387854Y433507D01*
X387551Y433518D01*
G37*
G36*
X406538Y356979D02*
X405087Y357507D01*
X403924Y357887D01*
X403581Y357997D01*
X404599Y358329D01*
X405611Y358672D01*
X406513Y359016D01*
X412218Y361236D01*
X412218Y354771D01*
X406538Y356979D01*
G37*
G36*
X378639Y436547D02*
X378383Y436575D01*
X378141Y436623D01*
X377915Y436690D01*
X377704Y436777D01*
X377509Y436882D01*
X377328Y437007D01*
X377162Y437150D01*
X377014Y437313D01*
X376886Y437492D01*
X376777Y437690D01*
X376689Y437905D01*
X376619Y438138D01*
X376570Y438388D01*
X376540Y438656D01*
X376531Y438942D01*
X376539Y439198D01*
X376566Y439442D01*
X376609Y439671D01*
X376670Y439886D01*
X376749Y440088D01*
X376845Y440276D01*
X376958Y440450D01*
X377089Y440610D01*
X377233Y440754D01*
X377388Y440878D01*
X377553Y440984D01*
X377728Y441070D01*
X377914Y441137D01*
X378109Y441185D01*
X378315Y441214D01*
X378530Y441223D01*
X378855Y441199D01*
X379165Y441127D01*
X379462Y441006D01*
X379745Y440837D01*
X380016Y440621D01*
X380279Y440359D01*
X380532Y440050D01*
X380775Y439696D01*
X381025Y439266D01*
X381297Y438728D01*
X381590Y438085D01*
X381904Y437334D01*
X381508Y437148D01*
X381119Y436986D01*
X380735Y436849D01*
X380358Y436736D01*
X379987Y436649D01*
X379622Y436587D01*
X379263Y436550D01*
X378911Y436537D01*
X378639Y436547D01*
G37*
%LPD*%
G36*
X411048Y124737D02*
X411697Y124785D01*
X412324Y124864D01*
X412931Y124976D01*
X413516Y125119D01*
X414080Y125294D01*
X414622Y125501D01*
X415144Y125740D01*
X415639Y126008D01*
X416105Y126306D01*
X416540Y126632D01*
X416945Y126986D01*
X417321Y127369D01*
X417666Y127781D01*
X417981Y128221D01*
X418266Y128690D01*
X418519Y129184D01*
X418738Y129702D01*
X418924Y130242D01*
X419075Y130805D01*
X419194Y131390D01*
X419278Y131999D01*
X419328Y132630D01*
X419345Y133284D01*
X419328Y133933D01*
X419277Y134559D01*
X419192Y135164D01*
X419072Y135747D01*
X418919Y136308D01*
X418731Y136847D01*
X418509Y137365D01*
X418254Y137860D01*
X417966Y138331D01*
X417649Y138773D01*
X417302Y139187D01*
X416926Y139573D01*
X416520Y139931D01*
X416084Y140261D01*
X415620Y140562D01*
X415125Y140835D01*
X414606Y141078D01*
X414065Y141289D01*
X413503Y141467D01*
X412920Y141613D01*
X412316Y141726D01*
X411691Y141807D01*
X411045Y141856D01*
X410377Y141872D01*
X409708Y141856D01*
X409061Y141808D01*
X408437Y141728D01*
X407835Y141616D01*
X407256Y141472D01*
X406699Y141296D01*
X406165Y141088D01*
X405654Y140848D01*
X405169Y140577D01*
X404714Y140278D01*
X404288Y139951D01*
X403892Y139595D01*
X403526Y139210D01*
X403189Y138797D01*
X402883Y138355D01*
X402606Y137885D01*
X402360Y137389D01*
X402147Y136872D01*
X401966Y136333D01*
X401819Y135772D01*
X401704Y135189D01*
X401622Y134584D01*
X401573Y133957D01*
X401557Y133309D01*
X401566Y132810D01*
X401593Y132325D01*
X401639Y131853D01*
X401703Y131396D01*
X401785Y130952D01*
X401885Y130523D01*
X402004Y130107D01*
X402141Y129705D01*
X402296Y129317D01*
X402470Y128943D01*
X402661Y128583D01*
X402871Y128237D01*
X403100Y127904D01*
X403346Y127586D01*
X403611Y127281D01*
X403894Y126991D01*
X404193Y126716D01*
X404506Y126459D01*
X404834Y126220D01*
X405175Y125998D01*
X405531Y125794D01*
X405901Y125608D01*
X406285Y125439D01*
X406683Y125289D01*
X407096Y125156D01*
X407522Y125040D01*
X407963Y124943D01*
X408417Y124863D01*
X408886Y124801D01*
X409369Y124757D01*
X409866Y124730D01*
X410377Y124721D01*
X411048Y124737D01*
G37*
G36*
X419100Y106933D02*
X419083Y107549D01*
X419033Y108147D01*
X418950Y108727D01*
X418833Y109288D01*
X418683Y109831D01*
X418500Y110355D01*
X418283Y110861D01*
X418033Y111349D01*
X417751Y111814D01*
X417440Y112252D01*
X417100Y112662D01*
X416731Y113045D01*
X416332Y113401D01*
X415904Y113730D01*
X415446Y114031D01*
X414960Y114306D01*
X414448Y114550D01*
X413915Y114762D01*
X413361Y114941D01*
X412787Y115088D01*
X412191Y115202D01*
X411575Y115283D01*
X410937Y115332D01*
X410279Y115348D01*
X409779Y115339D01*
X409293Y115311D01*
X408822Y115265D01*
X408365Y115199D01*
X407923Y115115D01*
X407495Y115013D01*
X407082Y114892D01*
X406683Y114752D01*
X406299Y114593D01*
X405929Y114416D01*
X405574Y114221D01*
X405234Y114006D01*
X404908Y113773D01*
X404596Y113522D01*
X404299Y113251D01*
X404016Y112962D01*
X403750Y112656D01*
X403500Y112334D01*
X403268Y111997D01*
X403053Y111644D01*
X402855Y111275D01*
X402675Y110891D01*
X402511Y110491D01*
X402365Y110075D01*
X402236Y109643D01*
X402124Y109196D01*
X402029Y108733D01*
X401952Y108255D01*
X401892Y107761D01*
X401849Y107251D01*
X401823Y106725D01*
X401814Y106184D01*
X401814Y100467D01*
X419100Y100467D01*
X419100Y106933D01*
G37*
%LPC*%
G36*
X409974Y127108D02*
X409581Y127127D01*
X409200Y127158D01*
X408831Y127202D01*
X408473Y127259D01*
X408126Y127329D01*
X407791Y127411D01*
X407467Y127506D01*
X407154Y127614D01*
X406853Y127734D01*
X406564Y127867D01*
X406285Y128012D01*
X406018Y128170D01*
X405763Y128341D01*
X405519Y128525D01*
X405286Y128721D01*
X405066Y128928D01*
X404861Y129147D01*
X404669Y129375D01*
X404492Y129615D01*
X404329Y129865D01*
X404180Y130125D01*
X404045Y130396D01*
X403924Y130677D01*
X403818Y130969D01*
X403726Y131272D01*
X403648Y131585D01*
X403584Y131909D01*
X403534Y132243D01*
X403499Y132588D01*
X403478Y132943D01*
X403471Y133309D01*
X403478Y133672D01*
X403499Y134024D01*
X403535Y134366D01*
X403586Y134698D01*
X403650Y135019D01*
X403729Y135330D01*
X403823Y135630D01*
X403931Y135920D01*
X404053Y136200D01*
X404189Y136469D01*
X404340Y136728D01*
X404506Y136977D01*
X404685Y137215D01*
X404879Y137442D01*
X405088Y137660D01*
X405311Y137866D01*
X405546Y138062D01*
X405792Y138245D01*
X406050Y138415D01*
X406317Y138572D01*
X406596Y138717D01*
X406886Y138850D01*
X407186Y138969D01*
X407498Y139076D01*
X407820Y139171D01*
X408153Y139253D01*
X408496Y139322D01*
X408851Y139379D01*
X409216Y139423D01*
X409592Y139455D01*
X409980Y139473D01*
X410377Y139480D01*
X410793Y139473D01*
X411197Y139455D01*
X411589Y139423D01*
X411969Y139380D01*
X412337Y139323D01*
X412693Y139255D01*
X413037Y139173D01*
X413369Y139079D01*
X413690Y138973D01*
X413998Y138854D01*
X414294Y138723D01*
X414579Y138579D01*
X414851Y138423D01*
X415112Y138254D01*
X415361Y138073D01*
X415597Y137879D01*
X415821Y137673D01*
X416030Y137457D01*
X416225Y137229D01*
X416405Y136991D01*
X416571Y136742D01*
X416723Y136482D01*
X416860Y136211D01*
X416982Y135930D01*
X417090Y135637D01*
X417184Y135334D01*
X417264Y135019D01*
X417328Y134694D01*
X417379Y134358D01*
X417415Y134011D01*
X417437Y133653D01*
X417444Y133284D01*
X417436Y132926D01*
X417414Y132577D01*
X417377Y132239D01*
X417325Y131910D01*
X417258Y131591D01*
X417176Y131282D01*
X417079Y130983D01*
X416967Y130694D01*
X416840Y130415D01*
X416699Y130146D01*
X416542Y129887D01*
X416371Y129637D01*
X416184Y129398D01*
X415983Y129168D01*
X415767Y128949D01*
X415536Y128739D01*
X415292Y128541D01*
X415038Y128355D01*
X414774Y128182D01*
X414498Y128023D01*
X414213Y127875D01*
X413916Y127741D01*
X413610Y127619D01*
X413293Y127511D01*
X412965Y127415D01*
X412627Y127332D01*
X412278Y127261D01*
X411919Y127204D01*
X411549Y127159D01*
X411169Y127127D01*
X410779Y127108D01*
X410377Y127101D01*
X409974Y127108D01*
G37*
G36*
X403691Y102810D02*
X403691Y106135D01*
X403698Y106546D01*
X403718Y106945D01*
X403751Y107331D01*
X403797Y107705D01*
X403856Y108067D01*
X403929Y108416D01*
X404014Y108753D01*
X404113Y109078D01*
X404225Y109390D01*
X404350Y109690D01*
X404489Y109978D01*
X404640Y110254D01*
X404805Y110517D01*
X404983Y110768D01*
X405174Y111006D01*
X405378Y111233D01*
X405595Y111446D01*
X405824Y111645D01*
X406064Y111831D01*
X406317Y112003D01*
X406582Y112161D01*
X406858Y112305D01*
X407147Y112436D01*
X407447Y112553D01*
X407759Y112656D01*
X408083Y112745D01*
X408420Y112821D01*
X408768Y112883D01*
X409128Y112931D01*
X409500Y112965D01*
X409883Y112986D01*
X410279Y112993D01*
X410804Y112981D01*
X411311Y112945D01*
X411801Y112884D01*
X412273Y112800D01*
X412727Y112691D01*
X413164Y112558D01*
X413583Y112401D01*
X413984Y112220D01*
X414365Y112016D01*
X414723Y111792D01*
X415058Y111546D01*
X415371Y111280D01*
X415660Y110993D01*
X415926Y110685D01*
X416169Y110356D01*
X416389Y110006D01*
X416584Y109638D01*
X416754Y109256D01*
X416897Y108860D01*
X417014Y108449D01*
X417106Y108024D01*
X417171Y107585D01*
X417210Y107131D01*
X417223Y106663D01*
X417223Y102810D01*
X403691Y102810D01*
G37*
%LPD*%
G36*
X419100Y65978D02*
X414046Y67966D01*
X414046Y75842D01*
X419100Y77817D01*
X419100Y80209D01*
X401814Y73265D01*
X401814Y70603D01*
X419100Y63549D01*
X419100Y65978D01*
G37*
G36*
X413319Y82202D02*
X413802Y82243D01*
X414267Y82311D01*
X414714Y82406D01*
X415144Y82529D01*
X415556Y82678D01*
X415951Y82855D01*
X416327Y83059D01*
X416685Y83288D01*
X417020Y83539D01*
X417333Y83813D01*
X417625Y84108D01*
X417895Y84426D01*
X418142Y84766D01*
X418368Y85128D01*
X418573Y85513D01*
X418754Y85917D01*
X418911Y86338D01*
X419043Y86776D01*
X419152Y87231D01*
X419237Y87702D01*
X419297Y88191D01*
X419333Y88696D01*
X419345Y89218D01*
X419333Y89761D01*
X419295Y90286D01*
X419232Y90792D01*
X419144Y91281D01*
X419032Y91751D01*
X418893Y92203D01*
X418730Y92636D01*
X418542Y93052D01*
X418330Y93447D01*
X418095Y93818D01*
X417838Y94167D01*
X417559Y94493D01*
X417257Y94796D01*
X416933Y95076D01*
X416586Y95333D01*
X416217Y95567D01*
X415828Y95775D01*
X415420Y95956D01*
X414995Y96109D01*
X414552Y96234D01*
X414090Y96331D01*
X413611Y96401D01*
X413113Y96442D01*
X412598Y96456D01*
X401814Y96456D01*
X401814Y94125D01*
X412463Y94125D01*
X413055Y94105D01*
X413610Y94044D01*
X414129Y93943D01*
X414611Y93802D01*
X415057Y93620D01*
X415466Y93397D01*
X415838Y93134D01*
X416174Y92831D01*
X416472Y92491D01*
X416730Y92119D01*
X416948Y91714D01*
X417126Y91277D01*
X417265Y90808D01*
X417364Y90306D01*
X417424Y89772D01*
X417444Y89206D01*
X417425Y88655D01*
X417367Y88138D01*
X417271Y87654D01*
X417137Y87203D01*
X416965Y86786D01*
X416754Y86402D01*
X416505Y86051D01*
X416217Y85734D01*
X415893Y85452D01*
X415532Y85208D01*
X415136Y85001D01*
X414705Y84832D01*
X414238Y84701D01*
X413735Y84607D01*
X413197Y84550D01*
X412622Y84532D01*
X401814Y84532D01*
X401814Y82188D01*
X412819Y82188D01*
X413319Y82202D01*
G37*
G36*
X419100Y168528D02*
X411543Y173828D01*
X419100Y179017D01*
X419100Y181606D01*
X410034Y175189D01*
X401814Y181103D01*
X401814Y178514D01*
X408599Y173840D01*
X401814Y169031D01*
X401814Y166442D01*
X410120Y172515D01*
X419100Y165939D01*
X419100Y168528D01*
G37*
G36*
X419100Y154435D02*
X412095Y154435D01*
X412095Y164078D01*
X410157Y164078D01*
X410157Y154435D01*
X403728Y154435D01*
X403728Y164373D01*
X401814Y164373D01*
X401814Y152092D01*
X419100Y152092D01*
X419100Y154435D01*
G37*
G36*
X419100Y121224D02*
X401814Y121224D01*
X401814Y118881D01*
X419100Y118881D01*
X419100Y121224D01*
G37*
%LPC*%
G36*
X406538Y70885D02*
X405087Y71413D01*
X403924Y71793D01*
X403581Y71904D01*
X404599Y72235D01*
X405611Y72578D01*
X406513Y72922D01*
X412218Y75142D01*
X412218Y68677D01*
X406538Y70885D01*
G37*
%LPD*%
G36*
X345948Y583741D02*
X343493Y583741D01*
X343493Y585583D01*
X345948Y587119D01*
X345948Y588042D01*
X344485Y587078D01*
X343401Y586363D01*
X343321Y586683D01*
X343201Y586966D01*
X343151Y587041D01*
X343038Y587213D01*
X342834Y587423D01*
X342597Y587591D01*
X342333Y587711D01*
X342043Y587783D01*
X341727Y587807D01*
X341533Y587798D01*
X341350Y587773D01*
X341178Y587730D01*
X341017Y587671D01*
X340867Y587595D01*
X340728Y587501D01*
X340600Y587391D01*
X340483Y587263D01*
X340378Y587121D01*
X340287Y586963D01*
X340210Y586792D01*
X340147Y586606D01*
X340098Y586406D01*
X340064Y586192D01*
X340043Y585964D01*
X340036Y585721D01*
X340036Y582939D01*
X345948Y582939D01*
X345948Y583741D01*
G37*
G36*
X345948Y553559D02*
X342004Y553559D01*
X341211Y553542D01*
X340745Y553530D01*
X341206Y553668D01*
X341920Y553903D01*
X345948Y555451D01*
X345948Y556014D01*
X341920Y557541D01*
X341414Y557715D01*
X340745Y557910D01*
X341362Y557882D01*
X342004Y557873D01*
X345948Y557873D01*
X345948Y558594D01*
X340036Y558594D01*
X340036Y557566D01*
X344135Y556022D01*
X344565Y555877D01*
X345075Y555737D01*
X344666Y555634D01*
X344135Y555472D01*
X340036Y553899D01*
X340036Y552846D01*
X345948Y552846D01*
X345948Y553559D01*
G37*
G36*
X343419Y559751D02*
X343843Y559818D01*
X344236Y559929D01*
X344599Y560084D01*
X344926Y560281D01*
X345212Y560517D01*
X345458Y560794D01*
X345663Y561110D01*
X345824Y561461D01*
X345940Y561845D01*
X346009Y562261D01*
X346032Y562708D01*
X346016Y563100D01*
X345966Y563477D01*
X345884Y563839D01*
X345770Y564188D01*
X345625Y564515D01*
X345453Y564816D01*
X345255Y565091D01*
X345029Y565339D01*
X342990Y565339D01*
X342990Y562834D01*
X343661Y562834D01*
X343661Y564601D01*
X344727Y564601D01*
X344870Y564434D01*
X344998Y564243D01*
X345109Y564028D01*
X345205Y563789D01*
X345282Y563533D01*
X345337Y563268D01*
X345371Y562993D01*
X345382Y562708D01*
X345371Y562461D01*
X345341Y562228D01*
X345290Y562009D01*
X345219Y561803D01*
X345128Y561611D01*
X345017Y561433D01*
X344885Y561269D01*
X344733Y561118D01*
X344564Y560983D01*
X344380Y560867D01*
X344181Y560768D01*
X343967Y560687D01*
X343738Y560624D01*
X343495Y560579D01*
X343237Y560552D01*
X342965Y560543D01*
X342691Y560552D01*
X342434Y560577D01*
X342192Y560619D01*
X341966Y560678D01*
X341756Y560755D01*
X341562Y560848D01*
X341384Y560958D01*
X341221Y561084D01*
X341076Y561227D01*
X340950Y561385D01*
X340844Y561558D01*
X340757Y561746D01*
X340689Y561950D01*
X340641Y562168D01*
X340612Y562401D01*
X340602Y562650D01*
X340617Y562966D01*
X340660Y563254D01*
X340732Y563516D01*
X340833Y563751D01*
X340965Y563961D01*
X341132Y564146D01*
X341333Y564308D01*
X341567Y564446D01*
X341341Y565209D01*
X341000Y565026D01*
X340710Y564807D01*
X340470Y564554D01*
X340279Y564265D01*
X340134Y563936D01*
X340030Y563560D01*
X339968Y563138D01*
X339948Y562671D01*
X339960Y562331D01*
X339997Y562011D01*
X340058Y561711D01*
X340145Y561430D01*
X340256Y561168D01*
X340391Y560926D01*
X340551Y560704D01*
X340736Y560501D01*
X340944Y560320D01*
X341171Y560163D01*
X341420Y560031D01*
X341688Y559922D01*
X341977Y559838D01*
X342286Y559777D01*
X342615Y559741D01*
X342965Y559729D01*
X343419Y559751D01*
G37*
G36*
X343421Y571223D02*
X343845Y571288D01*
X344238Y571394D01*
X344599Y571544D01*
X344924Y571734D01*
X345210Y571964D01*
X345455Y572232D01*
X345661Y572539D01*
X345823Y572880D01*
X345939Y573251D01*
X346009Y573653D01*
X346032Y574085D01*
X346026Y574300D01*
X346007Y574508D01*
X345932Y574905D01*
X345808Y575275D01*
X345633Y575618D01*
X345411Y575930D01*
X345143Y576205D01*
X344830Y576443D01*
X344471Y576644D01*
X344144Y575990D01*
X344432Y575824D01*
X344682Y575639D01*
X344893Y575434D01*
X345066Y575210D01*
X345200Y574967D01*
X345296Y574705D01*
X345354Y574423D01*
X345373Y574123D01*
X345363Y573886D01*
X345332Y573663D01*
X345280Y573452D01*
X345208Y573253D01*
X345115Y573067D01*
X345001Y572894D01*
X344867Y572733D01*
X344712Y572585D01*
X344540Y572451D01*
X344355Y572336D01*
X344157Y572238D01*
X343945Y572158D01*
X343720Y572096D01*
X343481Y572052D01*
X343230Y572025D01*
X342965Y572016D01*
X342697Y572025D01*
X342444Y572050D01*
X342206Y572093D01*
X341982Y572152D01*
X341773Y572229D01*
X341579Y572323D01*
X341399Y572434D01*
X341234Y572562D01*
X341086Y572705D01*
X340957Y572862D01*
X340849Y573032D01*
X340760Y573216D01*
X340691Y573414D01*
X340642Y573625D01*
X340612Y573850D01*
X340602Y574089D01*
X340619Y574391D01*
X340670Y574672D01*
X340756Y574931D01*
X340875Y575170D01*
X341026Y575382D01*
X341208Y575562D01*
X341421Y575712D01*
X341664Y575830D01*
X341412Y576590D01*
X341071Y576420D01*
X340775Y576208D01*
X340524Y575954D01*
X340317Y575658D01*
X340155Y575322D01*
X340040Y574947D01*
X339971Y574533D01*
X339948Y574081D01*
X339960Y573752D01*
X339998Y573442D01*
X340060Y573150D01*
X340148Y572876D01*
X340261Y572621D01*
X340398Y572384D01*
X340561Y572166D01*
X340749Y571966D01*
X340959Y571787D01*
X341188Y571632D01*
X341436Y571500D01*
X341704Y571393D01*
X341990Y571309D01*
X342296Y571250D01*
X342621Y571214D01*
X342965Y571202D01*
X343421Y571223D01*
G37*
G36*
X340690Y579208D02*
X345948Y579208D01*
X345948Y580006D01*
X340690Y580006D01*
X340690Y582037D01*
X340036Y582037D01*
X340036Y577177D01*
X340690Y577177D01*
X340690Y579208D01*
G37*
G36*
X345948Y592947D02*
X345293Y592947D01*
X345293Y589960D01*
X340036Y589960D01*
X340036Y589158D01*
X345948Y589158D01*
X345948Y592947D01*
G37*
%LPC*%
G36*
X340678Y583741D02*
X340678Y585642D01*
X340695Y585952D01*
X340745Y586223D01*
X340830Y586456D01*
X340948Y586651D01*
X341099Y586804D01*
X341280Y586914D01*
X341492Y586979D01*
X341735Y587001D01*
X341987Y586980D01*
X342209Y586915D01*
X342401Y586806D01*
X342564Y586655D01*
X342693Y586464D01*
X342786Y586237D01*
X342841Y585974D01*
X342860Y585675D01*
X342860Y583741D01*
X340678Y583741D01*
G37*
%LPD*%
G36*
X345948Y551360D02*
X340036Y551360D01*
X340036Y550559D01*
X345948Y550559D01*
X345948Y551360D01*
G37*
G36*
X347656Y570860D02*
X347110Y570860D01*
X347110Y565854D01*
X347656Y565854D01*
X347656Y570860D01*
G37*
G36*
X371348Y587847D02*
X368893Y587847D01*
X368893Y589689D01*
X371348Y591225D01*
X371348Y592148D01*
X369885Y591184D01*
X368801Y590470D01*
X368721Y590789D01*
X368601Y591072D01*
X368551Y591147D01*
X368438Y591319D01*
X368234Y591529D01*
X367997Y591697D01*
X367733Y591817D01*
X367443Y591889D01*
X367127Y591913D01*
X366933Y591905D01*
X366750Y591879D01*
X366578Y591837D01*
X366417Y591777D01*
X366267Y591701D01*
X366128Y591607D01*
X366000Y591497D01*
X365883Y591370D01*
X365778Y591227D01*
X365687Y591070D01*
X365610Y590898D01*
X365547Y590713D01*
X365498Y590513D01*
X365464Y590299D01*
X365443Y590070D01*
X365436Y589828D01*
X365436Y587046D01*
X371348Y587046D01*
X371348Y587847D01*
G37*
G36*
X370348Y576275D02*
X370629Y576412D01*
X370870Y576596D01*
X371071Y576827D01*
X371229Y577101D01*
X371342Y577414D01*
X371409Y577768D01*
X371432Y578161D01*
X371424Y578401D01*
X371398Y578627D01*
X371356Y578840D01*
X371298Y579040D01*
X371222Y579226D01*
X371130Y579398D01*
X371021Y579557D01*
X370895Y579703D01*
X370754Y579834D01*
X370601Y579946D01*
X370436Y580042D01*
X370258Y580120D01*
X370068Y580181D01*
X369865Y580224D01*
X369650Y580251D01*
X369422Y580259D01*
X369221Y580251D01*
X369030Y580227D01*
X368849Y580186D01*
X368677Y580130D01*
X368515Y580057D01*
X368363Y579968D01*
X368220Y579862D01*
X368088Y579741D01*
X367968Y579606D01*
X367864Y579460D01*
X367776Y579302D01*
X367704Y579134D01*
X367648Y578955D01*
X367608Y578764D01*
X367584Y578563D01*
X367576Y578350D01*
X367599Y578000D01*
X367670Y577680D01*
X367788Y577389D01*
X367953Y577129D01*
X366078Y577242D01*
X366078Y579915D01*
X365436Y579915D01*
X365436Y576554D01*
X368616Y576357D01*
X368616Y577095D01*
X368419Y577360D01*
X368289Y577624D01*
X368217Y577899D01*
X368193Y578195D01*
X368214Y578473D01*
X368279Y578722D01*
X368386Y578940D01*
X368537Y579128D01*
X368722Y579280D01*
X368934Y579388D01*
X369173Y579453D01*
X369439Y579475D01*
X369743Y579453D01*
X370012Y579388D01*
X370247Y579281D01*
X370448Y579130D01*
X370609Y578942D01*
X370723Y578720D01*
X370792Y578466D01*
X370815Y578178D01*
X370801Y577942D01*
X370760Y577730D01*
X370692Y577541D01*
X370596Y577375D01*
X370473Y577233D01*
X370322Y577115D01*
X370144Y577020D01*
X369938Y576948D01*
X370026Y576185D01*
X370348Y576275D01*
G37*
G36*
X371348Y583072D02*
X371348Y583903D01*
X365436Y586316D01*
X365436Y585473D01*
X369598Y583845D01*
X370643Y583492D01*
X369598Y583140D01*
X365436Y581503D01*
X365436Y580660D01*
X371348Y583072D01*
G37*
%LPC*%
G36*
X366078Y587847D02*
X366078Y589748D01*
X366095Y590058D01*
X366145Y590330D01*
X366230Y590563D01*
X366348Y590757D01*
X366499Y590910D01*
X366680Y591020D01*
X366892Y591086D01*
X367135Y591107D01*
X367387Y591086D01*
X367609Y591021D01*
X367801Y590913D01*
X367964Y590761D01*
X368093Y590570D01*
X368186Y590343D01*
X368241Y590080D01*
X368260Y589781D01*
X368260Y587847D01*
X366078Y587847D01*
G37*
%LPD*%
G36*
X396748Y587847D02*
X394293Y587847D01*
X394293Y589689D01*
X396748Y591225D01*
X396748Y592148D01*
X395285Y591184D01*
X394201Y590470D01*
X394121Y590789D01*
X394001Y591072D01*
X393951Y591147D01*
X393838Y591319D01*
X393634Y591529D01*
X393397Y591697D01*
X393133Y591817D01*
X392843Y591889D01*
X392527Y591913D01*
X392333Y591905D01*
X392150Y591879D01*
X391978Y591837D01*
X391817Y591777D01*
X391667Y591701D01*
X391528Y591607D01*
X391400Y591497D01*
X391283Y591370D01*
X391178Y591227D01*
X391087Y591070D01*
X391010Y590898D01*
X390947Y590713D01*
X390898Y590513D01*
X390864Y590299D01*
X390843Y590070D01*
X390836Y589828D01*
X390836Y587046D01*
X396748Y587046D01*
X396748Y587847D01*
G37*
G36*
X395421Y576200D02*
X395601Y576245D01*
X395769Y576305D01*
X395925Y576377D01*
X396069Y576463D01*
X396200Y576563D01*
X396320Y576677D01*
X396427Y576804D01*
X396522Y576943D01*
X396604Y577094D01*
X396674Y577256D01*
X396731Y577429D01*
X396775Y577614D01*
X396807Y577810D01*
X396826Y578018D01*
X396832Y578237D01*
X396825Y578471D01*
X396804Y578691D01*
X396769Y578898D01*
X396720Y579091D01*
X396657Y579269D01*
X396579Y579434D01*
X396488Y579585D01*
X396383Y579722D01*
X396265Y579844D01*
X396135Y579950D01*
X395994Y580039D01*
X395842Y580112D01*
X395677Y580169D01*
X395502Y580210D01*
X395315Y580234D01*
X395116Y580242D01*
X394845Y580219D01*
X394597Y580150D01*
X394375Y580035D01*
X394176Y579873D01*
X394008Y579670D01*
X393878Y579430D01*
X393786Y579154D01*
X393731Y578841D01*
X393714Y578841D01*
X393637Y579125D01*
X393531Y579373D01*
X393397Y579586D01*
X393234Y579762D01*
X393043Y579901D01*
X392826Y580000D01*
X392583Y580059D01*
X392313Y580079D01*
X392133Y580071D01*
X391964Y580048D01*
X391805Y580009D01*
X391655Y579955D01*
X391517Y579886D01*
X391388Y579801D01*
X391269Y579701D01*
X391161Y579586D01*
X391064Y579456D01*
X390980Y579314D01*
X390909Y579160D01*
X390851Y578994D01*
X390806Y578814D01*
X390773Y578623D01*
X390754Y578419D01*
X390748Y578203D01*
X390754Y578004D01*
X390773Y577815D01*
X390805Y577634D01*
X390849Y577463D01*
X390907Y577301D01*
X390976Y577148D01*
X391155Y576871D01*
X391261Y576748D01*
X391378Y576639D01*
X391505Y576543D01*
X391641Y576461D01*
X391788Y576393D01*
X391944Y576338D01*
X392111Y576296D01*
X392288Y576269D01*
X392346Y577028D01*
X392126Y577069D01*
X391933Y577143D01*
X391766Y577249D01*
X391625Y577387D01*
X391513Y577553D01*
X391433Y577743D01*
X391385Y577957D01*
X391369Y578195D01*
X391386Y578453D01*
X391437Y578677D01*
X391523Y578867D01*
X391643Y579023D01*
X391793Y579145D01*
X391968Y579233D01*
X392168Y579285D01*
X392392Y579302D01*
X392619Y579281D01*
X392819Y579217D01*
X392993Y579110D01*
X393141Y578960D01*
X393260Y578772D01*
X393344Y578549D01*
X393395Y578291D01*
X393412Y577997D01*
X393412Y577586D01*
X394067Y577586D01*
X394067Y578014D01*
X394084Y578344D01*
X394134Y578633D01*
X394219Y578880D01*
X394337Y579086D01*
X394486Y579249D01*
X394661Y579365D01*
X394863Y579435D01*
X395091Y579458D01*
X395350Y579437D01*
X395576Y579376D01*
X395768Y579275D01*
X395926Y579133D01*
X396049Y578955D01*
X396136Y578746D01*
X396189Y578507D01*
X396207Y578237D01*
X396190Y577968D01*
X396141Y577730D01*
X396059Y577522D01*
X395944Y577346D01*
X395797Y577200D01*
X395617Y577086D01*
X395404Y577002D01*
X395158Y576948D01*
X395229Y576168D01*
X395421Y576200D01*
G37*
G36*
X396748Y583072D02*
X396748Y583903D01*
X390836Y586316D01*
X390836Y585473D01*
X394998Y583845D01*
X396043Y583492D01*
X394998Y583140D01*
X390836Y581503D01*
X390836Y580660D01*
X396748Y583072D01*
G37*
%LPC*%
G36*
X391478Y587847D02*
X391478Y589748D01*
X391495Y590058D01*
X391545Y590330D01*
X391630Y590563D01*
X391748Y590757D01*
X391899Y590910D01*
X392080Y591020D01*
X392292Y591086D01*
X392535Y591107D01*
X392787Y591086D01*
X393009Y591021D01*
X393201Y590913D01*
X393364Y590761D01*
X393493Y590570D01*
X393586Y590343D01*
X393641Y590080D01*
X393660Y589781D01*
X393660Y587847D01*
X391478Y587847D01*
G37*
%LPD*%
G36*
X422148Y590460D02*
X422125Y590876D01*
X422057Y591266D01*
X421943Y591631D01*
X421783Y591971D01*
X421580Y592279D01*
X421338Y592551D01*
X421055Y592785D01*
X420732Y592982D01*
X420374Y593138D01*
X419989Y593249D01*
X419574Y593316D01*
X419131Y593339D01*
X418794Y593326D01*
X418476Y593288D01*
X418179Y593224D01*
X417901Y593135D01*
X417643Y593020D01*
X417405Y592880D01*
X417187Y592714D01*
X416989Y592523D01*
X416812Y592308D01*
X416659Y592072D01*
X416530Y591814D01*
X416424Y591535D01*
X416342Y591234D01*
X416283Y590912D01*
X416247Y590569D01*
X416236Y590204D01*
X416236Y588249D01*
X422148Y588249D01*
X422148Y590460D01*
G37*
%LPC*%
G36*
X416878Y589050D02*
X416878Y590187D01*
X416887Y590464D01*
X416914Y590724D01*
X416959Y590968D01*
X417022Y591194D01*
X417103Y591403D01*
X417202Y591596D01*
X417319Y591772D01*
X417455Y591931D01*
X417607Y592072D01*
X417776Y592194D01*
X417961Y592298D01*
X418162Y592382D01*
X418380Y592448D01*
X418614Y592495D01*
X418864Y592524D01*
X419131Y592533D01*
X419484Y592516D01*
X419813Y592467D01*
X420118Y592384D01*
X420398Y592269D01*
X420651Y592122D01*
X420872Y591947D01*
X421062Y591743D01*
X421221Y591511D01*
X421346Y591255D01*
X421435Y590979D01*
X421488Y590683D01*
X421506Y590368D01*
X421506Y589050D01*
X416878Y589050D01*
G37*
%LPD*%
G36*
X422148Y582743D02*
X418220Y582743D01*
X417520Y582722D01*
X417113Y582701D01*
X422148Y585865D01*
X422148Y586830D01*
X416236Y586830D01*
X416236Y586109D01*
X420113Y586109D01*
X420595Y586121D01*
X421305Y586159D01*
X416236Y582962D01*
X416236Y582030D01*
X422148Y582030D01*
X422148Y582743D01*
G37*
G36*
X419619Y575092D02*
X420043Y575158D01*
X420436Y575269D01*
X420799Y575424D01*
X421126Y575621D01*
X421412Y575858D01*
X421658Y576134D01*
X421863Y576450D01*
X422024Y576802D01*
X422140Y577186D01*
X422209Y577601D01*
X422232Y578049D01*
X422216Y578440D01*
X422166Y578817D01*
X422084Y579180D01*
X421970Y579528D01*
X421825Y579856D01*
X421653Y580157D01*
X421455Y580432D01*
X421229Y580680D01*
X419190Y580680D01*
X419190Y578175D01*
X419861Y578175D01*
X419861Y579941D01*
X420927Y579941D01*
X421070Y579774D01*
X421198Y579583D01*
X421309Y579368D01*
X421405Y579129D01*
X421482Y578874D01*
X421537Y578609D01*
X421571Y578334D01*
X421582Y578049D01*
X421571Y577802D01*
X421541Y577569D01*
X421490Y577349D01*
X421419Y577144D01*
X421328Y576952D01*
X421217Y576774D01*
X421085Y576609D01*
X420933Y576459D01*
X420764Y576324D01*
X420580Y576207D01*
X420381Y576108D01*
X420167Y576027D01*
X419938Y575965D01*
X419695Y575920D01*
X419437Y575893D01*
X419165Y575884D01*
X418891Y575892D01*
X418634Y575918D01*
X418392Y575960D01*
X418166Y576019D01*
X417956Y576095D01*
X417762Y576188D01*
X417584Y576298D01*
X417421Y576425D01*
X417276Y576568D01*
X417150Y576726D01*
X417044Y576899D01*
X416957Y577087D01*
X416889Y577290D01*
X416841Y577508D01*
X416812Y577742D01*
X416802Y577990D01*
X416817Y578306D01*
X416860Y578595D01*
X416932Y578857D01*
X417033Y579092D01*
X417165Y579301D01*
X417332Y579487D01*
X417533Y579648D01*
X417767Y579786D01*
X417541Y580550D01*
X417200Y580367D01*
X416910Y580148D01*
X416670Y579895D01*
X416479Y579606D01*
X416334Y579276D01*
X416230Y578901D01*
X416168Y578479D01*
X416148Y578011D01*
X416160Y577672D01*
X416197Y577352D01*
X416258Y577051D01*
X416345Y576770D01*
X416456Y576509D01*
X416591Y576267D01*
X416751Y576045D01*
X416936Y575842D01*
X417144Y575661D01*
X417371Y575504D01*
X417620Y575371D01*
X417888Y575263D01*
X418177Y575178D01*
X418486Y575118D01*
X418815Y575082D01*
X419165Y575070D01*
X419619Y575092D01*
G37*
G36*
X114907Y420022D02*
X115375Y420056D01*
X115826Y420111D01*
X116261Y420189D01*
X116679Y420290D01*
X117081Y420412D01*
X117466Y420557D01*
X117834Y420725D01*
X118184Y420913D01*
X118513Y421122D01*
X118821Y421351D01*
X119109Y421601D01*
X119375Y421870D01*
X119621Y422160D01*
X119846Y422470D01*
X120050Y422800D01*
X120232Y423149D01*
X120389Y423513D01*
X120522Y423893D01*
X120631Y424288D01*
X120716Y424700D01*
X120777Y425127D01*
X120813Y425569D01*
X120825Y426028D01*
X120812Y426477D01*
X120773Y426911D01*
X120708Y427332D01*
X120617Y427739D01*
X120500Y428132D01*
X120357Y428512D01*
X120188Y428877D01*
X119993Y429229D01*
X119773Y429564D01*
X119529Y429880D01*
X119262Y430177D01*
X118971Y430454D01*
X118655Y430712D01*
X118316Y430951D01*
X117954Y431171D01*
X117567Y431371D01*
X116884Y430004D01*
X117195Y429836D01*
X117485Y429658D01*
X117756Y429470D01*
X118007Y429271D01*
X118237Y429063D01*
X118448Y428845D01*
X118638Y428616D01*
X118809Y428377D01*
X118959Y428129D01*
X119089Y427870D01*
X119199Y427601D01*
X119290Y427323D01*
X119360Y427034D01*
X119410Y426735D01*
X119440Y426426D01*
X119450Y426107D01*
X119429Y425614D01*
X119364Y425148D01*
X119256Y424707D01*
X119105Y424293D01*
X118911Y423905D01*
X118674Y423542D01*
X118394Y423207D01*
X118071Y422897D01*
X117712Y422619D01*
X117325Y422378D01*
X116911Y422174D01*
X116469Y422007D01*
X115999Y421877D01*
X115501Y421784D01*
X114976Y421729D01*
X114423Y421710D01*
X113864Y421728D01*
X113336Y421781D01*
X112839Y421870D01*
X112372Y421995D01*
X111936Y422155D01*
X111530Y422351D01*
X111155Y422582D01*
X110810Y422849D01*
X110501Y423148D01*
X110233Y423475D01*
X110007Y423831D01*
X109821Y424215D01*
X109677Y424628D01*
X109574Y425069D01*
X109512Y425539D01*
X109492Y426037D01*
X109501Y426357D01*
X109527Y426667D01*
X109572Y426966D01*
X109634Y427253D01*
X109714Y427529D01*
X109812Y427795D01*
X109928Y428049D01*
X110061Y428292D01*
X110211Y428522D01*
X110377Y428735D01*
X110559Y428932D01*
X110757Y429112D01*
X110971Y429276D01*
X111201Y429424D01*
X111446Y429556D01*
X111708Y429672D01*
X111182Y431257D01*
X110815Y431090D01*
X110471Y430902D01*
X110150Y430692D01*
X109853Y430460D01*
X109579Y430206D01*
X109328Y429930D01*
X109100Y429632D01*
X108896Y429312D01*
X108715Y428972D01*
X108559Y428611D01*
X108426Y428229D01*
X108318Y427828D01*
X108234Y427406D01*
X108173Y426964D01*
X108137Y426502D01*
X108125Y426019D01*
X108132Y425672D01*
X108151Y425333D01*
X108184Y425005D01*
X108230Y424686D01*
X108289Y424376D01*
X108361Y424076D01*
X108446Y423786D01*
X108544Y423506D01*
X108655Y423234D01*
X108779Y422973D01*
X108916Y422721D01*
X109066Y422479D01*
X109406Y422023D01*
X109798Y421605D01*
X110236Y421231D01*
X110715Y420908D01*
X111233Y420634D01*
X111507Y420515D01*
X111791Y420409D01*
X112085Y420316D01*
X112389Y420235D01*
X112703Y420167D01*
X113027Y420111D01*
X113361Y420067D01*
X113705Y420036D01*
X114059Y420017D01*
X114423Y420011D01*
X114907Y420022D01*
G37*
G36*
X120650Y441169D02*
X119310Y441169D01*
X119310Y438165D01*
X108309Y438165D01*
X108309Y436711D01*
X110315Y433794D01*
X111804Y433794D01*
X109816Y436579D01*
X119310Y436579D01*
X119310Y433435D01*
X120650Y433435D01*
X120650Y441169D01*
G37*
G36*
X185177Y323688D02*
X185611Y323727D01*
X186032Y323792D01*
X186439Y323883D01*
X186832Y324000D01*
X187212Y324143D01*
X187577Y324312D01*
X187929Y324507D01*
X188264Y324727D01*
X188580Y324971D01*
X188877Y325238D01*
X189154Y325529D01*
X189412Y325845D01*
X189651Y326184D01*
X189871Y326546D01*
X190071Y326933D01*
X188704Y327616D01*
X188536Y327305D01*
X188358Y327015D01*
X188170Y326744D01*
X187971Y326493D01*
X187763Y326263D01*
X187545Y326052D01*
X187316Y325862D01*
X187077Y325691D01*
X186829Y325541D01*
X186570Y325411D01*
X186301Y325301D01*
X186023Y325210D01*
X185734Y325140D01*
X185435Y325090D01*
X185126Y325060D01*
X184807Y325050D01*
X184314Y325071D01*
X183848Y325136D01*
X183407Y325244D01*
X182993Y325395D01*
X182605Y325589D01*
X182242Y325826D01*
X181907Y326106D01*
X181597Y326429D01*
X181319Y326788D01*
X181078Y327175D01*
X180874Y327589D01*
X180707Y328031D01*
X180577Y328501D01*
X180484Y328999D01*
X180429Y329524D01*
X180410Y330077D01*
X180428Y330636D01*
X180481Y331164D01*
X180570Y331661D01*
X180695Y332128D01*
X180855Y332564D01*
X181051Y332970D01*
X181282Y333345D01*
X181549Y333690D01*
X181848Y333999D01*
X182175Y334267D01*
X182531Y334493D01*
X182915Y334679D01*
X183328Y334823D01*
X183769Y334926D01*
X184239Y334988D01*
X184737Y335008D01*
X185057Y334999D01*
X185367Y334973D01*
X185666Y334928D01*
X185953Y334866D01*
X186229Y334786D01*
X186495Y334688D01*
X186749Y334573D01*
X186992Y334439D01*
X187222Y334289D01*
X187435Y334123D01*
X187632Y333941D01*
X187812Y333743D01*
X187976Y333529D01*
X188124Y333299D01*
X188256Y333054D01*
X188372Y332792D01*
X189957Y333318D01*
X189790Y333685D01*
X189602Y334029D01*
X189392Y334350D01*
X189160Y334647D01*
X188906Y334921D01*
X188630Y335172D01*
X188332Y335400D01*
X188012Y335604D01*
X187672Y335785D01*
X187311Y335941D01*
X186929Y336074D01*
X186528Y336182D01*
X186106Y336266D01*
X185664Y336327D01*
X185202Y336363D01*
X184719Y336375D01*
X184372Y336368D01*
X184033Y336349D01*
X183705Y336316D01*
X183386Y336270D01*
X183076Y336211D01*
X182776Y336139D01*
X182486Y336055D01*
X182206Y335956D01*
X181934Y335845D01*
X181673Y335721D01*
X181421Y335584D01*
X181179Y335434D01*
X180723Y335094D01*
X180305Y334702D01*
X179931Y334264D01*
X179608Y333785D01*
X179334Y333267D01*
X179215Y332993D01*
X179109Y332709D01*
X179016Y332415D01*
X178935Y332111D01*
X178867Y331797D01*
X178811Y331473D01*
X178767Y331139D01*
X178736Y330795D01*
X178717Y330441D01*
X178711Y330077D01*
X178722Y329593D01*
X178756Y329125D01*
X178811Y328674D01*
X178889Y328239D01*
X178990Y327821D01*
X179112Y327419D01*
X179257Y327034D01*
X179425Y326666D01*
X179613Y326316D01*
X179822Y325987D01*
X180051Y325679D01*
X180301Y325392D01*
X180570Y325125D01*
X180860Y324879D01*
X181170Y324654D01*
X181500Y324450D01*
X181849Y324268D01*
X182213Y324111D01*
X182593Y323978D01*
X182988Y323869D01*
X183400Y323784D01*
X183827Y323723D01*
X184269Y323687D01*
X184728Y323675D01*
X185177Y323688D01*
G37*
G36*
X199843Y325190D02*
X193405Y325190D01*
X193557Y325500D01*
X193751Y325815D01*
X193986Y326137D01*
X194263Y326464D01*
X194587Y326805D01*
X194962Y327166D01*
X195388Y327547D01*
X195866Y327949D01*
X196708Y328645D01*
X197401Y329243D01*
X197947Y329744D01*
X198345Y330147D01*
X198649Y330502D01*
X198913Y330857D01*
X199137Y331212D01*
X199321Y331566D01*
X199465Y331922D01*
X199568Y332278D01*
X199629Y332635D01*
X199650Y332994D01*
X199634Y333387D01*
X199587Y333758D01*
X199509Y334105D01*
X199399Y334429D01*
X199258Y334730D01*
X199086Y335008D01*
X198882Y335263D01*
X198647Y335494D01*
X198383Y335701D01*
X198092Y335880D01*
X197774Y336031D01*
X197429Y336155D01*
X197056Y336251D01*
X196658Y336320D01*
X196232Y336361D01*
X195779Y336375D01*
X195363Y336361D01*
X194968Y336320D01*
X194591Y336252D01*
X194234Y336156D01*
X193896Y336033D01*
X193577Y335882D01*
X193278Y335704D01*
X192998Y335499D01*
X192742Y335270D01*
X192514Y335023D01*
X192314Y334757D01*
X192143Y334472D01*
X192000Y334168D01*
X191885Y333845D01*
X191799Y333503D01*
X191741Y333143D01*
X193353Y332994D01*
X193389Y333234D01*
X193443Y333461D01*
X193514Y333674D01*
X193601Y333873D01*
X193705Y334058D01*
X193826Y334230D01*
X193964Y334387D01*
X194119Y334531D01*
X194288Y334659D01*
X194467Y334771D01*
X194658Y334865D01*
X194860Y334942D01*
X195073Y335001D01*
X195297Y335044D01*
X195532Y335070D01*
X195779Y335078D01*
X196036Y335070D01*
X196280Y335043D01*
X196508Y335000D01*
X196722Y334938D01*
X196922Y334859D01*
X197107Y334763D01*
X197278Y334649D01*
X197434Y334518D01*
X197574Y334371D01*
X197695Y334209D01*
X197797Y334033D01*
X197881Y333843D01*
X197946Y333639D01*
X197992Y333421D01*
X198020Y333188D01*
X198030Y332941D01*
X198008Y332575D01*
X197943Y332228D01*
X197835Y331900D01*
X197684Y331593D01*
X197497Y331298D01*
X197284Y331010D01*
X197044Y330729D01*
X196777Y330454D01*
X196183Y329911D01*
X195520Y329368D01*
X194821Y328802D01*
X194115Y328190D01*
X193764Y327863D01*
X193421Y327518D01*
X193087Y327154D01*
X192761Y326771D01*
X192452Y326364D01*
X192167Y325927D01*
X191907Y325460D01*
X191671Y324962D01*
X191671Y323850D01*
X199843Y323850D01*
X199843Y325190D01*
G37*
G36*
X60639Y323688D02*
X61074Y323727D01*
X61495Y323792D01*
X61902Y323883D01*
X62295Y324000D01*
X62674Y324143D01*
X63040Y324312D01*
X63392Y324507D01*
X63727Y324727D01*
X64043Y324971D01*
X64340Y325238D01*
X64617Y325529D01*
X64875Y325845D01*
X65114Y326184D01*
X65333Y326546D01*
X65533Y326933D01*
X64167Y327616D01*
X63999Y327305D01*
X63821Y327015D01*
X63632Y326744D01*
X63434Y326493D01*
X63226Y326263D01*
X63007Y326052D01*
X62779Y325862D01*
X62540Y325691D01*
X62291Y325541D01*
X62033Y325411D01*
X61764Y325301D01*
X61485Y325210D01*
X61196Y325140D01*
X60897Y325090D01*
X60588Y325060D01*
X60269Y325050D01*
X59777Y325071D01*
X59310Y325136D01*
X58870Y325244D01*
X58455Y325395D01*
X58067Y325589D01*
X57705Y325826D01*
X57369Y326106D01*
X57059Y326429D01*
X56781Y326788D01*
X56540Y327175D01*
X56336Y327589D01*
X56169Y328031D01*
X56039Y328501D01*
X55947Y328999D01*
X55891Y329524D01*
X55873Y330077D01*
X55890Y330636D01*
X55944Y331164D01*
X56033Y331661D01*
X56157Y332128D01*
X56317Y332564D01*
X56513Y332970D01*
X56744Y333345D01*
X57011Y333690D01*
X57310Y333999D01*
X57637Y334267D01*
X57993Y334493D01*
X58377Y334679D01*
X58790Y334823D01*
X59231Y334926D01*
X59701Y334988D01*
X60199Y335008D01*
X60520Y334999D01*
X60830Y334973D01*
X61128Y334928D01*
X61416Y334866D01*
X61692Y334786D01*
X61957Y334688D01*
X62211Y334573D01*
X62455Y334439D01*
X62684Y334289D01*
X62897Y334123D01*
X63094Y333941D01*
X63275Y333743D01*
X63439Y333529D01*
X63587Y333299D01*
X63719Y333054D01*
X63834Y332792D01*
X65419Y333318D01*
X65253Y333685D01*
X65065Y334029D01*
X64854Y334350D01*
X64622Y334647D01*
X64368Y334921D01*
X64092Y335172D01*
X63795Y335400D01*
X63475Y335604D01*
X63134Y335785D01*
X62773Y335941D01*
X62392Y336074D01*
X61990Y336182D01*
X61569Y336266D01*
X61127Y336327D01*
X60664Y336363D01*
X60182Y336375D01*
X59834Y336368D01*
X59496Y336349D01*
X59167Y336316D01*
X58848Y336270D01*
X58539Y336211D01*
X58239Y336139D01*
X57949Y336055D01*
X57668Y335956D01*
X57397Y335845D01*
X57135Y335721D01*
X56883Y335584D01*
X56641Y335434D01*
X56185Y335094D01*
X55767Y334702D01*
X55394Y334264D01*
X55070Y333785D01*
X54796Y333267D01*
X54678Y332993D01*
X54572Y332709D01*
X54479Y332415D01*
X54398Y332111D01*
X54329Y331797D01*
X54273Y331473D01*
X54229Y331139D01*
X54198Y330795D01*
X54180Y330441D01*
X54173Y330077D01*
X54185Y329593D01*
X54218Y329125D01*
X54274Y328674D01*
X54352Y328239D01*
X54452Y327821D01*
X54575Y327419D01*
X54720Y327034D01*
X54887Y326666D01*
X55076Y326316D01*
X55285Y325987D01*
X55514Y325679D01*
X55763Y325392D01*
X56033Y325125D01*
X56323Y324879D01*
X56633Y324654D01*
X56963Y324450D01*
X57311Y324268D01*
X57675Y324111D01*
X58055Y323978D01*
X58451Y323869D01*
X58862Y323784D01*
X59289Y323723D01*
X59732Y323687D01*
X60191Y323675D01*
X60639Y323688D01*
G37*
G36*
X71721Y323690D02*
X72182Y323733D01*
X72613Y323807D01*
X73015Y323909D01*
X73388Y324041D01*
X73732Y324202D01*
X74047Y324392D01*
X74333Y324612D01*
X74587Y324858D01*
X74808Y325129D01*
X74995Y325423D01*
X75147Y325742D01*
X75266Y326085D01*
X75351Y326451D01*
X75402Y326842D01*
X75419Y327257D01*
X75407Y327546D01*
X75371Y327823D01*
X75311Y328087D01*
X75226Y328339D01*
X75118Y328578D01*
X74985Y328804D01*
X74829Y329018D01*
X74648Y329219D01*
X74446Y329404D01*
X74225Y329569D01*
X73984Y329715D01*
X73724Y329841D01*
X73445Y329947D01*
X73147Y330034D01*
X72830Y330100D01*
X72494Y330147D01*
X72494Y330182D01*
X72800Y330256D01*
X73087Y330344D01*
X73355Y330447D01*
X73605Y330565D01*
X73836Y330697D01*
X74048Y330845D01*
X74241Y331008D01*
X74416Y331185D01*
X74571Y331377D01*
X74705Y331583D01*
X74819Y331803D01*
X74912Y332036D01*
X74984Y332283D01*
X75036Y332544D01*
X75067Y332819D01*
X75077Y333108D01*
X75061Y333483D01*
X75013Y333836D01*
X74933Y334168D01*
X74820Y334480D01*
X74675Y334770D01*
X74498Y335038D01*
X74289Y335286D01*
X74048Y335512D01*
X73778Y335714D01*
X73482Y335889D01*
X73160Y336038D01*
X72812Y336159D01*
X72439Y336253D01*
X72039Y336321D01*
X71614Y336361D01*
X71162Y336375D01*
X70747Y336361D01*
X70351Y336322D01*
X69975Y336255D01*
X69618Y336162D01*
X69280Y336043D01*
X68961Y335897D01*
X68662Y335724D01*
X68381Y335525D01*
X68125Y335302D01*
X67897Y335059D01*
X67698Y334794D01*
X67526Y334509D01*
X67383Y334203D01*
X67269Y333876D01*
X67183Y333529D01*
X67125Y333160D01*
X68710Y333038D01*
X68745Y333274D01*
X68796Y333496D01*
X68864Y333705D01*
X68950Y333900D01*
X69052Y334082D01*
X69171Y334250D01*
X69306Y334404D01*
X69459Y334544D01*
X69626Y334669D01*
X69806Y334778D01*
X69998Y334870D01*
X70202Y334945D01*
X70419Y335003D01*
X70649Y335045D01*
X70890Y335070D01*
X71145Y335078D01*
X71423Y335069D01*
X71683Y335043D01*
X71926Y334998D01*
X72151Y334935D01*
X72358Y334854D01*
X72548Y334756D01*
X72720Y334639D01*
X72875Y334505D01*
X73011Y334355D01*
X73129Y334192D01*
X73230Y334016D01*
X73311Y333827D01*
X73375Y333625D01*
X73421Y333410D01*
X73448Y333182D01*
X73457Y332941D01*
X73446Y332699D01*
X73412Y332469D01*
X73357Y332253D01*
X73279Y332051D01*
X73178Y331863D01*
X73056Y331688D01*
X72911Y331526D01*
X72743Y331378D01*
X72556Y331246D01*
X72350Y331131D01*
X72126Y331034D01*
X71884Y330954D01*
X71623Y330892D01*
X71345Y330848D01*
X71048Y330822D01*
X70733Y330813D01*
X69875Y330813D01*
X69875Y329447D01*
X70768Y329447D01*
X71123Y329438D01*
X71457Y329411D01*
X71768Y329367D01*
X72059Y329305D01*
X72328Y329226D01*
X72575Y329129D01*
X72801Y329014D01*
X73006Y328882D01*
X73188Y328734D01*
X73345Y328572D01*
X73478Y328396D01*
X73587Y328206D01*
X73672Y328003D01*
X73733Y327786D01*
X73769Y327555D01*
X73781Y327310D01*
X73771Y327029D01*
X73739Y326767D01*
X73686Y326523D01*
X73611Y326296D01*
X73516Y326087D01*
X73399Y325896D01*
X73261Y325722D01*
X73102Y325567D01*
X72925Y325429D01*
X72731Y325310D01*
X72521Y325209D01*
X72295Y325127D01*
X72054Y325062D01*
X71796Y325017D01*
X71522Y324989D01*
X71232Y324980D01*
X70944Y324988D01*
X70671Y325014D01*
X70415Y325057D01*
X70174Y325117D01*
X69950Y325194D01*
X69742Y325288D01*
X69549Y325399D01*
X69373Y325527D01*
X69213Y325673D01*
X69069Y325835D01*
X68942Y326015D01*
X68830Y326212D01*
X68734Y326425D01*
X68654Y326656D01*
X68591Y326904D01*
X68544Y327169D01*
X66914Y327021D01*
X66981Y326619D01*
X67076Y326244D01*
X67200Y325893D01*
X67351Y325568D01*
X67531Y325268D01*
X67740Y324993D01*
X67976Y324744D01*
X68241Y324520D01*
X68532Y324322D01*
X68847Y324150D01*
X69185Y324005D01*
X69547Y323886D01*
X69933Y323794D01*
X70343Y323728D01*
X70776Y323688D01*
X71232Y323675D01*
X71721Y323690D01*
G37*
G36*
X48006Y402659D02*
X50800Y402659D01*
X50800Y404148D01*
X48006Y404148D01*
X48006Y405882D01*
X46762Y405882D01*
X46762Y404148D01*
X38459Y404148D01*
X38459Y402492D01*
X46780Y396843D01*
X48006Y396843D01*
X48006Y402659D01*
G37*
G36*
X45057Y384385D02*
X45525Y384418D01*
X45976Y384474D01*
X46411Y384552D01*
X46829Y384652D01*
X47231Y384775D01*
X47616Y384920D01*
X47984Y385087D01*
X48334Y385276D01*
X48663Y385485D01*
X48971Y385714D01*
X49259Y385963D01*
X49525Y386233D01*
X49771Y386523D01*
X49996Y386833D01*
X50200Y387163D01*
X50382Y387511D01*
X50539Y387875D01*
X50672Y388255D01*
X50781Y388651D01*
X50866Y389062D01*
X50927Y389489D01*
X50963Y389932D01*
X50975Y390391D01*
X50962Y390839D01*
X50923Y391274D01*
X50858Y391695D01*
X50767Y392102D01*
X50650Y392495D01*
X50507Y392874D01*
X50338Y393240D01*
X50143Y393592D01*
X49923Y393927D01*
X49679Y394243D01*
X49412Y394540D01*
X49121Y394817D01*
X48805Y395075D01*
X48466Y395314D01*
X48104Y395533D01*
X47717Y395733D01*
X47034Y394367D01*
X47345Y394199D01*
X47635Y394021D01*
X47906Y393832D01*
X48157Y393634D01*
X48387Y393426D01*
X48598Y393207D01*
X48788Y392979D01*
X48959Y392740D01*
X49109Y392491D01*
X49239Y392233D01*
X49349Y391964D01*
X49440Y391685D01*
X49510Y391396D01*
X49560Y391097D01*
X49590Y390788D01*
X49600Y390469D01*
X49579Y389977D01*
X49514Y389510D01*
X49406Y389070D01*
X49255Y388655D01*
X49061Y388267D01*
X48824Y387905D01*
X48544Y387569D01*
X48221Y387259D01*
X47862Y386981D01*
X47475Y386740D01*
X47061Y386536D01*
X46619Y386369D01*
X46149Y386239D01*
X45651Y386147D01*
X45126Y386091D01*
X44573Y386073D01*
X44014Y386090D01*
X43486Y386144D01*
X42989Y386233D01*
X42522Y386357D01*
X42086Y386517D01*
X41680Y386713D01*
X41305Y386944D01*
X40960Y387211D01*
X40651Y387510D01*
X40383Y387837D01*
X40157Y388193D01*
X39971Y388577D01*
X39827Y388990D01*
X39724Y389431D01*
X39662Y389901D01*
X39642Y390399D01*
X39651Y390720D01*
X39677Y391030D01*
X39722Y391328D01*
X39784Y391616D01*
X39864Y391892D01*
X39962Y392157D01*
X40078Y392411D01*
X40211Y392655D01*
X40361Y392884D01*
X40527Y393097D01*
X40709Y393294D01*
X40907Y393475D01*
X41121Y393639D01*
X41351Y393787D01*
X41596Y393919D01*
X41858Y394034D01*
X41332Y395619D01*
X40965Y395453D01*
X40621Y395265D01*
X40300Y395054D01*
X40003Y394822D01*
X39729Y394568D01*
X39478Y394292D01*
X39250Y393995D01*
X39046Y393675D01*
X38865Y393334D01*
X38709Y392973D01*
X38576Y392592D01*
X38468Y392190D01*
X38384Y391769D01*
X38323Y391327D01*
X38287Y390864D01*
X38275Y390382D01*
X38282Y390034D01*
X38301Y389696D01*
X38334Y389367D01*
X38380Y389048D01*
X38439Y388739D01*
X38511Y388439D01*
X38596Y388149D01*
X38694Y387868D01*
X38805Y387597D01*
X38929Y387335D01*
X39066Y387083D01*
X39216Y386841D01*
X39556Y386385D01*
X39948Y385967D01*
X40386Y385594D01*
X40865Y385270D01*
X41383Y384996D01*
X41657Y384878D01*
X41941Y384772D01*
X42235Y384679D01*
X42539Y384598D01*
X42853Y384529D01*
X43177Y384473D01*
X43511Y384429D01*
X43855Y384398D01*
X44209Y384380D01*
X44573Y384373D01*
X45057Y384385D01*
G37*
%LPC*%
G36*
X46587Y398437D02*
X45939Y398910D01*
X41279Y402072D01*
X40701Y402413D01*
X40237Y402659D01*
X46762Y402659D01*
X46762Y398297D01*
X46587Y398437D01*
G37*
%LPD*%
G36*
X299477Y374488D02*
X299911Y374527D01*
X300332Y374592D01*
X300739Y374683D01*
X301132Y374800D01*
X301512Y374943D01*
X301877Y375112D01*
X302229Y375307D01*
X302564Y375527D01*
X302880Y375771D01*
X303177Y376038D01*
X303454Y376329D01*
X303712Y376645D01*
X303951Y376984D01*
X304171Y377346D01*
X304371Y377733D01*
X303004Y378416D01*
X302836Y378105D01*
X302658Y377815D01*
X302470Y377544D01*
X302271Y377293D01*
X302063Y377063D01*
X301845Y376852D01*
X301616Y376662D01*
X301377Y376491D01*
X301129Y376341D01*
X300870Y376211D01*
X300601Y376101D01*
X300323Y376010D01*
X300034Y375940D01*
X299735Y375890D01*
X299426Y375860D01*
X299107Y375850D01*
X298614Y375871D01*
X298148Y375936D01*
X297707Y376044D01*
X297293Y376195D01*
X296905Y376389D01*
X296542Y376626D01*
X296207Y376906D01*
X295897Y377229D01*
X295619Y377588D01*
X295378Y377975D01*
X295174Y378389D01*
X295007Y378831D01*
X294877Y379301D01*
X294784Y379799D01*
X294729Y380324D01*
X294710Y380877D01*
X294728Y381436D01*
X294781Y381964D01*
X294870Y382461D01*
X294995Y382928D01*
X295155Y383364D01*
X295351Y383770D01*
X295582Y384145D01*
X295849Y384490D01*
X296148Y384799D01*
X296475Y385067D01*
X296831Y385293D01*
X297215Y385479D01*
X297628Y385623D01*
X298069Y385726D01*
X298539Y385788D01*
X299037Y385808D01*
X299357Y385799D01*
X299667Y385773D01*
X299966Y385728D01*
X300253Y385666D01*
X300529Y385586D01*
X300795Y385488D01*
X301049Y385373D01*
X301292Y385239D01*
X301522Y385089D01*
X301735Y384923D01*
X301932Y384741D01*
X302112Y384543D01*
X302276Y384329D01*
X302424Y384099D01*
X302556Y383854D01*
X302672Y383592D01*
X304257Y384118D01*
X304090Y384485D01*
X303902Y384829D01*
X303692Y385150D01*
X303460Y385447D01*
X303206Y385721D01*
X302930Y385972D01*
X302632Y386200D01*
X302312Y386404D01*
X301972Y386585D01*
X301611Y386741D01*
X301229Y386874D01*
X300828Y386982D01*
X300406Y387066D01*
X299964Y387127D01*
X299502Y387163D01*
X299019Y387175D01*
X298672Y387168D01*
X298333Y387149D01*
X298005Y387116D01*
X297686Y387070D01*
X297376Y387011D01*
X297076Y386939D01*
X296786Y386855D01*
X296506Y386756D01*
X296234Y386645D01*
X295973Y386521D01*
X295721Y386384D01*
X295479Y386234D01*
X295023Y385894D01*
X294605Y385502D01*
X294231Y385064D01*
X293908Y384585D01*
X293634Y384067D01*
X293515Y383793D01*
X293409Y383509D01*
X293316Y383215D01*
X293235Y382911D01*
X293167Y382597D01*
X293111Y382273D01*
X293067Y381939D01*
X293036Y381595D01*
X293017Y381241D01*
X293011Y380877D01*
X293022Y380393D01*
X293056Y379925D01*
X293111Y379474D01*
X293189Y379039D01*
X293290Y378621D01*
X293412Y378219D01*
X293557Y377834D01*
X293725Y377466D01*
X293913Y377116D01*
X294122Y376787D01*
X294351Y376479D01*
X294601Y376192D01*
X294870Y375925D01*
X295160Y375679D01*
X295470Y375454D01*
X295800Y375250D01*
X296149Y375068D01*
X296513Y374911D01*
X296893Y374778D01*
X297288Y374669D01*
X297700Y374584D01*
X298127Y374523D01*
X298569Y374487D01*
X299028Y374475D01*
X299477Y374488D01*
G37*
G36*
X310413Y374492D02*
X310885Y374545D01*
X311330Y374633D01*
X311746Y374755D01*
X312134Y374913D01*
X312495Y375105D01*
X312827Y375333D01*
X313131Y375596D01*
X313403Y375889D01*
X313639Y376208D01*
X313838Y376554D01*
X314001Y376925D01*
X314128Y377322D01*
X314219Y377746D01*
X314273Y378195D01*
X314291Y378670D01*
X314275Y379089D01*
X314224Y379488D01*
X314139Y379867D01*
X314021Y380225D01*
X313869Y380563D01*
X313683Y380881D01*
X313463Y381178D01*
X313210Y381455D01*
X312928Y381706D01*
X312623Y381923D01*
X312294Y382107D01*
X311943Y382257D01*
X311569Y382374D01*
X311171Y382457D01*
X310750Y382507D01*
X310306Y382524D01*
X309933Y382512D01*
X309576Y382475D01*
X309234Y382413D01*
X308907Y382327D01*
X308596Y382216D01*
X308301Y382081D01*
X308022Y381920D01*
X307758Y381736D01*
X307994Y385651D01*
X313573Y385651D01*
X313573Y386991D01*
X306558Y386991D01*
X306146Y380352D01*
X307688Y380352D01*
X307963Y380575D01*
X308239Y380763D01*
X308515Y380917D01*
X308791Y381035D01*
X309072Y381123D01*
X309365Y381186D01*
X309668Y381224D01*
X309982Y381236D01*
X310281Y381225D01*
X310564Y381192D01*
X310831Y381135D01*
X311083Y381057D01*
X311318Y380956D01*
X311538Y380832D01*
X311743Y380687D01*
X311931Y380518D01*
X312100Y380332D01*
X312247Y380131D01*
X312371Y379917D01*
X312473Y379688D01*
X312552Y379446D01*
X312608Y379190D01*
X312642Y378919D01*
X312654Y378635D01*
X312642Y378309D01*
X312609Y378001D01*
X312553Y377711D01*
X312474Y377439D01*
X312373Y377184D01*
X312250Y376948D01*
X312104Y376729D01*
X311935Y376529D01*
X311747Y376349D01*
X311542Y376193D01*
X311319Y376062D01*
X311079Y375954D01*
X310822Y375870D01*
X310548Y375810D01*
X310256Y375774D01*
X309947Y375762D01*
X309695Y375769D01*
X309455Y375791D01*
X309227Y375827D01*
X309012Y375877D01*
X308808Y375941D01*
X308617Y376020D01*
X308439Y376113D01*
X308272Y376220D01*
X308118Y376342D01*
X307976Y376477D01*
X307846Y376628D01*
X307729Y376792D01*
X307623Y376971D01*
X307530Y377164D01*
X307450Y377371D01*
X307381Y377593D01*
X305787Y377409D01*
X305869Y377063D01*
X305976Y376737D01*
X306107Y376433D01*
X306262Y376150D01*
X306442Y375888D01*
X306646Y375647D01*
X306874Y375427D01*
X307127Y375228D01*
X307402Y375052D01*
X307699Y374899D01*
X308015Y374769D01*
X308353Y374663D01*
X308712Y374581D01*
X309091Y374522D01*
X309491Y374487D01*
X309912Y374475D01*
X310413Y374492D01*
G37*
G36*
X58401Y597537D02*
X58848Y597574D01*
X59280Y597634D01*
X59696Y597720D01*
X60097Y597829D01*
X60482Y597963D01*
X60851Y598122D01*
X61205Y598304D01*
X61541Y598510D01*
X61857Y598736D01*
X62152Y598984D01*
X62428Y599252D01*
X62683Y599542D01*
X62919Y599853D01*
X63134Y600185D01*
X63329Y600538D01*
X63502Y600909D01*
X63653Y601295D01*
X63780Y601696D01*
X63884Y602112D01*
X63965Y602543D01*
X64023Y602990D01*
X64057Y603451D01*
X64069Y603927D01*
X64058Y604405D01*
X64023Y604867D01*
X63966Y605313D01*
X63886Y605743D01*
X63783Y606156D01*
X63658Y606553D01*
X63509Y606934D01*
X63338Y607299D01*
X63145Y607646D01*
X62931Y607971D01*
X62697Y608275D01*
X62443Y608557D01*
X62169Y608819D01*
X61874Y609059D01*
X61558Y609278D01*
X61222Y609476D01*
X60869Y609651D01*
X60499Y609803D01*
X60114Y609932D01*
X59714Y610038D01*
X59298Y610119D01*
X58866Y610178D01*
X58419Y610213D01*
X57956Y610225D01*
X57599Y610218D01*
X57253Y610199D01*
X56916Y610166D01*
X56590Y610120D01*
X56273Y610062D01*
X55966Y609990D01*
X55670Y609905D01*
X55383Y609808D01*
X55106Y609697D01*
X54839Y609573D01*
X54582Y609436D01*
X54334Y609286D01*
X54097Y609123D01*
X53870Y608947D01*
X53445Y608556D01*
X53065Y608119D01*
X52736Y607641D01*
X52590Y607387D01*
X52458Y607123D01*
X52337Y606849D01*
X52230Y606565D01*
X52135Y606270D01*
X52052Y605966D01*
X51983Y605651D01*
X51926Y605327D01*
X51882Y604992D01*
X51850Y604647D01*
X51831Y604292D01*
X51825Y603927D01*
X51836Y603449D01*
X51870Y602986D01*
X51927Y602537D01*
X52006Y602104D01*
X52109Y601687D01*
X52233Y601284D01*
X52381Y600897D01*
X52552Y600525D01*
X52743Y600171D01*
X52956Y599838D01*
X53189Y599528D01*
X53442Y599238D01*
X53715Y598970D01*
X54009Y598724D01*
X54323Y598499D01*
X54658Y598296D01*
X55011Y598115D01*
X55380Y597958D01*
X55766Y597826D01*
X56168Y597718D01*
X56586Y597633D01*
X57020Y597573D01*
X57471Y597537D01*
X57938Y597525D01*
X58401Y597537D01*
G37*
G36*
X39565Y597712D02*
X39992Y597748D01*
X40406Y597807D01*
X40806Y597890D01*
X41194Y597998D01*
X41568Y598129D01*
X41930Y598283D01*
X42278Y598462D01*
X42610Y598663D01*
X42922Y598885D01*
X43215Y599128D01*
X43489Y599391D01*
X43743Y599676D01*
X43977Y599982D01*
X44193Y600308D01*
X44389Y600656D01*
X44563Y601021D01*
X44714Y601402D01*
X44842Y601797D01*
X44947Y602207D01*
X45028Y602632D01*
X45087Y603073D01*
X45121Y603528D01*
X45133Y603997D01*
X45126Y604355D01*
X45106Y604701D01*
X45073Y605038D01*
X45027Y605364D01*
X44967Y605680D01*
X44893Y605985D01*
X44807Y606280D01*
X44707Y606565D01*
X44594Y606839D01*
X44468Y607103D01*
X44328Y607356D01*
X44175Y607600D01*
X44008Y607832D01*
X43829Y608055D01*
X43636Y608267D01*
X43430Y608469D01*
X43211Y608659D01*
X42981Y608837D01*
X42740Y609003D01*
X42488Y609156D01*
X42225Y609298D01*
X41950Y609427D01*
X41665Y609543D01*
X41368Y609648D01*
X41060Y609740D01*
X40741Y609820D01*
X40410Y609887D01*
X40069Y609943D01*
X39716Y609986D01*
X39352Y610016D01*
X38977Y610035D01*
X38590Y610041D01*
X34509Y610041D01*
X34509Y597700D01*
X39125Y597700D01*
X39565Y597712D01*
G37*
%LPC*%
G36*
X57433Y598904D02*
X56957Y598968D01*
X56509Y599074D01*
X56089Y599223D01*
X55697Y599414D01*
X55334Y599649D01*
X54999Y599925D01*
X54693Y600244D01*
X54419Y600600D01*
X54181Y600985D01*
X53980Y601401D01*
X53816Y601846D01*
X53688Y602321D01*
X53597Y602827D01*
X53542Y603362D01*
X53524Y603927D01*
X53542Y604496D01*
X53596Y605031D01*
X53686Y605535D01*
X53813Y606005D01*
X53975Y606443D01*
X54174Y606849D01*
X54409Y607222D01*
X54680Y607562D01*
X54984Y607866D01*
X55318Y608129D01*
X55682Y608352D01*
X56077Y608534D01*
X56501Y608676D01*
X56956Y608777D01*
X57441Y608838D01*
X57956Y608858D01*
X58466Y608838D01*
X58947Y608776D01*
X59398Y608674D01*
X59820Y608530D01*
X60212Y608345D01*
X60574Y608119D01*
X60907Y607853D01*
X61209Y607545D01*
X61479Y607201D01*
X61713Y606826D01*
X61911Y606420D01*
X62073Y605983D01*
X62199Y605516D01*
X62289Y605017D01*
X62343Y604488D01*
X62361Y603927D01*
X62343Y603342D01*
X62290Y602791D01*
X62200Y602274D01*
X62075Y601791D01*
X61915Y601343D01*
X61718Y600928D01*
X61486Y600547D01*
X61218Y600201D01*
X60917Y599892D01*
X60584Y599624D01*
X60221Y599397D01*
X59827Y599212D01*
X59401Y599068D01*
X58944Y598965D01*
X58457Y598903D01*
X57938Y598882D01*
X57433Y598904D01*
G37*
G36*
X36182Y599040D02*
X36182Y608701D01*
X38555Y608701D01*
X39133Y608682D01*
X39676Y608625D01*
X40184Y608531D01*
X40656Y608400D01*
X41094Y608230D01*
X41496Y608023D01*
X41863Y607779D01*
X42195Y607496D01*
X42489Y607178D01*
X42744Y606826D01*
X42960Y606440D01*
X43137Y606020D01*
X43275Y605565D01*
X43373Y605077D01*
X43432Y604554D01*
X43451Y603997D01*
X43443Y603623D01*
X43417Y603261D01*
X43374Y602911D01*
X43313Y602574D01*
X43236Y602250D01*
X43141Y601938D01*
X43029Y601639D01*
X42900Y601352D01*
X42754Y601080D01*
X42594Y600825D01*
X42419Y600585D01*
X42228Y600363D01*
X42023Y600156D01*
X41803Y599966D01*
X41569Y599793D01*
X41319Y599636D01*
X41056Y599496D01*
X40784Y599375D01*
X40501Y599273D01*
X40207Y599189D01*
X39904Y599124D01*
X39590Y599077D01*
X39266Y599049D01*
X38932Y599040D01*
X36182Y599040D01*
G37*
%LPD*%
G36*
X11288Y601309D02*
X16911Y601309D01*
X18321Y597700D01*
X20029Y597700D01*
X15072Y610041D01*
X13171Y610041D01*
X8135Y597700D01*
X9869Y597700D01*
X11288Y601309D01*
G37*
G36*
X82810Y605898D02*
X82767Y607361D01*
X82723Y608210D01*
X89327Y597700D01*
X91341Y597700D01*
X91341Y610041D01*
X89835Y610041D01*
X89835Y601948D01*
X89861Y600941D01*
X89940Y599460D01*
X83266Y610041D01*
X81321Y610041D01*
X81321Y597700D01*
X82810Y597700D01*
X82810Y605898D01*
G37*
G36*
X26859Y597534D02*
X27234Y597561D01*
X27595Y597606D01*
X27944Y597668D01*
X28279Y597749D01*
X28602Y597848D01*
X28912Y597964D01*
X29208Y598099D01*
X29490Y598250D01*
X29756Y598417D01*
X30005Y598601D01*
X30237Y598800D01*
X30454Y599016D01*
X30653Y599247D01*
X30837Y599495D01*
X31004Y599758D01*
X31153Y600036D01*
X31282Y600327D01*
X31391Y600631D01*
X31480Y600947D01*
X31549Y601277D01*
X31599Y601619D01*
X31629Y601974D01*
X31639Y602342D01*
X31639Y610041D01*
X29975Y610041D01*
X29975Y602438D01*
X29960Y602016D01*
X29917Y601619D01*
X29845Y601249D01*
X29744Y600905D01*
X29614Y600586D01*
X29455Y600294D01*
X29267Y600029D01*
X29051Y599789D01*
X28808Y599576D01*
X28542Y599392D01*
X28254Y599237D01*
X27942Y599109D01*
X27607Y599010D01*
X27248Y598939D01*
X26867Y598897D01*
X26462Y598882D01*
X26069Y598896D01*
X25700Y598937D01*
X25354Y599006D01*
X25033Y599101D01*
X24735Y599225D01*
X24461Y599375D01*
X24210Y599553D01*
X23984Y599758D01*
X23783Y599990D01*
X23608Y600247D01*
X23461Y600530D01*
X23340Y600838D01*
X23246Y601171D01*
X23179Y601530D01*
X23139Y601915D01*
X23125Y602325D01*
X23125Y610041D01*
X21453Y610041D01*
X21453Y602184D01*
X21462Y601827D01*
X21491Y601483D01*
X21540Y601151D01*
X21608Y600831D01*
X21696Y600524D01*
X21802Y600230D01*
X21929Y599948D01*
X22074Y599679D01*
X22238Y599424D01*
X22417Y599185D01*
X22612Y598961D01*
X22823Y598753D01*
X23050Y598561D01*
X23293Y598384D01*
X23552Y598222D01*
X23826Y598077D01*
X24115Y597947D01*
X24415Y597835D01*
X24728Y597740D01*
X25052Y597663D01*
X25389Y597602D01*
X25738Y597559D01*
X26098Y597533D01*
X26471Y597525D01*
X26859Y597534D01*
G37*
G36*
X49334Y610041D02*
X47662Y610041D01*
X47662Y597700D01*
X49334Y597700D01*
X49334Y610041D01*
G37*
G36*
X78209Y610041D02*
X76537Y610041D01*
X76537Y597700D01*
X78209Y597700D01*
X78209Y610041D01*
G37*
%LPC*%
G36*
X11796Y602614D02*
X13373Y606669D01*
X13749Y607704D01*
X14021Y608534D01*
X14100Y608780D01*
X14336Y608053D01*
X14581Y607330D01*
X14827Y606686D01*
X16412Y602614D01*
X11796Y602614D01*
G37*
%LPD*%
G36*
X75090Y595274D02*
X64641Y595274D01*
X64641Y594135D01*
X75090Y594135D01*
X75090Y595274D01*
G37*
G36*
X375104Y634896D02*
X375390Y634919D01*
X375666Y634958D01*
X375932Y635013D01*
X376189Y635083D01*
X376435Y635168D01*
X376671Y635270D01*
X376897Y635386D01*
X377112Y635518D01*
X377314Y635663D01*
X377503Y635821D01*
X377679Y635993D01*
X377842Y636178D01*
X377993Y636377D01*
X378130Y636589D01*
X378255Y636814D01*
X378366Y637052D01*
X378462Y637298D01*
X378543Y637555D01*
X378610Y637821D01*
X378662Y638097D01*
X378699Y638382D01*
X378721Y638677D01*
X378728Y638982D01*
X378721Y639287D01*
X378699Y639583D01*
X378662Y639868D01*
X378611Y640142D01*
X378546Y640407D01*
X378465Y640661D01*
X378370Y640904D01*
X378261Y641138D01*
X378137Y641359D01*
X378001Y641567D01*
X377851Y641761D01*
X377689Y641942D01*
X377513Y642109D01*
X377325Y642263D01*
X377123Y642403D01*
X376908Y642529D01*
X376682Y642641D01*
X376446Y642739D01*
X376200Y642821D01*
X375944Y642888D01*
X375678Y642941D01*
X375401Y642978D01*
X375115Y643000D01*
X374819Y643008D01*
X374370Y642991D01*
X373946Y642941D01*
X373548Y642858D01*
X373174Y642741D01*
X372827Y642591D01*
X372504Y642408D01*
X372207Y642191D01*
X371935Y641941D01*
X371693Y641662D01*
X371482Y641356D01*
X371304Y641025D01*
X371158Y640668D01*
X371045Y640285D01*
X370964Y639876D01*
X370916Y639442D01*
X370899Y638982D01*
X370907Y638676D01*
X370928Y638379D01*
X370965Y638093D01*
X371016Y637816D01*
X371081Y637549D01*
X371161Y637292D01*
X371255Y637044D01*
X371364Y636806D01*
X371487Y636580D01*
X371623Y636367D01*
X371772Y636169D01*
X371933Y635983D01*
X372108Y635812D01*
X372296Y635655D01*
X372497Y635511D01*
X372711Y635381D01*
X372937Y635265D01*
X373173Y635165D01*
X373419Y635080D01*
X373676Y635011D01*
X373944Y634957D01*
X374221Y634919D01*
X374510Y634896D01*
X374808Y634888D01*
X375104Y634896D01*
G37*
G36*
X423292Y634896D02*
X423578Y634919D01*
X423854Y634958D01*
X424120Y635013D01*
X424376Y635083D01*
X424622Y635168D01*
X424858Y635270D01*
X425085Y635386D01*
X425299Y635518D01*
X425501Y635663D01*
X425690Y635821D01*
X425866Y635993D01*
X426030Y636178D01*
X426180Y636377D01*
X426318Y636589D01*
X426443Y636814D01*
X426553Y637052D01*
X426650Y637298D01*
X426731Y637555D01*
X426797Y637821D01*
X426849Y638097D01*
X426886Y638382D01*
X426908Y638677D01*
X426916Y638982D01*
X426908Y639287D01*
X426886Y639583D01*
X426850Y639868D01*
X426799Y640142D01*
X426733Y640407D01*
X426653Y640661D01*
X426558Y640904D01*
X426448Y641138D01*
X426325Y641359D01*
X426188Y641567D01*
X426039Y641761D01*
X425876Y641942D01*
X425701Y642109D01*
X425512Y642263D01*
X425310Y642403D01*
X425096Y642529D01*
X424870Y642641D01*
X424633Y642739D01*
X424387Y642821D01*
X424131Y642888D01*
X423865Y642941D01*
X423589Y642978D01*
X423303Y643000D01*
X423007Y643008D01*
X422558Y642991D01*
X422134Y642941D01*
X421735Y642858D01*
X421362Y642741D01*
X421014Y642591D01*
X420692Y642408D01*
X420395Y642191D01*
X420123Y641941D01*
X419880Y641662D01*
X419670Y641356D01*
X419492Y641025D01*
X419346Y640668D01*
X419233Y640285D01*
X419152Y639876D01*
X419103Y639442D01*
X419087Y638982D01*
X419094Y638676D01*
X419116Y638379D01*
X419152Y638093D01*
X419203Y637816D01*
X419269Y637549D01*
X419348Y637292D01*
X419443Y637044D01*
X419552Y636806D01*
X419674Y636580D01*
X419810Y636367D01*
X419959Y636169D01*
X420121Y635983D01*
X420296Y635812D01*
X420484Y635655D01*
X420685Y635511D01*
X420899Y635381D01*
X421124Y635265D01*
X421360Y635165D01*
X421607Y635080D01*
X421864Y635011D01*
X422131Y634957D01*
X422409Y634919D01*
X422697Y634896D01*
X422996Y634888D01*
X423292Y634896D01*
G37*
G36*
X429460Y638276D02*
X431919Y638276D01*
X433968Y635000D01*
X435200Y635000D01*
X433914Y636952D01*
X432960Y638399D01*
X433180Y638445D01*
X433387Y638505D01*
X433582Y638579D01*
X433765Y638667D01*
X433864Y638726D01*
X433935Y638768D01*
X434094Y638883D01*
X434240Y639012D01*
X434374Y639155D01*
X434494Y639309D01*
X434599Y639472D01*
X434687Y639644D01*
X434759Y639824D01*
X434815Y640014D01*
X434855Y640211D01*
X434879Y640418D01*
X434887Y640634D01*
X434875Y640892D01*
X434841Y641136D01*
X434785Y641366D01*
X434705Y641581D01*
X434603Y641781D01*
X434479Y641967D01*
X434332Y642138D01*
X434162Y642294D01*
X433971Y642434D01*
X433761Y642555D01*
X433532Y642657D01*
X433284Y642741D01*
X433018Y642806D01*
X432732Y642853D01*
X432427Y642881D01*
X432104Y642890D01*
X428391Y642890D01*
X428391Y635000D01*
X429460Y635000D01*
X429460Y638276D01*
G37*
%LPC*%
G36*
X374485Y635770D02*
X374181Y635810D01*
X373894Y635878D01*
X373626Y635974D01*
X373376Y636096D01*
X373143Y636246D01*
X372929Y636423D01*
X372733Y636627D01*
X372558Y636854D01*
X372406Y637101D01*
X372278Y637366D01*
X372173Y637651D01*
X372091Y637955D01*
X372033Y638278D01*
X371998Y638620D01*
X371986Y638982D01*
X371997Y639345D01*
X372032Y639688D01*
X372090Y640009D01*
X372171Y640310D01*
X372275Y640590D01*
X372402Y640850D01*
X372552Y641088D01*
X372725Y641306D01*
X372919Y641500D01*
X373133Y641668D01*
X373366Y641811D01*
X373618Y641927D01*
X373890Y642018D01*
X374180Y642083D01*
X374490Y642121D01*
X374819Y642134D01*
X375146Y642121D01*
X375453Y642082D01*
X375742Y642016D01*
X376012Y641924D01*
X376262Y641806D01*
X376494Y641662D01*
X376706Y641491D01*
X376900Y641294D01*
X377072Y641074D01*
X377222Y640835D01*
X377349Y640575D01*
X377452Y640296D01*
X377533Y639997D01*
X377590Y639678D01*
X377625Y639340D01*
X377636Y638982D01*
X377625Y638607D01*
X377591Y638255D01*
X377533Y637925D01*
X377454Y637616D01*
X377351Y637329D01*
X377225Y637064D01*
X377077Y636820D01*
X376905Y636599D01*
X376713Y636401D01*
X376500Y636230D01*
X376268Y636085D01*
X376016Y635967D01*
X375744Y635875D01*
X375452Y635809D01*
X375140Y635769D01*
X374808Y635756D01*
X374485Y635770D01*
G37*
G36*
X422673Y635770D02*
X422368Y635810D01*
X422082Y635878D01*
X421813Y635974D01*
X421563Y636096D01*
X421331Y636246D01*
X421117Y636423D01*
X420921Y636627D01*
X420746Y636854D01*
X420594Y637101D01*
X420465Y637366D01*
X420360Y637651D01*
X420278Y637955D01*
X420220Y638278D01*
X420185Y638620D01*
X420173Y638982D01*
X420185Y639345D01*
X420220Y639688D01*
X420277Y640009D01*
X420358Y640310D01*
X420462Y640590D01*
X420589Y640850D01*
X420739Y641088D01*
X420913Y641306D01*
X421107Y641500D01*
X421321Y641668D01*
X421554Y641811D01*
X421806Y641927D01*
X422077Y642018D01*
X422368Y642083D01*
X422678Y642121D01*
X423007Y642134D01*
X423333Y642121D01*
X423641Y642082D01*
X423929Y642016D01*
X424199Y641924D01*
X424450Y641806D01*
X424681Y641662D01*
X424894Y641491D01*
X425087Y641294D01*
X425260Y641074D01*
X425409Y640835D01*
X425536Y640575D01*
X425640Y640296D01*
X425720Y639997D01*
X425778Y639678D01*
X425812Y639340D01*
X425824Y638982D01*
X425812Y638607D01*
X425778Y638255D01*
X425721Y637925D01*
X425641Y637616D01*
X425538Y637329D01*
X425413Y637064D01*
X425264Y636820D01*
X425093Y636599D01*
X424900Y636401D01*
X424688Y636230D01*
X424455Y636085D01*
X424203Y635967D01*
X423931Y635875D01*
X423639Y635809D01*
X423327Y635769D01*
X422996Y635756D01*
X422673Y635770D01*
G37*
%LPD*%
G36*
X348030Y640264D02*
X348008Y641322D01*
X347991Y641944D01*
X348176Y641328D01*
X348489Y640376D01*
X350556Y635000D01*
X351306Y635000D01*
X353345Y640376D01*
X353577Y641051D01*
X353837Y641944D01*
X353800Y641121D01*
X353787Y640264D01*
X353787Y635000D01*
X354750Y635000D01*
X354750Y642890D01*
X353378Y642890D01*
X351317Y637419D01*
X351124Y636845D01*
X351006Y636447D01*
X350937Y636165D01*
X350799Y636711D01*
X350584Y637419D01*
X348484Y642890D01*
X347078Y642890D01*
X347078Y635000D01*
X348030Y635000D01*
X348030Y640264D01*
G37*
G36*
X340520Y637307D02*
X344115Y637307D01*
X345016Y635000D01*
X346108Y635000D01*
X342939Y642890D01*
X341724Y642890D01*
X338504Y635000D01*
X339612Y635000D01*
X340520Y637307D01*
G37*
G36*
X381155Y640242D02*
X381127Y641177D01*
X381099Y641720D01*
X385322Y635000D01*
X386610Y635000D01*
X386610Y642890D01*
X385646Y642890D01*
X385646Y637716D01*
X385663Y637072D01*
X385714Y636126D01*
X381446Y642890D01*
X380203Y642890D01*
X380203Y635000D01*
X381155Y635000D01*
X381155Y640242D01*
G37*
G36*
X389437Y640242D02*
X389409Y641177D01*
X389381Y641720D01*
X393603Y635000D01*
X394891Y635000D01*
X394891Y642890D01*
X393928Y642890D01*
X393928Y637716D01*
X393945Y637072D01*
X393995Y636126D01*
X389728Y642890D01*
X388485Y642890D01*
X388485Y635000D01*
X389437Y635000D01*
X389437Y640242D01*
G37*
G36*
X402982Y635874D02*
X397835Y635874D01*
X397835Y638623D01*
X402416Y638623D01*
X402416Y639486D01*
X397835Y639486D01*
X397835Y642017D01*
X402752Y642017D01*
X402752Y642890D01*
X396766Y642890D01*
X396766Y635000D01*
X402982Y635000D01*
X402982Y635874D01*
G37*
G36*
X334916Y634896D02*
X335194Y634921D01*
X335463Y634963D01*
X335724Y635021D01*
X335975Y635096D01*
X336218Y635187D01*
X336451Y635295D01*
X336676Y635420D01*
X336891Y635561D01*
X337093Y635716D01*
X337282Y635888D01*
X337460Y636074D01*
X337625Y636275D01*
X337777Y636492D01*
X337918Y636724D01*
X338046Y636971D01*
X337172Y637408D01*
X336951Y637023D01*
X336703Y636690D01*
X336430Y636408D01*
X336132Y636177D01*
X335807Y635998D01*
X335457Y635870D01*
X335273Y635825D01*
X335082Y635793D01*
X334884Y635774D01*
X334680Y635767D01*
X334365Y635781D01*
X334067Y635822D01*
X333785Y635891D01*
X333520Y635988D01*
X333272Y636112D01*
X333040Y636263D01*
X332826Y636442D01*
X332628Y636649D01*
X332450Y636879D01*
X332296Y637126D01*
X332165Y637391D01*
X332058Y637673D01*
X331975Y637974D01*
X331916Y638292D01*
X331881Y638628D01*
X331869Y638982D01*
X331880Y639339D01*
X331914Y639676D01*
X331971Y639994D01*
X332051Y640293D01*
X332153Y640572D01*
X332278Y640831D01*
X332426Y641071D01*
X332597Y641292D01*
X332788Y641489D01*
X332997Y641660D01*
X333225Y641805D01*
X333470Y641924D01*
X333734Y642016D01*
X334016Y642082D01*
X334317Y642121D01*
X334635Y642134D01*
X335038Y642112D01*
X335413Y642043D01*
X335759Y641930D01*
X336077Y641770D01*
X336360Y641568D01*
X336601Y641325D01*
X336801Y641042D01*
X336959Y640718D01*
X337973Y641054D01*
X337866Y641288D01*
X337746Y641508D01*
X337612Y641713D01*
X337463Y641903D01*
X337301Y642079D01*
X337124Y642239D01*
X336934Y642385D01*
X336730Y642515D01*
X336512Y642631D01*
X336281Y642731D01*
X336037Y642815D01*
X335780Y642885D01*
X335511Y642939D01*
X335228Y642977D01*
X334933Y643000D01*
X334624Y643008D01*
X334185Y642991D01*
X333771Y642941D01*
X333382Y642858D01*
X333017Y642741D01*
X332676Y642590D01*
X332360Y642406D01*
X332069Y642189D01*
X331802Y641938D01*
X331563Y641658D01*
X331356Y641352D01*
X331181Y641021D01*
X331037Y640664D01*
X330926Y640282D01*
X330846Y639874D01*
X330798Y639441D01*
X330782Y638982D01*
X330790Y638672D01*
X330811Y638373D01*
X330847Y638084D01*
X330896Y637806D01*
X330961Y637539D01*
X331039Y637282D01*
X331132Y637036D01*
X331239Y636800D01*
X331359Y636577D01*
X331493Y636366D01*
X331639Y636169D01*
X331799Y635986D01*
X331971Y635815D01*
X332156Y635658D01*
X332355Y635514D01*
X332566Y635384D01*
X332789Y635267D01*
X333022Y635167D01*
X333264Y635082D01*
X333517Y635012D01*
X333780Y634958D01*
X334053Y634919D01*
X334336Y634896D01*
X334630Y634888D01*
X334916Y634896D01*
G37*
G36*
X366791Y634896D02*
X367069Y634921D01*
X367338Y634963D01*
X367599Y635021D01*
X367850Y635096D01*
X368093Y635187D01*
X368326Y635295D01*
X368551Y635420D01*
X368766Y635561D01*
X368968Y635716D01*
X369157Y635888D01*
X369335Y636074D01*
X369500Y636275D01*
X369652Y636492D01*
X369793Y636724D01*
X369921Y636971D01*
X369047Y637408D01*
X368826Y637023D01*
X368578Y636690D01*
X368305Y636408D01*
X368007Y636177D01*
X367682Y635998D01*
X367332Y635870D01*
X367148Y635825D01*
X366957Y635793D01*
X366759Y635774D01*
X366555Y635767D01*
X366240Y635781D01*
X365942Y635822D01*
X365660Y635891D01*
X365395Y635988D01*
X365147Y636112D01*
X364915Y636263D01*
X364701Y636442D01*
X364503Y636649D01*
X364325Y636879D01*
X364171Y637126D01*
X364040Y637391D01*
X363933Y637673D01*
X363850Y637974D01*
X363791Y638292D01*
X363756Y638628D01*
X363744Y638982D01*
X363755Y639339D01*
X363789Y639676D01*
X363846Y639994D01*
X363926Y640293D01*
X364028Y640572D01*
X364153Y640831D01*
X364301Y641071D01*
X364472Y641292D01*
X364663Y641489D01*
X364872Y641660D01*
X365100Y641805D01*
X365345Y641924D01*
X365609Y642016D01*
X365891Y642082D01*
X366192Y642121D01*
X366510Y642134D01*
X366913Y642112D01*
X367288Y642043D01*
X367634Y641930D01*
X367952Y641770D01*
X368235Y641568D01*
X368476Y641325D01*
X368676Y641042D01*
X368834Y640718D01*
X369848Y641054D01*
X369741Y641288D01*
X369621Y641508D01*
X369487Y641713D01*
X369338Y641903D01*
X369176Y642079D01*
X368999Y642239D01*
X368809Y642385D01*
X368605Y642515D01*
X368387Y642631D01*
X368156Y642731D01*
X367912Y642815D01*
X367655Y642885D01*
X367386Y642939D01*
X367103Y642977D01*
X366808Y643000D01*
X366499Y643008D01*
X366060Y642991D01*
X365646Y642941D01*
X365257Y642858D01*
X364892Y642741D01*
X364551Y642590D01*
X364235Y642406D01*
X363944Y642189D01*
X363677Y641938D01*
X363438Y641658D01*
X363231Y641352D01*
X363056Y641021D01*
X362912Y640664D01*
X362801Y640282D01*
X362721Y639874D01*
X362673Y639441D01*
X362657Y638982D01*
X362665Y638672D01*
X362686Y638373D01*
X362722Y638084D01*
X362771Y637806D01*
X362836Y637539D01*
X362914Y637282D01*
X363007Y637036D01*
X363114Y636800D01*
X363234Y636577D01*
X363368Y636366D01*
X363514Y636169D01*
X363674Y635986D01*
X363846Y635815D01*
X364031Y635658D01*
X364230Y635514D01*
X364441Y635384D01*
X364664Y635267D01*
X364897Y635167D01*
X365139Y635082D01*
X365392Y635012D01*
X365655Y634958D01*
X365928Y634919D01*
X366211Y634896D01*
X366505Y634888D01*
X366791Y634896D01*
G37*
G36*
X408198Y634896D02*
X408476Y634921D01*
X408745Y634963D01*
X409005Y635021D01*
X409256Y635096D01*
X409499Y635187D01*
X409733Y635295D01*
X409958Y635420D01*
X410172Y635561D01*
X410374Y635716D01*
X410564Y635888D01*
X410741Y636074D01*
X410906Y636275D01*
X411059Y636492D01*
X411199Y636724D01*
X411327Y636971D01*
X410453Y637408D01*
X410232Y637023D01*
X409985Y636690D01*
X409712Y636408D01*
X409413Y636177D01*
X409089Y635998D01*
X408739Y635870D01*
X408554Y635825D01*
X408363Y635793D01*
X408165Y635774D01*
X407961Y635767D01*
X407646Y635781D01*
X407348Y635822D01*
X407066Y635891D01*
X406801Y635988D01*
X406553Y636112D01*
X406322Y636263D01*
X406107Y636442D01*
X405909Y636649D01*
X405731Y636879D01*
X405577Y637126D01*
X405446Y637391D01*
X405340Y637673D01*
X405257Y637974D01*
X405197Y638292D01*
X405162Y638628D01*
X405150Y638982D01*
X405161Y639339D01*
X405196Y639676D01*
X405252Y639994D01*
X405332Y640293D01*
X405434Y640572D01*
X405560Y640831D01*
X405707Y641071D01*
X405878Y641292D01*
X406069Y641489D01*
X406278Y641660D01*
X406506Y641805D01*
X406752Y641924D01*
X407016Y642016D01*
X407298Y642082D01*
X407598Y642121D01*
X407916Y642134D01*
X408319Y642112D01*
X408694Y642043D01*
X409040Y641930D01*
X409358Y641770D01*
X409641Y641568D01*
X409883Y641325D01*
X410082Y641042D01*
X410240Y640718D01*
X411254Y641054D01*
X411148Y641288D01*
X411027Y641508D01*
X410893Y641713D01*
X410744Y641903D01*
X410582Y642079D01*
X410406Y642239D01*
X410215Y642385D01*
X410011Y642515D01*
X409793Y642631D01*
X409562Y642731D01*
X409318Y642815D01*
X409062Y642885D01*
X408792Y642939D01*
X408509Y642977D01*
X408214Y643000D01*
X407905Y643008D01*
X407467Y642991D01*
X407053Y642941D01*
X406663Y642858D01*
X406298Y642741D01*
X405957Y642590D01*
X405641Y642406D01*
X405350Y642189D01*
X405083Y641938D01*
X404844Y641658D01*
X404637Y641352D01*
X404462Y641021D01*
X404318Y640664D01*
X404207Y640282D01*
X404127Y639874D01*
X404080Y639441D01*
X404064Y638982D01*
X404071Y638672D01*
X404092Y638373D01*
X404128Y638084D01*
X404178Y637806D01*
X404242Y637539D01*
X404320Y637282D01*
X404413Y637036D01*
X404520Y636800D01*
X404641Y636577D01*
X404774Y636366D01*
X404921Y636169D01*
X405080Y635986D01*
X405252Y635815D01*
X405438Y635658D01*
X405636Y635514D01*
X405847Y635384D01*
X406070Y635267D01*
X406303Y635167D01*
X406546Y635082D01*
X406799Y635012D01*
X407062Y634958D01*
X407335Y634919D01*
X407618Y634896D01*
X407911Y634888D01*
X408198Y634896D01*
G37*
G36*
X415794Y642017D02*
X418505Y642017D01*
X418505Y642890D01*
X412020Y642890D01*
X412020Y642017D01*
X414730Y642017D01*
X414730Y635000D01*
X415794Y635000D01*
X415794Y642017D01*
G37*
%LPC*%
G36*
X429460Y639122D02*
X429460Y642034D01*
X431997Y642034D01*
X432411Y642011D01*
X432773Y641943D01*
X433084Y641830D01*
X433221Y641757D01*
X433344Y641672D01*
X433454Y641577D01*
X433549Y641471D01*
X433629Y641355D01*
X433695Y641229D01*
X433746Y641093D01*
X433782Y640946D01*
X433804Y640789D01*
X433812Y640622D01*
X433804Y640450D01*
X433783Y640287D01*
X433747Y640133D01*
X433696Y639990D01*
X433631Y639857D01*
X433552Y639734D01*
X433458Y639620D01*
X433350Y639516D01*
X433228Y639424D01*
X433095Y639344D01*
X432949Y639276D01*
X432792Y639220D01*
X432622Y639177D01*
X432441Y639146D01*
X432247Y639128D01*
X432042Y639122D01*
X429460Y639122D01*
G37*
G36*
X340844Y638142D02*
X341852Y640734D01*
X342093Y641397D01*
X342267Y641927D01*
X342317Y642084D01*
X342468Y641619D01*
X342625Y641157D01*
X342782Y640746D01*
X343796Y638142D01*
X340844Y638142D01*
G37*
%LPD*%
G36*
X362207Y633449D02*
X355526Y633449D01*
X355526Y632721D01*
X362207Y632721D01*
X362207Y633449D01*
G37*
G36*
X166277Y414114D02*
X166952Y414166D01*
X167583Y414252D01*
X168170Y414373D01*
X168713Y414529D01*
X169211Y414719D01*
X169666Y414943D01*
X170076Y415202D01*
X170440Y415494D01*
X170755Y415817D01*
X171022Y416170D01*
X171241Y416554D01*
X171411Y416968D01*
X171532Y417413D01*
X171605Y417889D01*
X171623Y418139D01*
X171629Y418396D01*
X171611Y418851D01*
X171558Y419280D01*
X171470Y419684D01*
X171346Y420063D01*
X171187Y420417D01*
X170992Y420745D01*
X170762Y421048D01*
X170497Y421326D01*
X170201Y421575D01*
X169880Y421791D01*
X169532Y421973D01*
X169159Y422123D01*
X168760Y422239D01*
X168336Y422322D01*
X167885Y422372D01*
X167409Y422388D01*
X166969Y422372D01*
X166551Y422325D01*
X166157Y422247D01*
X165786Y422137D01*
X165437Y421996D01*
X165112Y421823D01*
X164810Y421619D01*
X164531Y421383D01*
X164280Y421121D01*
X164063Y420837D01*
X163879Y420531D01*
X163728Y420202D01*
X163611Y419852D01*
X163528Y419479D01*
X163477Y419085D01*
X163461Y418668D01*
X163467Y418419D01*
X163487Y418178D01*
X163519Y417943D01*
X163565Y417716D01*
X163695Y417283D01*
X163877Y416878D01*
X164110Y416510D01*
X164390Y416185D01*
X164717Y415904D01*
X165093Y415667D01*
X164514Y415679D01*
X163970Y415714D01*
X163461Y415772D01*
X162988Y415853D01*
X162550Y415957D01*
X162147Y416084D01*
X161779Y416235D01*
X161447Y416409D01*
X161152Y416604D01*
X160896Y416818D01*
X160680Y417051D01*
X160503Y417303D01*
X160365Y417574D01*
X160267Y417864D01*
X160208Y418173D01*
X160188Y418501D01*
X160212Y418877D01*
X160282Y419217D01*
X160400Y419524D01*
X160565Y419795D01*
X160777Y420033D01*
X161037Y420235D01*
X161343Y420403D01*
X161697Y420537D01*
X161425Y422046D01*
X161120Y421947D01*
X160835Y421832D01*
X160569Y421700D01*
X160323Y421552D01*
X160097Y421389D01*
X159891Y421209D01*
X159704Y421012D01*
X159537Y420800D01*
X159389Y420572D01*
X159261Y420327D01*
X159153Y420066D01*
X159064Y419789D01*
X158996Y419496D01*
X158946Y419186D01*
X158917Y418861D01*
X158907Y418519D01*
X158914Y418257D01*
X158934Y418003D01*
X158967Y417757D01*
X159015Y417518D01*
X159075Y417287D01*
X159149Y417063D01*
X159337Y416639D01*
X159579Y416245D01*
X159874Y415882D01*
X160224Y415549D01*
X160627Y415246D01*
X161080Y414977D01*
X161580Y414743D01*
X162126Y414546D01*
X162719Y414384D01*
X163359Y414258D01*
X164045Y414169D01*
X164778Y414115D01*
X165558Y414097D01*
X166277Y414114D01*
G37*
G36*
X166277Y424114D02*
X166952Y424166D01*
X167583Y424252D01*
X168170Y424373D01*
X168713Y424529D01*
X169211Y424719D01*
X169666Y424943D01*
X170076Y425202D01*
X170440Y425494D01*
X170755Y425817D01*
X171022Y426170D01*
X171241Y426554D01*
X171411Y426968D01*
X171532Y427413D01*
X171605Y427889D01*
X171623Y428139D01*
X171629Y428396D01*
X171611Y428851D01*
X171558Y429280D01*
X171470Y429684D01*
X171346Y430063D01*
X171187Y430417D01*
X170992Y430745D01*
X170762Y431048D01*
X170497Y431326D01*
X170201Y431575D01*
X169880Y431791D01*
X169532Y431973D01*
X169159Y432123D01*
X168760Y432239D01*
X168336Y432322D01*
X167885Y432372D01*
X167409Y432388D01*
X166969Y432372D01*
X166551Y432325D01*
X166157Y432247D01*
X165786Y432137D01*
X165437Y431996D01*
X165112Y431823D01*
X164810Y431619D01*
X164531Y431383D01*
X164280Y431121D01*
X164063Y430837D01*
X163879Y430531D01*
X163728Y430202D01*
X163611Y429852D01*
X163528Y429479D01*
X163477Y429085D01*
X163461Y428668D01*
X163467Y428419D01*
X163487Y428178D01*
X163519Y427943D01*
X163565Y427716D01*
X163695Y427283D01*
X163877Y426878D01*
X164110Y426510D01*
X164390Y426185D01*
X164717Y425904D01*
X165093Y425667D01*
X164514Y425679D01*
X163970Y425714D01*
X163461Y425772D01*
X162988Y425853D01*
X162550Y425957D01*
X162147Y426084D01*
X161779Y426235D01*
X161447Y426409D01*
X161152Y426604D01*
X160896Y426818D01*
X160680Y427051D01*
X160503Y427303D01*
X160365Y427574D01*
X160267Y427864D01*
X160208Y428173D01*
X160188Y428501D01*
X160212Y428877D01*
X160282Y429217D01*
X160400Y429524D01*
X160565Y429795D01*
X160777Y430033D01*
X161037Y430235D01*
X161343Y430403D01*
X161697Y430537D01*
X161425Y432046D01*
X161120Y431947D01*
X160835Y431832D01*
X160569Y431700D01*
X160323Y431552D01*
X160097Y431389D01*
X159891Y431209D01*
X159704Y431012D01*
X159537Y430800D01*
X159389Y430572D01*
X159261Y430327D01*
X159153Y430066D01*
X159064Y429789D01*
X158996Y429496D01*
X158946Y429186D01*
X158917Y428861D01*
X158907Y428519D01*
X158914Y428257D01*
X158934Y428003D01*
X158967Y427757D01*
X159015Y427518D01*
X159075Y427287D01*
X159149Y427063D01*
X159337Y426639D01*
X159579Y426245D01*
X159874Y425882D01*
X160224Y425549D01*
X160627Y425246D01*
X161080Y424977D01*
X161580Y424743D01*
X162126Y424546D01*
X162719Y424384D01*
X163359Y424258D01*
X164045Y424169D01*
X164778Y424115D01*
X165558Y424097D01*
X166277Y424114D01*
G37*
G36*
X171454Y381181D02*
X163206Y381181D01*
X161548Y381146D01*
X160574Y381120D01*
X161539Y381409D01*
X163031Y381901D01*
X171454Y385138D01*
X171454Y386314D01*
X163031Y389508D01*
X162545Y389684D01*
X161973Y389872D01*
X160574Y390280D01*
X161864Y390220D01*
X163206Y390201D01*
X171454Y390201D01*
X171454Y391710D01*
X159091Y391710D01*
X159091Y389560D01*
X167663Y386331D01*
X167980Y386216D01*
X168563Y386029D01*
X169187Y385843D01*
X169629Y385735D01*
X168773Y385520D01*
X168200Y385354D01*
X167663Y385182D01*
X159091Y381892D01*
X159091Y379690D01*
X171454Y379690D01*
X171454Y381181D01*
G37*
G36*
X168868Y355136D02*
X169224Y355271D01*
X169555Y355435D01*
X169862Y355629D01*
X170144Y355852D01*
X170402Y356105D01*
X170635Y356388D01*
X170844Y356701D01*
X171028Y357043D01*
X171187Y357415D01*
X171322Y357816D01*
X171433Y358248D01*
X171519Y358709D01*
X171580Y359199D01*
X171617Y359720D01*
X171629Y360270D01*
X171614Y360860D01*
X171570Y361416D01*
X171497Y361939D01*
X171394Y362427D01*
X171262Y362881D01*
X171101Y363301D01*
X170910Y363686D01*
X170690Y364038D01*
X170443Y364351D01*
X170173Y364623D01*
X169878Y364853D01*
X169558Y365041D01*
X169215Y365188D01*
X168848Y365292D01*
X168456Y365355D01*
X168041Y365376D01*
X167714Y365364D01*
X167409Y365329D01*
X167126Y365270D01*
X166865Y365187D01*
X166623Y365084D01*
X166398Y364962D01*
X166189Y364823D01*
X165996Y364665D01*
X165819Y364491D01*
X165656Y364302D01*
X165508Y364098D01*
X165373Y363880D01*
X165135Y363412D01*
X164930Y362910D01*
X164755Y362381D01*
X164606Y361827D01*
X164338Y360691D01*
X164157Y359910D01*
X163990Y359272D01*
X163839Y358774D01*
X163702Y358418D01*
X163565Y358150D01*
X163415Y357915D01*
X163250Y357713D01*
X163070Y357545D01*
X162871Y357413D01*
X162648Y357318D01*
X162400Y357262D01*
X162127Y357243D01*
X161891Y357255D01*
X161670Y357291D01*
X161464Y357352D01*
X161274Y357438D01*
X161098Y357548D01*
X160938Y357682D01*
X160792Y357840D01*
X160662Y358023D01*
X160547Y358230D01*
X160447Y358458D01*
X160362Y358708D01*
X160293Y358980D01*
X160240Y359274D01*
X160201Y359590D01*
X160178Y359927D01*
X160170Y360287D01*
X160177Y360616D01*
X160198Y360926D01*
X160233Y361218D01*
X160281Y361491D01*
X160344Y361746D01*
X160420Y361983D01*
X160510Y362202D01*
X160614Y362402D01*
X160733Y362585D01*
X160869Y362753D01*
X161022Y362905D01*
X161192Y363042D01*
X161378Y363164D01*
X161582Y363270D01*
X161802Y363361D01*
X162039Y363437D01*
X161750Y365086D01*
X161376Y364964D01*
X161030Y364821D01*
X160713Y364657D01*
X160424Y364472D01*
X160163Y364267D01*
X159931Y364040D01*
X159727Y363793D01*
X159552Y363525D01*
X159401Y363231D01*
X159270Y362906D01*
X159159Y362550D01*
X159068Y362162D01*
X158998Y361745D01*
X158947Y361296D01*
X158917Y360816D01*
X158907Y360305D01*
X158920Y359755D01*
X158961Y359238D01*
X159028Y358754D01*
X159122Y358303D01*
X159243Y357885D01*
X159391Y357499D01*
X159565Y357146D01*
X159767Y356826D01*
X159993Y356541D01*
X160242Y356294D01*
X160514Y356085D01*
X160809Y355914D01*
X161126Y355782D01*
X161466Y355687D01*
X161829Y355630D01*
X162215Y355611D01*
X162551Y355625D01*
X162868Y355669D01*
X163166Y355741D01*
X163443Y355843D01*
X163702Y355972D01*
X163944Y356127D01*
X164169Y356308D01*
X164377Y356514D01*
X164572Y356754D01*
X164758Y357033D01*
X164934Y357353D01*
X165101Y357712D01*
X165264Y358136D01*
X165426Y358647D01*
X165588Y359248D01*
X165751Y359936D01*
X166110Y361472D01*
X166199Y361806D01*
X166297Y362116D01*
X166405Y362403D01*
X166523Y362665D01*
X166654Y362901D01*
X166801Y363109D01*
X166965Y363289D01*
X167146Y363441D01*
X167349Y363562D01*
X167580Y363649D01*
X167840Y363700D01*
X168128Y363718D01*
X168390Y363704D01*
X168635Y363663D01*
X168864Y363594D01*
X169077Y363497D01*
X169273Y363373D01*
X169453Y363222D01*
X169617Y363043D01*
X169765Y362836D01*
X169895Y362604D01*
X170008Y362349D01*
X170104Y362070D01*
X170182Y361769D01*
X170243Y361444D01*
X170287Y361096D01*
X170313Y360725D01*
X170322Y360331D01*
X170314Y359949D01*
X170289Y359587D01*
X170248Y359246D01*
X170191Y358925D01*
X170118Y358625D01*
X170028Y358345D01*
X169922Y358086D01*
X169800Y357848D01*
X169660Y357630D01*
X169502Y357431D01*
X169325Y357252D01*
X169130Y357093D01*
X168916Y356954D01*
X168684Y356835D01*
X168433Y356735D01*
X168163Y356655D01*
X168488Y355032D01*
X168868Y355136D01*
G37*
G36*
X168868Y367136D02*
X169224Y367271D01*
X169555Y367435D01*
X169862Y367629D01*
X170144Y367852D01*
X170402Y368105D01*
X170635Y368388D01*
X170844Y368701D01*
X171028Y369043D01*
X171187Y369415D01*
X171322Y369816D01*
X171433Y370248D01*
X171519Y370709D01*
X171580Y371199D01*
X171617Y371720D01*
X171629Y372270D01*
X171614Y372860D01*
X171570Y373416D01*
X171497Y373939D01*
X171394Y374427D01*
X171262Y374881D01*
X171101Y375301D01*
X170910Y375686D01*
X170690Y376038D01*
X170443Y376351D01*
X170173Y376623D01*
X169878Y376853D01*
X169558Y377041D01*
X169215Y377188D01*
X168848Y377292D01*
X168456Y377355D01*
X168041Y377376D01*
X167714Y377364D01*
X167409Y377329D01*
X167126Y377270D01*
X166865Y377187D01*
X166623Y377084D01*
X166398Y376962D01*
X166189Y376823D01*
X165996Y376665D01*
X165819Y376491D01*
X165656Y376302D01*
X165508Y376098D01*
X165373Y375880D01*
X165135Y375412D01*
X164930Y374910D01*
X164755Y374381D01*
X164606Y373827D01*
X164338Y372691D01*
X164157Y371910D01*
X163990Y371272D01*
X163839Y370774D01*
X163702Y370418D01*
X163565Y370150D01*
X163415Y369915D01*
X163250Y369713D01*
X163070Y369545D01*
X162871Y369413D01*
X162648Y369318D01*
X162400Y369262D01*
X162127Y369243D01*
X161891Y369255D01*
X161670Y369291D01*
X161464Y369352D01*
X161274Y369438D01*
X161098Y369548D01*
X160938Y369682D01*
X160792Y369840D01*
X160662Y370023D01*
X160547Y370230D01*
X160447Y370458D01*
X160362Y370708D01*
X160293Y370980D01*
X160240Y371274D01*
X160201Y371590D01*
X160178Y371927D01*
X160170Y372287D01*
X160177Y372616D01*
X160198Y372926D01*
X160233Y373218D01*
X160281Y373491D01*
X160344Y373746D01*
X160420Y373983D01*
X160510Y374202D01*
X160614Y374402D01*
X160733Y374585D01*
X160869Y374753D01*
X161022Y374905D01*
X161192Y375042D01*
X161378Y375164D01*
X161582Y375270D01*
X161802Y375361D01*
X162039Y375437D01*
X161750Y377086D01*
X161376Y376964D01*
X161030Y376821D01*
X160713Y376657D01*
X160424Y376472D01*
X160163Y376267D01*
X159931Y376040D01*
X159727Y375793D01*
X159552Y375525D01*
X159401Y375231D01*
X159270Y374906D01*
X159159Y374550D01*
X159068Y374162D01*
X158998Y373745D01*
X158947Y373296D01*
X158917Y372816D01*
X158907Y372305D01*
X158920Y371755D01*
X158961Y371238D01*
X159028Y370754D01*
X159122Y370303D01*
X159243Y369885D01*
X159391Y369499D01*
X159565Y369146D01*
X159767Y368826D01*
X159993Y368541D01*
X160242Y368294D01*
X160514Y368085D01*
X160809Y367914D01*
X161126Y367782D01*
X161466Y367687D01*
X161829Y367630D01*
X162215Y367611D01*
X162551Y367625D01*
X162868Y367669D01*
X163166Y367741D01*
X163443Y367843D01*
X163702Y367972D01*
X163944Y368127D01*
X164169Y368308D01*
X164377Y368514D01*
X164572Y368754D01*
X164758Y369033D01*
X164934Y369353D01*
X165101Y369712D01*
X165264Y370136D01*
X165426Y370647D01*
X165588Y371248D01*
X165751Y371936D01*
X166110Y373472D01*
X166199Y373806D01*
X166297Y374116D01*
X166405Y374403D01*
X166523Y374665D01*
X166654Y374901D01*
X166801Y375109D01*
X166965Y375289D01*
X167146Y375441D01*
X167349Y375562D01*
X167580Y375649D01*
X167840Y375700D01*
X168128Y375718D01*
X168390Y375704D01*
X168635Y375663D01*
X168864Y375594D01*
X169077Y375497D01*
X169273Y375373D01*
X169453Y375222D01*
X169617Y375043D01*
X169765Y374836D01*
X169895Y374604D01*
X170008Y374349D01*
X170104Y374070D01*
X170182Y373769D01*
X170243Y373444D01*
X170287Y373096D01*
X170313Y372725D01*
X170322Y372331D01*
X170314Y371949D01*
X170289Y371587D01*
X170248Y371246D01*
X170191Y370925D01*
X170118Y370625D01*
X170028Y370345D01*
X169922Y370086D01*
X169800Y369848D01*
X169660Y369630D01*
X169502Y369431D01*
X169325Y369252D01*
X169130Y369093D01*
X168916Y368954D01*
X168684Y368835D01*
X168433Y368735D01*
X168163Y368655D01*
X168488Y367032D01*
X168868Y367136D01*
G37*
G36*
X171454Y402274D02*
X170111Y402274D01*
X170111Y395825D01*
X169801Y395978D01*
X169485Y396172D01*
X169163Y396408D01*
X168835Y396685D01*
X168493Y397009D01*
X168132Y397385D01*
X167750Y397812D01*
X167347Y398291D01*
X166650Y399134D01*
X166051Y399828D01*
X165549Y400375D01*
X165145Y400774D01*
X164790Y401078D01*
X164435Y401343D01*
X164079Y401567D01*
X163724Y401752D01*
X163368Y401896D01*
X163011Y401999D01*
X162653Y402060D01*
X162294Y402081D01*
X161900Y402065D01*
X161528Y402018D01*
X161181Y401940D01*
X160856Y401830D01*
X160554Y401689D01*
X160276Y401516D01*
X160021Y401312D01*
X159789Y401076D01*
X159582Y400812D01*
X159403Y400520D01*
X159251Y400201D01*
X159127Y399856D01*
X159031Y399483D01*
X158962Y399083D01*
X158921Y398657D01*
X158907Y398203D01*
X158921Y397787D01*
X158962Y397391D01*
X159030Y397013D01*
X159126Y396656D01*
X159250Y396317D01*
X159401Y395998D01*
X159579Y395698D01*
X159784Y395417D01*
X160013Y395161D01*
X160261Y394932D01*
X160528Y394732D01*
X160813Y394561D01*
X161118Y394418D01*
X161441Y394303D01*
X161783Y394216D01*
X162145Y394158D01*
X162294Y395773D01*
X162053Y395810D01*
X161826Y395863D01*
X161612Y395934D01*
X161413Y396022D01*
X161227Y396126D01*
X161056Y396247D01*
X160898Y396385D01*
X160754Y396540D01*
X160625Y396709D01*
X160514Y396889D01*
X160420Y397081D01*
X160343Y397283D01*
X160283Y397496D01*
X160240Y397721D01*
X160214Y397956D01*
X160206Y398203D01*
X160214Y398461D01*
X160241Y398705D01*
X160285Y398934D01*
X160346Y399148D01*
X160425Y399348D01*
X160521Y399534D01*
X160635Y399705D01*
X160767Y399861D01*
X160915Y400001D01*
X161076Y400122D01*
X161252Y400225D01*
X161443Y400309D01*
X161647Y400374D01*
X161866Y400421D01*
X162099Y400449D01*
X162346Y400458D01*
X162714Y400436D01*
X163061Y400371D01*
X163389Y400263D01*
X163698Y400111D01*
X163993Y399925D01*
X164281Y399711D01*
X164563Y399471D01*
X164838Y399203D01*
X165382Y398608D01*
X165926Y397944D01*
X166493Y397243D01*
X167106Y396536D01*
X167434Y396185D01*
X167780Y395842D01*
X168144Y395507D01*
X168527Y395180D01*
X168935Y394870D01*
X169373Y394585D01*
X169841Y394324D01*
X170339Y394088D01*
X171454Y394088D01*
X171454Y402274D01*
G37*
G36*
X171454Y412300D02*
X170111Y412300D01*
X170111Y409291D01*
X159091Y409291D01*
X159091Y407834D01*
X161100Y404913D01*
X162592Y404913D01*
X160600Y407703D01*
X170111Y407703D01*
X170111Y404553D01*
X171454Y404553D01*
X171454Y412300D01*
G37*
%LPC*%
G36*
X166826Y415836D02*
X166566Y415868D01*
X166321Y415921D01*
X166092Y415995D01*
X165877Y416091D01*
X165678Y416208D01*
X165494Y416346D01*
X165325Y416505D01*
X165174Y416682D01*
X165043Y416872D01*
X164932Y417075D01*
X164841Y417292D01*
X164771Y417521D01*
X164720Y417765D01*
X164690Y418021D01*
X164680Y418291D01*
X164692Y418577D01*
X164726Y418846D01*
X164783Y419100D01*
X164862Y419337D01*
X164965Y419558D01*
X165090Y419763D01*
X165238Y419952D01*
X165408Y420124D01*
X165600Y420279D01*
X165811Y420412D01*
X166041Y420525D01*
X166290Y420618D01*
X166559Y420690D01*
X166846Y420741D01*
X167153Y420772D01*
X167479Y420782D01*
X167806Y420772D01*
X168114Y420742D01*
X168405Y420691D01*
X168678Y420620D01*
X168933Y420529D01*
X169169Y420417D01*
X169388Y420285D01*
X169589Y420133D01*
X169769Y419963D01*
X169925Y419778D01*
X170057Y419577D01*
X170165Y419361D01*
X170249Y419130D01*
X170309Y418883D01*
X170345Y418621D01*
X170357Y418343D01*
X170343Y418073D01*
X170300Y417816D01*
X170229Y417570D01*
X170129Y417338D01*
X170000Y417117D01*
X169844Y416910D01*
X169658Y416714D01*
X169444Y416532D01*
X169208Y416366D01*
X168956Y416223D01*
X168687Y416101D01*
X168402Y416002D01*
X168102Y415925D01*
X167784Y415869D01*
X167451Y415836D01*
X167102Y415825D01*
X166826Y415836D01*
G37*
G36*
X166826Y425836D02*
X166566Y425868D01*
X166321Y425921D01*
X166092Y425995D01*
X165877Y426091D01*
X165678Y426208D01*
X165494Y426346D01*
X165325Y426505D01*
X165174Y426682D01*
X165043Y426872D01*
X164932Y427075D01*
X164841Y427292D01*
X164771Y427521D01*
X164720Y427765D01*
X164690Y428021D01*
X164680Y428291D01*
X164692Y428577D01*
X164726Y428846D01*
X164783Y429100D01*
X164862Y429337D01*
X164965Y429558D01*
X165090Y429763D01*
X165238Y429952D01*
X165408Y430124D01*
X165600Y430279D01*
X165811Y430412D01*
X166041Y430525D01*
X166290Y430618D01*
X166559Y430690D01*
X166846Y430741D01*
X167153Y430772D01*
X167479Y430782D01*
X167806Y430772D01*
X168114Y430742D01*
X168405Y430691D01*
X168678Y430620D01*
X168933Y430529D01*
X169169Y430417D01*
X169388Y430285D01*
X169589Y430133D01*
X169769Y429963D01*
X169925Y429778D01*
X170057Y429577D01*
X170165Y429361D01*
X170249Y429130D01*
X170309Y428883D01*
X170345Y428621D01*
X170357Y428343D01*
X170343Y428073D01*
X170300Y427816D01*
X170229Y427570D01*
X170129Y427338D01*
X170000Y427117D01*
X169844Y426910D01*
X169658Y426714D01*
X169444Y426532D01*
X169208Y426366D01*
X168956Y426223D01*
X168687Y426101D01*
X168402Y426002D01*
X168102Y425925D01*
X167784Y425869D01*
X167451Y425836D01*
X167102Y425825D01*
X166826Y425836D01*
G37*
%LPD*%
G36*
X44450Y480120D02*
X39326Y480120D01*
X39326Y483965D01*
X44450Y487170D01*
X44450Y489097D01*
X41397Y487085D01*
X39134Y485594D01*
X39061Y485937D01*
X38968Y486261D01*
X38852Y486566D01*
X38715Y486852D01*
X38623Y487008D01*
X38557Y487119D01*
X38377Y487366D01*
X38175Y487595D01*
X37951Y487805D01*
X37710Y487993D01*
X37455Y488156D01*
X37187Y488294D01*
X36905Y488406D01*
X36609Y488494D01*
X36299Y488557D01*
X35976Y488594D01*
X35639Y488607D01*
X35234Y488589D01*
X34853Y488536D01*
X34494Y488447D01*
X34158Y488323D01*
X33844Y488164D01*
X33554Y487969D01*
X33287Y487738D01*
X33042Y487472D01*
X32823Y487174D01*
X32634Y486846D01*
X32474Y486488D01*
X32342Y486101D01*
X32240Y485683D01*
X32168Y485236D01*
X32124Y484760D01*
X32109Y484254D01*
X32109Y478447D01*
X44450Y478447D01*
X44450Y480120D01*
G37*
G36*
X44450Y499044D02*
X43110Y499044D01*
X43110Y496040D01*
X32109Y496040D01*
X32109Y494586D01*
X34115Y491669D01*
X35604Y491669D01*
X33616Y494455D01*
X43110Y494455D01*
X43110Y491310D01*
X44450Y491310D01*
X44450Y499044D01*
G37*
%LPC*%
G36*
X33449Y480120D02*
X33449Y484087D01*
X33458Y484421D01*
X33485Y484734D01*
X33529Y485028D01*
X33591Y485301D01*
X33670Y485555D01*
X33767Y485788D01*
X33882Y486001D01*
X34014Y486194D01*
X34163Y486365D01*
X34329Y486514D01*
X34510Y486639D01*
X34707Y486742D01*
X34921Y486822D01*
X35150Y486879D01*
X35395Y486914D01*
X35656Y486925D01*
X35927Y486914D01*
X36182Y486880D01*
X36421Y486823D01*
X36645Y486744D01*
X36854Y486643D01*
X37047Y486519D01*
X37224Y486372D01*
X37386Y486202D01*
X37531Y486012D01*
X37656Y485804D01*
X37763Y485576D01*
X37849Y485330D01*
X37917Y485065D01*
X37965Y484781D01*
X37994Y484479D01*
X38004Y484157D01*
X38004Y480120D01*
X33449Y480120D01*
G37*
%LPD*%
G36*
X66644Y462324D02*
X70489Y462324D01*
X73695Y457200D01*
X75622Y457200D01*
X73610Y460253D01*
X72118Y462516D01*
X72461Y462589D01*
X72785Y462682D01*
X73090Y462798D01*
X73376Y462935D01*
X73532Y463027D01*
X73643Y463093D01*
X73891Y463274D01*
X74120Y463475D01*
X74330Y463699D01*
X74518Y463940D01*
X74681Y464195D01*
X74818Y464463D01*
X74931Y464745D01*
X75019Y465041D01*
X75081Y465351D01*
X75119Y465674D01*
X75131Y466011D01*
X75114Y466416D01*
X75060Y466797D01*
X74972Y467156D01*
X74848Y467492D01*
X74688Y467806D01*
X74493Y468096D01*
X74263Y468363D01*
X73997Y468608D01*
X73699Y468827D01*
X73371Y469016D01*
X73013Y469176D01*
X72625Y469308D01*
X72208Y469410D01*
X71761Y469482D01*
X71285Y469526D01*
X70778Y469541D01*
X64971Y469541D01*
X64971Y457200D01*
X66644Y457200D01*
X66644Y462324D01*
G37*
G36*
X85543Y458540D02*
X79105Y458540D01*
X79257Y458850D01*
X79451Y459165D01*
X79686Y459487D01*
X79963Y459814D01*
X80287Y460155D01*
X80662Y460516D01*
X81088Y460897D01*
X81566Y461299D01*
X82408Y461995D01*
X83101Y462593D01*
X83647Y463094D01*
X84045Y463497D01*
X84349Y463852D01*
X84613Y464207D01*
X84837Y464562D01*
X85021Y464916D01*
X85165Y465272D01*
X85268Y465628D01*
X85329Y465985D01*
X85350Y466344D01*
X85334Y466737D01*
X85287Y467108D01*
X85209Y467455D01*
X85099Y467779D01*
X84958Y468080D01*
X84786Y468358D01*
X84582Y468613D01*
X84347Y468844D01*
X84083Y469051D01*
X83792Y469230D01*
X83474Y469381D01*
X83129Y469505D01*
X82756Y469601D01*
X82358Y469670D01*
X81932Y469711D01*
X81479Y469725D01*
X81063Y469711D01*
X80668Y469670D01*
X80291Y469602D01*
X79934Y469506D01*
X79596Y469383D01*
X79277Y469232D01*
X78978Y469054D01*
X78698Y468849D01*
X78442Y468620D01*
X78214Y468373D01*
X78014Y468107D01*
X77843Y467822D01*
X77700Y467518D01*
X77585Y467195D01*
X77499Y466853D01*
X77441Y466493D01*
X79053Y466344D01*
X79089Y466584D01*
X79143Y466811D01*
X79214Y467024D01*
X79301Y467223D01*
X79405Y467408D01*
X79526Y467580D01*
X79664Y467737D01*
X79819Y467881D01*
X79988Y468009D01*
X80167Y468121D01*
X80358Y468215D01*
X80560Y468292D01*
X80773Y468351D01*
X80997Y468394D01*
X81232Y468420D01*
X81479Y468428D01*
X81736Y468420D01*
X81980Y468393D01*
X82208Y468350D01*
X82422Y468288D01*
X82622Y468209D01*
X82807Y468113D01*
X82978Y467999D01*
X83134Y467868D01*
X83274Y467721D01*
X83395Y467559D01*
X83497Y467383D01*
X83581Y467193D01*
X83646Y466989D01*
X83692Y466771D01*
X83720Y466538D01*
X83730Y466291D01*
X83708Y465925D01*
X83643Y465578D01*
X83535Y465250D01*
X83384Y464943D01*
X83197Y464648D01*
X82984Y464360D01*
X82744Y464079D01*
X82477Y463804D01*
X81883Y463261D01*
X81220Y462718D01*
X80521Y462152D01*
X79815Y461540D01*
X79464Y461213D01*
X79121Y460868D01*
X78787Y460504D01*
X78461Y460121D01*
X78152Y459714D01*
X77867Y459277D01*
X77607Y458810D01*
X77371Y458312D01*
X77371Y457200D01*
X85543Y457200D01*
X85543Y458540D01*
G37*
%LPC*%
G36*
X66644Y463646D02*
X66644Y468201D01*
X70612Y468201D01*
X70946Y468192D01*
X71259Y468165D01*
X71553Y468121D01*
X71826Y468060D01*
X72079Y467980D01*
X72312Y467883D01*
X72525Y467768D01*
X72718Y467636D01*
X72890Y467487D01*
X73038Y467321D01*
X73164Y467140D01*
X73267Y466943D01*
X73347Y466730D01*
X73404Y466500D01*
X73438Y466255D01*
X73450Y465994D01*
X73438Y465723D01*
X73405Y465468D01*
X73348Y465229D01*
X73269Y465005D01*
X73167Y464796D01*
X73043Y464603D01*
X72896Y464426D01*
X72727Y464264D01*
X72537Y464119D01*
X72328Y463994D01*
X72101Y463887D01*
X71855Y463801D01*
X71590Y463733D01*
X71306Y463685D01*
X71003Y463656D01*
X70682Y463646D01*
X66644Y463646D01*
G37*
%LPD*%
G36*
X295244Y417874D02*
X299089Y417874D01*
X302295Y412750D01*
X304222Y412750D01*
X302210Y415803D01*
X300718Y418066D01*
X301061Y418139D01*
X301385Y418232D01*
X301690Y418348D01*
X301976Y418485D01*
X302132Y418577D01*
X302243Y418643D01*
X302491Y418824D01*
X302720Y419025D01*
X302930Y419249D01*
X303118Y419490D01*
X303281Y419745D01*
X303418Y420013D01*
X303531Y420295D01*
X303619Y420591D01*
X303681Y420901D01*
X303719Y421224D01*
X303731Y421561D01*
X303714Y421966D01*
X303660Y422347D01*
X303572Y422706D01*
X303448Y423042D01*
X303288Y423356D01*
X303093Y423646D01*
X302863Y423913D01*
X302597Y424158D01*
X302299Y424377D01*
X301971Y424566D01*
X301613Y424726D01*
X301225Y424858D01*
X300808Y424960D01*
X300361Y425032D01*
X299885Y425076D01*
X299378Y425091D01*
X293571Y425091D01*
X293571Y412750D01*
X295244Y412750D01*
X295244Y417874D01*
G37*
G36*
X310559Y412590D02*
X311019Y412633D01*
X311450Y412707D01*
X311852Y412809D01*
X312225Y412941D01*
X312569Y413102D01*
X312884Y413292D01*
X313170Y413512D01*
X313425Y413758D01*
X313646Y414029D01*
X313832Y414323D01*
X313985Y414642D01*
X314104Y414985D01*
X314189Y415351D01*
X314239Y415742D01*
X314256Y416157D01*
X314244Y416446D01*
X314208Y416723D01*
X314148Y416987D01*
X314064Y417239D01*
X313955Y417478D01*
X313823Y417704D01*
X313666Y417918D01*
X313486Y418119D01*
X313283Y418304D01*
X313062Y418469D01*
X312821Y418615D01*
X312562Y418741D01*
X312283Y418847D01*
X311985Y418934D01*
X311667Y419000D01*
X311331Y419047D01*
X311331Y419082D01*
X311637Y419156D01*
X311924Y419244D01*
X312193Y419347D01*
X312442Y419465D01*
X312673Y419597D01*
X312885Y419745D01*
X313079Y419908D01*
X313254Y420085D01*
X313409Y420277D01*
X313543Y420483D01*
X313657Y420703D01*
X313750Y420936D01*
X313822Y421183D01*
X313874Y421444D01*
X313905Y421719D01*
X313915Y422008D01*
X313899Y422383D01*
X313851Y422736D01*
X313770Y423068D01*
X313658Y423380D01*
X313513Y423670D01*
X313336Y423938D01*
X313127Y424186D01*
X312886Y424412D01*
X312616Y424614D01*
X312319Y424789D01*
X311998Y424938D01*
X311650Y425059D01*
X311276Y425153D01*
X310876Y425221D01*
X310451Y425261D01*
X310000Y425275D01*
X309585Y425261D01*
X309189Y425222D01*
X308812Y425155D01*
X308455Y425062D01*
X308117Y424943D01*
X307798Y424797D01*
X307499Y424624D01*
X307219Y424425D01*
X306963Y424202D01*
X306735Y423959D01*
X306535Y423694D01*
X306364Y423409D01*
X306221Y423103D01*
X306106Y422776D01*
X306020Y422429D01*
X305962Y422060D01*
X307547Y421938D01*
X307582Y422174D01*
X307634Y422396D01*
X307702Y422605D01*
X307787Y422800D01*
X307889Y422982D01*
X308008Y423150D01*
X308144Y423304D01*
X308296Y423444D01*
X308463Y423569D01*
X308643Y423678D01*
X308835Y423770D01*
X309040Y423845D01*
X309257Y423903D01*
X309486Y423945D01*
X309728Y423970D01*
X309982Y423978D01*
X310260Y423969D01*
X310521Y423943D01*
X310763Y423898D01*
X310988Y423835D01*
X311196Y423754D01*
X311386Y423656D01*
X311558Y423539D01*
X311712Y423405D01*
X311849Y423255D01*
X311967Y423092D01*
X312067Y422916D01*
X312149Y422727D01*
X312213Y422525D01*
X312258Y422310D01*
X312285Y422082D01*
X312295Y421841D01*
X312283Y421599D01*
X312250Y421369D01*
X312194Y421153D01*
X312116Y420951D01*
X312016Y420763D01*
X311893Y420588D01*
X311748Y420426D01*
X311581Y420278D01*
X311393Y420146D01*
X311187Y420031D01*
X310963Y419934D01*
X310721Y419854D01*
X310461Y419792D01*
X310182Y419748D01*
X309886Y419722D01*
X309571Y419713D01*
X308712Y419713D01*
X308712Y418347D01*
X309606Y418347D01*
X309961Y418338D01*
X310294Y418311D01*
X310606Y418267D01*
X310896Y418205D01*
X311165Y418126D01*
X311413Y418029D01*
X311639Y417914D01*
X311843Y417782D01*
X312025Y417634D01*
X312183Y417472D01*
X312316Y417296D01*
X312425Y417106D01*
X312510Y416903D01*
X312570Y416686D01*
X312607Y416455D01*
X312619Y416210D01*
X312608Y415929D01*
X312576Y415667D01*
X312523Y415423D01*
X312449Y415196D01*
X312353Y414987D01*
X312237Y414796D01*
X312099Y414622D01*
X311940Y414467D01*
X311762Y414329D01*
X311568Y414210D01*
X311359Y414109D01*
X311133Y414027D01*
X310891Y413962D01*
X310633Y413917D01*
X310360Y413889D01*
X310070Y413880D01*
X309781Y413888D01*
X309509Y413914D01*
X309252Y413957D01*
X309012Y414017D01*
X308787Y414094D01*
X308579Y414188D01*
X308387Y414299D01*
X308211Y414427D01*
X308051Y414573D01*
X307907Y414735D01*
X307779Y414915D01*
X307667Y415112D01*
X307572Y415325D01*
X307492Y415556D01*
X307428Y415804D01*
X307381Y416069D01*
X305752Y415921D01*
X305819Y415519D01*
X305914Y415144D01*
X306037Y414793D01*
X306189Y414468D01*
X306369Y414168D01*
X306577Y413893D01*
X306814Y413644D01*
X307079Y413420D01*
X307370Y413222D01*
X307685Y413050D01*
X308023Y412905D01*
X308385Y412786D01*
X308771Y412694D01*
X309180Y412628D01*
X309613Y412588D01*
X310070Y412575D01*
X310559Y412590D01*
G37*
%LPC*%
G36*
X295244Y419196D02*
X295244Y423751D01*
X299212Y423751D01*
X299546Y423742D01*
X299859Y423715D01*
X300153Y423671D01*
X300426Y423610D01*
X300679Y423530D01*
X300912Y423433D01*
X301125Y423318D01*
X301318Y423186D01*
X301490Y423037D01*
X301638Y422871D01*
X301764Y422690D01*
X301867Y422493D01*
X301947Y422280D01*
X302004Y422050D01*
X302038Y421805D01*
X302050Y421544D01*
X302038Y421273D01*
X302005Y421018D01*
X301948Y420779D01*
X301869Y420555D01*
X301767Y420346D01*
X301643Y420153D01*
X301496Y419976D01*
X301327Y419814D01*
X301137Y419669D01*
X300928Y419544D01*
X300701Y419437D01*
X300455Y419351D01*
X300190Y419283D01*
X299906Y419235D01*
X299603Y419206D01*
X299282Y419196D01*
X295244Y419196D01*
G37*
%LPD*%
G36*
X295244Y341674D02*
X299089Y341674D01*
X302295Y336550D01*
X304222Y336550D01*
X302210Y339603D01*
X300718Y341866D01*
X301061Y341939D01*
X301385Y342032D01*
X301690Y342148D01*
X301976Y342285D01*
X302132Y342377D01*
X302243Y342443D01*
X302491Y342624D01*
X302720Y342825D01*
X302930Y343049D01*
X303118Y343290D01*
X303281Y343545D01*
X303418Y343813D01*
X303531Y344095D01*
X303619Y344391D01*
X303681Y344701D01*
X303719Y345024D01*
X303731Y345361D01*
X303714Y345766D01*
X303660Y346147D01*
X303572Y346506D01*
X303448Y346842D01*
X303288Y347156D01*
X303093Y347446D01*
X302863Y347713D01*
X302597Y347958D01*
X302299Y348177D01*
X301971Y348366D01*
X301613Y348526D01*
X301225Y348658D01*
X300808Y348760D01*
X300361Y348832D01*
X299885Y348876D01*
X299378Y348891D01*
X293571Y348891D01*
X293571Y336550D01*
X295244Y336550D01*
X295244Y341674D01*
G37*
G36*
X312785Y339344D02*
X314519Y339344D01*
X314519Y340588D01*
X312785Y340588D01*
X312785Y348891D01*
X311130Y348891D01*
X305480Y340570D01*
X305480Y339344D01*
X311296Y339344D01*
X311296Y336550D01*
X312785Y336550D01*
X312785Y339344D01*
G37*
%LPC*%
G36*
X295244Y342996D02*
X295244Y347551D01*
X299212Y347551D01*
X299546Y347542D01*
X299859Y347515D01*
X300153Y347471D01*
X300426Y347410D01*
X300679Y347330D01*
X300912Y347233D01*
X301125Y347118D01*
X301318Y346986D01*
X301490Y346837D01*
X301638Y346671D01*
X301764Y346490D01*
X301867Y346293D01*
X301947Y346080D01*
X302004Y345850D01*
X302038Y345605D01*
X302050Y345344D01*
X302038Y345073D01*
X302005Y344818D01*
X301948Y344579D01*
X301869Y344355D01*
X301767Y344146D01*
X301643Y343953D01*
X301496Y343776D01*
X301327Y343614D01*
X301137Y343469D01*
X300928Y343344D01*
X300701Y343237D01*
X300455Y343151D01*
X300190Y343083D01*
X299906Y343035D01*
X299603Y343006D01*
X299282Y342996D01*
X295244Y342996D01*
G37*
G36*
X306934Y340588D02*
X307074Y340763D01*
X307547Y341411D01*
X310709Y346071D01*
X311051Y346649D01*
X311296Y347113D01*
X311296Y340588D01*
X306934Y340588D01*
G37*
%LPD*%
G36*
X230727Y638910D02*
X231158Y639001D01*
X231573Y639137D01*
X231947Y639310D01*
X232281Y639520D01*
X232573Y639767D01*
X232821Y640048D01*
X233021Y640358D01*
X233174Y640696D01*
X233279Y641064D01*
X233335Y641455D01*
X233340Y641862D01*
X233296Y642285D01*
X233201Y642725D01*
X233063Y643154D01*
X232891Y643542D01*
X232685Y643889D01*
X232444Y644194D01*
X232173Y644455D01*
X231875Y644666D01*
X231549Y644827D01*
X231196Y644939D01*
X230820Y645001D01*
X230428Y645012D01*
X230018Y644972D01*
X229591Y644881D01*
X229269Y644781D01*
X228972Y644663D01*
X228700Y644525D01*
X228452Y644369D01*
X228229Y644193D01*
X228032Y643997D01*
X227859Y643783D01*
X227711Y643549D01*
X227589Y643300D01*
X227496Y643038D01*
X227431Y642764D01*
X227395Y642477D01*
X227387Y642178D01*
X227408Y641866D01*
X227457Y641543D01*
X227535Y641206D01*
X227672Y640776D01*
X227845Y640385D01*
X228052Y640034D01*
X228293Y639722D01*
X228565Y639454D01*
X228864Y639237D01*
X229191Y639069D01*
X229544Y638951D01*
X229920Y638885D01*
X230315Y638871D01*
X230727Y638910D01*
G37*
G36*
X262743Y647477D02*
X262984Y647529D01*
X263220Y647605D01*
X263434Y647700D01*
X263627Y647815D01*
X263799Y647950D01*
X263949Y648103D01*
X264078Y648277D01*
X264186Y648470D01*
X264272Y648682D01*
X264337Y648913D01*
X264380Y649161D01*
X264403Y649425D01*
X264403Y649707D01*
X264382Y650005D01*
X264340Y650321D01*
X264276Y650653D01*
X264191Y651002D01*
X264089Y651353D01*
X263978Y651677D01*
X263858Y651975D01*
X263729Y652247D01*
X263591Y652492D01*
X263444Y652711D01*
X263288Y652904D01*
X263122Y653070D01*
X262947Y653210D01*
X262762Y653322D01*
X262567Y653406D01*
X262361Y653463D01*
X262145Y653492D01*
X261918Y653493D01*
X261681Y653467D01*
X261434Y653413D01*
X261186Y653334D01*
X260962Y653237D01*
X260762Y653122D01*
X260585Y652989D01*
X260432Y652837D01*
X260302Y652667D01*
X260195Y652479D01*
X260113Y652273D01*
X260052Y652048D01*
X260013Y651803D01*
X259995Y651540D01*
X259998Y651258D01*
X260023Y650957D01*
X260068Y650637D01*
X260135Y650297D01*
X260223Y649939D01*
X260324Y649592D01*
X260435Y649271D01*
X260556Y648975D01*
X260686Y648705D01*
X260826Y648461D01*
X260976Y648243D01*
X261135Y648050D01*
X261304Y647883D01*
X261483Y647742D01*
X261670Y647629D01*
X261866Y647544D01*
X262072Y647486D01*
X262287Y647455D01*
X262510Y647453D01*
X262743Y647477D01*
G37*
G36*
X258124Y646240D02*
X258366Y646292D01*
X258602Y646368D01*
X258816Y646463D01*
X259009Y646578D01*
X259180Y646712D01*
X259331Y646866D01*
X259460Y647039D01*
X259567Y647232D01*
X259654Y647445D01*
X259719Y647676D01*
X259762Y647923D01*
X259784Y648188D01*
X259785Y648469D01*
X259764Y648768D01*
X259722Y649083D01*
X259658Y649416D01*
X259573Y649765D01*
X259471Y650115D01*
X259360Y650440D01*
X259240Y650738D01*
X259111Y651009D01*
X258973Y651255D01*
X258825Y651474D01*
X258669Y651666D01*
X258504Y651833D01*
X258329Y651972D01*
X258144Y652084D01*
X257948Y652168D01*
X257742Y652225D01*
X257526Y652254D01*
X257300Y652255D01*
X257063Y652229D01*
X256816Y652176D01*
X256568Y652097D01*
X256344Y652000D01*
X256144Y651885D01*
X255967Y651751D01*
X255813Y651600D01*
X255683Y651430D01*
X255577Y651242D01*
X255494Y651035D01*
X255434Y650810D01*
X255395Y650566D01*
X255377Y650303D01*
X255380Y650021D01*
X255405Y649719D01*
X255450Y649399D01*
X255517Y649060D01*
X255605Y648702D01*
X255706Y648355D01*
X255817Y648033D01*
X255938Y647738D01*
X256068Y647468D01*
X256208Y647224D01*
X256357Y647005D01*
X256517Y646812D01*
X256686Y646645D01*
X256864Y646505D01*
X257052Y646392D01*
X257248Y646306D01*
X257454Y646248D01*
X257668Y646218D01*
X257892Y646215D01*
X258124Y646240D01*
G37*
G36*
X217355Y635390D02*
X216720Y637761D01*
X218499Y638238D01*
X220618Y636264D01*
X221510Y636503D01*
X220200Y637667D01*
X219229Y638529D01*
X219517Y638688D01*
X219759Y638878D01*
X219819Y638945D01*
X219956Y639099D01*
X220106Y639350D01*
X220207Y639623D01*
X220254Y639909D01*
X220249Y640208D01*
X220190Y640520D01*
X220132Y640705D01*
X220060Y640875D01*
X219974Y641030D01*
X219875Y641170D01*
X219762Y641295D01*
X219636Y641405D01*
X219496Y641501D01*
X219343Y641581D01*
X219178Y641645D01*
X219003Y641692D01*
X218817Y641722D01*
X218622Y641735D01*
X218416Y641730D01*
X218200Y641708D01*
X217974Y641669D01*
X217738Y641613D01*
X215051Y640893D01*
X216581Y635182D01*
X217355Y635390D01*
G37*
G36*
X242741Y642192D02*
X242145Y644417D01*
X243823Y644867D01*
X244042Y644933D01*
X244245Y645012D01*
X244432Y645102D01*
X244604Y645204D01*
X244759Y645318D01*
X244899Y645444D01*
X245023Y645581D01*
X245131Y645730D01*
X245222Y645888D01*
X245293Y646052D01*
X245345Y646222D01*
X245378Y646398D01*
X245391Y646580D01*
X245385Y646767D01*
X245360Y646961D01*
X245315Y647161D01*
X245253Y647357D01*
X245178Y647538D01*
X245090Y647703D01*
X244988Y647852D01*
X244873Y647985D01*
X244745Y648102D01*
X244603Y648203D01*
X244448Y648288D01*
X244281Y648357D01*
X244105Y648407D01*
X243918Y648440D01*
X243722Y648455D01*
X243516Y648453D01*
X243301Y648433D01*
X243075Y648395D01*
X242840Y648339D01*
X240436Y647695D01*
X241967Y641985D01*
X242741Y642192D01*
G37*
%LPC*%
G36*
X230091Y639558D02*
X229887Y639598D01*
X229689Y639661D01*
X229500Y639748D01*
X229319Y639858D01*
X229148Y639988D01*
X228990Y640137D01*
X228846Y640304D01*
X228714Y640490D01*
X228596Y640694D01*
X228491Y640917D01*
X228400Y641158D01*
X228321Y641417D01*
X228259Y641682D01*
X228218Y641937D01*
X228197Y642181D01*
X228197Y642414D01*
X228218Y642637D01*
X228260Y642850D01*
X228322Y643051D01*
X228405Y643242D01*
X228508Y643421D01*
X228630Y643584D01*
X228771Y643732D01*
X228931Y643865D01*
X229110Y643984D01*
X229308Y644087D01*
X229525Y644175D01*
X229760Y644248D01*
X229999Y644302D01*
X230230Y644333D01*
X230451Y644342D01*
X230664Y644328D01*
X230868Y644291D01*
X231064Y644231D01*
X231251Y644149D01*
X231429Y644044D01*
X231597Y643918D01*
X231751Y643774D01*
X231893Y643611D01*
X232022Y643428D01*
X232139Y643228D01*
X232242Y643008D01*
X232333Y642770D01*
X232411Y642513D01*
X232475Y642240D01*
X232518Y641978D01*
X232541Y641728D01*
X232543Y641489D01*
X232525Y641261D01*
X232485Y641045D01*
X232425Y640840D01*
X232344Y640646D01*
X232243Y640466D01*
X232122Y640301D01*
X231982Y640151D01*
X231822Y640016D01*
X231643Y639897D01*
X231445Y639793D01*
X231227Y639703D01*
X230989Y639630D01*
X230753Y639577D01*
X230525Y639547D01*
X230304Y639541D01*
X230091Y639558D01*
G37*
%LPD*%
G36*
X235743Y640317D02*
X234722Y644127D01*
X234501Y644889D01*
X234368Y645335D01*
X234621Y644925D01*
X235033Y644297D01*
X237571Y640807D01*
X238114Y640952D01*
X238547Y645239D01*
X238585Y645772D01*
X238600Y646469D01*
X238732Y645866D01*
X238889Y645243D01*
X239910Y641433D01*
X240607Y641620D01*
X239077Y647331D01*
X238084Y647065D01*
X237653Y642705D01*
X237625Y642253D01*
X237621Y641724D01*
X237416Y642092D01*
X237122Y642563D01*
X234541Y646116D01*
X233524Y645843D01*
X235054Y640132D01*
X235743Y640317D01*
G37*
G36*
X266738Y648622D02*
X266152Y650811D01*
X266745Y651578D01*
X269766Y649433D01*
X270726Y649691D01*
X267105Y652183D01*
X268872Y655315D01*
X267960Y655070D01*
X265975Y651471D01*
X265208Y654333D01*
X264434Y654125D01*
X265964Y648415D01*
X266738Y648622D01*
G37*
%LPC*%
G36*
X257756Y646852D02*
X257616Y646880D01*
X257482Y646929D01*
X257354Y646999D01*
X257233Y647089D01*
X257117Y647200D01*
X257007Y647332D01*
X256900Y647487D01*
X256798Y647665D01*
X256699Y647866D01*
X256513Y648337D01*
X256343Y648899D01*
X256205Y649486D01*
X256128Y649995D01*
X256112Y650220D01*
X256111Y650425D01*
X256125Y650611D01*
X256154Y650778D01*
X256199Y650927D01*
X256261Y651063D01*
X256339Y651184D01*
X256433Y651292D01*
X256544Y651386D01*
X256671Y651466D01*
X256814Y651532D01*
X256974Y651584D01*
X257135Y651617D01*
X257289Y651631D01*
X257435Y651624D01*
X257575Y651596D01*
X257708Y651548D01*
X257834Y651479D01*
X257953Y651390D01*
X258065Y651281D01*
X258172Y651149D01*
X258276Y650994D01*
X258474Y650613D01*
X258659Y650137D01*
X258831Y649566D01*
X258962Y649004D01*
X259034Y648508D01*
X259049Y648080D01*
X259034Y647891D01*
X259005Y647718D01*
X258961Y647562D01*
X258901Y647421D01*
X258825Y647294D01*
X258734Y647183D01*
X258628Y647087D01*
X258506Y647006D01*
X258368Y646941D01*
X258215Y646890D01*
X258056Y646857D01*
X257903Y646844D01*
X257756Y646852D01*
G37*
G36*
X262375Y648089D02*
X262234Y648118D01*
X262100Y648167D01*
X261972Y648236D01*
X261851Y648327D01*
X261736Y648437D01*
X261625Y648569D01*
X261519Y648725D01*
X261416Y648903D01*
X261317Y649104D01*
X261131Y649574D01*
X260961Y650137D01*
X260823Y650724D01*
X260746Y651232D01*
X260730Y651457D01*
X260729Y651663D01*
X260743Y651849D01*
X260773Y652015D01*
X260818Y652165D01*
X260879Y652300D01*
X260957Y652422D01*
X261051Y652530D01*
X261162Y652623D01*
X261289Y652703D01*
X261433Y652769D01*
X261593Y652821D01*
X261753Y652855D01*
X261907Y652868D01*
X262054Y652861D01*
X262194Y652834D01*
X262327Y652785D01*
X262453Y652717D01*
X262572Y652628D01*
X262684Y652518D01*
X262791Y652387D01*
X262895Y652232D01*
X263092Y651850D01*
X263277Y651374D01*
X263450Y650803D01*
X263580Y650241D01*
X263653Y649746D01*
X263667Y649317D01*
X263652Y649128D01*
X263623Y648956D01*
X263579Y648800D01*
X263519Y648658D01*
X263444Y648532D01*
X263353Y648421D01*
X263246Y648325D01*
X263124Y648244D01*
X262986Y648178D01*
X262833Y648127D01*
X262674Y648094D01*
X262521Y648082D01*
X262375Y648089D01*
G37*
%LPD*%
G36*
X224712Y637298D02*
X225135Y637388D01*
X225341Y637449D01*
X225537Y637521D01*
X225901Y637696D01*
X226226Y637912D01*
X226513Y638170D01*
X226757Y638465D01*
X226953Y638795D01*
X227102Y639159D01*
X227203Y639558D01*
X226486Y639705D01*
X226400Y639383D01*
X226286Y639094D01*
X226143Y638837D01*
X225972Y638612D01*
X225772Y638419D01*
X225543Y638259D01*
X225286Y638130D01*
X225001Y638034D01*
X224770Y637983D01*
X224546Y637955D01*
X224329Y637950D01*
X224118Y637968D01*
X223915Y638010D01*
X223718Y638075D01*
X223528Y638163D01*
X223344Y638274D01*
X223171Y638405D01*
X223011Y638554D01*
X222866Y638721D01*
X222734Y638905D01*
X222615Y639106D01*
X222511Y639325D01*
X222420Y639561D01*
X222343Y639815D01*
X222282Y640076D01*
X222241Y640327D01*
X222220Y640568D01*
X222220Y640799D01*
X222240Y641021D01*
X222280Y641233D01*
X222341Y641435D01*
X222421Y641628D01*
X222521Y641808D01*
X222640Y641973D01*
X222776Y642122D01*
X222931Y642255D01*
X223104Y642373D01*
X223296Y642475D01*
X223505Y642562D01*
X223733Y642633D01*
X224029Y642695D01*
X224314Y642718D01*
X224587Y642703D01*
X224848Y642650D01*
X225092Y642558D01*
X225313Y642429D01*
X225513Y642263D01*
X225690Y642059D01*
X226359Y642498D01*
X226106Y642784D01*
X225825Y643015D01*
X225515Y643192D01*
X225175Y643315D01*
X224809Y643384D01*
X224417Y643399D01*
X223999Y643358D01*
X223556Y643264D01*
X223242Y643166D01*
X222952Y643050D01*
X222686Y642914D01*
X222444Y642758D01*
X222227Y642583D01*
X222034Y642389D01*
X221865Y642175D01*
X221720Y641942D01*
X221602Y641693D01*
X221511Y641431D01*
X221449Y641158D01*
X221414Y640872D01*
X221408Y640573D01*
X221429Y640263D01*
X221479Y639940D01*
X221556Y639604D01*
X221695Y639169D01*
X221867Y638776D01*
X222072Y638424D01*
X222310Y638114D01*
X222578Y637849D01*
X222873Y637633D01*
X223195Y637465D01*
X223545Y637346D01*
X223917Y637277D01*
X224306Y637261D01*
X224712Y637298D01*
G37*
G36*
X255639Y645648D02*
X255473Y646268D01*
X254083Y645896D01*
X252719Y650986D01*
X252046Y650806D01*
X250945Y649516D01*
X251130Y648827D01*
X252172Y650093D01*
X253349Y645699D01*
X251894Y645309D01*
X252060Y644689D01*
X255639Y645648D01*
G37*
%LPC*%
G36*
X215991Y640481D02*
X217827Y640973D01*
X218131Y641037D01*
X218406Y641058D01*
X218653Y641036D01*
X218872Y640972D01*
X219059Y640867D01*
X219212Y640720D01*
X219330Y640532D01*
X219414Y640303D01*
X219458Y640054D01*
X219453Y639823D01*
X219398Y639609D01*
X219294Y639413D01*
X219143Y639239D01*
X218948Y639091D01*
X218708Y638969D01*
X218424Y638874D01*
X216556Y638373D01*
X215991Y640481D01*
G37*
G36*
X241377Y647283D02*
X242913Y647694D01*
X243229Y647761D01*
X243513Y647781D01*
X243765Y647756D01*
X243984Y647685D01*
X244171Y647568D01*
X244326Y647406D01*
X244449Y647198D01*
X244539Y646944D01*
X244591Y646670D01*
X244592Y646421D01*
X244544Y646196D01*
X244445Y645997D01*
X244296Y645823D01*
X244097Y645673D01*
X243848Y645549D01*
X243549Y645449D01*
X241981Y645029D01*
X241377Y647283D01*
G37*
%LPD*%
G36*
X251961Y642895D02*
X251820Y643421D01*
X246985Y642126D01*
X247126Y641599D01*
X251961Y642895D01*
G37*
G36*
X151906Y645002D02*
X152148Y645054D01*
X152383Y645130D01*
X152598Y645225D01*
X152791Y645340D01*
X152962Y645475D01*
X153112Y645628D01*
X153241Y645802D01*
X153349Y645995D01*
X153435Y646207D01*
X153500Y646438D01*
X153544Y646686D01*
X153566Y646950D01*
X153566Y647232D01*
X153546Y647530D01*
X153503Y647846D01*
X153440Y648178D01*
X153355Y648527D01*
X153253Y648878D01*
X153142Y649202D01*
X153022Y649500D01*
X152892Y649772D01*
X152754Y650017D01*
X152607Y650236D01*
X152451Y650429D01*
X152286Y650595D01*
X152111Y650735D01*
X151925Y650847D01*
X151730Y650931D01*
X151524Y650988D01*
X151308Y651017D01*
X151081Y651018D01*
X150845Y650992D01*
X150597Y650938D01*
X150350Y650859D01*
X150126Y650762D01*
X149925Y650647D01*
X149748Y650514D01*
X149595Y650362D01*
X149465Y650192D01*
X149359Y650004D01*
X149276Y649798D01*
X149216Y649573D01*
X149177Y649328D01*
X149159Y649065D01*
X149162Y648783D01*
X149186Y648482D01*
X149232Y648162D01*
X149299Y647822D01*
X149387Y647464D01*
X149488Y647117D01*
X149599Y646796D01*
X149719Y646500D01*
X149850Y646231D01*
X149990Y645986D01*
X150139Y645768D01*
X150298Y645575D01*
X150468Y645408D01*
X150646Y645267D01*
X150833Y645154D01*
X151030Y645069D01*
X151235Y645011D01*
X151450Y644980D01*
X151673Y644978D01*
X151906Y645002D01*
G37*
G36*
X115755Y635390D02*
X115120Y637761D01*
X116899Y638238D01*
X119018Y636264D01*
X119910Y636503D01*
X118600Y637667D01*
X117629Y638529D01*
X117917Y638688D01*
X118159Y638878D01*
X118219Y638945D01*
X118356Y639099D01*
X118506Y639350D01*
X118607Y639623D01*
X118654Y639909D01*
X118649Y640208D01*
X118590Y640520D01*
X118532Y640705D01*
X118460Y640875D01*
X118374Y641030D01*
X118275Y641170D01*
X118162Y641295D01*
X118036Y641405D01*
X117896Y641501D01*
X117743Y641581D01*
X117578Y641645D01*
X117403Y641692D01*
X117217Y641722D01*
X117022Y641735D01*
X116816Y641730D01*
X116600Y641708D01*
X116374Y641669D01*
X116138Y641613D01*
X113451Y640893D01*
X114981Y635182D01*
X115755Y635390D01*
G37*
G36*
X127585Y638560D02*
X127794Y640406D01*
X130397Y641103D01*
X131497Y639608D01*
X132287Y639820D01*
X128463Y644916D01*
X127583Y644680D01*
X126783Y638345D01*
X127585Y638560D01*
G37*
G36*
X135954Y640802D02*
X134938Y644596D01*
X134736Y645267D01*
X134611Y645655D01*
X138970Y641610D01*
X139902Y641860D01*
X138372Y647571D01*
X137675Y647384D01*
X138678Y643639D01*
X138815Y643176D01*
X139035Y642501D01*
X134635Y646570D01*
X133735Y646329D01*
X135265Y640618D01*
X135954Y640802D01*
G37*
G36*
X123185Y637318D02*
X123624Y637411D01*
X123998Y637529D01*
X124349Y637674D01*
X124678Y637847D01*
X124985Y638048D01*
X125264Y638272D01*
X125510Y638516D01*
X125724Y638779D01*
X125906Y639061D01*
X125378Y641031D01*
X122958Y640383D01*
X123132Y639734D01*
X124838Y640191D01*
X125114Y639162D01*
X124990Y638980D01*
X124838Y638808D01*
X124659Y638644D01*
X124454Y638490D01*
X124227Y638349D01*
X123985Y638227D01*
X123728Y638124D01*
X123455Y638040D01*
X123214Y637986D01*
X122981Y637955D01*
X122756Y637947D01*
X122539Y637962D01*
X122330Y638000D01*
X122129Y638062D01*
X121936Y638146D01*
X121752Y638254D01*
X121578Y638383D01*
X121417Y638531D01*
X121270Y638697D01*
X121137Y638883D01*
X121017Y639087D01*
X120911Y639311D01*
X120818Y639553D01*
X120738Y639814D01*
X120676Y640080D01*
X120634Y640335D01*
X120612Y640580D01*
X120611Y640813D01*
X120630Y641036D01*
X120670Y641247D01*
X120730Y641448D01*
X120810Y641638D01*
X120911Y641815D01*
X121031Y641977D01*
X121170Y642125D01*
X121329Y642258D01*
X121508Y642376D01*
X121706Y642479D01*
X121924Y642567D01*
X122162Y642641D01*
X122471Y642709D01*
X122761Y642742D01*
X123032Y642740D01*
X123285Y642703D01*
X123522Y642629D01*
X123744Y642517D01*
X123952Y642365D01*
X124146Y642174D01*
X124825Y642590D01*
X124560Y642871D01*
X124274Y643095D01*
X123967Y643262D01*
X123639Y643371D01*
X123283Y643426D01*
X122893Y643429D01*
X122470Y643380D01*
X122013Y643279D01*
X121688Y643179D01*
X121388Y643060D01*
X121114Y642923D01*
X120865Y642767D01*
X120641Y642592D01*
X120443Y642399D01*
X120269Y642186D01*
X120121Y641955D01*
X120000Y641708D01*
X119908Y641448D01*
X119844Y641174D01*
X119808Y640886D01*
X119801Y640586D01*
X119823Y640272D01*
X119873Y639944D01*
X119952Y639603D01*
X120091Y639170D01*
X120265Y638777D01*
X120474Y638426D01*
X120718Y638116D01*
X120993Y637851D01*
X121295Y637636D01*
X121626Y637471D01*
X121984Y637354D01*
X122365Y637289D01*
X122766Y637277D01*
X123185Y637318D01*
G37*
G36*
X155901Y646147D02*
X155315Y648336D01*
X155909Y649103D01*
X158929Y646958D01*
X159890Y647216D01*
X156268Y649708D01*
X158035Y652840D01*
X157123Y652595D01*
X155138Y648996D01*
X154371Y651858D01*
X153597Y651651D01*
X155127Y645940D01*
X155901Y646147D01*
G37*
%LPC*%
G36*
X151538Y645614D02*
X151398Y645643D01*
X151264Y645692D01*
X151136Y645761D01*
X151014Y645852D01*
X150899Y645962D01*
X150789Y646095D01*
X150682Y646250D01*
X150580Y646428D01*
X150481Y646629D01*
X150295Y647100D01*
X150124Y647662D01*
X149987Y648249D01*
X149909Y648758D01*
X149893Y648983D01*
X149892Y649188D01*
X149907Y649374D01*
X149936Y649540D01*
X149981Y649690D01*
X150042Y649825D01*
X150120Y649947D01*
X150215Y650055D01*
X150325Y650148D01*
X150452Y650228D01*
X150596Y650294D01*
X150756Y650346D01*
X150917Y650380D01*
X151070Y650393D01*
X151217Y650386D01*
X151357Y650359D01*
X151490Y650310D01*
X151616Y650242D01*
X151735Y650153D01*
X151847Y650043D01*
X151954Y649912D01*
X152058Y649757D01*
X152256Y649375D01*
X152441Y648899D01*
X152613Y648329D01*
X152743Y647766D01*
X152816Y647271D01*
X152830Y646842D01*
X152816Y646653D01*
X152786Y646481D01*
X152742Y646325D01*
X152682Y646183D01*
X152607Y646057D01*
X152516Y645946D01*
X152409Y645850D01*
X152287Y645769D01*
X152150Y645703D01*
X151996Y645652D01*
X151837Y645619D01*
X151685Y645607D01*
X151538Y645614D01*
G37*
%LPD*%
G36*
X149421Y644411D02*
X149255Y645031D01*
X147864Y644658D01*
X146500Y649749D01*
X145828Y649569D01*
X144727Y648279D01*
X144911Y647590D01*
X145954Y648855D01*
X147131Y644462D01*
X145676Y644072D01*
X145842Y643452D01*
X149421Y644411D01*
G37*
%LPC*%
G36*
X114391Y640481D02*
X116227Y640973D01*
X116531Y641037D01*
X116806Y641058D01*
X117053Y641036D01*
X117272Y640972D01*
X117459Y640867D01*
X117612Y640720D01*
X117730Y640532D01*
X117814Y640303D01*
X117858Y640054D01*
X117853Y639823D01*
X117798Y639609D01*
X117694Y639413D01*
X117543Y639239D01*
X117348Y639091D01*
X117108Y638969D01*
X116824Y638874D01*
X114956Y638373D01*
X114391Y640481D01*
G37*
%LPD*%
G36*
X133831Y640233D02*
X132300Y645944D01*
X131526Y645737D01*
X133056Y640026D01*
X133831Y640233D01*
G37*
%LPC*%
G36*
X128094Y643145D02*
X128140Y643671D01*
X128163Y644088D01*
X128169Y644212D01*
X128369Y643904D01*
X128765Y643333D01*
X130004Y641645D01*
X127868Y641073D01*
X128094Y643145D01*
G37*
%LPD*%
G36*
X145743Y641657D02*
X145602Y642184D01*
X140766Y640888D01*
X140908Y640361D01*
X145743Y641657D01*
G37*
G36*
X281527Y638910D02*
X281958Y639001D01*
X282373Y639137D01*
X282747Y639310D01*
X283081Y639520D01*
X283373Y639767D01*
X283621Y640048D01*
X283821Y640358D01*
X283974Y640696D01*
X284079Y641064D01*
X284135Y641455D01*
X284140Y641862D01*
X284096Y642285D01*
X284001Y642725D01*
X283863Y643154D01*
X283691Y643542D01*
X283485Y643889D01*
X283244Y644194D01*
X282973Y644455D01*
X282675Y644666D01*
X282349Y644827D01*
X281996Y644939D01*
X281620Y645001D01*
X281228Y645012D01*
X280818Y644972D01*
X280391Y644881D01*
X280069Y644781D01*
X279772Y644663D01*
X279500Y644525D01*
X279252Y644369D01*
X279029Y644193D01*
X278832Y643997D01*
X278659Y643783D01*
X278511Y643549D01*
X278389Y643300D01*
X278296Y643038D01*
X278231Y642764D01*
X278195Y642477D01*
X278187Y642178D01*
X278208Y641866D01*
X278257Y641543D01*
X278335Y641206D01*
X278472Y640776D01*
X278645Y640385D01*
X278852Y640034D01*
X279093Y639722D01*
X279365Y639454D01*
X279664Y639237D01*
X279991Y639069D01*
X280344Y638951D01*
X280720Y638885D01*
X281115Y638871D01*
X281527Y638910D01*
G37*
G36*
X268155Y635390D02*
X267520Y637761D01*
X269299Y638238D01*
X271418Y636264D01*
X272310Y636503D01*
X271000Y637667D01*
X270029Y638529D01*
X270317Y638688D01*
X270559Y638878D01*
X270619Y638945D01*
X270756Y639099D01*
X270906Y639350D01*
X271007Y639623D01*
X271054Y639909D01*
X271049Y640208D01*
X270990Y640520D01*
X270932Y640705D01*
X270860Y640875D01*
X270774Y641030D01*
X270675Y641170D01*
X270562Y641295D01*
X270436Y641405D01*
X270296Y641501D01*
X270143Y641581D01*
X269978Y641645D01*
X269803Y641692D01*
X269617Y641722D01*
X269422Y641735D01*
X269216Y641730D01*
X269000Y641708D01*
X268774Y641669D01*
X268538Y641613D01*
X265851Y640893D01*
X267381Y635182D01*
X268155Y635390D01*
G37*
%LPC*%
G36*
X280891Y639558D02*
X280687Y639598D01*
X280489Y639661D01*
X280300Y639748D01*
X280119Y639858D01*
X279948Y639988D01*
X279790Y640137D01*
X279646Y640304D01*
X279514Y640490D01*
X279396Y640694D01*
X279291Y640917D01*
X279200Y641158D01*
X279121Y641417D01*
X279059Y641682D01*
X279018Y641937D01*
X278997Y642181D01*
X278997Y642414D01*
X279018Y642637D01*
X279060Y642850D01*
X279122Y643051D01*
X279205Y643242D01*
X279308Y643421D01*
X279430Y643584D01*
X279571Y643732D01*
X279731Y643865D01*
X279910Y643984D01*
X280108Y644087D01*
X280325Y644175D01*
X280560Y644248D01*
X280799Y644302D01*
X281030Y644333D01*
X281251Y644342D01*
X281464Y644328D01*
X281668Y644291D01*
X281864Y644231D01*
X282051Y644149D01*
X282229Y644044D01*
X282397Y643918D01*
X282551Y643774D01*
X282693Y643611D01*
X282822Y643428D01*
X282939Y643228D01*
X283042Y643008D01*
X283133Y642770D01*
X283211Y642513D01*
X283275Y642240D01*
X283318Y641978D01*
X283341Y641728D01*
X283343Y641489D01*
X283325Y641261D01*
X283285Y641045D01*
X283225Y640840D01*
X283144Y640646D01*
X283043Y640466D01*
X282922Y640301D01*
X282782Y640151D01*
X282622Y640016D01*
X282443Y639897D01*
X282245Y639793D01*
X282027Y639703D01*
X281789Y639630D01*
X281553Y639577D01*
X281325Y639547D01*
X281104Y639541D01*
X280891Y639558D01*
G37*
%LPD*%
G36*
X309122Y646367D02*
X308101Y650177D01*
X307879Y650939D01*
X307747Y651385D01*
X308000Y650975D01*
X308412Y650347D01*
X310950Y646857D01*
X311493Y647002D01*
X311926Y651289D01*
X311963Y651822D01*
X311978Y652519D01*
X312111Y651916D01*
X312268Y651293D01*
X313288Y647483D01*
X313986Y647670D01*
X312455Y653381D01*
X311462Y653115D01*
X311032Y648755D01*
X311003Y648302D01*
X311000Y647774D01*
X310794Y648142D01*
X310501Y648613D01*
X307920Y652166D01*
X306903Y651893D01*
X308433Y646182D01*
X309122Y646367D01*
G37*
G36*
X274077Y636977D02*
X273060Y640770D01*
X272859Y641442D01*
X272733Y641830D01*
X277092Y637785D01*
X278025Y638034D01*
X276494Y643745D01*
X275797Y643559D01*
X276801Y639813D01*
X276938Y639351D01*
X277158Y638675D01*
X272757Y642744D01*
X271858Y642503D01*
X273388Y636792D01*
X274077Y636977D01*
G37*
G36*
X298171Y643433D02*
X298002Y644065D01*
X294277Y643067D01*
X293744Y645057D01*
X297059Y645945D01*
X296892Y646570D01*
X293576Y645681D01*
X293086Y647513D01*
X296644Y648467D01*
X296475Y649099D01*
X292142Y647938D01*
X293672Y642227D01*
X298171Y643433D01*
G37*
G36*
X289328Y641073D02*
X289551Y641091D01*
X289785Y641123D01*
X290030Y641171D01*
X290286Y641233D01*
X290557Y641313D01*
X290808Y641402D01*
X291041Y641501D01*
X291253Y641608D01*
X291447Y641726D01*
X291621Y641852D01*
X291775Y641988D01*
X291910Y642133D01*
X292025Y642286D01*
X292117Y642445D01*
X292187Y642609D01*
X292234Y642780D01*
X292259Y642957D01*
X292262Y643139D01*
X292242Y643328D01*
X292201Y643523D01*
X292101Y643809D01*
X291968Y644043D01*
X291806Y644231D01*
X291619Y644379D01*
X291409Y644491D01*
X291179Y644570D01*
X290934Y644622D01*
X290677Y644654D01*
X290410Y644670D01*
X290136Y644670D01*
X289578Y644653D01*
X288879Y644638D01*
X288631Y644647D01*
X288449Y644666D01*
X288181Y644736D01*
X287968Y644850D01*
X287882Y644925D01*
X287811Y645017D01*
X287754Y645124D01*
X287711Y645248D01*
X287677Y645465D01*
X287696Y645666D01*
X287767Y645852D01*
X287891Y646021D01*
X288065Y646174D01*
X288287Y646310D01*
X288557Y646428D01*
X288876Y646529D01*
X289174Y646595D01*
X289446Y646626D01*
X289690Y646623D01*
X289907Y646586D01*
X290101Y646511D01*
X290275Y646398D01*
X290428Y646246D01*
X290562Y646055D01*
X291288Y646393D01*
X291076Y646693D01*
X290840Y646930D01*
X290580Y647104D01*
X290440Y647167D01*
X290295Y647215D01*
X289974Y647269D01*
X289605Y647270D01*
X289190Y647218D01*
X288727Y647114D01*
X288475Y647040D01*
X288241Y646958D01*
X288026Y646867D01*
X287829Y646767D01*
X287651Y646660D01*
X287491Y646544D01*
X287350Y646419D01*
X287227Y646287D01*
X287123Y646147D01*
X287040Y646001D01*
X286977Y645850D01*
X286935Y645692D01*
X286912Y645529D01*
X286911Y645360D01*
X286929Y645186D01*
X286968Y645005D01*
X287017Y644852D01*
X287076Y644711D01*
X287146Y644582D01*
X287228Y644467D01*
X287421Y644270D01*
X287653Y644118D01*
X287940Y644006D01*
X288296Y643932D01*
X288769Y643898D01*
X289404Y643907D01*
X290158Y643931D01*
X290479Y643925D01*
X290760Y643888D01*
X291000Y643815D01*
X291196Y643697D01*
X291277Y643618D01*
X291346Y643522D01*
X291402Y643408D01*
X291445Y643277D01*
X291471Y643154D01*
X291483Y643036D01*
X291461Y642811D01*
X291380Y642603D01*
X291241Y642412D01*
X291046Y642239D01*
X290799Y642087D01*
X290502Y641955D01*
X290152Y641844D01*
X289805Y641767D01*
X289487Y641731D01*
X289199Y641734D01*
X288941Y641778D01*
X288711Y641864D01*
X288509Y641994D01*
X288334Y642168D01*
X288187Y642386D01*
X287477Y642036D01*
X287573Y641873D01*
X287679Y641725D01*
X287796Y641592D01*
X287923Y641475D01*
X288061Y641372D01*
X288210Y641284D01*
X288370Y641212D01*
X288540Y641154D01*
X288721Y641111D01*
X288912Y641084D01*
X289115Y641071D01*
X289328Y641073D01*
G37*
G36*
X307345Y645891D02*
X307179Y646511D01*
X305788Y646138D01*
X304424Y651229D01*
X303751Y651049D01*
X302650Y649759D01*
X302835Y649070D01*
X303877Y650335D01*
X305055Y645942D01*
X303600Y645552D01*
X303766Y644932D01*
X307345Y645891D01*
G37*
%LPC*%
G36*
X266791Y640481D02*
X268627Y640973D01*
X268931Y641037D01*
X269206Y641058D01*
X269453Y641036D01*
X269672Y640972D01*
X269859Y640867D01*
X270012Y640720D01*
X270130Y640532D01*
X270214Y640303D01*
X270258Y640054D01*
X270253Y639823D01*
X270198Y639609D01*
X270094Y639413D01*
X269943Y639239D01*
X269748Y639091D01*
X269508Y638969D01*
X269224Y638874D01*
X267356Y638373D01*
X266791Y640481D01*
G37*
%LPD*%
G36*
X286714Y640363D02*
X285183Y646074D01*
X284409Y645866D01*
X285939Y640155D01*
X286714Y640363D01*
G37*
G36*
X303667Y643137D02*
X303526Y643664D01*
X298690Y642368D01*
X298832Y641842D01*
X303667Y643137D01*
G37*
G36*
X179927Y638910D02*
X180358Y639001D01*
X180773Y639137D01*
X181147Y639310D01*
X181481Y639520D01*
X181773Y639767D01*
X182021Y640048D01*
X182221Y640358D01*
X182374Y640696D01*
X182479Y641064D01*
X182535Y641455D01*
X182540Y641862D01*
X182496Y642285D01*
X182401Y642725D01*
X182263Y643154D01*
X182091Y643542D01*
X181885Y643889D01*
X181644Y644194D01*
X181373Y644455D01*
X181075Y644666D01*
X180749Y644827D01*
X180396Y644939D01*
X180020Y645001D01*
X179628Y645012D01*
X179218Y644972D01*
X178791Y644881D01*
X178469Y644781D01*
X178172Y644663D01*
X177900Y644525D01*
X177652Y644369D01*
X177429Y644193D01*
X177232Y643997D01*
X177059Y643783D01*
X176911Y643549D01*
X176789Y643300D01*
X176696Y643038D01*
X176631Y642764D01*
X176595Y642477D01*
X176587Y642178D01*
X176608Y641866D01*
X176657Y641543D01*
X176735Y641206D01*
X176872Y640776D01*
X177045Y640385D01*
X177252Y640034D01*
X177493Y639722D01*
X177765Y639454D01*
X178064Y639237D01*
X178391Y639069D01*
X178744Y638951D01*
X179120Y638885D01*
X179515Y638871D01*
X179927Y638910D01*
G37*
G36*
X204578Y645504D02*
X204819Y645556D01*
X205055Y645632D01*
X205269Y645727D01*
X205462Y645842D01*
X205634Y645976D01*
X205784Y646130D01*
X205913Y646303D01*
X206021Y646496D01*
X206107Y646709D01*
X206172Y646940D01*
X206215Y647187D01*
X206237Y647452D01*
X206238Y647733D01*
X206217Y648032D01*
X206175Y648347D01*
X206111Y648680D01*
X206026Y649029D01*
X205924Y649379D01*
X205813Y649704D01*
X205693Y650002D01*
X205564Y650273D01*
X205426Y650519D01*
X205279Y650738D01*
X205122Y650930D01*
X204957Y651097D01*
X204782Y651236D01*
X204597Y651348D01*
X204401Y651432D01*
X204196Y651489D01*
X203979Y651518D01*
X203753Y651519D01*
X203516Y651493D01*
X203269Y651439D01*
X203021Y651361D01*
X202797Y651264D01*
X202597Y651149D01*
X202420Y651015D01*
X202266Y650864D01*
X202136Y650694D01*
X202030Y650506D01*
X201948Y650299D01*
X201887Y650074D01*
X201848Y649830D01*
X201830Y649567D01*
X201833Y649285D01*
X201858Y648983D01*
X201903Y648663D01*
X201970Y648324D01*
X202058Y647966D01*
X202159Y647619D01*
X202270Y647297D01*
X202391Y647002D01*
X202521Y646732D01*
X202661Y646488D01*
X202811Y646269D01*
X202970Y646076D01*
X203139Y645909D01*
X203317Y645769D01*
X203505Y645656D01*
X203701Y645570D01*
X203907Y645512D01*
X204121Y645482D01*
X204345Y645479D01*
X204578Y645504D01*
G37*
G36*
X199959Y644266D02*
X200201Y644318D01*
X200437Y644394D01*
X200651Y644489D01*
X200844Y644604D01*
X201015Y644739D01*
X201166Y644892D01*
X201295Y645066D01*
X201402Y645259D01*
X201489Y645471D01*
X201553Y645702D01*
X201597Y645950D01*
X201619Y646214D01*
X201620Y646496D01*
X201599Y646794D01*
X201557Y647110D01*
X201493Y647442D01*
X201408Y647791D01*
X201306Y648142D01*
X201195Y648466D01*
X201075Y648764D01*
X200946Y649036D01*
X200807Y649281D01*
X200660Y649500D01*
X200504Y649693D01*
X200339Y649859D01*
X200164Y649999D01*
X199979Y650111D01*
X199783Y650195D01*
X199577Y650252D01*
X199361Y650281D01*
X199135Y650282D01*
X198898Y650256D01*
X198651Y650202D01*
X198403Y650123D01*
X198179Y650026D01*
X197978Y649911D01*
X197801Y649778D01*
X197648Y649626D01*
X197518Y649456D01*
X197412Y649268D01*
X197329Y649062D01*
X197269Y648837D01*
X197230Y648592D01*
X197212Y648329D01*
X197215Y648047D01*
X197239Y647746D01*
X197285Y647426D01*
X197352Y647086D01*
X197440Y646728D01*
X197541Y646381D01*
X197652Y646060D01*
X197772Y645764D01*
X197903Y645495D01*
X198043Y645250D01*
X198192Y645032D01*
X198352Y644839D01*
X198521Y644672D01*
X198699Y644531D01*
X198886Y644418D01*
X199083Y644333D01*
X199288Y644275D01*
X199503Y644244D01*
X199727Y644242D01*
X199959Y644266D01*
G37*
G36*
X166555Y635390D02*
X165920Y637761D01*
X167699Y638238D01*
X169818Y636264D01*
X170710Y636503D01*
X169400Y637667D01*
X168429Y638529D01*
X168717Y638688D01*
X168959Y638878D01*
X169019Y638945D01*
X169156Y639099D01*
X169306Y639350D01*
X169407Y639623D01*
X169454Y639909D01*
X169449Y640208D01*
X169390Y640520D01*
X169332Y640705D01*
X169260Y640875D01*
X169174Y641030D01*
X169075Y641170D01*
X168962Y641295D01*
X168836Y641405D01*
X168696Y641501D01*
X168543Y641581D01*
X168378Y641645D01*
X168203Y641692D01*
X168017Y641722D01*
X167822Y641735D01*
X167616Y641730D01*
X167400Y641708D01*
X167174Y641669D01*
X166938Y641613D01*
X164251Y640893D01*
X165781Y635182D01*
X166555Y635390D01*
G37*
G36*
X172562Y636999D02*
X171927Y639371D01*
X173706Y639847D01*
X175825Y637874D01*
X176716Y638113D01*
X175407Y639276D01*
X174436Y640138D01*
X174724Y640298D01*
X174966Y640488D01*
X175026Y640555D01*
X175162Y640709D01*
X175313Y640960D01*
X175414Y641233D01*
X175461Y641519D01*
X175456Y641818D01*
X175397Y642129D01*
X175339Y642314D01*
X175267Y642484D01*
X175181Y642639D01*
X175082Y642780D01*
X174969Y642905D01*
X174843Y643015D01*
X174703Y643110D01*
X174550Y643190D01*
X174385Y643255D01*
X174209Y643302D01*
X174024Y643331D01*
X173828Y643344D01*
X173623Y643340D01*
X173407Y643318D01*
X173181Y643279D01*
X172945Y643223D01*
X170258Y642503D01*
X171788Y636792D01*
X172562Y636999D01*
G37*
%LPC*%
G36*
X179291Y639558D02*
X179087Y639598D01*
X178889Y639661D01*
X178700Y639748D01*
X178519Y639858D01*
X178348Y639988D01*
X178190Y640137D01*
X178046Y640304D01*
X177914Y640490D01*
X177796Y640694D01*
X177691Y640917D01*
X177600Y641158D01*
X177521Y641417D01*
X177459Y641682D01*
X177418Y641937D01*
X177397Y642181D01*
X177397Y642414D01*
X177418Y642637D01*
X177460Y642850D01*
X177522Y643051D01*
X177605Y643242D01*
X177708Y643421D01*
X177830Y643584D01*
X177971Y643732D01*
X178131Y643865D01*
X178310Y643984D01*
X178508Y644087D01*
X178725Y644175D01*
X178960Y644248D01*
X179199Y644302D01*
X179430Y644333D01*
X179651Y644342D01*
X179864Y644328D01*
X180068Y644291D01*
X180264Y644231D01*
X180451Y644149D01*
X180629Y644044D01*
X180797Y643918D01*
X180951Y643774D01*
X181093Y643611D01*
X181222Y643428D01*
X181339Y643228D01*
X181442Y643008D01*
X181533Y642770D01*
X181611Y642513D01*
X181675Y642240D01*
X181718Y641978D01*
X181741Y641728D01*
X181743Y641489D01*
X181725Y641261D01*
X181685Y641045D01*
X181625Y640840D01*
X181544Y640646D01*
X181443Y640466D01*
X181322Y640301D01*
X181182Y640151D01*
X181022Y640016D01*
X180843Y639897D01*
X180645Y639793D01*
X180427Y639703D01*
X180189Y639630D01*
X179953Y639577D01*
X179725Y639547D01*
X179504Y639541D01*
X179291Y639558D01*
G37*
%LPD*%
G36*
X208573Y646649D02*
X207986Y648837D01*
X208580Y649604D01*
X211601Y647460D01*
X212561Y647717D01*
X208939Y650209D01*
X210707Y653341D01*
X209795Y653097D01*
X207809Y649498D01*
X207043Y652359D01*
X206268Y652152D01*
X207799Y646441D01*
X208573Y646649D01*
G37*
%LPC*%
G36*
X199591Y644878D02*
X199451Y644907D01*
X199317Y644956D01*
X199189Y645025D01*
X199067Y645116D01*
X198952Y645226D01*
X198842Y645358D01*
X198735Y645514D01*
X198633Y645692D01*
X198534Y645893D01*
X198348Y646364D01*
X198177Y646926D01*
X198040Y647513D01*
X197962Y648022D01*
X197946Y648247D01*
X197946Y648452D01*
X197960Y648638D01*
X197989Y648804D01*
X198034Y648954D01*
X198096Y649089D01*
X198173Y649211D01*
X198268Y649319D01*
X198378Y649412D01*
X198506Y649492D01*
X198649Y649558D01*
X198809Y649610D01*
X198970Y649644D01*
X199124Y649657D01*
X199270Y649650D01*
X199410Y649623D01*
X199543Y649574D01*
X199669Y649506D01*
X199788Y649417D01*
X199900Y649307D01*
X200007Y649176D01*
X200111Y649021D01*
X200309Y648639D01*
X200494Y648163D01*
X200666Y647593D01*
X200797Y647030D01*
X200869Y646535D01*
X200883Y646106D01*
X200869Y645917D01*
X200840Y645745D01*
X200795Y645589D01*
X200736Y645447D01*
X200660Y645321D01*
X200569Y645210D01*
X200463Y645114D01*
X200340Y645033D01*
X200203Y644967D01*
X200049Y644916D01*
X199890Y644883D01*
X199738Y644871D01*
X199591Y644878D01*
G37*
G36*
X204209Y646116D02*
X204069Y646144D01*
X203935Y646193D01*
X203807Y646263D01*
X203686Y646353D01*
X203570Y646464D01*
X203460Y646596D01*
X203354Y646751D01*
X203251Y646929D01*
X203152Y647130D01*
X202966Y647601D01*
X202796Y648163D01*
X202658Y648750D01*
X202581Y649259D01*
X202565Y649484D01*
X202564Y649689D01*
X202578Y649875D01*
X202607Y650042D01*
X202652Y650191D01*
X202714Y650327D01*
X202792Y650448D01*
X202886Y650556D01*
X202997Y650650D01*
X203124Y650730D01*
X203267Y650796D01*
X203427Y650848D01*
X203588Y650881D01*
X203742Y650895D01*
X203889Y650888D01*
X204029Y650860D01*
X204161Y650812D01*
X204287Y650743D01*
X204406Y650654D01*
X204519Y650545D01*
X204626Y650413D01*
X204729Y650258D01*
X204927Y649877D01*
X205112Y649401D01*
X205284Y648830D01*
X205415Y648268D01*
X205487Y647772D01*
X205502Y647344D01*
X205487Y647155D01*
X205458Y646982D01*
X205414Y646826D01*
X205354Y646685D01*
X205279Y646558D01*
X205188Y646447D01*
X205081Y646351D01*
X204959Y646270D01*
X204821Y646205D01*
X204668Y646154D01*
X204509Y646121D01*
X204356Y646108D01*
X204209Y646116D01*
G37*
%LPD*%
G36*
X186492Y640732D02*
X185131Y645810D01*
X187093Y646336D01*
X186923Y646968D01*
X182230Y645711D01*
X182399Y645078D01*
X184361Y645604D01*
X185721Y640526D01*
X186492Y640732D01*
G37*
G36*
X197474Y643675D02*
X197308Y644295D01*
X195918Y643922D01*
X194554Y649013D01*
X193881Y648833D01*
X192780Y647543D01*
X192964Y646854D01*
X194007Y648119D01*
X195184Y643726D01*
X193729Y643336D01*
X193895Y642716D01*
X197474Y643675D01*
G37*
%LPC*%
G36*
X165191Y640481D02*
X167027Y640973D01*
X167331Y641037D01*
X167606Y641058D01*
X167853Y641036D01*
X168072Y640972D01*
X168259Y640867D01*
X168412Y640720D01*
X168530Y640532D01*
X168614Y640303D01*
X168658Y640054D01*
X168653Y639823D01*
X168598Y639609D01*
X168494Y639413D01*
X168343Y639239D01*
X168148Y639091D01*
X167908Y638969D01*
X167624Y638874D01*
X165756Y638373D01*
X165191Y640481D01*
G37*
G36*
X171198Y642090D02*
X173034Y642582D01*
X173338Y642646D01*
X173613Y642667D01*
X173860Y642646D01*
X174079Y642582D01*
X174266Y642476D01*
X174419Y642329D01*
X174537Y642141D01*
X174621Y641913D01*
X174665Y641664D01*
X174660Y641433D01*
X174605Y641219D01*
X174501Y641023D01*
X174350Y640848D01*
X174155Y640700D01*
X173915Y640578D01*
X173631Y640483D01*
X171763Y639983D01*
X171198Y642090D01*
G37*
%LPD*%
G36*
X193796Y640921D02*
X193655Y641448D01*
X188820Y640152D01*
X188961Y639625D01*
X193796Y640921D01*
G37*
G36*
X436176Y544874D02*
X440021Y544874D01*
X443226Y539750D01*
X445153Y539750D01*
X443141Y542803D01*
X441650Y545066D01*
X441993Y545139D01*
X442317Y545232D01*
X442622Y545348D01*
X442908Y545485D01*
X443064Y545577D01*
X443175Y545643D01*
X443422Y545824D01*
X443651Y546025D01*
X443861Y546249D01*
X444049Y546490D01*
X444212Y546745D01*
X444350Y547013D01*
X444462Y547295D01*
X444550Y547591D01*
X444613Y547901D01*
X444650Y548224D01*
X444663Y548561D01*
X444645Y548966D01*
X444592Y549347D01*
X444503Y549706D01*
X444379Y550042D01*
X444220Y550356D01*
X444025Y550646D01*
X443794Y550913D01*
X443528Y551158D01*
X443230Y551377D01*
X442902Y551566D01*
X442544Y551726D01*
X442157Y551858D01*
X441739Y551960D01*
X441292Y552032D01*
X440816Y552076D01*
X440310Y552091D01*
X434503Y552091D01*
X434503Y539750D01*
X436176Y539750D01*
X436176Y544874D01*
G37*
G36*
X451344Y539592D02*
X451816Y539645D01*
X452261Y539733D01*
X452677Y539855D01*
X453066Y540013D01*
X453426Y540205D01*
X453758Y540433D01*
X454062Y540696D01*
X454334Y540989D01*
X454570Y541308D01*
X454769Y541654D01*
X454933Y542025D01*
X455060Y542422D01*
X455150Y542846D01*
X455205Y543295D01*
X455223Y543770D01*
X455206Y544189D01*
X455155Y544588D01*
X455071Y544967D01*
X454952Y545325D01*
X454800Y545663D01*
X454614Y545981D01*
X454395Y546278D01*
X454141Y546555D01*
X453859Y546806D01*
X453554Y547023D01*
X453226Y547207D01*
X452874Y547357D01*
X452500Y547474D01*
X452102Y547557D01*
X451681Y547607D01*
X451238Y547624D01*
X450864Y547612D01*
X450507Y547575D01*
X450165Y547513D01*
X449838Y547427D01*
X449528Y547316D01*
X449232Y547181D01*
X448953Y547020D01*
X448689Y546836D01*
X448925Y550751D01*
X454505Y550751D01*
X454505Y552091D01*
X447489Y552091D01*
X447077Y545452D01*
X448619Y545452D01*
X448895Y545675D01*
X449171Y545863D01*
X449446Y546017D01*
X449722Y546135D01*
X450004Y546223D01*
X450296Y546286D01*
X450599Y546324D01*
X450914Y546336D01*
X451212Y546325D01*
X451495Y546292D01*
X451762Y546235D01*
X452014Y546157D01*
X452250Y546056D01*
X452470Y545932D01*
X452674Y545787D01*
X452862Y545618D01*
X453032Y545432D01*
X453178Y545231D01*
X453303Y545017D01*
X453404Y544788D01*
X453483Y544546D01*
X453540Y544290D01*
X453574Y544019D01*
X453585Y543735D01*
X453574Y543409D01*
X453540Y543101D01*
X453484Y542811D01*
X453405Y542539D01*
X453304Y542284D01*
X453181Y542048D01*
X453035Y541829D01*
X452867Y541629D01*
X452679Y541449D01*
X452473Y541293D01*
X452250Y541162D01*
X452011Y541054D01*
X451753Y540970D01*
X451479Y540910D01*
X451187Y540874D01*
X450879Y540862D01*
X450626Y540869D01*
X450386Y540891D01*
X450158Y540927D01*
X449943Y540977D01*
X449740Y541041D01*
X449549Y541120D01*
X449370Y541213D01*
X449203Y541320D01*
X449049Y541442D01*
X448907Y541577D01*
X448777Y541728D01*
X448660Y541892D01*
X448555Y542071D01*
X448462Y542264D01*
X448381Y542471D01*
X448312Y542693D01*
X446718Y542509D01*
X446800Y542163D01*
X446907Y541837D01*
X447038Y541533D01*
X447193Y541250D01*
X447373Y540988D01*
X447577Y540747D01*
X447805Y540527D01*
X448058Y540328D01*
X448334Y540152D01*
X448630Y539999D01*
X448947Y539869D01*
X449284Y539763D01*
X449643Y539681D01*
X450022Y539622D01*
X450423Y539587D01*
X450843Y539575D01*
X451344Y539592D01*
G37*
%LPC*%
G36*
X436176Y546196D02*
X436176Y550751D01*
X440143Y550751D01*
X440477Y550742D01*
X440790Y550715D01*
X441084Y550671D01*
X441357Y550610D01*
X441611Y550530D01*
X441844Y550433D01*
X442057Y550318D01*
X442250Y550186D01*
X442421Y550037D01*
X442570Y549871D01*
X442695Y549690D01*
X442798Y549493D01*
X442878Y549280D01*
X442935Y549050D01*
X442970Y548805D01*
X442981Y548544D01*
X442970Y548273D01*
X442936Y548018D01*
X442879Y547779D01*
X442800Y547555D01*
X442699Y547346D01*
X442575Y547153D01*
X442428Y546976D01*
X442258Y546814D01*
X442068Y546669D01*
X441860Y546544D01*
X441632Y546437D01*
X441386Y546351D01*
X441121Y546283D01*
X440837Y546235D01*
X440535Y546206D01*
X440213Y546196D01*
X436176Y546196D01*
G37*
%LPD*%
G36*
X71888Y349093D02*
X72316Y349145D01*
X72720Y349234D01*
X73098Y349357D01*
X73451Y349516D01*
X73779Y349710D01*
X74082Y349940D01*
X74359Y350205D01*
X74608Y350500D01*
X74823Y350821D01*
X75005Y351168D01*
X75154Y351540D01*
X75270Y351939D01*
X75353Y352363D01*
X75402Y352812D01*
X75419Y353288D01*
X75403Y353727D01*
X75356Y354144D01*
X75278Y354537D01*
X75168Y354908D01*
X75027Y355256D01*
X74855Y355580D01*
X74651Y355882D01*
X74416Y356160D01*
X74154Y356411D01*
X73871Y356628D01*
X73565Y356812D01*
X73237Y356962D01*
X72887Y357079D01*
X72515Y357162D01*
X72121Y357212D01*
X71705Y357229D01*
X71457Y357223D01*
X71216Y357203D01*
X70982Y357171D01*
X70755Y357125D01*
X70323Y356995D01*
X69919Y356813D01*
X69551Y356581D01*
X69227Y356302D01*
X68946Y355975D01*
X68710Y355600D01*
X68721Y356178D01*
X68756Y356721D01*
X68814Y357228D01*
X68895Y357701D01*
X68999Y358138D01*
X69126Y358540D01*
X69277Y358907D01*
X69450Y359239D01*
X69645Y359534D01*
X69858Y359789D01*
X70091Y360005D01*
X70342Y360182D01*
X70613Y360319D01*
X70903Y360417D01*
X71211Y360476D01*
X71539Y360496D01*
X71914Y360472D01*
X72254Y360402D01*
X72560Y360284D01*
X72831Y360119D01*
X73068Y359908D01*
X73270Y359649D01*
X73438Y359343D01*
X73571Y358990D01*
X75077Y359261D01*
X74978Y359565D01*
X74863Y359850D01*
X74732Y360115D01*
X74585Y360361D01*
X74421Y360587D01*
X74241Y360793D01*
X74046Y360979D01*
X73834Y361146D01*
X73606Y361294D01*
X73361Y361421D01*
X73101Y361529D01*
X72824Y361618D01*
X72532Y361686D01*
X72223Y361735D01*
X71898Y361765D01*
X71556Y361775D01*
X71295Y361768D01*
X71042Y361748D01*
X70796Y361714D01*
X70557Y361667D01*
X70327Y361607D01*
X70103Y361533D01*
X69680Y361346D01*
X69287Y361104D01*
X68924Y360809D01*
X68592Y360460D01*
X68290Y360058D01*
X68021Y359606D01*
X67788Y359107D01*
X67590Y358561D01*
X67429Y357969D01*
X67303Y357331D01*
X67214Y356645D01*
X67160Y355914D01*
X67142Y355136D01*
X67159Y354418D01*
X67211Y353744D01*
X67297Y353114D01*
X67418Y352528D01*
X67573Y351986D01*
X67763Y351488D01*
X67987Y351035D01*
X68246Y350625D01*
X68537Y350262D01*
X68859Y349947D01*
X69211Y349680D01*
X69595Y349462D01*
X70008Y349293D01*
X70453Y349172D01*
X70928Y349099D01*
X71177Y349081D01*
X71434Y349075D01*
X71888Y349093D01*
G37*
G36*
X60639Y349088D02*
X61074Y349127D01*
X61495Y349192D01*
X61902Y349283D01*
X62295Y349400D01*
X62674Y349543D01*
X63040Y349712D01*
X63392Y349907D01*
X63727Y350127D01*
X64043Y350371D01*
X64340Y350638D01*
X64617Y350929D01*
X64875Y351245D01*
X65114Y351584D01*
X65333Y351946D01*
X65533Y352333D01*
X64167Y353016D01*
X63999Y352705D01*
X63821Y352415D01*
X63632Y352144D01*
X63434Y351893D01*
X63226Y351663D01*
X63007Y351452D01*
X62779Y351262D01*
X62540Y351091D01*
X62291Y350941D01*
X62033Y350811D01*
X61764Y350701D01*
X61485Y350610D01*
X61196Y350540D01*
X60897Y350490D01*
X60588Y350460D01*
X60269Y350450D01*
X59777Y350471D01*
X59310Y350536D01*
X58870Y350644D01*
X58455Y350795D01*
X58067Y350989D01*
X57705Y351226D01*
X57369Y351506D01*
X57059Y351829D01*
X56781Y352188D01*
X56540Y352575D01*
X56336Y352989D01*
X56169Y353431D01*
X56039Y353901D01*
X55947Y354399D01*
X55891Y354924D01*
X55873Y355477D01*
X55890Y356036D01*
X55944Y356564D01*
X56033Y357061D01*
X56157Y357528D01*
X56317Y357964D01*
X56513Y358370D01*
X56744Y358745D01*
X57011Y359090D01*
X57310Y359399D01*
X57637Y359667D01*
X57993Y359893D01*
X58377Y360079D01*
X58790Y360223D01*
X59231Y360326D01*
X59701Y360388D01*
X60199Y360408D01*
X60520Y360399D01*
X60830Y360373D01*
X61128Y360328D01*
X61416Y360266D01*
X61692Y360186D01*
X61957Y360088D01*
X62211Y359973D01*
X62455Y359839D01*
X62684Y359689D01*
X62897Y359523D01*
X63094Y359341D01*
X63275Y359143D01*
X63439Y358929D01*
X63587Y358699D01*
X63719Y358454D01*
X63834Y358192D01*
X65419Y358718D01*
X65253Y359085D01*
X65065Y359429D01*
X64854Y359750D01*
X64622Y360047D01*
X64368Y360321D01*
X64092Y360572D01*
X63795Y360800D01*
X63475Y361004D01*
X63134Y361185D01*
X62773Y361341D01*
X62392Y361474D01*
X61990Y361582D01*
X61569Y361666D01*
X61127Y361727D01*
X60664Y361763D01*
X60182Y361775D01*
X59834Y361768D01*
X59496Y361749D01*
X59167Y361716D01*
X58848Y361670D01*
X58539Y361611D01*
X58239Y361539D01*
X57949Y361455D01*
X57668Y361356D01*
X57397Y361245D01*
X57135Y361121D01*
X56883Y360984D01*
X56641Y360834D01*
X56185Y360494D01*
X55767Y360102D01*
X55394Y359664D01*
X55070Y359185D01*
X54796Y358667D01*
X54678Y358393D01*
X54572Y358109D01*
X54479Y357815D01*
X54398Y357511D01*
X54329Y357197D01*
X54273Y356873D01*
X54229Y356539D01*
X54198Y356195D01*
X54180Y355841D01*
X54173Y355477D01*
X54185Y354993D01*
X54218Y354525D01*
X54274Y354074D01*
X54352Y353639D01*
X54452Y353221D01*
X54575Y352819D01*
X54720Y352434D01*
X54887Y352066D01*
X55076Y351716D01*
X55285Y351387D01*
X55514Y351079D01*
X55763Y350792D01*
X56033Y350525D01*
X56323Y350279D01*
X56633Y350054D01*
X56963Y349850D01*
X57311Y349668D01*
X57675Y349511D01*
X58055Y349378D01*
X58451Y349269D01*
X58862Y349184D01*
X59289Y349123D01*
X59732Y349087D01*
X60191Y349075D01*
X60639Y349088D01*
G37*
%LPC*%
G36*
X71112Y350359D02*
X70854Y350402D01*
X70610Y350473D01*
X70377Y350573D01*
X70157Y350701D01*
X69950Y350857D01*
X69755Y351042D01*
X69573Y351256D01*
X69407Y351492D01*
X69264Y351743D01*
X69143Y352012D01*
X69044Y352296D01*
X68967Y352596D01*
X68912Y352913D01*
X68879Y353245D01*
X68868Y353594D01*
X68878Y353869D01*
X68910Y354129D01*
X68963Y354373D01*
X69037Y354603D01*
X69133Y354817D01*
X69249Y355016D01*
X69387Y355199D01*
X69546Y355368D01*
X69723Y355519D01*
X69912Y355649D01*
X70115Y355760D01*
X70331Y355851D01*
X70561Y355921D01*
X70803Y355971D01*
X71059Y356002D01*
X71329Y356012D01*
X71614Y356000D01*
X71883Y355966D01*
X72136Y355909D01*
X72373Y355830D01*
X72594Y355728D01*
X72799Y355603D01*
X72987Y355455D01*
X73159Y355285D01*
X73313Y355093D01*
X73447Y354883D01*
X73560Y354653D01*
X73652Y354404D01*
X73724Y354136D01*
X73775Y353849D01*
X73806Y353543D01*
X73816Y353218D01*
X73806Y352892D01*
X73776Y352583D01*
X73725Y352293D01*
X73654Y352021D01*
X73563Y351767D01*
X73452Y351530D01*
X73320Y351312D01*
X73168Y351111D01*
X72998Y350932D01*
X72813Y350776D01*
X72613Y350644D01*
X72397Y350536D01*
X72166Y350453D01*
X71920Y350393D01*
X71658Y350357D01*
X71381Y350345D01*
X71112Y350359D01*
G37*
%LPD*%
D10*
X431800Y508000D02*
X25400Y508000D01*
X25400Y254000D01*
X431800Y254000D01*
X431800Y508000D01*
X431800Y241300D02*
X76200Y241300D01*
X76200Y12700D01*
X431800Y12700D01*
X431800Y241300D01*
D11*
X190500Y342900D02*
X139700Y342900D01*
X190500Y342900D02*
X190500Y444500D01*
X139700Y444500D01*
X139700Y342900D01*
D12*
X148590Y431800D02*
X148592Y431923D01*
X148598Y432047D01*
X148608Y432170D01*
X148622Y432292D01*
X148640Y432414D01*
X148662Y432536D01*
X148687Y432656D01*
X148717Y432776D01*
X148751Y432895D01*
X148788Y433013D01*
X148829Y433129D01*
X148874Y433244D01*
X148923Y433357D01*
X148975Y433469D01*
X149031Y433579D01*
X149090Y433687D01*
X149153Y433793D01*
X149219Y433897D01*
X149289Y433999D01*
X149362Y434099D01*
X149438Y434196D01*
X149517Y434291D01*
X149599Y434383D01*
X149684Y434472D01*
X149772Y434559D01*
X149863Y434642D01*
X149956Y434723D01*
X150052Y434801D01*
X150151Y434875D01*
X150251Y434946D01*
X150354Y435014D01*
X150459Y435079D01*
X150567Y435140D01*
X150676Y435198D01*
X150787Y435252D01*
X150899Y435302D01*
X151014Y435349D01*
X151129Y435392D01*
X151246Y435431D01*
X151364Y435467D01*
X151484Y435498D01*
X151604Y435526D01*
X151725Y435550D01*
X151847Y435570D01*
X151969Y435586D01*
X152092Y435598D01*
X152215Y435606D01*
X152338Y435610D01*
X152462Y435610D01*
X152585Y435606D01*
X152708Y435598D01*
X152831Y435586D01*
X152953Y435570D01*
X153075Y435550D01*
X153196Y435526D01*
X153316Y435498D01*
X153436Y435467D01*
X153554Y435431D01*
X153671Y435392D01*
X153786Y435349D01*
X153901Y435302D01*
X154013Y435252D01*
X154124Y435198D01*
X154233Y435140D01*
X154341Y435079D01*
X154446Y435014D01*
X154549Y434946D01*
X154649Y434875D01*
X154748Y434801D01*
X154844Y434723D01*
X154937Y434642D01*
X155028Y434559D01*
X155116Y434472D01*
X155201Y434383D01*
X155283Y434291D01*
X155362Y434196D01*
X155438Y434099D01*
X155511Y433999D01*
X155581Y433897D01*
X155647Y433793D01*
X155710Y433687D01*
X155769Y433579D01*
X155825Y433469D01*
X155877Y433357D01*
X155926Y433244D01*
X155971Y433129D01*
X156012Y433013D01*
X156049Y432895D01*
X156083Y432776D01*
X156113Y432656D01*
X156138Y432536D01*
X156160Y432414D01*
X156178Y432292D01*
X156192Y432170D01*
X156202Y432047D01*
X156208Y431923D01*
X156210Y431800D01*
X156208Y431677D01*
X156202Y431553D01*
X156192Y431430D01*
X156178Y431308D01*
X156160Y431186D01*
X156138Y431064D01*
X156113Y430944D01*
X156083Y430824D01*
X156049Y430705D01*
X156012Y430587D01*
X155971Y430471D01*
X155926Y430356D01*
X155877Y430243D01*
X155825Y430131D01*
X155769Y430021D01*
X155710Y429913D01*
X155647Y429807D01*
X155581Y429703D01*
X155511Y429601D01*
X155438Y429501D01*
X155362Y429404D01*
X155283Y429309D01*
X155201Y429217D01*
X155116Y429128D01*
X155028Y429041D01*
X154937Y428958D01*
X154844Y428877D01*
X154748Y428799D01*
X154649Y428725D01*
X154549Y428654D01*
X154446Y428586D01*
X154341Y428521D01*
X154233Y428460D01*
X154124Y428402D01*
X154013Y428348D01*
X153901Y428298D01*
X153786Y428251D01*
X153671Y428208D01*
X153554Y428169D01*
X153436Y428133D01*
X153316Y428102D01*
X153196Y428074D01*
X153075Y428050D01*
X152953Y428030D01*
X152831Y428014D01*
X152708Y428002D01*
X152585Y427994D01*
X152462Y427990D01*
X152338Y427990D01*
X152215Y427994D01*
X152092Y428002D01*
X151969Y428014D01*
X151847Y428030D01*
X151725Y428050D01*
X151604Y428074D01*
X151484Y428102D01*
X151364Y428133D01*
X151246Y428169D01*
X151129Y428208D01*
X151014Y428251D01*
X150899Y428298D01*
X150787Y428348D01*
X150676Y428402D01*
X150567Y428460D01*
X150459Y428521D01*
X150354Y428586D01*
X150251Y428654D01*
X150151Y428725D01*
X150052Y428799D01*
X149956Y428877D01*
X149863Y428958D01*
X149772Y429041D01*
X149684Y429128D01*
X149599Y429217D01*
X149517Y429309D01*
X149438Y429404D01*
X149362Y429501D01*
X149289Y429601D01*
X149219Y429703D01*
X149153Y429807D01*
X149090Y429913D01*
X149031Y430021D01*
X148975Y430131D01*
X148923Y430243D01*
X148874Y430356D01*
X148829Y430471D01*
X148788Y430587D01*
X148751Y430705D01*
X148717Y430824D01*
X148687Y430944D01*
X148662Y431064D01*
X148640Y431186D01*
X148622Y431308D01*
X148608Y431430D01*
X148598Y431553D01*
X148592Y431677D01*
X148590Y431800D01*
X76200Y406400D02*
X38100Y444500D01*
X38100Y476250D01*
D13*
X387350Y38100D02*
X400050Y38100D01*
X406400Y31750D01*
X406400Y19050D01*
X400050Y12700D01*
X361950Y38100D02*
X355600Y31750D01*
X361950Y38100D02*
X374650Y38100D01*
X381000Y31750D01*
X381000Y19050D01*
X374650Y12700D01*
X361950Y12700D01*
X355600Y19050D01*
X381000Y31750D02*
X387350Y38100D01*
X381000Y19050D02*
X387350Y12700D01*
X400050Y12700D01*
X323850Y38100D02*
X311150Y38100D01*
X323850Y38100D02*
X330200Y31750D01*
X330200Y19050D01*
X323850Y12700D01*
X330200Y31750D02*
X336550Y38100D01*
X349250Y38100D01*
X355600Y31750D01*
X355600Y19050D01*
X349250Y12700D01*
X336550Y12700D01*
X330200Y19050D01*
X285750Y38100D02*
X279400Y31750D01*
X285750Y38100D02*
X298450Y38100D01*
X304800Y31750D01*
X304800Y19050D01*
X298450Y12700D01*
X285750Y12700D01*
X279400Y19050D01*
X304800Y31750D02*
X311150Y38100D01*
X304800Y19050D02*
X311150Y12700D01*
X323850Y12700D01*
X247650Y38100D02*
X234950Y38100D01*
X247650Y38100D02*
X254000Y31750D01*
X254000Y19050D01*
X247650Y12700D01*
X254000Y31750D02*
X260350Y38100D01*
X273050Y38100D01*
X279400Y31750D01*
X279400Y19050D01*
X273050Y12700D01*
X260350Y12700D01*
X254000Y19050D01*
X209550Y38100D02*
X203200Y31750D01*
X209550Y38100D02*
X222250Y38100D01*
X228600Y31750D01*
X228600Y19050D01*
X222250Y12700D01*
X209550Y12700D01*
X203200Y19050D01*
X228600Y31750D02*
X234950Y38100D01*
X228600Y19050D02*
X234950Y12700D01*
X247650Y12700D01*
X171450Y38100D02*
X158750Y38100D01*
X171450Y38100D02*
X177800Y31750D01*
X177800Y19050D01*
X171450Y12700D01*
X177800Y31750D02*
X184150Y38100D01*
X196850Y38100D01*
X203200Y31750D01*
X203200Y19050D01*
X196850Y12700D01*
X184150Y12700D01*
X177800Y19050D01*
X133350Y38100D02*
X127000Y31750D01*
X133350Y38100D02*
X146050Y38100D01*
X152400Y31750D01*
X152400Y19050D01*
X146050Y12700D01*
X133350Y12700D01*
X127000Y19050D01*
X152400Y31750D02*
X158750Y38100D01*
X152400Y19050D02*
X158750Y12700D01*
X171450Y12700D01*
X95250Y38100D02*
X82550Y38100D01*
X95250Y38100D02*
X101600Y31750D01*
X101600Y19050D01*
X95250Y12700D01*
X101600Y31750D02*
X107950Y38100D01*
X120650Y38100D01*
X127000Y31750D01*
X127000Y19050D01*
X120650Y12700D01*
X107950Y12700D01*
X101600Y19050D01*
X76200Y19050D02*
X76200Y31750D01*
X82550Y38100D01*
X76200Y19050D02*
X82550Y12700D01*
X95250Y12700D01*
X406400Y31750D02*
X412750Y38100D01*
X425450Y38100D01*
X431800Y31750D01*
X431800Y19050D01*
X425450Y12700D01*
X412750Y12700D01*
X406400Y19050D01*
X400050Y241300D02*
X387350Y241300D01*
X400050Y241300D02*
X406400Y234950D01*
X406400Y222250D01*
X400050Y215900D01*
X361950Y241300D02*
X355600Y234950D01*
X361950Y241300D02*
X374650Y241300D01*
X381000Y234950D01*
X381000Y222250D01*
X374650Y215900D01*
X361950Y215900D01*
X355600Y222250D01*
X381000Y234950D02*
X387350Y241300D01*
X381000Y222250D02*
X387350Y215900D01*
X400050Y215900D01*
X323850Y241300D02*
X311150Y241300D01*
X323850Y241300D02*
X330200Y234950D01*
X330200Y222250D01*
X323850Y215900D01*
X330200Y234950D02*
X336550Y241300D01*
X349250Y241300D01*
X355600Y234950D01*
X355600Y222250D01*
X349250Y215900D01*
X336550Y215900D01*
X330200Y222250D01*
X285750Y241300D02*
X279400Y234950D01*
X285750Y241300D02*
X298450Y241300D01*
X304800Y234950D01*
X304800Y222250D01*
X298450Y215900D01*
X285750Y215900D01*
X279400Y222250D01*
X304800Y234950D02*
X311150Y241300D01*
X304800Y222250D02*
X311150Y215900D01*
X323850Y215900D01*
X247650Y241300D02*
X234950Y241300D01*
X247650Y241300D02*
X254000Y234950D01*
X254000Y222250D01*
X247650Y215900D01*
X254000Y234950D02*
X260350Y241300D01*
X273050Y241300D01*
X279400Y234950D01*
X279400Y222250D01*
X273050Y215900D01*
X260350Y215900D01*
X254000Y222250D01*
X209550Y241300D02*
X203200Y234950D01*
X209550Y241300D02*
X222250Y241300D01*
X228600Y234950D01*
X228600Y222250D01*
X222250Y215900D01*
X209550Y215900D01*
X203200Y222250D01*
X228600Y234950D02*
X234950Y241300D01*
X228600Y222250D02*
X234950Y215900D01*
X247650Y215900D01*
X171450Y241300D02*
X158750Y241300D01*
X171450Y241300D02*
X177800Y234950D01*
X177800Y222250D01*
X171450Y215900D01*
X177800Y234950D02*
X184150Y241300D01*
X196850Y241300D01*
X203200Y234950D01*
X203200Y222250D01*
X196850Y215900D01*
X184150Y215900D01*
X177800Y222250D01*
X133350Y241300D02*
X127000Y234950D01*
X133350Y241300D02*
X146050Y241300D01*
X152400Y234950D01*
X152400Y222250D01*
X146050Y215900D01*
X133350Y215900D01*
X127000Y222250D01*
X152400Y234950D02*
X158750Y241300D01*
X152400Y222250D02*
X158750Y215900D01*
X171450Y215900D01*
X95250Y241300D02*
X82550Y241300D01*
X95250Y241300D02*
X101600Y234950D01*
X101600Y222250D01*
X95250Y215900D01*
X101600Y234950D02*
X107950Y241300D01*
X120650Y241300D01*
X127000Y234950D01*
X127000Y222250D01*
X120650Y215900D01*
X107950Y215900D01*
X101600Y222250D01*
X76200Y222250D02*
X76200Y234950D01*
X82550Y241300D01*
X76200Y222250D02*
X82550Y215900D01*
X95250Y215900D01*
X406400Y234950D02*
X412750Y241300D01*
X425450Y241300D01*
X431800Y234950D01*
X431800Y222250D01*
X425450Y215900D01*
X412750Y215900D01*
X406400Y222250D01*
X381000Y273050D02*
X387350Y279400D01*
X400050Y279400D01*
X406400Y273050D01*
X406400Y260350D01*
X400050Y254000D01*
X387350Y254000D01*
X381000Y260350D01*
X349250Y279400D02*
X336550Y279400D01*
X349250Y279400D02*
X355600Y273050D01*
X355600Y260350D01*
X349250Y254000D01*
X355600Y273050D02*
X361950Y279400D01*
X374650Y279400D01*
X381000Y273050D01*
X381000Y260350D01*
X374650Y254000D01*
X361950Y254000D01*
X355600Y260350D01*
X311150Y279400D02*
X304800Y273050D01*
X311150Y279400D02*
X323850Y279400D01*
X330200Y273050D01*
X330200Y260350D01*
X323850Y254000D01*
X311150Y254000D01*
X304800Y260350D01*
X330200Y273050D02*
X336550Y279400D01*
X330200Y260350D02*
X336550Y254000D01*
X349250Y254000D01*
X273050Y279400D02*
X260350Y279400D01*
X273050Y279400D02*
X279400Y273050D01*
X279400Y260350D01*
X273050Y254000D01*
X279400Y273050D02*
X285750Y279400D01*
X298450Y279400D01*
X304800Y273050D01*
X304800Y260350D01*
X298450Y254000D01*
X285750Y254000D01*
X279400Y260350D01*
X234950Y279400D02*
X228600Y273050D01*
X234950Y279400D02*
X247650Y279400D01*
X254000Y273050D01*
X254000Y260350D01*
X247650Y254000D01*
X234950Y254000D01*
X228600Y260350D01*
X254000Y273050D02*
X260350Y279400D01*
X254000Y260350D02*
X260350Y254000D01*
X273050Y254000D01*
X196850Y279400D02*
X184150Y279400D01*
X196850Y279400D02*
X203200Y273050D01*
X203200Y260350D01*
X196850Y254000D01*
X203200Y273050D02*
X209550Y279400D01*
X222250Y279400D01*
X228600Y273050D01*
X228600Y260350D01*
X222250Y254000D01*
X209550Y254000D01*
X203200Y260350D01*
X158750Y279400D02*
X152400Y273050D01*
X158750Y279400D02*
X171450Y279400D01*
X177800Y273050D01*
X177800Y260350D01*
X171450Y254000D01*
X158750Y254000D01*
X152400Y260350D01*
X177800Y273050D02*
X184150Y279400D01*
X177800Y260350D02*
X184150Y254000D01*
X196850Y254000D01*
X120650Y279400D02*
X107950Y279400D01*
X120650Y279400D02*
X127000Y273050D01*
X127000Y260350D01*
X120650Y254000D01*
X127000Y273050D02*
X133350Y279400D01*
X146050Y279400D01*
X152400Y273050D01*
X152400Y260350D01*
X146050Y254000D01*
X133350Y254000D01*
X127000Y260350D01*
X82550Y279400D02*
X76200Y273050D01*
X82550Y279400D02*
X95250Y279400D01*
X101600Y273050D01*
X101600Y260350D01*
X95250Y254000D01*
X82550Y254000D01*
X76200Y260350D01*
X101600Y273050D02*
X107950Y279400D01*
X101600Y260350D02*
X107950Y254000D01*
X120650Y254000D01*
X44450Y279400D02*
X31750Y279400D01*
X44450Y279400D02*
X50800Y273050D01*
X50800Y260350D01*
X44450Y254000D01*
X50800Y273050D02*
X57150Y279400D01*
X69850Y279400D01*
X76200Y273050D01*
X76200Y260350D01*
X69850Y254000D01*
X57150Y254000D01*
X50800Y260350D01*
X25400Y260350D02*
X25400Y273050D01*
X31750Y279400D01*
X25400Y260350D02*
X31750Y254000D01*
X44450Y254000D01*
X406400Y273050D02*
X412750Y279400D01*
X425450Y279400D01*
X431800Y273050D01*
X431800Y260350D01*
X425450Y254000D01*
X412750Y254000D01*
X406400Y260350D01*
X374650Y482600D02*
X361950Y482600D01*
X374650Y482600D02*
X381000Y476250D01*
X381000Y463550D01*
X374650Y457200D01*
X381000Y476250D02*
X387350Y482600D01*
X400050Y482600D01*
X406400Y476250D01*
X406400Y463550D01*
X400050Y457200D01*
X387350Y457200D01*
X381000Y463550D01*
X336550Y482600D02*
X330200Y476250D01*
X336550Y482600D02*
X349250Y482600D01*
X355600Y476250D01*
X355600Y463550D01*
X349250Y457200D01*
X336550Y457200D01*
X330200Y463550D01*
X355600Y476250D02*
X361950Y482600D01*
X355600Y463550D02*
X361950Y457200D01*
X374650Y457200D01*
X298450Y482600D02*
X285750Y482600D01*
X298450Y482600D02*
X304800Y476250D01*
X304800Y463550D01*
X298450Y457200D01*
X304800Y476250D02*
X311150Y482600D01*
X323850Y482600D01*
X330200Y476250D01*
X330200Y463550D01*
X323850Y457200D01*
X311150Y457200D01*
X304800Y463550D01*
X260350Y482600D02*
X254000Y476250D01*
X260350Y482600D02*
X273050Y482600D01*
X279400Y476250D01*
X279400Y463550D01*
X273050Y457200D01*
X260350Y457200D01*
X254000Y463550D01*
X279400Y476250D02*
X285750Y482600D01*
X279400Y463550D02*
X285750Y457200D01*
X298450Y457200D01*
X222250Y482600D02*
X209550Y482600D01*
X222250Y482600D02*
X228600Y476250D01*
X228600Y463550D01*
X222250Y457200D01*
X228600Y476250D02*
X234950Y482600D01*
X247650Y482600D01*
X254000Y476250D01*
X254000Y463550D01*
X247650Y457200D01*
X234950Y457200D01*
X228600Y463550D01*
X184150Y482600D02*
X177800Y476250D01*
X184150Y482600D02*
X196850Y482600D01*
X203200Y476250D01*
X203200Y463550D01*
X196850Y457200D01*
X184150Y457200D01*
X177800Y463550D01*
X203200Y476250D02*
X209550Y482600D01*
X203200Y463550D02*
X209550Y457200D01*
X222250Y457200D01*
X146050Y482600D02*
X133350Y482600D01*
X146050Y482600D02*
X152400Y476250D01*
X152400Y463550D01*
X146050Y457200D01*
X152400Y476250D02*
X158750Y482600D01*
X171450Y482600D01*
X177800Y476250D01*
X177800Y463550D01*
X171450Y457200D01*
X158750Y457200D01*
X152400Y463550D01*
X127000Y463550D02*
X127000Y476250D01*
X133350Y482600D01*
X127000Y463550D02*
X133350Y457200D01*
X146050Y457200D01*
X406400Y476250D02*
X412750Y482600D01*
X425450Y482600D01*
X431800Y476250D01*
X431800Y463550D01*
X425450Y457200D01*
X412750Y457200D01*
X406400Y463550D01*
X387350Y304800D02*
X381000Y298450D01*
X387350Y304800D02*
X400050Y304800D01*
X406400Y298450D01*
X406400Y285750D01*
X400050Y279400D01*
X387350Y279400D01*
X381000Y285750D01*
X349250Y304800D02*
X336550Y304800D01*
X349250Y304800D02*
X355600Y298450D01*
X355600Y285750D01*
X349250Y279400D01*
X355600Y298450D02*
X361950Y304800D01*
X374650Y304800D01*
X381000Y298450D01*
X381000Y285750D01*
X374650Y279400D01*
X361950Y279400D01*
X355600Y285750D01*
X311150Y304800D02*
X304800Y298450D01*
X311150Y304800D02*
X323850Y304800D01*
X330200Y298450D01*
X330200Y285750D01*
X323850Y279400D01*
X311150Y279400D01*
X304800Y285750D01*
X330200Y298450D02*
X336550Y304800D01*
X330200Y285750D02*
X336550Y279400D01*
X349250Y279400D01*
X273050Y304800D02*
X260350Y304800D01*
X273050Y304800D02*
X279400Y298450D01*
X279400Y285750D01*
X273050Y279400D01*
X279400Y298450D02*
X285750Y304800D01*
X298450Y304800D01*
X304800Y298450D01*
X304800Y285750D01*
X298450Y279400D01*
X285750Y279400D01*
X279400Y285750D01*
X234950Y304800D02*
X228600Y298450D01*
X234950Y304800D02*
X247650Y304800D01*
X254000Y298450D01*
X254000Y285750D01*
X247650Y279400D01*
X234950Y279400D01*
X228600Y285750D01*
X254000Y298450D02*
X260350Y304800D01*
X254000Y285750D02*
X260350Y279400D01*
X273050Y279400D01*
X196850Y304800D02*
X184150Y304800D01*
X196850Y304800D02*
X203200Y298450D01*
X203200Y285750D01*
X196850Y279400D01*
X203200Y298450D02*
X209550Y304800D01*
X222250Y304800D01*
X228600Y298450D01*
X228600Y285750D01*
X222250Y279400D01*
X209550Y279400D01*
X203200Y285750D01*
X158750Y304800D02*
X152400Y298450D01*
X158750Y304800D02*
X171450Y304800D01*
X177800Y298450D01*
X177800Y285750D01*
X171450Y279400D01*
X158750Y279400D01*
X152400Y285750D01*
X177800Y298450D02*
X184150Y304800D01*
X177800Y285750D02*
X184150Y279400D01*
X196850Y279400D01*
X120650Y304800D02*
X107950Y304800D01*
X120650Y304800D02*
X127000Y298450D01*
X127000Y285750D01*
X120650Y279400D01*
X127000Y298450D02*
X133350Y304800D01*
X146050Y304800D01*
X152400Y298450D01*
X152400Y285750D01*
X146050Y279400D01*
X133350Y279400D01*
X127000Y285750D01*
X82550Y304800D02*
X76200Y298450D01*
X82550Y304800D02*
X95250Y304800D01*
X101600Y298450D01*
X101600Y285750D01*
X95250Y279400D01*
X82550Y279400D01*
X76200Y285750D01*
X101600Y298450D02*
X107950Y304800D01*
X101600Y285750D02*
X107950Y279400D01*
X120650Y279400D01*
X44450Y304800D02*
X31750Y304800D01*
X44450Y304800D02*
X50800Y298450D01*
X50800Y285750D01*
X44450Y279400D01*
X50800Y298450D02*
X57150Y304800D01*
X69850Y304800D01*
X76200Y298450D01*
X76200Y285750D01*
X69850Y279400D01*
X57150Y279400D01*
X50800Y285750D01*
X25400Y285750D02*
X25400Y298450D01*
X31750Y304800D01*
X25400Y285750D02*
X31750Y279400D01*
X44450Y279400D01*
X406400Y298450D02*
X412750Y304800D01*
X425450Y304800D01*
X431800Y298450D01*
X431800Y285750D01*
X425450Y279400D01*
X412750Y279400D01*
X406400Y285750D01*
X374650Y508000D02*
X361950Y508000D01*
X374650Y508000D02*
X381000Y501650D01*
X381000Y488950D01*
X374650Y482600D01*
X381000Y501650D02*
X387350Y508000D01*
X400050Y508000D01*
X406400Y501650D01*
X406400Y488950D01*
X400050Y482600D01*
X387350Y482600D01*
X381000Y488950D01*
X336550Y508000D02*
X330200Y501650D01*
X336550Y508000D02*
X349250Y508000D01*
X355600Y501650D01*
X355600Y488950D01*
X349250Y482600D01*
X336550Y482600D01*
X330200Y488950D01*
X355600Y501650D02*
X361950Y508000D01*
X355600Y488950D02*
X361950Y482600D01*
X374650Y482600D01*
X298450Y508000D02*
X285750Y508000D01*
X298450Y508000D02*
X304800Y501650D01*
X304800Y488950D01*
X298450Y482600D01*
X304800Y501650D02*
X311150Y508000D01*
X323850Y508000D01*
X330200Y501650D01*
X330200Y488950D01*
X323850Y482600D01*
X311150Y482600D01*
X304800Y488950D01*
X260350Y508000D02*
X254000Y501650D01*
X260350Y508000D02*
X273050Y508000D01*
X279400Y501650D01*
X279400Y488950D01*
X273050Y482600D01*
X260350Y482600D01*
X254000Y488950D01*
X279400Y501650D02*
X285750Y508000D01*
X279400Y488950D02*
X285750Y482600D01*
X298450Y482600D01*
X222250Y508000D02*
X209550Y508000D01*
X222250Y508000D02*
X228600Y501650D01*
X228600Y488950D01*
X222250Y482600D01*
X228600Y501650D02*
X234950Y508000D01*
X247650Y508000D01*
X254000Y501650D01*
X254000Y488950D01*
X247650Y482600D01*
X234950Y482600D01*
X228600Y488950D01*
X184150Y508000D02*
X177800Y501650D01*
X184150Y508000D02*
X196850Y508000D01*
X203200Y501650D01*
X203200Y488950D01*
X196850Y482600D01*
X184150Y482600D01*
X177800Y488950D01*
X203200Y501650D02*
X209550Y508000D01*
X203200Y488950D02*
X209550Y482600D01*
X222250Y482600D01*
X146050Y508000D02*
X133350Y508000D01*
X146050Y508000D02*
X152400Y501650D01*
X152400Y488950D01*
X146050Y482600D01*
X152400Y501650D02*
X158750Y508000D01*
X171450Y508000D01*
X177800Y501650D01*
X177800Y488950D01*
X171450Y482600D01*
X158750Y482600D01*
X152400Y488950D01*
X127000Y488950D02*
X127000Y501650D01*
X133350Y508000D01*
X127000Y488950D02*
X133350Y482600D01*
X146050Y482600D01*
X406400Y501650D02*
X412750Y508000D01*
X425450Y508000D01*
X431800Y501650D01*
X431800Y488950D01*
X425450Y482600D01*
X412750Y482600D01*
X406400Y488950D01*
D14*
X84800Y524800D02*
X84800Y580800D01*
X84800Y594800D01*
X14800Y594800D01*
X14800Y580800D01*
X14800Y524800D01*
X84800Y524800D01*
X84800Y580800D02*
X14800Y580800D01*
D13*
X381000Y615950D02*
X387350Y622300D01*
X400050Y622300D01*
X406400Y615950D01*
X406400Y603250D01*
X400050Y596900D01*
X387350Y596900D01*
X381000Y603250D01*
X349250Y622300D02*
X336550Y622300D01*
X349250Y622300D02*
X355600Y615950D01*
X355600Y603250D01*
X349250Y596900D01*
X355600Y615950D02*
X361950Y622300D01*
X374650Y622300D01*
X381000Y615950D01*
X381000Y603250D01*
X374650Y596900D01*
X361950Y596900D01*
X355600Y603250D01*
X330200Y603250D02*
X330200Y615950D01*
X336550Y622300D01*
X330200Y603250D02*
X336550Y596900D01*
X349250Y596900D01*
X412750Y622300D02*
X425450Y622300D01*
X431800Y615950D01*
X431800Y603250D01*
X425450Y596900D01*
X406400Y615950D02*
X412750Y622300D01*
X406400Y603250D02*
X412750Y596900D01*
X425450Y596900D01*
D11*
X184100Y350650D02*
X151100Y350650D01*
X146100Y350650D01*
X146100Y436750D02*
X151100Y436750D01*
X184100Y436750D01*
D15*
X218800Y630700D02*
X263800Y630700D01*
X263800Y537700D01*
X218800Y537700D01*
X218800Y630700D01*
D16*
X241300Y558700D03*
D15*
X162200Y630700D02*
X117200Y630700D01*
X162200Y630700D02*
X162200Y537700D01*
X117200Y537700D01*
X117200Y630700D01*
D16*
X139700Y558700D03*
D15*
X269600Y630700D02*
X314600Y630700D01*
X314600Y537700D01*
X269600Y537700D01*
X269600Y630700D01*
D16*
X292100Y558700D03*
D15*
X213000Y630700D02*
X168000Y630700D01*
X213000Y630700D02*
X213000Y537700D01*
X168000Y537700D01*
X168000Y630700D01*
D16*
X190500Y558700D03*
M02*
