G04 EAGLE Gerber RS-274X export*
G75*
%MOMM*%
%FSLAX34Y34*%
%LPD*%
%INSoldermask Bottom*%
%IPPOS*%
%AMOC8*
5,1,8,0,0,1.08239X$1,22.5*%
G01*
G04 Define Apertures*
%ADD10C,3.203194*%
%ADD11R,1.727200X1.727200*%
%ADD12P,1.8695X8X22.5*%
%ADD13C,2.387600*%
%ADD14C,1.727200*%
%ADD15C,1.320800*%
%ADD16C,0.959600*%
D10*
X228600Y139700D03*
D11*
X88900Y25400D03*
D12*
X114300Y25400D03*
X139700Y25400D03*
X165100Y25400D03*
X190500Y25400D03*
X215900Y25400D03*
X241300Y25400D03*
X266700Y25400D03*
X292100Y25400D03*
X317500Y25400D03*
X342900Y25400D03*
X368300Y25400D03*
X393700Y25400D03*
X419100Y25400D03*
D11*
X88900Y228600D03*
D12*
X114300Y228600D03*
X139700Y228600D03*
X165100Y228600D03*
X190500Y228600D03*
X215900Y228600D03*
X241300Y228600D03*
X266700Y228600D03*
X292100Y228600D03*
X317500Y228600D03*
X342900Y228600D03*
X368300Y228600D03*
X393700Y228600D03*
X419100Y228600D03*
D11*
X38100Y266700D03*
D12*
X63500Y266700D03*
X88900Y266700D03*
X114300Y266700D03*
X139700Y266700D03*
X165100Y266700D03*
X190500Y266700D03*
X215900Y266700D03*
X241300Y266700D03*
X266700Y266700D03*
X292100Y266700D03*
X317500Y266700D03*
X342900Y266700D03*
X368300Y266700D03*
X393700Y266700D03*
X419100Y266700D03*
D11*
X139700Y469900D03*
D12*
X165100Y469900D03*
X190500Y469900D03*
X215900Y469900D03*
X241300Y469900D03*
X266700Y469900D03*
X292100Y469900D03*
X317500Y469900D03*
X342900Y469900D03*
X368300Y469900D03*
X393700Y469900D03*
X419100Y469900D03*
D11*
X38100Y292100D03*
D12*
X63500Y292100D03*
X88900Y292100D03*
X114300Y292100D03*
X139700Y292100D03*
X165100Y292100D03*
X190500Y292100D03*
X215900Y292100D03*
X241300Y292100D03*
X266700Y292100D03*
X292100Y292100D03*
X317500Y292100D03*
X342900Y292100D03*
X368300Y292100D03*
X393700Y292100D03*
X419100Y292100D03*
D11*
X139700Y495300D03*
D12*
X165100Y495300D03*
X190500Y495300D03*
X215900Y495300D03*
X241300Y495300D03*
X266700Y495300D03*
X292100Y495300D03*
X317500Y495300D03*
X342900Y495300D03*
X368300Y495300D03*
X393700Y495300D03*
X419100Y495300D03*
D13*
X32800Y558800D03*
X67800Y558800D03*
D14*
X342900Y601980D02*
X342900Y617220D01*
X368300Y617220D02*
X368300Y601980D01*
X393700Y601980D02*
X393700Y617220D01*
X419100Y617220D02*
X419100Y601980D01*
D15*
X254000Y558800D03*
X228600Y584200D03*
X254000Y609600D03*
X152400Y558800D03*
X127000Y584200D03*
X152400Y609600D03*
X304800Y558800D03*
X279400Y584200D03*
X304800Y609600D03*
X203200Y558800D03*
X177800Y584200D03*
X203200Y609600D03*
D16*
X317500Y444500D03*
X292100Y444500D03*
X266700Y444500D03*
X241300Y444500D03*
X76200Y254000D03*
X63500Y228600D03*
X101600Y311150D03*
X63500Y311150D03*
X215900Y368300D03*
X228600Y406400D03*
X393700Y520700D03*
X215900Y355600D03*
X215900Y381000D03*
M02*
