G04 EAGLE Gerber RS-274X export*
G75*
%MOMM*%
%FSLAX34Y34*%
%LPD*%
%INSoldermask Top*%
%IPPOS*%
%AMOC8*
5,1,8,0,0,1.08239X$1,22.5*%
G01*
G04 Define Apertures*
%ADD10C,3.203194*%
%ADD11R,1.727200X1.727200*%
%ADD12P,1.8695X8X22.5*%
%ADD13R,1.703200X1.503200*%
%ADD14R,1.503200X1.703200*%
%ADD15C,2.387600*%
%ADD16C,1.727200*%
%ADD17R,2.403200X0.803200*%
%ADD18R,2.006200X1.803200*%
%ADD19R,1.803200X2.006200*%
%ADD20C,1.320800*%
%ADD21C,0.959600*%
D10*
X228600Y139700D03*
D11*
X88900Y25400D03*
D12*
X114300Y25400D03*
X139700Y25400D03*
X165100Y25400D03*
X190500Y25400D03*
X215900Y25400D03*
X241300Y25400D03*
X266700Y25400D03*
X292100Y25400D03*
X317500Y25400D03*
X342900Y25400D03*
X368300Y25400D03*
X393700Y25400D03*
X419100Y25400D03*
D11*
X88900Y228600D03*
D12*
X114300Y228600D03*
X139700Y228600D03*
X165100Y228600D03*
X190500Y228600D03*
X215900Y228600D03*
X241300Y228600D03*
X266700Y228600D03*
X292100Y228600D03*
X317500Y228600D03*
X342900Y228600D03*
X368300Y228600D03*
X393700Y228600D03*
X419100Y228600D03*
D13*
X114300Y384200D03*
X114300Y403200D03*
D14*
X161900Y330200D03*
X142900Y330200D03*
X92100Y330200D03*
X111100Y330200D03*
D13*
X63500Y403200D03*
X63500Y384200D03*
D14*
X276200Y381000D03*
X257200Y381000D03*
D11*
X38100Y266700D03*
D12*
X63500Y266700D03*
X88900Y266700D03*
X114300Y266700D03*
X139700Y266700D03*
X165100Y266700D03*
X190500Y266700D03*
X215900Y266700D03*
X241300Y266700D03*
X266700Y266700D03*
X292100Y266700D03*
X317500Y266700D03*
X342900Y266700D03*
X368300Y266700D03*
X393700Y266700D03*
X419100Y266700D03*
D11*
X139700Y469900D03*
D12*
X165100Y469900D03*
X190500Y469900D03*
X215900Y469900D03*
X241300Y469900D03*
X266700Y469900D03*
X292100Y469900D03*
X317500Y469900D03*
X342900Y469900D03*
X368300Y469900D03*
X393700Y469900D03*
X419100Y469900D03*
D11*
X38100Y292100D03*
D12*
X63500Y292100D03*
X88900Y292100D03*
X114300Y292100D03*
X139700Y292100D03*
X165100Y292100D03*
X190500Y292100D03*
X215900Y292100D03*
X241300Y292100D03*
X266700Y292100D03*
X292100Y292100D03*
X317500Y292100D03*
X342900Y292100D03*
X368300Y292100D03*
X393700Y292100D03*
X419100Y292100D03*
D11*
X139700Y495300D03*
D12*
X165100Y495300D03*
X190500Y495300D03*
X215900Y495300D03*
X241300Y495300D03*
X266700Y495300D03*
X292100Y495300D03*
X317500Y495300D03*
X342900Y495300D03*
X368300Y495300D03*
X393700Y495300D03*
X419100Y495300D03*
D15*
X32800Y558800D03*
X67800Y558800D03*
D16*
X342900Y601980D02*
X342900Y617220D01*
X368300Y617220D02*
X368300Y601980D01*
X393700Y601980D02*
X393700Y617220D01*
X419100Y617220D02*
X419100Y601980D01*
D17*
X139100Y419100D03*
X139100Y355600D03*
X139100Y431800D03*
X139100Y406400D03*
X139100Y393700D03*
X191100Y355600D03*
X139100Y368300D03*
X139100Y381000D03*
X191100Y368300D03*
X191100Y381000D03*
X191100Y393700D03*
X191100Y406400D03*
X191100Y419100D03*
X191100Y431800D03*
D18*
X88900Y413764D03*
X88900Y385324D03*
D19*
X61980Y444500D03*
X90420Y444500D03*
X280920Y419100D03*
X252480Y419100D03*
X252480Y342900D03*
X280920Y342900D03*
D20*
X254000Y558800D03*
X228600Y584200D03*
X254000Y609600D03*
X152400Y558800D03*
X127000Y584200D03*
X152400Y609600D03*
X304800Y558800D03*
X279400Y584200D03*
X304800Y609600D03*
X203200Y558800D03*
X177800Y584200D03*
X203200Y609600D03*
D19*
X392180Y546100D03*
X420620Y546100D03*
D14*
X92100Y355600D03*
X111100Y355600D03*
D21*
X215900Y368300D03*
X228600Y406400D03*
X393700Y520700D03*
X215900Y355600D03*
X215900Y381000D03*
M02*
