M48
;GenerationSoftware,Autodesk,EAGLE,9.7.0*%
;CreationDate,2021-08-27T21:10:39Z*%
FMAT,2
ICI,OFF
METRIC,TZ,000.000
T6C0.350
T5C0.610
T4C1.000
T3C1.016
T2C3.000
%
G90
M71
T2
X22860Y13970
T3
X8890Y2540
X21590Y49530
X24130Y49530
X26670Y49530
X29210Y49530
X31750Y49530
X34290Y49530
X36830Y49530
X39370Y49530
X41910Y49530
X34290Y60960
X36830Y60960
X39370Y60960
X8890Y22860
X11430Y2540
X13970Y2540
X16510Y2540
X19050Y2540
X21590Y2540
X24130Y2540
X26670Y2540
X29210Y2540
X31750Y2540
X34290Y2540
X36830Y2540
X39370Y2540
X41910Y2540
X41910Y60960
X11430Y22860
X13970Y22860
X16510Y22860
X19050Y22860
X21590Y22860
X24130Y22860
X26670Y22860
X29210Y22860
X31750Y22860
X34290Y22860
X36830Y22860
X39370Y22860
X41910Y22860
X3810Y26670
X6350Y26670
X8890Y26670
X11430Y26670
X13970Y26670
X16510Y26670
X19050Y26670
X21590Y26670
X24130Y26670
X26670Y26670
X29210Y26670
X31750Y26670
X34290Y26670
X36830Y26670
X39370Y26670
X41910Y26670
X13970Y46990
X16510Y46990
X19050Y46990
X21590Y46990
X24130Y46990
X26670Y46990
X29210Y46990
X31750Y46990
X34290Y46990
X36830Y46990
X39370Y46990
X41910Y46990
X3810Y29210
X6350Y29210
X8890Y29210
X11430Y29210
X13970Y29210
X16510Y29210
X19050Y29210
X21590Y29210
X24130Y29210
X26670Y29210
X29210Y29210
X31750Y29210
X34290Y29210
X36830Y29210
X39370Y29210
X41910Y29210
X13970Y49530
X16510Y49530
X19050Y49530
T4
X3280Y55880
X6780Y55880
T5
X25400Y55880
X22860Y58420
X25400Y60960
X15240Y55880
X12700Y58420
X15240Y60960
X30480Y55880
X27940Y58420
X30480Y60960
X20320Y55880
X17780Y58420
X20320Y60960
T6
X29210Y44450
X26670Y44450
X24130Y44450
X7620Y25400
X6350Y22860
X10160Y31115
X6350Y31115
X21590Y36830
X22860Y40640
X39370Y52070
X21590Y35560
X21590Y38100
X31750Y44450
M30