M48
;GenerationSoftware,Autodesk,EAGLE,9.7.0*%
;CreationDate,2022-05-09T05:41:14Z*%
FMAT,2
ICI,OFF
METRIC,TZ,000.000
T7C0.350
T6C0.813
T5C1.000
T4C1.016
T3C2.200
T2C2.700
%
G90
M71
T2
X63500Y74930
X6350Y74930
X6350Y6350
X63500Y6350
X39370Y22987
X57150Y22987
X34163Y42291
X14097Y42291
X63500Y74930
X14097Y42291
X34163Y42291
X57150Y22987
X39370Y22987
X63500Y6350
X6350Y6350
X6350Y74930
T3
X63627Y45974
X63627Y35306
X63627Y35306
X63627Y45974
T4
X17780Y57150
X20320Y57150
X22860Y57150
X25400Y57150
X27940Y57150
X30480Y57150
X33020Y57150
X35560Y57150
X38100Y57150
X40640Y57150
X43180Y57150
X45720Y57150
X48260Y57150
X20320Y77470
X22860Y77470
X25400Y77470
X27940Y77470
X30480Y77470
X33020Y77470
X48260Y54610
X35560Y77470
X38100Y77470
X40640Y77470
X45720Y77470
X48260Y77470
X45085Y35560
X45085Y38100
X45085Y40640
X45085Y43180
X45085Y45720
X38100Y2540
X43180Y2540
X45720Y2540
X48260Y2540
X50800Y2540
X53340Y2540
X55880Y2540
X58420Y2540
X5080Y21590
X7620Y21590
X40640Y2540
X10160Y54610
X12700Y54610
X15240Y54610
X17780Y54610
X20320Y54610
X22860Y54610
X25400Y54610
X27940Y54610
X30480Y54610
X33020Y54610
X35560Y54610
X38100Y54610
X40640Y54610
X43180Y54610
X45720Y54610
X43180Y77470
X20320Y74930
X22860Y74930
X25400Y74930
X27940Y74930
X30480Y74930
X33020Y74930
X35560Y74930
X38100Y74930
X40640Y74930
X43180Y74930
X45720Y74930
X48260Y74930
X10160Y57150
X12700Y57150
X15240Y57150
T5
X5078Y46560
X5078Y50060
T6
X27940Y2540
X15240Y2540
X17780Y2540
X20320Y2540
X22860Y2540
X25400Y2540
X30480Y2540
X33020Y2540
T7
X26670Y46990
X10160Y31750
X8890Y48260
X10160Y52070
X6350Y53340
X3810Y54610
X8890Y60960
X15240Y76200
X50800Y76200
X43180Y6350
X54610Y6350
X27940Y5080
X15240Y6350
X17780Y20320
X24130Y33020
X20320Y52705
X16510Y47625
X54623Y3823
X17780Y59690
X39370Y67945
X55880Y57150
X43180Y71755
X50142Y45085
X27940Y7620
X31750Y11430
X34290Y11430
X31750Y8890
X48895Y47625
X48260Y49530
X48260Y30480
X13970Y67310
X45720Y64770
X49530Y40640
X26035Y65405
X21590Y63500
X29210Y60960
X39370Y64135
X31750Y69850
X53340Y73660
X57150Y35560
X49530Y35560
X30480Y6350
X50800Y72390
X33020Y73637
X55880Y44450
X33020Y6350
X50800Y68580
X38100Y34290
X33020Y34290
X45720Y26670
X43180Y33020
M30