G04 EAGLE Gerber RS-274X export*
G75*
%MOMM*%
%FSLAX34Y34*%
%LPD*%
%INBottom Copper*%
%IPPOS*%
%AMOC8*
5,1,8,0,0,1.08239X$1,22.5*%
G01*
G04 Define Apertures*
%ADD10R,1.524000X1.524000*%
%ADD11P,1.64956X8X22.5*%
%ADD12C,2.184400*%
%ADD13P,1.64956X8X112.5*%
%ADD14C,1.320800*%
%ADD15C,7.550000*%
%ADD16C,1.524000*%
%ADD17C,6.000000*%
%ADD18C,0.756400*%
%ADD19C,0.254000*%
%ADD20C,0.406400*%
G36*
X143879Y12861D02*
X144546Y13318D01*
X144982Y14000D01*
X145117Y14797D01*
X144964Y15510D01*
X144272Y17179D01*
X144272Y33621D01*
X145509Y36608D01*
X147796Y38895D01*
X150783Y40132D01*
X154017Y40132D01*
X157004Y38895D01*
X159291Y36608D01*
X160528Y33621D01*
X160528Y17179D01*
X159836Y15510D01*
X159682Y14716D01*
X159849Y13925D01*
X160312Y13261D01*
X160996Y12831D01*
X161714Y12700D01*
X168486Y12700D01*
X169279Y12861D01*
X169946Y13318D01*
X170382Y14000D01*
X170517Y14797D01*
X170364Y15510D01*
X169672Y17179D01*
X169672Y33621D01*
X170909Y36608D01*
X173196Y38895D01*
X176183Y40132D01*
X179417Y40132D01*
X182404Y38895D01*
X184691Y36608D01*
X185928Y33621D01*
X185928Y17179D01*
X185236Y15510D01*
X185082Y14716D01*
X185249Y13925D01*
X185712Y13261D01*
X186396Y12831D01*
X187114Y12700D01*
X193886Y12700D01*
X194679Y12861D01*
X195346Y13318D01*
X195782Y14000D01*
X195917Y14797D01*
X195764Y15510D01*
X195072Y17179D01*
X195072Y33621D01*
X196309Y36608D01*
X198596Y38895D01*
X201583Y40132D01*
X204817Y40132D01*
X207804Y38895D01*
X210091Y36608D01*
X211328Y33621D01*
X211328Y17179D01*
X210636Y15510D01*
X210482Y14716D01*
X210649Y13925D01*
X211112Y13261D01*
X211796Y12831D01*
X212514Y12700D01*
X219286Y12700D01*
X220079Y12861D01*
X220746Y13318D01*
X221182Y14000D01*
X221317Y14797D01*
X221164Y15510D01*
X220472Y17179D01*
X220472Y33621D01*
X221709Y36608D01*
X223996Y38895D01*
X226983Y40132D01*
X230217Y40132D01*
X233204Y38895D01*
X235491Y36608D01*
X236728Y33621D01*
X236728Y17179D01*
X236036Y15510D01*
X235882Y14716D01*
X236049Y13925D01*
X236512Y13261D01*
X237196Y12831D01*
X237914Y12700D01*
X243587Y12700D01*
X244379Y12861D01*
X245046Y13318D01*
X245482Y14000D01*
X245618Y14797D01*
X245464Y15510D01*
X244856Y16977D01*
X244856Y24638D01*
X263144Y24638D01*
X263144Y16977D01*
X262536Y15510D01*
X262382Y14716D01*
X262549Y13925D01*
X263011Y13261D01*
X263696Y12831D01*
X264413Y12700D01*
X270086Y12700D01*
X270879Y12861D01*
X271546Y13318D01*
X271982Y14000D01*
X272117Y14797D01*
X271964Y15510D01*
X271272Y17179D01*
X271272Y33621D01*
X272509Y36608D01*
X274796Y38895D01*
X275054Y39001D01*
X275713Y39442D01*
X290627Y54356D01*
X302795Y54356D01*
X303587Y54517D01*
X304254Y54974D01*
X304690Y55656D01*
X304793Y56257D01*
X304954Y55551D01*
X305427Y54895D01*
X306118Y54476D01*
X306805Y54356D01*
X328195Y54356D01*
X328987Y54517D01*
X329654Y54974D01*
X330090Y55656D01*
X330193Y56257D01*
X330354Y55551D01*
X330827Y54895D01*
X331518Y54476D01*
X332205Y54356D01*
X553212Y54356D01*
X554005Y54517D01*
X554672Y54974D01*
X555107Y55656D01*
X555244Y56388D01*
X555244Y141173D01*
X618149Y204078D01*
X618595Y204752D01*
X618744Y205515D01*
X618744Y302485D01*
X618583Y303278D01*
X618149Y303922D01*
X580644Y341427D01*
X580644Y350012D01*
X580483Y350805D01*
X580026Y351472D01*
X579345Y351907D01*
X578612Y352044D01*
X576290Y352044D01*
X575497Y351883D01*
X574853Y351449D01*
X574506Y351102D01*
X572555Y350294D01*
X570445Y350294D01*
X568494Y351102D01*
X567002Y352594D01*
X566194Y354545D01*
X566194Y356655D01*
X567002Y358606D01*
X568494Y360098D01*
X570445Y360906D01*
X572555Y360906D01*
X574506Y360098D01*
X574853Y359751D01*
X575527Y359305D01*
X576290Y359156D01*
X578612Y359156D01*
X579405Y359317D01*
X580072Y359774D01*
X580507Y360456D01*
X580644Y361188D01*
X580644Y788162D01*
X580483Y788955D01*
X580026Y789622D01*
X579345Y790057D01*
X578612Y790194D01*
X275365Y790194D01*
X274572Y790033D01*
X273928Y789599D01*
X263739Y779410D01*
X263293Y778736D01*
X263144Y777973D01*
X263144Y770912D01*
X257788Y765556D01*
X250212Y765556D01*
X244856Y770912D01*
X244856Y778488D01*
X250212Y783844D01*
X257273Y783844D01*
X258066Y784005D01*
X258710Y784439D01*
X270902Y796631D01*
X271349Y797305D01*
X271497Y798100D01*
X271324Y798890D01*
X270856Y799550D01*
X270168Y799975D01*
X269465Y800100D01*
X14732Y800100D01*
X13939Y799939D01*
X13272Y799482D01*
X12837Y798801D01*
X12700Y798068D01*
X12700Y14732D01*
X12861Y13939D01*
X13318Y13272D01*
X14000Y12837D01*
X14732Y12700D01*
X143086Y12700D01*
X143879Y12861D01*
G37*
%LPC*%
G36*
X58329Y710026D02*
X48341Y712702D01*
X39385Y717873D01*
X32073Y725185D01*
X26902Y734141D01*
X24226Y744129D01*
X24226Y754471D01*
X26902Y764459D01*
X32073Y773415D01*
X39385Y780727D01*
X48341Y785898D01*
X58329Y788574D01*
X68671Y788574D01*
X78659Y785898D01*
X87615Y780727D01*
X94927Y773415D01*
X100098Y764459D01*
X102774Y754471D01*
X102774Y744129D01*
X100098Y734141D01*
X94927Y725185D01*
X87615Y717873D01*
X78659Y712702D01*
X68671Y710026D01*
X58329Y710026D01*
G37*
G36*
X330040Y57240D02*
X329561Y57892D01*
X328972Y58265D01*
X327194Y59002D01*
X325702Y60494D01*
X324740Y62816D01*
X324288Y63486D01*
X323611Y63927D01*
X322814Y64069D01*
X322026Y63890D01*
X321426Y63475D01*
X318657Y60706D01*
X310352Y60706D01*
X309559Y60545D01*
X308915Y60111D01*
X307806Y59002D01*
X306028Y58265D01*
X305357Y57813D01*
X304916Y57136D01*
X304808Y56529D01*
X304640Y57240D01*
X304161Y57892D01*
X303572Y58265D01*
X301794Y59002D01*
X300302Y60494D01*
X299494Y62445D01*
X299494Y64555D01*
X300302Y66506D01*
X301794Y67998D01*
X303745Y68806D01*
X305855Y68806D01*
X307806Y67998D01*
X308915Y66889D01*
X309589Y66443D01*
X310352Y66294D01*
X315501Y66294D01*
X316294Y66455D01*
X316938Y66889D01*
X530011Y279962D01*
X530457Y280636D01*
X530606Y281399D01*
X530606Y331249D01*
X530445Y332042D01*
X529988Y332709D01*
X529307Y333144D01*
X528509Y333280D01*
X527722Y333094D01*
X527137Y332686D01*
X463101Y268650D01*
X462655Y267976D01*
X462506Y267213D01*
X462506Y265645D01*
X461698Y263694D01*
X460206Y262202D01*
X458255Y261394D01*
X456145Y261394D01*
X454194Y262202D01*
X452702Y263694D01*
X451894Y265645D01*
X451894Y267755D01*
X452702Y269706D01*
X454194Y271198D01*
X456145Y272006D01*
X457713Y272006D01*
X458506Y272167D01*
X459150Y272601D01*
X482575Y296026D01*
X483021Y296700D01*
X483170Y297495D01*
X482996Y298285D01*
X482528Y298945D01*
X481916Y299340D01*
X479594Y300302D01*
X478102Y301794D01*
X477294Y303745D01*
X477294Y305855D01*
X478102Y307806D01*
X479594Y309298D01*
X481545Y310106D01*
X483113Y310106D01*
X483906Y310267D01*
X484550Y310701D01*
X517311Y343462D01*
X517757Y344136D01*
X517906Y344899D01*
X517906Y506001D01*
X517745Y506794D01*
X517311Y507438D01*
X488388Y536361D01*
X487714Y536807D01*
X486951Y536956D01*
X478812Y536956D01*
X473456Y542312D01*
X473456Y549888D01*
X478812Y555244D01*
X486388Y555244D01*
X491744Y549888D01*
X491744Y541749D01*
X491905Y540956D01*
X492339Y540312D01*
X520787Y511864D01*
X521461Y511418D01*
X522256Y511269D01*
X523046Y511443D01*
X523706Y511911D01*
X524131Y512599D01*
X524256Y513301D01*
X524256Y677451D01*
X524095Y678244D01*
X523661Y678888D01*
X516774Y685775D01*
X516100Y686221D01*
X515305Y686370D01*
X514515Y686196D01*
X513855Y685728D01*
X513460Y685116D01*
X512498Y682794D01*
X511006Y681302D01*
X509055Y680494D01*
X506945Y680494D01*
X504994Y681302D01*
X503502Y682794D01*
X502694Y684745D01*
X502694Y686313D01*
X502533Y687106D01*
X502099Y687750D01*
X456638Y733211D01*
X455964Y733657D01*
X455201Y733806D01*
X392543Y733806D01*
X386788Y739561D01*
X386114Y740007D01*
X385351Y740156D01*
X377212Y740156D01*
X371856Y745512D01*
X371856Y753088D01*
X374506Y755737D01*
X374952Y756411D01*
X375101Y757206D01*
X374927Y757996D01*
X374459Y758656D01*
X373771Y759081D01*
X373069Y759206D01*
X363531Y759206D01*
X362739Y759045D01*
X362072Y758588D01*
X361636Y757907D01*
X361500Y757109D01*
X361686Y756322D01*
X362094Y755737D01*
X364744Y753088D01*
X364744Y745512D01*
X359388Y740156D01*
X351812Y740156D01*
X346456Y745512D01*
X346456Y753088D01*
X349106Y755737D01*
X349552Y756411D01*
X349701Y757206D01*
X349527Y757996D01*
X349059Y758656D01*
X348371Y759081D01*
X347669Y759206D01*
X338131Y759206D01*
X337339Y759045D01*
X336672Y758588D01*
X336236Y757907D01*
X336100Y757109D01*
X336286Y756322D01*
X336694Y755737D01*
X339344Y753088D01*
X339344Y745512D01*
X335223Y741391D01*
X334776Y740717D01*
X334628Y739922D01*
X334782Y739177D01*
X335506Y737429D01*
X335506Y736087D01*
X335667Y735294D01*
X336101Y734650D01*
X387312Y683439D01*
X387986Y682993D01*
X388781Y682845D01*
X389571Y683018D01*
X390186Y683439D01*
X390694Y683948D01*
X392645Y684756D01*
X394755Y684756D01*
X396706Y683948D01*
X398198Y682456D01*
X399006Y680505D01*
X399006Y678395D01*
X398198Y676444D01*
X396706Y674952D01*
X394755Y674144D01*
X392645Y674144D01*
X390694Y674952D01*
X389585Y676061D01*
X388911Y676507D01*
X388149Y676656D01*
X386193Y676656D01*
X332376Y730473D01*
X331702Y730919D01*
X330939Y731068D01*
X329145Y731068D01*
X327194Y731876D01*
X325859Y733211D01*
X325185Y733657D01*
X324423Y733806D01*
X265543Y733806D01*
X259788Y739561D01*
X259114Y740007D01*
X258351Y740156D01*
X250212Y740156D01*
X244856Y745512D01*
X244856Y753088D01*
X250212Y758444D01*
X257788Y758444D01*
X263144Y753088D01*
X263144Y744949D01*
X263305Y744156D01*
X263739Y743512D01*
X267262Y739989D01*
X267936Y739543D01*
X268699Y739394D01*
X271469Y739394D01*
X272261Y739555D01*
X272928Y740012D01*
X273364Y740694D01*
X273500Y741491D01*
X273314Y742278D01*
X272906Y742863D01*
X270256Y745512D01*
X270256Y753088D01*
X275612Y758444D01*
X283188Y758444D01*
X288544Y753088D01*
X288544Y745512D01*
X285894Y742863D01*
X285448Y742189D01*
X285300Y741394D01*
X285473Y740604D01*
X285941Y739944D01*
X286629Y739519D01*
X287331Y739394D01*
X296869Y739394D01*
X297661Y739555D01*
X298328Y740012D01*
X298764Y740694D01*
X298900Y741491D01*
X298714Y742278D01*
X298306Y742863D01*
X295656Y745512D01*
X295656Y753088D01*
X298306Y755737D01*
X298752Y756411D01*
X298901Y757206D01*
X298727Y757996D01*
X298259Y758656D01*
X297571Y759081D01*
X296869Y759206D01*
X290943Y759206D01*
X285188Y764961D01*
X284514Y765407D01*
X283751Y765556D01*
X275612Y765556D01*
X270256Y770912D01*
X270256Y778488D01*
X275612Y783844D01*
X283188Y783844D01*
X288544Y778488D01*
X288544Y770349D01*
X288705Y769556D01*
X289139Y768912D01*
X292662Y765389D01*
X293336Y764943D01*
X294099Y764794D01*
X296869Y764794D01*
X297661Y764955D01*
X298328Y765412D01*
X298764Y766094D01*
X298900Y766891D01*
X298714Y767678D01*
X298306Y768263D01*
X295656Y770912D01*
X295656Y778488D01*
X301012Y783844D01*
X308588Y783844D01*
X313944Y778488D01*
X313944Y770912D01*
X311294Y768263D01*
X310848Y767589D01*
X310700Y766794D01*
X310873Y766004D01*
X311341Y765344D01*
X312029Y764919D01*
X312731Y764794D01*
X322269Y764794D01*
X323061Y764955D01*
X323728Y765412D01*
X324164Y766094D01*
X324300Y766891D01*
X324114Y767678D01*
X323706Y768263D01*
X321056Y770912D01*
X321056Y778488D01*
X326412Y783844D01*
X333988Y783844D01*
X339344Y778488D01*
X339344Y770912D01*
X336694Y768263D01*
X336248Y767589D01*
X336100Y766794D01*
X336273Y766004D01*
X336741Y765344D01*
X337429Y764919D01*
X338131Y764794D01*
X347669Y764794D01*
X348461Y764955D01*
X349128Y765412D01*
X349564Y766094D01*
X349700Y766891D01*
X349514Y767678D01*
X349106Y768263D01*
X346456Y770912D01*
X346456Y778488D01*
X351812Y783844D01*
X359388Y783844D01*
X364744Y778488D01*
X364744Y770912D01*
X362094Y768263D01*
X361648Y767589D01*
X361500Y766794D01*
X361673Y766004D01*
X362141Y765344D01*
X362829Y764919D01*
X363531Y764794D01*
X373069Y764794D01*
X373861Y764955D01*
X374528Y765412D01*
X374964Y766094D01*
X375100Y766891D01*
X374914Y767678D01*
X374506Y768263D01*
X371856Y770912D01*
X371856Y778488D01*
X377212Y783844D01*
X384788Y783844D01*
X390144Y778488D01*
X390144Y770912D01*
X387494Y768263D01*
X387048Y767589D01*
X386900Y766794D01*
X387073Y766004D01*
X387541Y765344D01*
X388229Y764919D01*
X388931Y764794D01*
X398469Y764794D01*
X399261Y764955D01*
X399928Y765412D01*
X400364Y766094D01*
X400500Y766891D01*
X400314Y767678D01*
X399906Y768263D01*
X397256Y770912D01*
X397256Y778488D01*
X402612Y783844D01*
X410188Y783844D01*
X415544Y778488D01*
X415544Y770912D01*
X412894Y768263D01*
X412448Y767589D01*
X412300Y766794D01*
X412473Y766004D01*
X412941Y765344D01*
X413629Y764919D01*
X414331Y764794D01*
X423869Y764794D01*
X424661Y764955D01*
X425328Y765412D01*
X425764Y766094D01*
X425900Y766891D01*
X425714Y767678D01*
X425306Y768263D01*
X422656Y770912D01*
X422656Y778488D01*
X428012Y783844D01*
X435588Y783844D01*
X440944Y778488D01*
X440944Y770912D01*
X438294Y768263D01*
X437848Y767589D01*
X437700Y766794D01*
X437873Y766004D01*
X438341Y765344D01*
X439029Y764919D01*
X439731Y764794D01*
X449269Y764794D01*
X450061Y764955D01*
X450728Y765412D01*
X451164Y766094D01*
X451300Y766891D01*
X451114Y767678D01*
X450706Y768263D01*
X448056Y770912D01*
X448056Y778488D01*
X453412Y783844D01*
X460988Y783844D01*
X466344Y778488D01*
X466344Y770912D01*
X463694Y768263D01*
X463248Y767589D01*
X463100Y766794D01*
X463273Y766004D01*
X463741Y765344D01*
X464429Y764919D01*
X464615Y764886D01*
X472802Y756699D01*
X472855Y756439D01*
X473312Y755772D01*
X473994Y755336D01*
X474791Y755200D01*
X475578Y755386D01*
X476163Y755794D01*
X478812Y758444D01*
X486388Y758444D01*
X491744Y753088D01*
X491744Y745512D01*
X486128Y739897D01*
X485682Y739223D01*
X485533Y738427D01*
X485707Y737638D01*
X486128Y737023D01*
X499226Y723925D01*
X499900Y723479D01*
X500695Y723330D01*
X501485Y723504D01*
X502145Y723972D01*
X502540Y724584D01*
X503502Y726906D01*
X504994Y728398D01*
X506945Y729206D01*
X509055Y729206D01*
X511006Y728398D01*
X512498Y726906D01*
X513306Y724955D01*
X513306Y723387D01*
X513467Y722594D01*
X513901Y721950D01*
X542544Y693307D01*
X542544Y271893D01*
X336101Y65450D01*
X335655Y64776D01*
X335506Y64013D01*
X335506Y62445D01*
X334698Y60494D01*
X333206Y59002D01*
X331428Y58265D01*
X330757Y57813D01*
X330316Y57136D01*
X330208Y56529D01*
X330040Y57240D01*
G37*
G36*
X224812Y765556D02*
X219456Y770912D01*
X219456Y778488D01*
X224812Y783844D01*
X232388Y783844D01*
X237744Y778488D01*
X237744Y770912D01*
X232388Y765556D01*
X224812Y765556D01*
G37*
G36*
X194949Y765556D02*
X194056Y766449D01*
X194056Y782951D01*
X194949Y783844D01*
X211451Y783844D01*
X212344Y782951D01*
X212344Y766449D01*
X211451Y765556D01*
X194949Y765556D01*
G37*
G36*
X478812Y765556D02*
X473456Y770912D01*
X473456Y778488D01*
X478812Y783844D01*
X486388Y783844D01*
X491744Y778488D01*
X491744Y770912D01*
X486388Y765556D01*
X478812Y765556D01*
G37*
G36*
X224812Y740156D02*
X219456Y745512D01*
X219456Y753088D01*
X224812Y758444D01*
X232388Y758444D01*
X237744Y753088D01*
X237744Y745512D01*
X232388Y740156D01*
X224812Y740156D01*
G37*
G36*
X194949Y740156D02*
X194056Y741049D01*
X194056Y757551D01*
X194949Y758444D01*
X211451Y758444D01*
X212344Y757551D01*
X212344Y741049D01*
X211451Y740156D01*
X194949Y740156D01*
G37*
G36*
X123212Y536956D02*
X117856Y542312D01*
X117856Y549888D01*
X123212Y555244D01*
X131351Y555244D01*
X132144Y555405D01*
X132788Y555839D01*
X138597Y561648D01*
X139043Y562322D01*
X139192Y563085D01*
X139192Y565855D01*
X139031Y566647D01*
X138574Y567314D01*
X137893Y567750D01*
X137095Y567886D01*
X136308Y567700D01*
X135723Y567292D01*
X130788Y562356D01*
X123212Y562356D01*
X117856Y567712D01*
X117856Y575288D01*
X123212Y580644D01*
X130788Y580644D01*
X135723Y575708D01*
X136397Y575262D01*
X137192Y575114D01*
X137982Y575287D01*
X138642Y575755D01*
X139067Y576443D01*
X139154Y576933D01*
X146929Y584708D01*
X160815Y584708D01*
X161608Y584869D01*
X162252Y585303D01*
X163943Y586994D01*
X417101Y586994D01*
X417894Y587155D01*
X418538Y587589D01*
X428411Y597462D01*
X428857Y598136D01*
X429006Y598899D01*
X429006Y711999D01*
X428845Y712791D01*
X428411Y713435D01*
X427302Y714544D01*
X426494Y716495D01*
X426494Y718605D01*
X427302Y720556D01*
X428794Y722048D01*
X430745Y722856D01*
X432855Y722856D01*
X434806Y722048D01*
X436298Y720556D01*
X437106Y718605D01*
X437106Y716495D01*
X436298Y714544D01*
X435189Y713435D01*
X434743Y712761D01*
X434594Y711999D01*
X434594Y595743D01*
X420257Y581406D01*
X414331Y581406D01*
X413539Y581245D01*
X412872Y580788D01*
X412436Y580107D01*
X412300Y579309D01*
X412486Y578522D01*
X412894Y577937D01*
X415544Y575288D01*
X415544Y567712D01*
X410188Y562356D01*
X402612Y562356D01*
X397256Y567712D01*
X397256Y575288D01*
X399906Y577937D01*
X400352Y578611D01*
X400501Y579406D01*
X400327Y580196D01*
X399859Y580856D01*
X399171Y581281D01*
X398469Y581406D01*
X388931Y581406D01*
X388139Y581245D01*
X387472Y580788D01*
X387036Y580107D01*
X386900Y579309D01*
X387086Y578522D01*
X387494Y577937D01*
X390144Y575288D01*
X390144Y567712D01*
X384788Y562356D01*
X377212Y562356D01*
X371856Y567712D01*
X371856Y575288D01*
X374506Y577937D01*
X374952Y578611D01*
X375101Y579406D01*
X374927Y580196D01*
X374459Y580856D01*
X373771Y581281D01*
X373069Y581406D01*
X363531Y581406D01*
X362739Y581245D01*
X362072Y580788D01*
X361636Y580107D01*
X361500Y579309D01*
X361686Y578522D01*
X362094Y577937D01*
X364744Y575288D01*
X364744Y567712D01*
X359388Y562356D01*
X351812Y562356D01*
X346456Y567712D01*
X346456Y575288D01*
X349106Y577937D01*
X349552Y578611D01*
X349701Y579406D01*
X349527Y580196D01*
X349059Y580856D01*
X348371Y581281D01*
X347669Y581406D01*
X338131Y581406D01*
X337339Y581245D01*
X336672Y580788D01*
X336236Y580107D01*
X336100Y579309D01*
X336286Y578522D01*
X336694Y577937D01*
X339344Y575288D01*
X339344Y567712D01*
X333988Y562356D01*
X326412Y562356D01*
X321056Y567712D01*
X321056Y575288D01*
X323706Y577937D01*
X324152Y578611D01*
X324301Y579406D01*
X324127Y580196D01*
X323659Y580856D01*
X322971Y581281D01*
X322269Y581406D01*
X312731Y581406D01*
X311939Y581245D01*
X311272Y580788D01*
X310836Y580107D01*
X310700Y579309D01*
X310886Y578522D01*
X311294Y577937D01*
X313944Y575288D01*
X313944Y567712D01*
X308588Y562356D01*
X301012Y562356D01*
X295656Y567712D01*
X295656Y575288D01*
X298306Y577937D01*
X298752Y578611D01*
X298901Y579406D01*
X298727Y580196D01*
X298259Y580856D01*
X297571Y581281D01*
X296869Y581406D01*
X287331Y581406D01*
X286539Y581245D01*
X285872Y580788D01*
X285436Y580107D01*
X285300Y579309D01*
X285486Y578522D01*
X285894Y577937D01*
X288544Y575288D01*
X288544Y567712D01*
X283188Y562356D01*
X275612Y562356D01*
X270256Y567712D01*
X270256Y575288D01*
X272906Y577937D01*
X273352Y578611D01*
X273501Y579406D01*
X273327Y580196D01*
X272859Y580856D01*
X272171Y581281D01*
X271469Y581406D01*
X261931Y581406D01*
X261139Y581245D01*
X260472Y580788D01*
X260036Y580107D01*
X259900Y579309D01*
X260086Y578522D01*
X260494Y577937D01*
X263144Y575288D01*
X263144Y567712D01*
X257788Y562356D01*
X250212Y562356D01*
X244856Y567712D01*
X244856Y575288D01*
X247506Y577937D01*
X247952Y578611D01*
X248101Y579406D01*
X247927Y580196D01*
X247459Y580856D01*
X246771Y581281D01*
X246069Y581406D01*
X236531Y581406D01*
X235739Y581245D01*
X235072Y580788D01*
X234636Y580107D01*
X234500Y579309D01*
X234686Y578522D01*
X235094Y577937D01*
X237744Y575288D01*
X237744Y567712D01*
X232388Y562356D01*
X224812Y562356D01*
X219456Y567712D01*
X219456Y575288D01*
X222106Y577937D01*
X222552Y578611D01*
X222701Y579406D01*
X222527Y580196D01*
X222059Y580856D01*
X221371Y581281D01*
X220669Y581406D01*
X211131Y581406D01*
X210339Y581245D01*
X209672Y580788D01*
X209236Y580107D01*
X209100Y579309D01*
X209286Y578522D01*
X209694Y577937D01*
X212344Y575288D01*
X212344Y567712D01*
X206988Y562356D01*
X199412Y562356D01*
X194056Y567712D01*
X194056Y575288D01*
X196706Y577937D01*
X197152Y578611D01*
X197301Y579406D01*
X197127Y580196D01*
X196659Y580856D01*
X195971Y581281D01*
X195269Y581406D01*
X187168Y581406D01*
X186376Y581245D01*
X185709Y580788D01*
X185273Y580107D01*
X185137Y579309D01*
X185323Y578522D01*
X185731Y577937D01*
X187960Y575708D01*
X187960Y572262D01*
X167640Y572262D01*
X167640Y575708D01*
X169869Y577937D01*
X170315Y578611D01*
X170464Y579406D01*
X170290Y580196D01*
X169822Y580856D01*
X169134Y581281D01*
X168432Y581406D01*
X167099Y581406D01*
X166306Y581245D01*
X165662Y580811D01*
X163971Y579120D01*
X162617Y579120D01*
X161825Y578959D01*
X161158Y578502D01*
X160722Y577821D01*
X160586Y577023D01*
X160772Y576236D01*
X161180Y575651D01*
X161544Y575288D01*
X161544Y567712D01*
X156188Y562356D01*
X148612Y562356D01*
X148249Y562720D01*
X147575Y563166D01*
X146780Y563315D01*
X145990Y563141D01*
X145330Y562673D01*
X144905Y561985D01*
X144780Y561283D01*
X144780Y559929D01*
X136739Y551888D01*
X136293Y551214D01*
X136144Y550451D01*
X136144Y542312D01*
X130788Y536956D01*
X123212Y536956D01*
G37*
G36*
X93349Y562356D02*
X92456Y563249D01*
X92456Y579751D01*
X93349Y580644D01*
X109851Y580644D01*
X110744Y579751D01*
X110744Y563249D01*
X109851Y562356D01*
X93349Y562356D01*
G37*
G36*
X428012Y562356D02*
X422656Y567712D01*
X422656Y575288D01*
X428012Y580644D01*
X435588Y580644D01*
X440944Y575288D01*
X440944Y567712D01*
X435588Y562356D01*
X428012Y562356D01*
G37*
G36*
X453412Y562356D02*
X448056Y567712D01*
X448056Y575288D01*
X453412Y580644D01*
X460988Y580644D01*
X466344Y575288D01*
X466344Y567712D01*
X460988Y562356D01*
X453412Y562356D01*
G37*
G36*
X478812Y562356D02*
X473456Y567712D01*
X473456Y575288D01*
X478812Y580644D01*
X486388Y580644D01*
X491744Y575288D01*
X491744Y567712D01*
X486388Y562356D01*
X478812Y562356D01*
G37*
G36*
X173592Y561340D02*
X167640Y567292D01*
X167640Y570738D01*
X177038Y570738D01*
X177038Y561340D01*
X173592Y561340D01*
G37*
G36*
X178562Y561340D02*
X178562Y570738D01*
X187960Y570738D01*
X187960Y567292D01*
X182008Y561340D01*
X178562Y561340D01*
G37*
G36*
X178562Y546862D02*
X178562Y556260D01*
X182008Y556260D01*
X187960Y550308D01*
X187960Y546862D01*
X178562Y546862D01*
G37*
G36*
X167640Y546862D02*
X167640Y550308D01*
X173592Y556260D01*
X177038Y556260D01*
X177038Y546862D01*
X167640Y546862D01*
G37*
G36*
X93349Y536956D02*
X92456Y537849D01*
X92456Y554351D01*
X93349Y555244D01*
X109851Y555244D01*
X110744Y554351D01*
X110744Y537849D01*
X109851Y536956D01*
X93349Y536956D01*
G37*
G36*
X500369Y445544D02*
X498418Y446352D01*
X496926Y447844D01*
X496118Y449795D01*
X496118Y451363D01*
X495957Y452156D01*
X495523Y452800D01*
X443712Y504611D01*
X443038Y505057D01*
X442275Y505206D01*
X240143Y505206D01*
X208988Y536361D01*
X208314Y536807D01*
X207551Y536956D01*
X199412Y536956D01*
X194056Y542312D01*
X194056Y549888D01*
X199412Y555244D01*
X206988Y555244D01*
X212344Y549888D01*
X212344Y541749D01*
X212505Y540956D01*
X212939Y540312D01*
X241862Y511389D01*
X242536Y510943D01*
X243299Y510794D01*
X445549Y510794D01*
X446342Y510955D01*
X447009Y511412D01*
X447444Y512094D01*
X447580Y512891D01*
X447394Y513678D01*
X446986Y514263D01*
X429006Y532243D01*
X429006Y535121D01*
X428845Y535913D01*
X428411Y536558D01*
X422656Y542312D01*
X422656Y549888D01*
X428012Y555244D01*
X435588Y555244D01*
X440944Y549888D01*
X440944Y542312D01*
X435328Y536697D01*
X434882Y536023D01*
X434733Y535227D01*
X434907Y534438D01*
X435328Y533823D01*
X450937Y518214D01*
X451611Y517768D01*
X452406Y517619D01*
X453196Y517793D01*
X453856Y518261D01*
X454281Y518949D01*
X454406Y519651D01*
X454406Y535121D01*
X454245Y535913D01*
X453811Y536558D01*
X448056Y542312D01*
X448056Y549888D01*
X453412Y555244D01*
X460988Y555244D01*
X466344Y549888D01*
X466344Y542312D01*
X460589Y536558D01*
X460143Y535883D01*
X459994Y535121D01*
X459994Y522699D01*
X460155Y521906D01*
X460589Y521262D01*
X480650Y501201D01*
X481324Y500755D01*
X482087Y500606D01*
X483655Y500606D01*
X485606Y499798D01*
X487098Y498306D01*
X487906Y496355D01*
X487906Y494245D01*
X487098Y492294D01*
X485606Y490802D01*
X483284Y489840D01*
X482614Y489388D01*
X482173Y488711D01*
X482031Y487914D01*
X482210Y487126D01*
X482625Y486526D01*
X487000Y482151D01*
X487674Y481705D01*
X488437Y481556D01*
X490005Y481556D01*
X491956Y480748D01*
X493448Y479256D01*
X494256Y477305D01*
X494256Y475195D01*
X493448Y473244D01*
X491956Y471752D01*
X489831Y470872D01*
X489394Y470783D01*
X488727Y470326D01*
X488292Y469645D01*
X488156Y468847D01*
X488342Y468060D01*
X488750Y467475D01*
X499474Y456751D01*
X500148Y456305D01*
X500911Y456156D01*
X502479Y456156D01*
X504430Y455348D01*
X505922Y453856D01*
X506730Y451905D01*
X506730Y449795D01*
X505922Y447844D01*
X504430Y446352D01*
X502479Y445544D01*
X500369Y445544D01*
G37*
G36*
X402612Y536956D02*
X397256Y542312D01*
X397256Y549888D01*
X402612Y555244D01*
X410188Y555244D01*
X415544Y549888D01*
X415544Y542312D01*
X410188Y536956D01*
X402612Y536956D01*
G37*
G36*
X377212Y536956D02*
X371856Y542312D01*
X371856Y549888D01*
X377212Y555244D01*
X384788Y555244D01*
X390144Y549888D01*
X390144Y542312D01*
X384788Y536956D01*
X377212Y536956D01*
G37*
G36*
X351812Y536956D02*
X346456Y542312D01*
X346456Y549888D01*
X351812Y555244D01*
X359388Y555244D01*
X364744Y549888D01*
X364744Y542312D01*
X359388Y536956D01*
X351812Y536956D01*
G37*
G36*
X326412Y536956D02*
X321056Y542312D01*
X321056Y549888D01*
X326412Y555244D01*
X333988Y555244D01*
X339344Y549888D01*
X339344Y542312D01*
X333988Y536956D01*
X326412Y536956D01*
G37*
G36*
X301012Y536956D02*
X295656Y542312D01*
X295656Y549888D01*
X301012Y555244D01*
X308588Y555244D01*
X313944Y549888D01*
X313944Y542312D01*
X308588Y536956D01*
X301012Y536956D01*
G37*
G36*
X275612Y536956D02*
X270256Y542312D01*
X270256Y549888D01*
X275612Y555244D01*
X283188Y555244D01*
X288544Y549888D01*
X288544Y542312D01*
X283188Y536956D01*
X275612Y536956D01*
G37*
G36*
X250212Y536956D02*
X244856Y542312D01*
X244856Y549888D01*
X250212Y555244D01*
X257788Y555244D01*
X263144Y549888D01*
X263144Y542312D01*
X257788Y536956D01*
X250212Y536956D01*
G37*
G36*
X224812Y536956D02*
X219456Y542312D01*
X219456Y549888D01*
X224812Y555244D01*
X232388Y555244D01*
X237744Y549888D01*
X237744Y542312D01*
X232388Y536956D01*
X224812Y536956D01*
G37*
G36*
X148612Y536956D02*
X143256Y542312D01*
X143256Y549888D01*
X148612Y555244D01*
X156188Y555244D01*
X161544Y549888D01*
X161544Y542312D01*
X156188Y536956D01*
X148612Y536956D01*
G37*
G36*
X178562Y535940D02*
X178562Y545338D01*
X187960Y545338D01*
X187960Y541892D01*
X182008Y535940D01*
X178562Y535940D01*
G37*
G36*
X173592Y535940D02*
X167640Y541892D01*
X167640Y545338D01*
X177038Y545338D01*
X177038Y535940D01*
X173592Y535940D01*
G37*
G36*
X48306Y488154D02*
X43732Y490049D01*
X40231Y493550D01*
X38336Y498124D01*
X38336Y503076D01*
X40231Y507650D01*
X43732Y511151D01*
X48306Y513046D01*
X53258Y513046D01*
X57832Y511151D01*
X61333Y507650D01*
X63228Y503076D01*
X63228Y498124D01*
X61333Y493550D01*
X57832Y490049D01*
X53258Y488154D01*
X48306Y488154D01*
G37*
G36*
X48306Y453154D02*
X43732Y455049D01*
X40231Y458550D01*
X38336Y463124D01*
X38336Y468076D01*
X40231Y472650D01*
X43732Y476151D01*
X48306Y478046D01*
X53258Y478046D01*
X57832Y476151D01*
X61333Y472650D01*
X63228Y468076D01*
X63228Y463124D01*
X61333Y458550D01*
X57832Y455049D01*
X53258Y453154D01*
X48306Y453154D01*
G37*
G36*
X494245Y401094D02*
X492294Y401902D01*
X490802Y403394D01*
X489994Y405345D01*
X489994Y406913D01*
X489833Y407706D01*
X489399Y408350D01*
X473456Y424293D01*
X473456Y429801D01*
X473295Y430594D01*
X472861Y431238D01*
X456638Y447461D01*
X455964Y447907D01*
X455201Y448056D01*
X447062Y448056D01*
X441706Y453412D01*
X441706Y460988D01*
X447062Y466344D01*
X454638Y466344D01*
X459994Y460988D01*
X459994Y452849D01*
X460155Y452056D01*
X460589Y451412D01*
X479044Y432957D01*
X479044Y427449D01*
X479205Y426656D01*
X479639Y426012D01*
X493350Y412301D01*
X494024Y411855D01*
X494787Y411706D01*
X496355Y411706D01*
X498306Y410898D01*
X499798Y409406D01*
X500606Y407455D01*
X500606Y405345D01*
X499798Y403394D01*
X498306Y401902D01*
X496355Y401094D01*
X494245Y401094D01*
G37*
G36*
X336459Y383636D02*
X326471Y386312D01*
X317515Y391483D01*
X310203Y398795D01*
X305032Y407751D01*
X302356Y417739D01*
X302356Y428081D01*
X305032Y438069D01*
X310203Y447025D01*
X317515Y454337D01*
X326471Y459508D01*
X336459Y462184D01*
X346801Y462184D01*
X356789Y459508D01*
X365745Y454337D01*
X373057Y447025D01*
X378228Y438069D01*
X380904Y428081D01*
X380904Y417739D01*
X378228Y407751D01*
X373057Y398795D01*
X365745Y391483D01*
X356789Y386312D01*
X346801Y383636D01*
X336459Y383636D01*
G37*
G36*
X135799Y383636D02*
X125811Y386312D01*
X116855Y391483D01*
X109543Y398795D01*
X104372Y407751D01*
X101696Y417739D01*
X101696Y428081D01*
X104372Y438069D01*
X109543Y447025D01*
X116855Y454337D01*
X125811Y459508D01*
X135799Y462184D01*
X146141Y462184D01*
X156129Y459508D01*
X165085Y454337D01*
X172397Y447025D01*
X177568Y438069D01*
X180244Y428081D01*
X180244Y417739D01*
X177568Y407751D01*
X172397Y398795D01*
X165085Y391483D01*
X156129Y386312D01*
X146141Y383636D01*
X135799Y383636D01*
G37*
G36*
X451612Y432562D02*
X451612Y441960D01*
X455058Y441960D01*
X461010Y436008D01*
X461010Y432562D01*
X451612Y432562D01*
G37*
G36*
X440690Y432562D02*
X440690Y436008D01*
X446642Y441960D01*
X450088Y441960D01*
X450088Y432562D01*
X440690Y432562D01*
G37*
G36*
X446642Y421640D02*
X440690Y427592D01*
X440690Y431038D01*
X450088Y431038D01*
X450088Y421640D01*
X446642Y421640D01*
G37*
G36*
X451612Y421640D02*
X451612Y431038D01*
X461010Y431038D01*
X461010Y427592D01*
X455058Y421640D01*
X451612Y421640D01*
G37*
G36*
X447062Y397256D02*
X441706Y402612D01*
X441706Y410188D01*
X447062Y415544D01*
X454638Y415544D01*
X459994Y410188D01*
X459994Y402612D01*
X454638Y397256D01*
X447062Y397256D01*
G37*
G36*
X494245Y350294D02*
X492294Y351102D01*
X490802Y352594D01*
X489994Y354545D01*
X489994Y355035D01*
X489833Y355828D01*
X489399Y356472D01*
X469022Y376849D01*
X468348Y377295D01*
X467585Y377444D01*
X461067Y377444D01*
X460275Y377283D01*
X459630Y376849D01*
X454638Y371856D01*
X447062Y371856D01*
X441706Y377212D01*
X441706Y384788D01*
X447062Y390144D01*
X454638Y390144D01*
X459630Y385151D01*
X460305Y384705D01*
X461067Y384556D01*
X471373Y384556D01*
X494428Y361501D01*
X495102Y361055D01*
X495865Y360906D01*
X496355Y360906D01*
X498306Y360098D01*
X499798Y358606D01*
X500606Y356655D01*
X500606Y354545D01*
X499798Y352594D01*
X498306Y351102D01*
X496355Y350294D01*
X494245Y350294D01*
G37*
G36*
X451612Y356362D02*
X451612Y365760D01*
X459522Y365760D01*
X461010Y364272D01*
X461010Y356362D01*
X451612Y356362D01*
G37*
G36*
X440690Y356362D02*
X440690Y364272D01*
X442178Y365760D01*
X450088Y365760D01*
X450088Y356362D01*
X440690Y356362D01*
G37*
G36*
X451612Y345440D02*
X451612Y354838D01*
X461010Y354838D01*
X461010Y346928D01*
X459522Y345440D01*
X451612Y345440D01*
G37*
G36*
X442178Y345440D02*
X440690Y346928D01*
X440690Y354838D01*
X450088Y354838D01*
X450088Y345440D01*
X442178Y345440D01*
G37*
G36*
X329145Y337594D02*
X327194Y338402D01*
X325702Y339894D01*
X324894Y341845D01*
X324894Y343955D01*
X325702Y345906D01*
X327194Y347398D01*
X329145Y348206D01*
X331255Y348206D01*
X333206Y347398D01*
X334315Y346289D01*
X334989Y345843D01*
X335752Y345694D01*
X375449Y345694D01*
X376241Y345855D01*
X376885Y346289D01*
X377994Y347398D01*
X379945Y348206D01*
X382055Y348206D01*
X384006Y347398D01*
X385498Y345906D01*
X386306Y343955D01*
X386306Y341845D01*
X385498Y339894D01*
X384006Y338402D01*
X382055Y337594D01*
X379945Y337594D01*
X377994Y338402D01*
X376885Y339511D01*
X376211Y339957D01*
X375449Y340106D01*
X335752Y340106D01*
X334959Y339945D01*
X334315Y339511D01*
X333206Y338402D01*
X331255Y337594D01*
X329145Y337594D01*
G37*
G36*
X566329Y190596D02*
X556341Y193272D01*
X547385Y198443D01*
X540073Y205755D01*
X534902Y214711D01*
X532226Y224699D01*
X532226Y235041D01*
X534902Y245029D01*
X540073Y253985D01*
X547385Y261297D01*
X556341Y266468D01*
X566329Y269144D01*
X576671Y269144D01*
X586659Y266468D01*
X595615Y261297D01*
X602927Y253985D01*
X608098Y245029D01*
X610774Y235041D01*
X610774Y224699D01*
X608098Y214711D01*
X602927Y205755D01*
X595615Y198443D01*
X586659Y193272D01*
X576671Y190596D01*
X566329Y190596D01*
G37*
G36*
X388529Y190596D02*
X378541Y193272D01*
X369585Y198443D01*
X362273Y205755D01*
X357102Y214711D01*
X354426Y224699D01*
X354426Y235041D01*
X357102Y245029D01*
X362273Y253985D01*
X369585Y261297D01*
X378541Y266468D01*
X388529Y269144D01*
X398871Y269144D01*
X408859Y266468D01*
X417815Y261297D01*
X425127Y253985D01*
X430298Y245029D01*
X432974Y235041D01*
X432974Y224699D01*
X430298Y214711D01*
X425127Y205755D01*
X417815Y198443D01*
X408859Y193272D01*
X398871Y190596D01*
X388529Y190596D01*
G37*
G36*
X66040Y216662D02*
X66040Y225541D01*
X67587Y229275D01*
X70445Y232133D01*
X74179Y233680D01*
X75438Y233680D01*
X75438Y216662D01*
X66040Y216662D01*
G37*
G36*
X76962Y216662D02*
X76962Y233680D01*
X78221Y233680D01*
X81955Y232133D01*
X84813Y229275D01*
X86360Y225541D01*
X86360Y216662D01*
X76962Y216662D01*
G37*
G36*
X48981Y199136D02*
X45620Y200528D01*
X43048Y203100D01*
X41656Y206461D01*
X41656Y225339D01*
X43048Y228700D01*
X45620Y231272D01*
X48981Y232664D01*
X52619Y232664D01*
X55980Y231272D01*
X58552Y228700D01*
X59944Y225339D01*
X59944Y206461D01*
X58552Y203100D01*
X55980Y200528D01*
X52619Y199136D01*
X48981Y199136D01*
G37*
G36*
X76962Y198120D02*
X76962Y215138D01*
X86360Y215138D01*
X86360Y206259D01*
X84813Y202525D01*
X81955Y199667D01*
X78221Y198120D01*
X76962Y198120D01*
G37*
G36*
X74179Y198120D02*
X70445Y199667D01*
X67587Y202525D01*
X66040Y206259D01*
X66040Y215138D01*
X75438Y215138D01*
X75438Y198120D01*
X74179Y198120D01*
G37*
G36*
X316445Y83594D02*
X314494Y84402D01*
X313002Y85894D01*
X312194Y87845D01*
X312194Y89955D01*
X313002Y91906D01*
X314494Y93398D01*
X316445Y94206D01*
X318013Y94206D01*
X318806Y94367D01*
X319450Y94801D01*
X336999Y112350D01*
X337445Y113024D01*
X337594Y113787D01*
X337594Y115355D01*
X338402Y117306D01*
X339894Y118798D01*
X341845Y119606D01*
X343955Y119606D01*
X345906Y118798D01*
X347398Y117306D01*
X348206Y115355D01*
X348206Y113245D01*
X347398Y111294D01*
X345906Y109802D01*
X343955Y108994D01*
X342387Y108994D01*
X341594Y108833D01*
X340950Y108399D01*
X323401Y90850D01*
X322955Y90176D01*
X322806Y89413D01*
X322806Y87845D01*
X321998Y85894D01*
X320506Y84402D01*
X318555Y83594D01*
X316445Y83594D01*
G37*
G36*
X278345Y70894D02*
X276394Y71702D01*
X274902Y73194D01*
X274094Y75145D01*
X274094Y77255D01*
X274902Y79206D01*
X276394Y80698D01*
X278345Y81506D01*
X279913Y81506D01*
X280706Y81667D01*
X281350Y82101D01*
X311599Y112350D01*
X312045Y113024D01*
X312194Y113787D01*
X312194Y115355D01*
X313002Y117306D01*
X314494Y118798D01*
X316445Y119606D01*
X318555Y119606D01*
X320506Y118798D01*
X321998Y117306D01*
X322806Y115355D01*
X322806Y113245D01*
X321998Y111294D01*
X320506Y109802D01*
X318555Y108994D01*
X316987Y108994D01*
X316194Y108833D01*
X315550Y108399D01*
X285301Y78150D01*
X284855Y77476D01*
X284706Y76713D01*
X284706Y75145D01*
X283898Y73194D01*
X282406Y71702D01*
X280455Y70894D01*
X278345Y70894D01*
G37*
G36*
X58329Y24226D02*
X48341Y26902D01*
X39385Y32073D01*
X32073Y39385D01*
X26902Y48341D01*
X24226Y58329D01*
X24226Y68671D01*
X26902Y78659D01*
X32073Y87615D01*
X39385Y94927D01*
X48341Y100098D01*
X58329Y102774D01*
X68671Y102774D01*
X78659Y100098D01*
X87615Y94927D01*
X94927Y87615D01*
X100098Y78659D01*
X102774Y68671D01*
X102774Y58329D01*
X100098Y48341D01*
X94927Y39385D01*
X87615Y32073D01*
X78659Y26902D01*
X68671Y24226D01*
X58329Y24226D01*
G37*
G36*
X244856Y26162D02*
X244856Y33823D01*
X246248Y37184D01*
X248820Y39756D01*
X252181Y41148D01*
X253238Y41148D01*
X253238Y26162D01*
X244856Y26162D01*
G37*
G36*
X254762Y26162D02*
X254762Y41148D01*
X255819Y41148D01*
X259180Y39756D01*
X261752Y37184D01*
X263144Y33823D01*
X263144Y26162D01*
X254762Y26162D01*
G37*
%LPD*%
G36*
X296279Y12861D02*
X296946Y13318D01*
X297382Y14000D01*
X297517Y14797D01*
X297364Y15510D01*
X296672Y17179D01*
X296672Y33621D01*
X297909Y36608D01*
X300196Y38895D01*
X303183Y40132D01*
X306417Y40132D01*
X309404Y38895D01*
X311691Y36608D01*
X312928Y33621D01*
X312928Y17179D01*
X312236Y15510D01*
X312082Y14716D01*
X312249Y13925D01*
X312712Y13261D01*
X313396Y12831D01*
X314114Y12700D01*
X320886Y12700D01*
X321679Y12861D01*
X322346Y13318D01*
X322782Y14000D01*
X322917Y14797D01*
X322764Y15510D01*
X322072Y17179D01*
X322072Y33621D01*
X323309Y36608D01*
X325596Y38895D01*
X328583Y40132D01*
X331817Y40132D01*
X334804Y38895D01*
X337091Y36608D01*
X338328Y33621D01*
X338328Y17179D01*
X337636Y15510D01*
X337482Y14716D01*
X337649Y13925D01*
X338112Y13261D01*
X338796Y12831D01*
X339514Y12700D01*
X371399Y12700D01*
X372192Y12861D01*
X372859Y13318D01*
X373294Y14000D01*
X373430Y14797D01*
X373244Y15584D01*
X372836Y16169D01*
X371856Y17149D01*
X371856Y33651D01*
X372749Y34544D01*
X389251Y34544D01*
X390144Y33651D01*
X390144Y17149D01*
X389164Y16169D01*
X388717Y15495D01*
X388569Y14700D01*
X388743Y13910D01*
X389211Y13250D01*
X389899Y12825D01*
X390601Y12700D01*
X401263Y12700D01*
X402055Y12861D01*
X402722Y13318D01*
X403158Y14000D01*
X403294Y14797D01*
X403108Y15584D01*
X402700Y16169D01*
X397256Y21612D01*
X397256Y29188D01*
X402612Y34544D01*
X410188Y34544D01*
X415544Y29188D01*
X415544Y21612D01*
X410100Y16169D01*
X409654Y15495D01*
X409506Y14700D01*
X409679Y13910D01*
X410147Y13250D01*
X410835Y12825D01*
X411537Y12700D01*
X426663Y12700D01*
X427455Y12861D01*
X428122Y13318D01*
X428558Y14000D01*
X428694Y14797D01*
X428508Y15584D01*
X428100Y16169D01*
X422656Y21612D01*
X422656Y29188D01*
X428012Y34544D01*
X435588Y34544D01*
X440944Y29188D01*
X440944Y21612D01*
X435500Y16169D01*
X435054Y15495D01*
X434906Y14700D01*
X435079Y13910D01*
X435547Y13250D01*
X436235Y12825D01*
X436937Y12700D01*
X452063Y12700D01*
X452855Y12861D01*
X453522Y13318D01*
X453958Y14000D01*
X454094Y14797D01*
X453908Y15584D01*
X453500Y16169D01*
X448056Y21612D01*
X448056Y29188D01*
X453412Y34544D01*
X460988Y34544D01*
X466344Y29188D01*
X466344Y21612D01*
X460900Y16169D01*
X460454Y15495D01*
X460306Y14700D01*
X460479Y13910D01*
X460947Y13250D01*
X461635Y12825D01*
X462337Y12700D01*
X477463Y12700D01*
X478255Y12861D01*
X478922Y13318D01*
X479358Y14000D01*
X479494Y14797D01*
X479308Y15584D01*
X478900Y16169D01*
X473456Y21612D01*
X473456Y29188D01*
X478812Y34544D01*
X486388Y34544D01*
X491744Y29188D01*
X491744Y21612D01*
X486300Y16169D01*
X485854Y15495D01*
X485706Y14700D01*
X485879Y13910D01*
X486347Y13250D01*
X487035Y12825D01*
X487737Y12700D01*
X502863Y12700D01*
X503655Y12861D01*
X504322Y13318D01*
X504758Y14000D01*
X504894Y14797D01*
X504708Y15584D01*
X504300Y16169D01*
X498856Y21612D01*
X498856Y29188D01*
X504212Y34544D01*
X511788Y34544D01*
X517144Y29188D01*
X517144Y21612D01*
X511700Y16169D01*
X511254Y15495D01*
X511106Y14700D01*
X511279Y13910D01*
X511747Y13250D01*
X512435Y12825D01*
X513137Y12700D01*
X528263Y12700D01*
X529055Y12861D01*
X529722Y13318D01*
X530158Y14000D01*
X530294Y14797D01*
X530108Y15584D01*
X529700Y16169D01*
X524256Y21612D01*
X524256Y29188D01*
X529612Y34544D01*
X537188Y34544D01*
X542544Y29188D01*
X542544Y21612D01*
X537100Y16169D01*
X536654Y15495D01*
X536506Y14700D01*
X536679Y13910D01*
X537147Y13250D01*
X537835Y12825D01*
X538537Y12700D01*
X552226Y12700D01*
X553019Y12861D01*
X553686Y13318D01*
X554121Y14000D01*
X554257Y14797D01*
X554071Y15584D01*
X553663Y16169D01*
X548640Y21192D01*
X548640Y24638D01*
X568960Y24638D01*
X568960Y21192D01*
X563937Y16169D01*
X563491Y15495D01*
X563342Y14700D01*
X563516Y13910D01*
X563984Y13250D01*
X564672Y12825D01*
X565374Y12700D01*
X579063Y12700D01*
X579855Y12861D01*
X580522Y13318D01*
X580958Y14000D01*
X581094Y14797D01*
X580908Y15584D01*
X580500Y16169D01*
X575056Y21612D01*
X575056Y28673D01*
X574895Y29466D01*
X574461Y30110D01*
X557922Y46649D01*
X557248Y47095D01*
X556485Y47244D01*
X294415Y47244D01*
X293622Y47083D01*
X292978Y46649D01*
X286051Y39722D01*
X285604Y39048D01*
X285456Y38253D01*
X285629Y37463D01*
X286051Y36848D01*
X286291Y36608D01*
X287528Y33621D01*
X287528Y17179D01*
X286836Y15510D01*
X286682Y14716D01*
X286849Y13925D01*
X287312Y13261D01*
X287996Y12831D01*
X288714Y12700D01*
X295486Y12700D01*
X296279Y12861D01*
G37*
%LPC*%
G36*
X559562Y26162D02*
X559562Y35560D01*
X563008Y35560D01*
X568960Y29608D01*
X568960Y26162D01*
X559562Y26162D01*
G37*
G36*
X548640Y26162D02*
X548640Y29608D01*
X554592Y35560D01*
X558038Y35560D01*
X558038Y26162D01*
X548640Y26162D01*
G37*
%LPD*%
D10*
X101600Y546100D03*
D11*
X127000Y546100D03*
X152400Y546100D03*
X177800Y546100D03*
X203200Y546100D03*
X228600Y546100D03*
X254000Y546100D03*
X279400Y546100D03*
X304800Y546100D03*
X330200Y546100D03*
X355600Y546100D03*
X381000Y546100D03*
X406400Y546100D03*
X431800Y546100D03*
X457200Y546100D03*
X482600Y546100D03*
D10*
X203200Y749300D03*
D11*
X228600Y749300D03*
X254000Y749300D03*
X279400Y749300D03*
X304800Y749300D03*
X330200Y749300D03*
X355600Y749300D03*
X381000Y749300D03*
X406400Y749300D03*
X431800Y749300D03*
X457200Y749300D03*
X482600Y749300D03*
D10*
X101600Y571500D03*
D11*
X127000Y571500D03*
X152400Y571500D03*
X177800Y571500D03*
X203200Y571500D03*
X228600Y571500D03*
X254000Y571500D03*
X279400Y571500D03*
X304800Y571500D03*
X330200Y571500D03*
X355600Y571500D03*
X381000Y571500D03*
X406400Y571500D03*
X431800Y571500D03*
X457200Y571500D03*
X482600Y571500D03*
D10*
X203200Y774700D03*
D11*
X228600Y774700D03*
X254000Y774700D03*
X279400Y774700D03*
X304800Y774700D03*
X330200Y774700D03*
X355600Y774700D03*
X381000Y774700D03*
X406400Y774700D03*
X431800Y774700D03*
X457200Y774700D03*
X482600Y774700D03*
D12*
X50782Y500600D03*
X50782Y465600D03*
D10*
X450850Y355600D03*
D13*
X450850Y381000D03*
X450850Y406400D03*
X450850Y431800D03*
X450850Y457200D03*
D14*
X152400Y32004D02*
X152400Y18796D01*
X177800Y18796D02*
X177800Y32004D01*
X203200Y32004D02*
X203200Y18796D01*
X228600Y18796D02*
X228600Y32004D01*
X254000Y32004D02*
X254000Y18796D01*
X279400Y18796D02*
X279400Y32004D01*
X304800Y32004D02*
X304800Y18796D01*
X330200Y18796D02*
X330200Y32004D01*
D10*
X381000Y25400D03*
D11*
X406400Y25400D03*
X431800Y25400D03*
X457200Y25400D03*
X482600Y25400D03*
X508000Y25400D03*
X533400Y25400D03*
X558800Y25400D03*
X584200Y25400D03*
D15*
X140970Y422910D03*
X341630Y422910D03*
X571500Y229870D03*
X393700Y229870D03*
D16*
X50800Y223520D02*
X50800Y208280D01*
X76200Y208280D02*
X76200Y223520D01*
D17*
X636270Y353060D03*
X636270Y459740D03*
D15*
X635000Y63500D03*
X63500Y63500D03*
X63500Y749300D03*
X635000Y749300D03*
D18*
X139700Y673100D03*
X260350Y654050D03*
X215900Y635000D03*
X292100Y609600D03*
X393700Y641350D03*
X317500Y698500D03*
X533400Y736600D03*
X558800Y571500D03*
X558800Y444500D03*
X431800Y330200D03*
X266700Y469900D03*
X101600Y317500D03*
X88900Y482600D03*
X101600Y520700D03*
X63500Y533400D03*
X38100Y546100D03*
X88900Y609600D03*
X152400Y762000D03*
X508000Y762000D03*
X457200Y647700D03*
X431800Y63500D03*
X546100Y63500D03*
X279400Y50800D03*
X152400Y63500D03*
X177800Y203200D03*
X241300Y330200D03*
X203200Y527050D03*
X165100Y476250D03*
X546234Y38234D03*
X177800Y596900D03*
X393700Y679450D03*
D19*
X266700Y736600D02*
X254000Y749300D01*
X266700Y736600D02*
X330200Y736600D01*
D18*
X330200Y736374D03*
D19*
X387350Y679450D02*
X393700Y679450D01*
X387350Y679450D02*
X330200Y736600D01*
X330200Y736374D01*
D18*
X431800Y717550D03*
D19*
X431800Y596900D01*
X419100Y584200D01*
X165100Y584200D01*
X148086Y581914D02*
X141986Y575814D01*
X162814Y581914D02*
X165100Y584200D01*
X141986Y561086D02*
X127000Y546100D01*
X148086Y581914D02*
X162814Y581914D01*
X141986Y575814D02*
X141986Y561086D01*
X203200Y546100D02*
X241300Y508000D01*
D18*
X501424Y450850D03*
D19*
X444274Y508000D02*
X241300Y508000D01*
X444274Y508000D02*
X501424Y450850D01*
D18*
X279400Y76200D03*
D19*
X317500Y114300D01*
D18*
X317500Y114300D03*
X342900Y114300D03*
D19*
X317500Y88900D01*
D18*
X317500Y88900D03*
X488950Y476250D03*
D19*
X431800Y533400D01*
X431800Y546100D01*
D18*
X482600Y495300D03*
D19*
X457200Y520700D01*
X457200Y546100D01*
D18*
X482600Y304800D03*
D19*
X520700Y342900D01*
X520700Y508000D01*
X482600Y546100D01*
D18*
X457200Y266700D03*
D19*
X527050Y336550D01*
X527050Y679450D01*
X469900Y736600D01*
X469900Y755650D01*
X463550Y762000D01*
X292100Y762000D01*
X279400Y774700D01*
D18*
X330200Y342900D03*
D19*
X381000Y342900D01*
D18*
X381000Y342900D03*
X508000Y685800D03*
D19*
X457200Y736600D01*
X393700Y736600D01*
X381000Y749300D01*
D18*
X330200Y63500D03*
D19*
X539750Y273050D01*
X539750Y692150D01*
X508000Y723900D01*
D18*
X508000Y723900D03*
X304800Y63500D03*
D19*
X317500Y63500D02*
X533400Y279400D01*
X317500Y63500D02*
X304800Y63500D01*
X533400Y279400D02*
X533400Y685800D01*
X482600Y736600D01*
X482600Y749300D01*
D20*
X279400Y38100D02*
X279400Y25400D01*
X279400Y38100D02*
X292100Y50800D01*
X558800Y50800D01*
X584200Y25400D01*
X558800Y50800D02*
X558800Y139700D01*
X622300Y203200D01*
X622300Y304800D01*
X584200Y342900D01*
X584200Y355600D01*
X584200Y793750D01*
X273050Y793750D01*
X254000Y774700D01*
X450850Y381000D02*
X469900Y381000D01*
X495300Y355600D01*
D18*
X495300Y355600D03*
X571500Y355600D03*
D20*
X584200Y355600D01*
D18*
X495300Y406400D03*
D19*
X476250Y425450D01*
X476250Y431800D01*
X450850Y457200D01*
M02*
