G04 EAGLE Gerber RS-274X export*
G75*
%MOMM*%
%FSLAX34Y34*%
%LPD*%
%INTop Copper*%
%IPPOS*%
%AMOC8*
5,1,8,0,0,1.08239X$1,22.5*%
G01*
G04 Define Apertures*
%ADD10R,1.164600X1.465300*%
%ADD11R,1.524000X1.524000*%
%ADD12P,1.64956X8X22.5*%
%ADD13C,2.184400*%
%ADD14R,2.200000X0.600000*%
%ADD15R,1.164600X1.815300*%
%ADD16P,1.64956X8X112.5*%
%ADD17R,1.465300X1.164600*%
%ADD18R,1.815300X1.164600*%
%ADD19C,1.320800*%
%ADD20R,2.400000X1.600000*%
%ADD21R,2.400000X0.600000*%
%ADD22R,0.500000X0.300000*%
%ADD23C,7.550000*%
%ADD24R,0.500000X1.100000*%
%ADD25C,1.524000*%
%ADD26C,6.000000*%
%ADD27C,0.756400*%
%ADD28C,0.254000*%
%ADD29C,0.406400*%
G36*
X143072Y12801D02*
X143489Y13086D01*
X143762Y13512D01*
X143846Y14010D01*
X143750Y14456D01*
X142748Y16876D01*
X142748Y33924D01*
X144217Y37471D01*
X146933Y40187D01*
X150480Y41656D01*
X154320Y41656D01*
X157867Y40187D01*
X158576Y39478D01*
X158997Y39199D01*
X159494Y39107D01*
X159988Y39215D01*
X160372Y39478D01*
X300110Y179217D01*
X300389Y179638D01*
X300482Y180115D01*
X300482Y319289D01*
X322998Y341805D01*
X323277Y342226D01*
X323370Y342703D01*
X323370Y344259D01*
X324410Y346769D01*
X326331Y348690D01*
X328841Y349730D01*
X331559Y349730D01*
X334069Y348690D01*
X335990Y346769D01*
X336631Y345221D01*
X336914Y344802D01*
X337337Y344526D01*
X337835Y344438D01*
X338328Y344550D01*
X338703Y344809D01*
X377484Y383591D01*
X377763Y384012D01*
X377856Y384489D01*
X377856Y399320D01*
X377755Y399815D01*
X377470Y400232D01*
X377044Y400504D01*
X376546Y400589D01*
X376054Y400473D01*
X375646Y400174D01*
X375486Y399955D01*
X374277Y397860D01*
X366681Y390263D01*
X357377Y384892D01*
X347001Y382112D01*
X336259Y382112D01*
X325883Y384892D01*
X316580Y390263D01*
X308983Y397860D01*
X303612Y407163D01*
X300832Y417539D01*
X300832Y428281D01*
X303612Y438657D01*
X308983Y447961D01*
X316580Y455557D01*
X325883Y460928D01*
X336259Y463708D01*
X347001Y463708D01*
X357377Y460928D01*
X366681Y455557D01*
X374277Y447961D01*
X375486Y445865D01*
X375821Y445487D01*
X376277Y445269D01*
X376782Y445246D01*
X377256Y445421D01*
X377624Y445768D01*
X377827Y446231D01*
X377856Y446500D01*
X377856Y517211D01*
X377755Y517707D01*
X377484Y518109D01*
X360533Y535060D01*
X360112Y535339D01*
X359635Y535432D01*
X351181Y535432D01*
X344932Y541681D01*
X344932Y550519D01*
X350910Y556497D01*
X351189Y556918D01*
X351282Y557395D01*
X351282Y560205D01*
X351181Y560700D01*
X350910Y561103D01*
X344932Y567081D01*
X344932Y575919D01*
X346727Y577714D01*
X347006Y578135D01*
X347099Y578632D01*
X346991Y579126D01*
X346698Y579538D01*
X346268Y579804D01*
X345829Y579882D01*
X339971Y579882D01*
X339476Y579781D01*
X339059Y579496D01*
X338786Y579070D01*
X338702Y578572D01*
X338818Y578080D01*
X339073Y577714D01*
X340868Y575919D01*
X340868Y567081D01*
X334890Y561103D01*
X334611Y560682D01*
X334518Y560205D01*
X334518Y557395D01*
X334619Y556900D01*
X334890Y556497D01*
X340868Y550519D01*
X340868Y541681D01*
X334619Y535432D01*
X325781Y535432D01*
X319532Y541681D01*
X319532Y550519D01*
X325510Y556497D01*
X325789Y556918D01*
X325882Y557395D01*
X325882Y560205D01*
X325781Y560700D01*
X325510Y561103D01*
X319532Y567081D01*
X319532Y575919D01*
X321327Y577714D01*
X321606Y578135D01*
X321699Y578632D01*
X321591Y579126D01*
X321298Y579538D01*
X320868Y579804D01*
X320429Y579882D01*
X314571Y579882D01*
X314076Y579781D01*
X313659Y579496D01*
X313386Y579070D01*
X313302Y578572D01*
X313418Y578080D01*
X313673Y577714D01*
X315468Y575919D01*
X315468Y567081D01*
X309490Y561103D01*
X309211Y560682D01*
X309118Y560205D01*
X309118Y557395D01*
X309219Y556900D01*
X309490Y556497D01*
X315468Y550519D01*
X315468Y541681D01*
X309219Y535432D01*
X300381Y535432D01*
X294132Y541681D01*
X294132Y550519D01*
X300110Y556497D01*
X300389Y556918D01*
X300482Y557395D01*
X300482Y560205D01*
X300381Y560700D01*
X300110Y561103D01*
X294132Y567081D01*
X294132Y575919D01*
X295927Y577714D01*
X296206Y578135D01*
X296299Y578632D01*
X296191Y579126D01*
X295898Y579538D01*
X295468Y579804D01*
X295029Y579882D01*
X294415Y579882D01*
X293919Y579781D01*
X293517Y579510D01*
X290440Y576433D01*
X290161Y576012D01*
X290068Y575535D01*
X290068Y567081D01*
X284090Y561103D01*
X283811Y560682D01*
X283718Y560205D01*
X283718Y557395D01*
X283819Y556900D01*
X284090Y556497D01*
X290068Y550519D01*
X290068Y541681D01*
X283819Y535432D01*
X274981Y535432D01*
X268732Y541681D01*
X268732Y550519D01*
X274710Y556497D01*
X274989Y556918D01*
X275082Y557395D01*
X275082Y560205D01*
X274981Y560700D01*
X274710Y561103D01*
X268732Y567081D01*
X268732Y575919D01*
X274981Y582168D01*
X283435Y582168D01*
X283931Y582269D01*
X284333Y582540D01*
X285857Y584064D01*
X286137Y584485D01*
X286229Y584982D01*
X286121Y585476D01*
X285828Y585888D01*
X285398Y586154D01*
X284959Y586232D01*
X275365Y586232D01*
X274869Y586131D01*
X274467Y585860D01*
X265040Y576433D01*
X264761Y576012D01*
X264668Y575535D01*
X264668Y567081D01*
X258690Y561103D01*
X258411Y560682D01*
X258318Y560205D01*
X258318Y557395D01*
X258419Y556900D01*
X258690Y556497D01*
X264668Y550519D01*
X264668Y541681D01*
X258419Y535432D01*
X249581Y535432D01*
X243332Y541681D01*
X243332Y550519D01*
X249310Y556497D01*
X249589Y556918D01*
X249682Y557395D01*
X249682Y560205D01*
X249581Y560700D01*
X249310Y561103D01*
X243332Y567081D01*
X243332Y575919D01*
X249581Y582168D01*
X258035Y582168D01*
X258531Y582269D01*
X258933Y582540D01*
X271261Y594868D01*
X416785Y594868D01*
X417281Y594969D01*
X417683Y595240D01*
X439203Y616760D01*
X439482Y617181D01*
X439575Y617658D01*
X439575Y623767D01*
X439474Y624263D01*
X439203Y624665D01*
X428761Y635107D01*
X428340Y635387D01*
X427843Y635479D01*
X427349Y635371D01*
X426937Y635078D01*
X426671Y634648D01*
X426620Y634359D01*
X417697Y625436D01*
X417418Y625015D01*
X417325Y624538D01*
X417325Y611961D01*
X415540Y610176D01*
X401369Y610176D01*
X399583Y611961D01*
X399583Y632639D01*
X401369Y634425D01*
X413946Y634425D01*
X414441Y634525D01*
X414844Y634796D01*
X417585Y637538D01*
X417864Y637959D01*
X417957Y638436D01*
X417957Y648345D01*
X417856Y648841D01*
X417571Y649258D01*
X417145Y649530D01*
X416647Y649615D01*
X416155Y649498D01*
X415789Y649243D01*
X415329Y648784D01*
X409724Y648784D01*
X409724Y672017D01*
X415329Y672017D01*
X415789Y671557D01*
X416210Y671278D01*
X416707Y671185D01*
X417201Y671293D01*
X417613Y671586D01*
X417879Y672016D01*
X417957Y672455D01*
X417957Y673862D01*
X417856Y674357D01*
X417571Y674774D01*
X417145Y675047D01*
X416687Y675132D01*
X399567Y675132D01*
X399072Y675031D01*
X398669Y674760D01*
X397569Y673660D01*
X395059Y672620D01*
X392341Y672620D01*
X389831Y673660D01*
X387910Y675581D01*
X386870Y678091D01*
X386870Y680809D01*
X387910Y683319D01*
X389831Y685240D01*
X392341Y686280D01*
X395059Y686280D01*
X397569Y685240D01*
X398669Y684140D01*
X399091Y683861D01*
X399567Y683768D01*
X414013Y683768D01*
X414509Y683869D01*
X414926Y684154D01*
X415198Y684580D01*
X415283Y685078D01*
X415166Y685570D01*
X414911Y685936D01*
X414844Y686004D01*
X414423Y686283D01*
X413946Y686376D01*
X401369Y686376D01*
X399583Y688161D01*
X399583Y708839D01*
X401369Y710625D01*
X415402Y710625D01*
X415897Y710725D01*
X416314Y711011D01*
X416586Y711437D01*
X416671Y711935D01*
X416555Y712427D01*
X416300Y712793D01*
X416232Y712860D01*
X415811Y713139D01*
X415334Y713232D01*
X376965Y713232D01*
X376469Y713131D01*
X376067Y712860D01*
X375999Y712793D01*
X375720Y712371D01*
X375627Y711874D01*
X375736Y711381D01*
X376028Y710968D01*
X376458Y710703D01*
X376897Y710625D01*
X386032Y710625D01*
X387817Y708839D01*
X387817Y688161D01*
X386032Y686376D01*
X373454Y686376D01*
X372959Y686275D01*
X372556Y686004D01*
X357920Y671367D01*
X357641Y670946D01*
X357548Y670469D01*
X357548Y668838D01*
X356359Y667648D01*
X356079Y667227D01*
X355987Y666730D01*
X356095Y666236D01*
X356359Y665852D01*
X357121Y665090D01*
X357542Y664811D01*
X358019Y664718D01*
X368805Y664718D01*
X369300Y664819D01*
X369717Y665104D01*
X369990Y665530D01*
X370075Y665988D01*
X370075Y670739D01*
X371861Y672525D01*
X386032Y672525D01*
X387817Y670739D01*
X387817Y650061D01*
X386032Y648276D01*
X371861Y648276D01*
X370075Y650061D01*
X370075Y654812D01*
X369974Y655307D01*
X369689Y655724D01*
X369263Y655997D01*
X368805Y656082D01*
X358019Y656082D01*
X357523Y655981D01*
X357121Y655710D01*
X356359Y654948D01*
X356079Y654527D01*
X355987Y654030D01*
X356095Y653536D01*
X356359Y653152D01*
X357548Y651963D01*
X357548Y650331D01*
X357649Y649835D01*
X357920Y649433D01*
X372556Y634796D01*
X372978Y634517D01*
X373454Y634425D01*
X386032Y634425D01*
X387817Y632639D01*
X387817Y611961D01*
X386032Y610176D01*
X371861Y610176D01*
X370075Y611961D01*
X370075Y624538D01*
X369974Y625034D01*
X369703Y625436D01*
X359716Y635423D01*
X359295Y635703D01*
X358798Y635795D01*
X358304Y635687D01*
X357892Y635394D01*
X357626Y634964D01*
X357548Y634525D01*
X357548Y630738D01*
X355763Y628952D01*
X349088Y628952D01*
X348593Y628851D01*
X348176Y628566D01*
X347903Y628140D01*
X347818Y627682D01*
X347818Y618722D01*
X347825Y618688D01*
X347825Y601011D01*
X346040Y599226D01*
X331869Y599226D01*
X330739Y600355D01*
X330317Y600634D01*
X329821Y600727D01*
X329327Y600619D01*
X328943Y600355D01*
X328321Y599734D01*
X322716Y599734D01*
X322716Y619467D01*
X328321Y619467D01*
X328943Y618845D01*
X329364Y618566D01*
X329861Y618473D01*
X330355Y618582D01*
X330739Y618845D01*
X331869Y619975D01*
X337912Y619975D01*
X338407Y620075D01*
X338824Y620361D01*
X339097Y620787D01*
X339182Y621245D01*
X339182Y627682D01*
X339081Y628177D01*
X338796Y628594D01*
X338370Y628867D01*
X337912Y628952D01*
X331238Y628952D01*
X329452Y630738D01*
X329452Y639263D01*
X330641Y640452D01*
X330921Y640873D01*
X331013Y641370D01*
X330905Y641864D01*
X330641Y642248D01*
X329452Y643438D01*
X329452Y651963D01*
X330641Y653152D01*
X330921Y653573D01*
X331013Y654070D01*
X330905Y654564D01*
X330641Y654948D01*
X329452Y656138D01*
X329452Y664663D01*
X330641Y665852D01*
X330921Y666273D01*
X331013Y666770D01*
X330905Y667264D01*
X330641Y667648D01*
X329452Y668838D01*
X329452Y677363D01*
X331001Y678911D01*
X331280Y679333D01*
X331373Y679829D01*
X331264Y680323D01*
X331001Y680707D01*
X329960Y681748D01*
X329960Y684530D01*
X357675Y684530D01*
X357675Y684695D01*
X357852Y684582D01*
X358350Y684497D01*
X358842Y684614D01*
X359208Y684869D01*
X369703Y695364D01*
X369982Y695785D01*
X370075Y696262D01*
X370075Y703802D01*
X369974Y704298D01*
X369689Y704715D01*
X369263Y704987D01*
X368765Y705072D01*
X368273Y704955D01*
X367907Y704700D01*
X357920Y694713D01*
X357716Y694406D01*
X355999Y692689D01*
X355720Y692267D01*
X355628Y691771D01*
X355736Y691277D01*
X355999Y690893D01*
X357040Y689852D01*
X357040Y687070D01*
X329960Y687070D01*
X329960Y689852D01*
X331001Y690893D01*
X331280Y691314D01*
X331373Y691811D01*
X331264Y692305D01*
X331001Y692689D01*
X329452Y694238D01*
X329452Y702763D01*
X330641Y703952D01*
X330921Y704373D01*
X331013Y704870D01*
X330905Y705364D01*
X330641Y705748D01*
X329452Y706938D01*
X329452Y715463D01*
X331238Y717248D01*
X337912Y717248D01*
X338407Y717349D01*
X338824Y717634D01*
X339097Y718060D01*
X339182Y718518D01*
X339182Y720759D01*
X339081Y721255D01*
X338810Y721657D01*
X331295Y729172D01*
X330874Y729451D01*
X330397Y729544D01*
X328841Y729544D01*
X326331Y730584D01*
X324410Y732505D01*
X323370Y735015D01*
X323370Y737733D01*
X324015Y739290D01*
X324112Y739786D01*
X324007Y740280D01*
X323740Y740674D01*
X319532Y744881D01*
X319532Y753719D01*
X325510Y759697D01*
X325789Y760118D01*
X325882Y760595D01*
X325882Y763405D01*
X325781Y763900D01*
X325510Y764303D01*
X319532Y770281D01*
X319532Y779119D01*
X325781Y785368D01*
X334619Y785368D01*
X340868Y779119D01*
X340868Y770281D01*
X334890Y764303D01*
X334611Y763882D01*
X334518Y763405D01*
X334518Y760595D01*
X334619Y760100D01*
X334890Y759697D01*
X340868Y753719D01*
X340868Y744881D01*
X336660Y740674D01*
X336381Y740252D01*
X336289Y739755D01*
X336385Y739290D01*
X337030Y737733D01*
X337030Y736177D01*
X337131Y735681D01*
X337402Y735279D01*
X347818Y724863D01*
X347818Y718518D01*
X347919Y718023D01*
X348204Y717606D01*
X348630Y717333D01*
X349088Y717248D01*
X355763Y717248D01*
X357548Y715463D01*
X357548Y709621D01*
X357649Y709125D01*
X357934Y708708D01*
X358360Y708436D01*
X358858Y708351D01*
X359350Y708468D01*
X359716Y708723D01*
X372861Y721868D01*
X419437Y721868D01*
X422872Y718433D01*
X423294Y718154D01*
X423791Y718061D01*
X424284Y718170D01*
X424697Y718462D01*
X424944Y718845D01*
X426010Y721419D01*
X427931Y723340D01*
X430441Y724380D01*
X433159Y724380D01*
X435669Y723340D01*
X437590Y721419D01*
X438630Y718909D01*
X438630Y716191D01*
X437590Y713681D01*
X436702Y712793D01*
X436422Y712371D01*
X436330Y711874D01*
X436438Y711381D01*
X436731Y710968D01*
X437161Y710703D01*
X437600Y710625D01*
X449532Y710625D01*
X451317Y708839D01*
X451317Y688161D01*
X449532Y686376D01*
X435361Y686376D01*
X435111Y686625D01*
X434690Y686904D01*
X434193Y686997D01*
X433699Y686888D01*
X433287Y686596D01*
X433021Y686166D01*
X432943Y685727D01*
X432943Y672455D01*
X433044Y671959D01*
X433329Y671542D01*
X433755Y671270D01*
X434253Y671185D01*
X434745Y671302D01*
X435111Y671557D01*
X435571Y672017D01*
X441176Y672017D01*
X441176Y648784D01*
X435571Y648784D01*
X435111Y649243D01*
X434690Y649523D01*
X434193Y649615D01*
X433699Y649507D01*
X433287Y649214D01*
X433021Y648784D01*
X432943Y648345D01*
X432943Y643665D01*
X433044Y643169D01*
X433315Y642767D01*
X443035Y633046D01*
X443457Y632767D01*
X443933Y632675D01*
X455532Y632675D01*
X456302Y631904D01*
X456723Y631625D01*
X457220Y631532D01*
X457714Y631641D01*
X458098Y631904D01*
X458869Y632675D01*
X466366Y632675D01*
X466861Y632775D01*
X467278Y633061D01*
X467551Y633487D01*
X467636Y633945D01*
X467636Y647006D01*
X467535Y647501D01*
X467250Y647918D01*
X466824Y648190D01*
X466366Y648276D01*
X464869Y648276D01*
X463083Y650061D01*
X463083Y670739D01*
X464869Y672525D01*
X466366Y672525D01*
X466861Y672625D01*
X467278Y672911D01*
X467551Y673337D01*
X467636Y673795D01*
X467636Y685106D01*
X467535Y685601D01*
X467250Y686018D01*
X466824Y686290D01*
X466366Y686376D01*
X464869Y686376D01*
X463083Y688161D01*
X463083Y708839D01*
X464869Y710625D01*
X474003Y710625D01*
X474498Y710725D01*
X474915Y711011D01*
X475188Y711437D01*
X475272Y711935D01*
X475156Y712427D01*
X474901Y712793D01*
X455783Y731910D01*
X455362Y732189D01*
X454885Y732282D01*
X366511Y732282D01*
X360533Y738260D01*
X360112Y738539D01*
X359635Y738632D01*
X351181Y738632D01*
X344932Y744881D01*
X344932Y753719D01*
X350910Y759697D01*
X351189Y760118D01*
X351282Y760595D01*
X351282Y763405D01*
X351181Y763900D01*
X350910Y764303D01*
X344932Y770281D01*
X344932Y779119D01*
X351181Y785368D01*
X360019Y785368D01*
X366268Y779119D01*
X366268Y770281D01*
X360290Y764303D01*
X360011Y763882D01*
X359918Y763405D01*
X359918Y760595D01*
X360019Y760100D01*
X360290Y759697D01*
X366268Y753719D01*
X366268Y745265D01*
X366369Y744769D01*
X366640Y744367D01*
X369717Y741290D01*
X370138Y741011D01*
X370615Y740918D01*
X371229Y740918D01*
X371724Y741019D01*
X372141Y741304D01*
X372414Y741730D01*
X372498Y742228D01*
X372382Y742720D01*
X372127Y743086D01*
X370332Y744881D01*
X370332Y753719D01*
X376310Y759697D01*
X376589Y760118D01*
X376682Y760595D01*
X376682Y763405D01*
X376581Y763900D01*
X376310Y764303D01*
X370332Y770281D01*
X370332Y779119D01*
X376581Y785368D01*
X385419Y785368D01*
X391668Y779119D01*
X391668Y770281D01*
X385690Y764303D01*
X385411Y763882D01*
X385318Y763405D01*
X385318Y760595D01*
X385419Y760100D01*
X385690Y759697D01*
X391668Y753719D01*
X391668Y744881D01*
X389873Y743086D01*
X389594Y742665D01*
X389501Y742168D01*
X389610Y741674D01*
X389902Y741262D01*
X390332Y740996D01*
X390771Y740918D01*
X396629Y740918D01*
X397124Y741019D01*
X397541Y741304D01*
X397814Y741730D01*
X397898Y742228D01*
X397782Y742720D01*
X397527Y743086D01*
X395732Y744881D01*
X395732Y753719D01*
X401710Y759697D01*
X401989Y760118D01*
X402082Y760595D01*
X402082Y763405D01*
X401981Y763900D01*
X401710Y764303D01*
X395732Y770281D01*
X395732Y779119D01*
X401981Y785368D01*
X410819Y785368D01*
X417068Y779119D01*
X417068Y770281D01*
X411090Y764303D01*
X410811Y763882D01*
X410718Y763405D01*
X410718Y760595D01*
X410819Y760100D01*
X411090Y759697D01*
X417068Y753719D01*
X417068Y744881D01*
X415273Y743086D01*
X414994Y742665D01*
X414901Y742168D01*
X415010Y741674D01*
X415302Y741262D01*
X415732Y740996D01*
X416171Y740918D01*
X422029Y740918D01*
X422524Y741019D01*
X422941Y741304D01*
X423214Y741730D01*
X423298Y742228D01*
X423182Y742720D01*
X422927Y743086D01*
X421132Y744881D01*
X421132Y753719D01*
X427110Y759697D01*
X427389Y760118D01*
X427482Y760595D01*
X427482Y763405D01*
X427381Y763900D01*
X427110Y764303D01*
X421132Y770281D01*
X421132Y779119D01*
X427381Y785368D01*
X436219Y785368D01*
X442468Y779119D01*
X442468Y770281D01*
X436490Y764303D01*
X436211Y763882D01*
X436118Y763405D01*
X436118Y760595D01*
X436219Y760100D01*
X436490Y759697D01*
X442468Y753719D01*
X442468Y744881D01*
X440673Y743086D01*
X440394Y742665D01*
X440301Y742168D01*
X440410Y741674D01*
X440702Y741262D01*
X441132Y740996D01*
X441571Y740918D01*
X447429Y740918D01*
X447924Y741019D01*
X448341Y741304D01*
X448614Y741730D01*
X448698Y742228D01*
X448582Y742720D01*
X448327Y743086D01*
X446532Y744881D01*
X446532Y753719D01*
X452510Y759697D01*
X452789Y760118D01*
X452882Y760595D01*
X452882Y763405D01*
X452781Y763900D01*
X452510Y764303D01*
X446532Y770281D01*
X446532Y779119D01*
X452781Y785368D01*
X461619Y785368D01*
X467868Y779119D01*
X467868Y770281D01*
X461890Y764303D01*
X461611Y763882D01*
X461518Y763405D01*
X461518Y760595D01*
X461619Y760100D01*
X461890Y759697D01*
X467868Y753719D01*
X467868Y745265D01*
X467969Y744769D01*
X468240Y744367D01*
X484017Y728590D01*
X484438Y728311D01*
X484915Y728218D01*
X502133Y728218D01*
X502628Y728319D01*
X503031Y728590D01*
X504131Y729690D01*
X506641Y730730D01*
X509359Y730730D01*
X511869Y729690D01*
X513790Y727769D01*
X514830Y725259D01*
X514830Y722541D01*
X513790Y720031D01*
X511869Y718110D01*
X509359Y717070D01*
X506641Y717070D01*
X504131Y718110D01*
X503031Y719210D01*
X502610Y719489D01*
X502133Y719582D01*
X483391Y719582D01*
X482895Y719481D01*
X482478Y719196D01*
X482206Y718770D01*
X482121Y718272D01*
X482238Y717780D01*
X482493Y717414D01*
X499618Y700289D01*
X499618Y689796D01*
X499719Y689301D01*
X500004Y688884D01*
X500430Y688612D01*
X500928Y688527D01*
X501420Y688643D01*
X501828Y688942D01*
X502061Y689310D01*
X502210Y689669D01*
X504131Y691590D01*
X506641Y692630D01*
X509359Y692630D01*
X511869Y691590D01*
X513790Y689669D01*
X514830Y687159D01*
X514830Y684441D01*
X513790Y681931D01*
X512690Y680831D01*
X512411Y680410D01*
X512318Y679933D01*
X512318Y531611D01*
X484509Y503803D01*
X484230Y503381D01*
X484137Y502884D01*
X484246Y502391D01*
X484538Y501978D01*
X484921Y501731D01*
X486469Y501090D01*
X488390Y499169D01*
X489430Y496659D01*
X489430Y493941D01*
X488390Y491431D01*
X487290Y490331D01*
X487011Y489910D01*
X486918Y489433D01*
X486918Y484350D01*
X487019Y483855D01*
X487304Y483438D01*
X487730Y483165D01*
X488188Y483080D01*
X490309Y483080D01*
X492819Y482040D01*
X494740Y480119D01*
X495780Y477609D01*
X495780Y474891D01*
X494740Y472381D01*
X493640Y471281D01*
X493361Y470860D01*
X493268Y470383D01*
X493268Y455392D01*
X493369Y454897D01*
X493654Y454480D01*
X494080Y454207D01*
X494578Y454123D01*
X495070Y454239D01*
X495478Y454538D01*
X495521Y454606D01*
X497555Y456640D01*
X500065Y457680D01*
X502783Y457680D01*
X505293Y456640D01*
X507214Y454719D01*
X508254Y452209D01*
X508254Y449491D01*
X507214Y446981D01*
X506340Y446107D01*
X506061Y445686D01*
X505968Y445209D01*
X505968Y431295D01*
X506069Y430800D01*
X506354Y430383D01*
X506780Y430110D01*
X507238Y430025D01*
X511989Y430025D01*
X513775Y428240D01*
X513775Y414069D01*
X511989Y412283D01*
X502142Y412283D01*
X501647Y412182D01*
X501230Y411897D01*
X500958Y411471D01*
X500873Y410973D01*
X500989Y410481D01*
X501022Y410433D01*
X502130Y407759D01*
X502130Y405041D01*
X501004Y402322D01*
X500965Y402264D01*
X500872Y401767D01*
X500981Y401273D01*
X501273Y400861D01*
X501703Y400595D01*
X502142Y400517D01*
X511989Y400517D01*
X513775Y398732D01*
X513775Y397234D01*
X513875Y396739D01*
X514161Y396322D01*
X514587Y396049D01*
X515045Y395964D01*
X547156Y395964D01*
X547651Y396065D01*
X548068Y396350D01*
X548340Y396776D01*
X548426Y397234D01*
X548426Y404732D01*
X549555Y405861D01*
X549834Y406283D01*
X549927Y406779D01*
X549819Y407273D01*
X549555Y407657D01*
X548934Y408279D01*
X548934Y413884D01*
X568667Y413884D01*
X568667Y408279D01*
X568045Y407657D01*
X567766Y407236D01*
X567673Y406739D01*
X567782Y406245D01*
X568045Y405861D01*
X569175Y404732D01*
X569175Y390561D01*
X567389Y388775D01*
X556562Y388775D01*
X556066Y388674D01*
X555664Y388403D01*
X554589Y387328D01*
X515045Y387328D01*
X514549Y387227D01*
X514132Y386942D01*
X513860Y386516D01*
X513775Y386058D01*
X513775Y384561D01*
X511989Y382775D01*
X491311Y382775D01*
X489526Y384561D01*
X489526Y398732D01*
X490519Y399725D01*
X490799Y400147D01*
X490891Y400644D01*
X490783Y401137D01*
X490519Y401522D01*
X489510Y402531D01*
X488470Y405041D01*
X488470Y407759D01*
X489510Y410269D01*
X490519Y411279D01*
X490799Y411700D01*
X490891Y412197D01*
X490783Y412690D01*
X490519Y413075D01*
X489526Y414069D01*
X489526Y423203D01*
X489425Y423698D01*
X489139Y424115D01*
X488713Y424388D01*
X488215Y424472D01*
X487723Y424356D01*
X487357Y424101D01*
X480940Y417683D01*
X480661Y417262D01*
X480568Y416785D01*
X480568Y351565D01*
X480669Y351069D01*
X480940Y350667D01*
X525018Y306589D01*
X525018Y40415D01*
X525119Y39919D01*
X525390Y39517D01*
X528467Y36440D01*
X528888Y36161D01*
X529365Y36068D01*
X537819Y36068D01*
X544068Y29819D01*
X544068Y20981D01*
X537955Y14868D01*
X537676Y14447D01*
X537583Y13950D01*
X537692Y13456D01*
X537984Y13044D01*
X538414Y12778D01*
X538853Y12700D01*
X578747Y12700D01*
X579242Y12801D01*
X579659Y13086D01*
X579932Y13512D01*
X580016Y14010D01*
X579900Y14502D01*
X579645Y14868D01*
X573532Y20981D01*
X573532Y29819D01*
X579781Y36068D01*
X588619Y36068D01*
X594868Y29819D01*
X594868Y20981D01*
X588755Y14868D01*
X588476Y14447D01*
X588383Y13950D01*
X588492Y13456D01*
X588784Y13044D01*
X589214Y12778D01*
X589653Y12700D01*
X684530Y12700D01*
X685025Y12801D01*
X685442Y13086D01*
X685715Y13512D01*
X685800Y13970D01*
X685800Y798830D01*
X685699Y799325D01*
X685414Y799742D01*
X684988Y800015D01*
X684530Y800100D01*
X13970Y800100D01*
X13475Y799999D01*
X13058Y799714D01*
X12785Y799288D01*
X12700Y798830D01*
X12700Y13970D01*
X12801Y13475D01*
X13086Y13058D01*
X13512Y12785D01*
X13970Y12700D01*
X142577Y12700D01*
X143072Y12801D01*
G37*
%LPC*%
G36*
X629629Y708502D02*
X619253Y711282D01*
X609950Y716653D01*
X602353Y724250D01*
X596982Y733553D01*
X594202Y743929D01*
X594202Y754671D01*
X596982Y765047D01*
X602353Y774351D01*
X609950Y781947D01*
X619253Y787318D01*
X629629Y790098D01*
X640371Y790098D01*
X650747Y787318D01*
X660051Y781947D01*
X667647Y774351D01*
X673018Y765047D01*
X675798Y754671D01*
X675798Y743929D01*
X673018Y733553D01*
X667647Y724250D01*
X660051Y716653D01*
X650747Y711282D01*
X640371Y708502D01*
X629629Y708502D01*
G37*
G36*
X58129Y708502D02*
X47753Y711282D01*
X38450Y716653D01*
X30853Y724250D01*
X25482Y733553D01*
X22702Y743929D01*
X22702Y754671D01*
X25482Y765047D01*
X30853Y774351D01*
X38450Y781947D01*
X47753Y787318D01*
X58129Y790098D01*
X68871Y790098D01*
X79247Y787318D01*
X88551Y781947D01*
X96147Y774351D01*
X101518Y765047D01*
X104298Y754671D01*
X104298Y743929D01*
X101518Y733553D01*
X96147Y724250D01*
X88551Y716653D01*
X79247Y711282D01*
X68871Y708502D01*
X58129Y708502D01*
G37*
G36*
X48003Y451630D02*
X42869Y453757D01*
X38939Y457687D01*
X36812Y462821D01*
X36812Y468379D01*
X38939Y473513D01*
X42869Y477443D01*
X48003Y479570D01*
X53561Y479570D01*
X56372Y478406D01*
X56868Y478309D01*
X57363Y478413D01*
X57756Y478681D01*
X71510Y492435D01*
X71789Y492856D01*
X71882Y493333D01*
X71882Y579639D01*
X107111Y614868D01*
X113832Y614868D01*
X114327Y614969D01*
X114744Y615254D01*
X115017Y615680D01*
X115102Y616138D01*
X115102Y617313D01*
X116888Y619098D01*
X124413Y619098D01*
X126198Y617313D01*
X126198Y616138D01*
X126299Y615643D01*
X126584Y615226D01*
X127010Y614953D01*
X127468Y614868D01*
X144309Y614868D01*
X144805Y614969D01*
X145222Y615254D01*
X145494Y615680D01*
X145579Y616178D01*
X145462Y616670D01*
X145207Y617036D01*
X132883Y629360D01*
X132462Y629639D01*
X131985Y629732D01*
X127468Y629732D01*
X126973Y629631D01*
X126556Y629346D01*
X126283Y628920D01*
X126198Y628462D01*
X126198Y627288D01*
X124413Y625502D01*
X116888Y625502D01*
X115102Y627288D01*
X115102Y628462D01*
X115001Y628957D01*
X114716Y629374D01*
X114290Y629647D01*
X113832Y629732D01*
X95945Y629732D01*
X95449Y629631D01*
X95032Y629346D01*
X94760Y628920D01*
X94675Y628462D01*
X94675Y625861D01*
X92889Y624075D01*
X80312Y624075D01*
X79816Y623974D01*
X79414Y623703D01*
X55472Y599761D01*
X55193Y599340D01*
X55100Y598863D01*
X55100Y514781D01*
X55201Y514286D01*
X55486Y513869D01*
X55884Y513608D01*
X58695Y512443D01*
X62625Y508513D01*
X64752Y503379D01*
X64752Y497821D01*
X62625Y492687D01*
X58695Y488757D01*
X53561Y486630D01*
X48003Y486630D01*
X42869Y488757D01*
X38939Y492687D01*
X36812Y497821D01*
X36812Y503379D01*
X38939Y508513D01*
X42869Y512443D01*
X45680Y513608D01*
X46099Y513890D01*
X46375Y514314D01*
X46464Y514781D01*
X46464Y602967D01*
X70054Y626556D01*
X70333Y626978D01*
X70426Y627454D01*
X70426Y640032D01*
X72211Y641817D01*
X92889Y641817D01*
X94675Y640032D01*
X94675Y639638D01*
X94775Y639143D01*
X95061Y638726D01*
X95487Y638453D01*
X95945Y638368D01*
X113832Y638368D01*
X114327Y638469D01*
X114744Y638754D01*
X115017Y639180D01*
X115102Y639638D01*
X115102Y640813D01*
X116888Y642598D01*
X124413Y642598D01*
X126198Y640813D01*
X126198Y639638D01*
X126299Y639143D01*
X126584Y638726D01*
X127010Y638453D01*
X127468Y638368D01*
X136089Y638368D01*
X153817Y620640D01*
X154238Y620361D01*
X154715Y620268D01*
X228025Y620268D01*
X228328Y620067D01*
X228804Y619975D01*
X239632Y619975D01*
X240402Y619204D01*
X240823Y618925D01*
X241320Y618832D01*
X241814Y618941D01*
X242198Y619204D01*
X242969Y619975D01*
X244466Y619975D01*
X244961Y620075D01*
X245378Y620361D01*
X245651Y620787D01*
X245736Y621245D01*
X245736Y623356D01*
X245635Y623851D01*
X245350Y624268D01*
X244924Y624540D01*
X244466Y624626D01*
X242969Y624626D01*
X241839Y625755D01*
X241417Y626034D01*
X240921Y626127D01*
X240427Y626019D01*
X240043Y625755D01*
X239421Y625134D01*
X233816Y625134D01*
X233816Y644867D01*
X239421Y644867D01*
X240043Y644245D01*
X240464Y643966D01*
X240961Y643873D01*
X241455Y643982D01*
X241839Y644245D01*
X242969Y645375D01*
X257140Y645375D01*
X258925Y643589D01*
X258925Y640588D01*
X259026Y640093D01*
X259311Y639676D01*
X259737Y639403D01*
X260195Y639318D01*
X276981Y639318D01*
X277477Y639419D01*
X277879Y639690D01*
X278641Y640452D01*
X278921Y640873D01*
X279013Y641370D01*
X278905Y641864D01*
X278641Y642248D01*
X277452Y643438D01*
X277452Y645069D01*
X277351Y645565D01*
X277080Y645967D01*
X262444Y660604D01*
X262023Y660883D01*
X261546Y660976D01*
X250562Y660976D01*
X250067Y660875D01*
X249664Y660604D01*
X238793Y649732D01*
X220269Y649732D01*
X219773Y649631D01*
X219371Y649360D01*
X208147Y638136D01*
X207868Y637715D01*
X207775Y637238D01*
X207775Y624661D01*
X205990Y622876D01*
X191819Y622876D01*
X190033Y624661D01*
X190033Y645339D01*
X191819Y647125D01*
X204396Y647125D01*
X204891Y647225D01*
X205294Y647496D01*
X216165Y658368D01*
X234689Y658368D01*
X235185Y658469D01*
X235587Y658740D01*
X246811Y669964D01*
X247090Y670385D01*
X247183Y670862D01*
X247183Y683439D01*
X248969Y685225D01*
X249349Y685225D01*
X249844Y685325D01*
X250261Y685611D01*
X250534Y686037D01*
X250618Y686535D01*
X250502Y687027D01*
X250247Y687393D01*
X237186Y700454D01*
X236765Y700733D01*
X236288Y700826D01*
X232134Y700826D01*
X231639Y700725D01*
X231222Y700439D01*
X230949Y700013D01*
X230864Y699556D01*
X230864Y686495D01*
X230965Y685999D01*
X231250Y685582D01*
X231676Y685310D01*
X232134Y685225D01*
X233632Y685225D01*
X235417Y683439D01*
X235417Y662761D01*
X233632Y660976D01*
X219461Y660976D01*
X217675Y662761D01*
X217675Y683439D01*
X219461Y685225D01*
X220958Y685225D01*
X221453Y685325D01*
X221870Y685611D01*
X222143Y686037D01*
X222228Y686495D01*
X222228Y706989D01*
X223303Y708064D01*
X223582Y708485D01*
X223675Y708962D01*
X223675Y719789D01*
X225461Y721575D01*
X239632Y721575D01*
X240402Y720804D01*
X240823Y720525D01*
X241320Y720432D01*
X241814Y720541D01*
X242198Y720804D01*
X242969Y721575D01*
X257140Y721575D01*
X258925Y719789D01*
X258925Y708962D01*
X259026Y708466D01*
X259297Y708064D01*
X276477Y690884D01*
X276898Y690604D01*
X277395Y690512D01*
X277889Y690620D01*
X278273Y690884D01*
X278641Y691252D01*
X278921Y691673D01*
X279013Y692170D01*
X278905Y692664D01*
X278641Y693048D01*
X277295Y694395D01*
X277080Y694713D01*
X262382Y709411D01*
X262382Y721585D01*
X262281Y722081D01*
X262010Y722483D01*
X258933Y725560D01*
X258512Y725839D01*
X258035Y725932D01*
X220269Y725932D01*
X219773Y725831D01*
X219371Y725560D01*
X208147Y714336D01*
X207868Y713915D01*
X207775Y713438D01*
X207775Y700861D01*
X205990Y699076D01*
X191819Y699076D01*
X190033Y700861D01*
X190033Y721539D01*
X191819Y723325D01*
X204396Y723325D01*
X204891Y723425D01*
X205294Y723696D01*
X211711Y730114D01*
X211991Y730535D01*
X212083Y731032D01*
X211975Y731526D01*
X211682Y731938D01*
X211252Y732204D01*
X210813Y732282D01*
X135665Y732282D01*
X135169Y732181D01*
X134767Y731910D01*
X87240Y684383D01*
X86961Y683962D01*
X86868Y683485D01*
X86868Y672595D01*
X86969Y672100D01*
X87254Y671683D01*
X87680Y671410D01*
X88138Y671325D01*
X92889Y671325D01*
X94675Y669540D01*
X94675Y655369D01*
X92889Y653583D01*
X72211Y653583D01*
X70426Y655369D01*
X70426Y669540D01*
X72211Y671325D01*
X76962Y671325D01*
X77457Y671426D01*
X77874Y671711D01*
X78147Y672137D01*
X78232Y672595D01*
X78232Y687589D01*
X131561Y740918D01*
X191262Y740918D01*
X191757Y741019D01*
X192174Y741304D01*
X192447Y741730D01*
X192532Y742188D01*
X192532Y758183D01*
X194318Y759968D01*
X197612Y759968D01*
X198107Y760069D01*
X198524Y760354D01*
X198797Y760780D01*
X198882Y761238D01*
X198882Y762762D01*
X198781Y763257D01*
X198496Y763674D01*
X198070Y763947D01*
X197612Y764032D01*
X194318Y764032D01*
X192532Y765818D01*
X192532Y783583D01*
X194318Y785368D01*
X212083Y785368D01*
X213868Y783583D01*
X213868Y765818D01*
X212083Y764032D01*
X208788Y764032D01*
X208293Y763931D01*
X207876Y763646D01*
X207603Y763220D01*
X207518Y762762D01*
X207518Y761238D01*
X207619Y760743D01*
X207904Y760326D01*
X208330Y760053D01*
X208788Y759968D01*
X212083Y759968D01*
X213868Y758183D01*
X213868Y742188D01*
X213969Y741693D01*
X214254Y741276D01*
X214680Y741003D01*
X215138Y740918D01*
X218829Y740918D01*
X219324Y741019D01*
X219741Y741304D01*
X220014Y741730D01*
X220098Y742228D01*
X219982Y742720D01*
X219727Y743086D01*
X217932Y744881D01*
X217932Y753719D01*
X223910Y759697D01*
X224189Y760118D01*
X224282Y760595D01*
X224282Y763405D01*
X224181Y763900D01*
X223910Y764303D01*
X217932Y770281D01*
X217932Y779119D01*
X224181Y785368D01*
X233019Y785368D01*
X239268Y779119D01*
X239268Y770281D01*
X233290Y764303D01*
X233011Y763882D01*
X232918Y763405D01*
X232918Y760595D01*
X233019Y760100D01*
X233290Y759697D01*
X239268Y753719D01*
X239268Y744881D01*
X237473Y743086D01*
X237194Y742665D01*
X237101Y742168D01*
X237210Y741674D01*
X237502Y741262D01*
X237932Y740996D01*
X238371Y740918D01*
X238985Y740918D01*
X239481Y741019D01*
X239883Y741290D01*
X242960Y744367D01*
X243239Y744788D01*
X243332Y745265D01*
X243332Y753719D01*
X249581Y759968D01*
X258419Y759968D01*
X264668Y753719D01*
X264668Y744881D01*
X258419Y738632D01*
X249965Y738632D01*
X249469Y738531D01*
X249067Y738260D01*
X247543Y736736D01*
X247263Y736315D01*
X247171Y735818D01*
X247279Y735324D01*
X247572Y734912D01*
X248002Y734646D01*
X248441Y734568D01*
X262139Y734568D01*
X271018Y725689D01*
X271018Y713515D01*
X271119Y713019D01*
X271390Y712617D01*
X275792Y708215D01*
X276213Y707935D01*
X276710Y707843D01*
X277204Y707951D01*
X277616Y708244D01*
X277882Y708674D01*
X277960Y709113D01*
X277960Y709930D01*
X305040Y709930D01*
X305040Y707148D01*
X303999Y706107D01*
X303720Y705686D01*
X303628Y705189D01*
X303736Y704695D01*
X303999Y704311D01*
X305548Y702763D01*
X305548Y694238D01*
X304359Y693048D01*
X304079Y692627D01*
X303987Y692130D01*
X304095Y691636D01*
X304359Y691252D01*
X305548Y690063D01*
X305548Y681538D01*
X304359Y680348D01*
X304079Y679927D01*
X303987Y679430D01*
X304095Y678936D01*
X304359Y678552D01*
X305121Y677790D01*
X305542Y677511D01*
X306019Y677418D01*
X306589Y677418D01*
X315468Y668539D01*
X315468Y626861D01*
X309764Y621157D01*
X288065Y621157D01*
X287569Y621056D01*
X287167Y620785D01*
X258964Y592582D01*
X226357Y592582D01*
X213079Y605860D01*
X212657Y606139D01*
X212181Y606232D01*
X127468Y606232D01*
X126973Y606131D01*
X126556Y605846D01*
X126283Y605420D01*
X126198Y604962D01*
X126198Y603788D01*
X124413Y602002D01*
X116888Y602002D01*
X115102Y603788D01*
X115102Y604962D01*
X115001Y605457D01*
X114716Y605874D01*
X114290Y606147D01*
X113832Y606232D01*
X111215Y606232D01*
X110719Y606131D01*
X110317Y605860D01*
X80890Y576433D01*
X80611Y576012D01*
X80518Y575535D01*
X80518Y489229D01*
X63863Y472574D01*
X63584Y472153D01*
X63491Y471656D01*
X63588Y471190D01*
X64752Y468379D01*
X64752Y462821D01*
X62625Y457687D01*
X58695Y453757D01*
X53561Y451630D01*
X48003Y451630D01*
G37*
G36*
X274981Y738632D02*
X268732Y744881D01*
X268732Y753719D01*
X274710Y759697D01*
X274989Y760118D01*
X275082Y760595D01*
X275082Y763405D01*
X274981Y763900D01*
X274710Y764303D01*
X268732Y770281D01*
X268732Y779119D01*
X274981Y785368D01*
X283819Y785368D01*
X290068Y779119D01*
X290068Y770281D01*
X284090Y764303D01*
X283811Y763882D01*
X283718Y763405D01*
X283718Y760595D01*
X283819Y760100D01*
X284090Y759697D01*
X290068Y753719D01*
X290068Y744881D01*
X283819Y738632D01*
X274981Y738632D01*
G37*
G36*
X300381Y738632D02*
X294132Y744881D01*
X294132Y753719D01*
X300110Y759697D01*
X300389Y760118D01*
X300482Y760595D01*
X300482Y763405D01*
X300381Y763900D01*
X300110Y764303D01*
X294132Y770281D01*
X294132Y779119D01*
X300381Y785368D01*
X309219Y785368D01*
X315468Y779119D01*
X315468Y770281D01*
X309490Y764303D01*
X309211Y763882D01*
X309118Y763405D01*
X309118Y760595D01*
X309219Y760100D01*
X309490Y759697D01*
X315468Y753719D01*
X315468Y744881D01*
X309219Y738632D01*
X300381Y738632D01*
G37*
G36*
X478181Y738632D02*
X471932Y744881D01*
X471932Y753719D01*
X477910Y759697D01*
X478189Y760118D01*
X478282Y760595D01*
X478282Y763405D01*
X478181Y763900D01*
X477910Y764303D01*
X471932Y770281D01*
X471932Y779119D01*
X478181Y785368D01*
X487019Y785368D01*
X493268Y779119D01*
X493268Y770281D01*
X487290Y764303D01*
X487011Y763882D01*
X486918Y763405D01*
X486918Y760595D01*
X487019Y760100D01*
X487290Y759697D01*
X493268Y753719D01*
X493268Y744881D01*
X487019Y738632D01*
X478181Y738632D01*
G37*
G36*
X249581Y764032D02*
X243332Y770281D01*
X243332Y779119D01*
X249581Y785368D01*
X258419Y785368D01*
X264668Y779119D01*
X264668Y770281D01*
X258419Y764032D01*
X249581Y764032D01*
G37*
G36*
X161033Y712470D02*
X161033Y721329D01*
X162521Y722817D01*
X168126Y722817D01*
X168126Y712470D01*
X161033Y712470D01*
G37*
G36*
X170666Y712470D02*
X170666Y722817D01*
X176271Y722817D01*
X177759Y721329D01*
X177759Y712470D01*
X170666Y712470D01*
G37*
G36*
X277960Y712470D02*
X277960Y715252D01*
X279448Y716740D01*
X290230Y716740D01*
X290230Y712470D01*
X277960Y712470D01*
G37*
G36*
X292770Y712470D02*
X292770Y716740D01*
X303552Y716740D01*
X305040Y715252D01*
X305040Y712470D01*
X292770Y712470D01*
G37*
G36*
X170666Y699584D02*
X170666Y709930D01*
X177759Y709930D01*
X177759Y701071D01*
X176271Y699584D01*
X170666Y699584D01*
G37*
G36*
X162521Y699584D02*
X161033Y701071D01*
X161033Y709930D01*
X168126Y709930D01*
X168126Y699584D01*
X162521Y699584D01*
G37*
G36*
X162311Y622876D02*
X160525Y624661D01*
X160525Y645339D01*
X162311Y647125D01*
X163808Y647125D01*
X164303Y647225D01*
X164720Y647511D01*
X164993Y647937D01*
X165078Y648395D01*
X165078Y668889D01*
X166153Y669964D01*
X166432Y670385D01*
X166525Y670862D01*
X166525Y681689D01*
X168311Y683475D01*
X182482Y683475D01*
X183611Y682345D01*
X184033Y682066D01*
X184529Y681973D01*
X185023Y682082D01*
X185407Y682345D01*
X186029Y682967D01*
X191634Y682967D01*
X191634Y663234D01*
X186029Y663234D01*
X185407Y663855D01*
X184986Y664134D01*
X184489Y664227D01*
X183995Y664119D01*
X183611Y663855D01*
X182482Y662726D01*
X174984Y662726D01*
X174489Y662625D01*
X174072Y662339D01*
X173799Y661913D01*
X173714Y661456D01*
X173714Y648395D01*
X173815Y647899D01*
X174100Y647482D01*
X174526Y647210D01*
X174984Y647125D01*
X176482Y647125D01*
X178267Y645339D01*
X178267Y624661D01*
X176482Y622876D01*
X162311Y622876D01*
G37*
G36*
X194174Y674370D02*
X194174Y682967D01*
X199779Y682967D01*
X201267Y681479D01*
X201267Y674370D01*
X194174Y674370D01*
G37*
G36*
X400091Y661670D02*
X400091Y670529D01*
X401579Y672017D01*
X407184Y672017D01*
X407184Y661670D01*
X400091Y661670D01*
G37*
G36*
X443716Y661670D02*
X443716Y672017D01*
X449321Y672017D01*
X450809Y670529D01*
X450809Y661670D01*
X443716Y661670D01*
G37*
G36*
X194174Y663234D02*
X194174Y671830D01*
X201267Y671830D01*
X201267Y664721D01*
X199779Y663234D01*
X194174Y663234D01*
G37*
G36*
X443716Y648784D02*
X443716Y659130D01*
X450809Y659130D01*
X450809Y650271D01*
X449321Y648784D01*
X443716Y648784D01*
G37*
G36*
X401579Y648784D02*
X400091Y650271D01*
X400091Y659130D01*
X407184Y659130D01*
X407184Y648784D01*
X401579Y648784D01*
G37*
G36*
X224183Y636270D02*
X224183Y643379D01*
X225671Y644867D01*
X231276Y644867D01*
X231276Y636270D01*
X224183Y636270D01*
G37*
G36*
X225671Y625134D02*
X224183Y626621D01*
X224183Y633730D01*
X231276Y633730D01*
X231276Y625134D01*
X225671Y625134D01*
G37*
G36*
X313083Y610870D02*
X313083Y617979D01*
X314571Y619467D01*
X320176Y619467D01*
X320176Y610870D01*
X313083Y610870D01*
G37*
G36*
X314571Y599734D02*
X313083Y601221D01*
X313083Y608330D01*
X320176Y608330D01*
X320176Y599734D01*
X314571Y599734D01*
G37*
G36*
X224181Y535432D02*
X217932Y541681D01*
X217932Y550519D01*
X223910Y556497D01*
X224189Y556918D01*
X224282Y557395D01*
X224282Y560205D01*
X224181Y560700D01*
X223910Y561103D01*
X217932Y567081D01*
X217932Y575919D01*
X224181Y582168D01*
X233019Y582168D01*
X239268Y575919D01*
X239268Y567081D01*
X233290Y561103D01*
X233011Y560682D01*
X232918Y560205D01*
X232918Y557395D01*
X233019Y556900D01*
X233290Y556497D01*
X239268Y550519D01*
X239268Y541681D01*
X233019Y535432D01*
X224181Y535432D01*
G37*
G36*
X92718Y535432D02*
X90932Y537218D01*
X90932Y554983D01*
X92718Y556768D01*
X96012Y556768D01*
X96507Y556869D01*
X96924Y557154D01*
X97197Y557580D01*
X97282Y558038D01*
X97282Y559562D01*
X97181Y560057D01*
X96896Y560474D01*
X96470Y560747D01*
X96012Y560832D01*
X92718Y560832D01*
X90932Y562618D01*
X90932Y580383D01*
X92718Y582168D01*
X110483Y582168D01*
X112268Y580383D01*
X112268Y562618D01*
X110483Y560832D01*
X107188Y560832D01*
X106693Y560731D01*
X106276Y560446D01*
X106003Y560020D01*
X105918Y559562D01*
X105918Y558038D01*
X106019Y557543D01*
X106304Y557126D01*
X106730Y556853D01*
X107188Y556768D01*
X110483Y556768D01*
X112268Y554983D01*
X112268Y537218D01*
X110483Y535432D01*
X92718Y535432D01*
G37*
G36*
X48678Y197612D02*
X44757Y199236D01*
X41756Y202237D01*
X40132Y206158D01*
X40132Y225642D01*
X41756Y229563D01*
X44757Y232564D01*
X44936Y232638D01*
X45355Y232921D01*
X45631Y233344D01*
X45720Y233811D01*
X45720Y251370D01*
X45619Y251865D01*
X45348Y252268D01*
X21093Y276522D01*
X20320Y278390D01*
X20320Y382010D01*
X21093Y383878D01*
X146948Y509732D01*
X147227Y510154D01*
X147320Y510630D01*
X147320Y518070D01*
X147219Y518565D01*
X146948Y518968D01*
X135393Y530522D01*
X134620Y532390D01*
X134620Y535567D01*
X134519Y536062D01*
X134234Y536479D01*
X133808Y536752D01*
X133310Y536836D01*
X132818Y536720D01*
X132452Y536465D01*
X131419Y535432D01*
X122581Y535432D01*
X116332Y541681D01*
X116332Y550519D01*
X122581Y556768D01*
X131482Y556768D01*
X131977Y556869D01*
X132394Y557154D01*
X132666Y557580D01*
X132751Y558078D01*
X132635Y558570D01*
X132380Y558936D01*
X130856Y560460D01*
X130434Y560739D01*
X129958Y560832D01*
X122581Y560832D01*
X116332Y567081D01*
X116332Y575919D01*
X122581Y582168D01*
X131419Y582168D01*
X137668Y575919D01*
X137668Y568542D01*
X137769Y568047D01*
X138040Y567644D01*
X139564Y566120D01*
X139985Y565841D01*
X140482Y565748D01*
X140976Y565857D01*
X141388Y566149D01*
X141654Y566579D01*
X141732Y567018D01*
X141732Y575919D01*
X147981Y582168D01*
X156819Y582168D01*
X163068Y575919D01*
X163068Y567081D01*
X157090Y561103D01*
X156811Y560682D01*
X156718Y560205D01*
X156718Y557395D01*
X156819Y556900D01*
X157090Y556497D01*
X163068Y550519D01*
X163068Y541681D01*
X156819Y535432D01*
X147918Y535432D01*
X147423Y535331D01*
X147006Y535046D01*
X146734Y534620D01*
X146649Y534122D01*
X146765Y533630D01*
X147020Y533264D01*
X154132Y526152D01*
X154554Y525873D01*
X155030Y525780D01*
X180864Y525780D01*
X182732Y525007D01*
X188441Y519297D01*
X188863Y519018D01*
X189339Y518925D01*
X200839Y518925D01*
X202625Y517140D01*
X202625Y516404D01*
X202725Y515909D01*
X203011Y515492D01*
X203437Y515219D01*
X203895Y515134D01*
X227906Y515134D01*
X228401Y515235D01*
X228818Y515520D01*
X229090Y515946D01*
X229176Y516404D01*
X229176Y517140D01*
X230961Y518925D01*
X251639Y518925D01*
X253425Y517140D01*
X253425Y502921D01*
X253525Y502425D01*
X253811Y502009D01*
X254237Y501736D01*
X254735Y501651D01*
X255227Y501768D01*
X255593Y502023D01*
X264676Y511107D01*
X266544Y511880D01*
X302743Y511880D01*
X303239Y511981D01*
X303641Y512252D01*
X304238Y512848D01*
X310682Y512848D01*
X311177Y512949D01*
X311594Y513234D01*
X311867Y513660D01*
X311939Y514050D01*
X313738Y515848D01*
X321263Y515848D01*
X323062Y514048D01*
X323149Y513623D01*
X323434Y513206D01*
X323860Y512933D01*
X324318Y512848D01*
X330763Y512848D01*
X332548Y511063D01*
X332548Y502538D01*
X330849Y500839D01*
X330570Y500417D01*
X330478Y499921D01*
X330586Y499427D01*
X330849Y499043D01*
X332040Y497852D01*
X332040Y490070D01*
X302960Y490070D01*
X302960Y497852D01*
X304151Y499043D01*
X304430Y499464D01*
X304523Y499961D01*
X304414Y500455D01*
X304151Y500839D01*
X303641Y501348D01*
X303220Y501627D01*
X302743Y501720D01*
X270184Y501720D01*
X269689Y501619D01*
X269286Y501348D01*
X253796Y485858D01*
X253517Y485437D01*
X253425Y484960D01*
X253425Y473461D01*
X251639Y471675D01*
X230961Y471675D01*
X229176Y473461D01*
X229176Y487632D01*
X230961Y489417D01*
X242461Y489417D01*
X242956Y489518D01*
X243359Y489789D01*
X252585Y499015D01*
X252864Y499436D01*
X252957Y499933D01*
X252848Y500427D01*
X252556Y500839D01*
X252126Y501105D01*
X251687Y501183D01*
X230961Y501183D01*
X229176Y502969D01*
X229176Y503704D01*
X229075Y504199D01*
X228789Y504616D01*
X228363Y504889D01*
X227906Y504974D01*
X203895Y504974D01*
X203399Y504873D01*
X202982Y504588D01*
X202710Y504162D01*
X202625Y503704D01*
X202625Y502969D01*
X200839Y501183D01*
X180161Y501183D01*
X178376Y502969D01*
X178376Y514350D01*
X178275Y514845D01*
X177989Y515262D01*
X177563Y515535D01*
X177106Y515620D01*
X158750Y515620D01*
X158255Y515519D01*
X157838Y515234D01*
X157565Y514808D01*
X157480Y514350D01*
X157480Y506990D01*
X156707Y505122D01*
X30852Y379268D01*
X30573Y378846D01*
X30480Y378370D01*
X30480Y282030D01*
X30581Y281535D01*
X30852Y281132D01*
X55107Y256878D01*
X55880Y255010D01*
X55880Y233811D01*
X55981Y233316D01*
X56266Y232899D01*
X56664Y232638D01*
X56843Y232564D01*
X59844Y229563D01*
X61468Y225642D01*
X61468Y206158D01*
X59844Y202237D01*
X56843Y199236D01*
X52922Y197612D01*
X48678Y197612D01*
G37*
G36*
X198781Y535432D02*
X192532Y541681D01*
X192532Y550519D01*
X198510Y556497D01*
X198789Y556918D01*
X198882Y557395D01*
X198882Y560205D01*
X198781Y560700D01*
X198510Y561103D01*
X192532Y567081D01*
X192532Y575919D01*
X198781Y582168D01*
X207619Y582168D01*
X213868Y575919D01*
X213868Y567081D01*
X207890Y561103D01*
X207611Y560682D01*
X207518Y560205D01*
X207518Y557395D01*
X207619Y556900D01*
X207890Y556497D01*
X213868Y550519D01*
X213868Y541681D01*
X207619Y535432D01*
X198781Y535432D01*
G37*
G36*
X179070Y572770D02*
X179070Y581660D01*
X182008Y581660D01*
X187960Y575708D01*
X187960Y572770D01*
X179070Y572770D01*
G37*
G36*
X167640Y572770D02*
X167640Y575708D01*
X173592Y581660D01*
X176530Y581660D01*
X176530Y572770D01*
X167640Y572770D01*
G37*
G36*
X179070Y561340D02*
X179070Y570230D01*
X187960Y570230D01*
X187960Y567292D01*
X182008Y561340D01*
X179070Y561340D01*
G37*
G36*
X173592Y561340D02*
X167640Y567292D01*
X167640Y570230D01*
X176530Y570230D01*
X176530Y561340D01*
X173592Y561340D01*
G37*
G36*
X167640Y547370D02*
X167640Y550308D01*
X173592Y556260D01*
X176530Y556260D01*
X176530Y547370D01*
X167640Y547370D01*
G37*
G36*
X179070Y547370D02*
X179070Y556260D01*
X182008Y556260D01*
X187960Y550308D01*
X187960Y547370D01*
X179070Y547370D01*
G37*
G36*
X173592Y535940D02*
X167640Y541892D01*
X167640Y544830D01*
X176530Y544830D01*
X176530Y535940D01*
X173592Y535940D01*
G37*
G36*
X179070Y535940D02*
X179070Y544830D01*
X187960Y544830D01*
X187960Y541892D01*
X182008Y535940D01*
X179070Y535940D01*
G37*
G36*
X631919Y426692D02*
X623514Y428944D01*
X615978Y433295D01*
X609825Y439448D01*
X605474Y446984D01*
X603222Y455389D01*
X603222Y464091D01*
X605474Y472496D01*
X609825Y480032D01*
X615978Y486185D01*
X623514Y490536D01*
X631919Y492788D01*
X640621Y492788D01*
X649026Y490536D01*
X656562Y486185D01*
X662715Y480032D01*
X667066Y472496D01*
X669318Y464091D01*
X669318Y455389D01*
X667066Y446984D01*
X662715Y439448D01*
X656562Y433295D01*
X649026Y428944D01*
X640621Y426692D01*
X631919Y426692D01*
G37*
G36*
X36260Y324970D02*
X36260Y332752D01*
X37451Y333943D01*
X37730Y334364D01*
X37823Y334861D01*
X37714Y335355D01*
X37451Y335739D01*
X35752Y337438D01*
X35752Y345963D01*
X37538Y347748D01*
X43982Y347748D01*
X44477Y347849D01*
X44894Y348134D01*
X45167Y348560D01*
X45239Y348950D01*
X47038Y350748D01*
X54563Y350748D01*
X56362Y348948D01*
X56449Y348523D01*
X56734Y348106D01*
X57160Y347833D01*
X57618Y347748D01*
X64063Y347748D01*
X64659Y347152D01*
X65080Y346873D01*
X65557Y346780D01*
X123170Y346780D01*
X123665Y346881D01*
X124068Y347152D01*
X161941Y385025D01*
X162220Y385447D01*
X162313Y385943D01*
X162204Y386437D01*
X161912Y386849D01*
X161482Y387115D01*
X160982Y387192D01*
X160408Y387023D01*
X156717Y384892D01*
X146341Y382112D01*
X135599Y382112D01*
X125223Y384892D01*
X115920Y390263D01*
X108323Y397860D01*
X102952Y407163D01*
X100172Y417539D01*
X100172Y428281D01*
X102952Y438657D01*
X108323Y447961D01*
X115920Y455557D01*
X125223Y460928D01*
X135599Y463708D01*
X146341Y463708D01*
X156717Y460928D01*
X166021Y455557D01*
X173617Y447961D01*
X178988Y438657D01*
X181768Y428281D01*
X181768Y417539D01*
X178988Y407163D01*
X176857Y403472D01*
X176696Y402993D01*
X176736Y402489D01*
X176968Y402040D01*
X177357Y401718D01*
X177841Y401572D01*
X178344Y401628D01*
X178855Y401939D01*
X185048Y408132D01*
X185327Y408554D01*
X185420Y409030D01*
X185420Y470405D01*
X185319Y470900D01*
X185034Y471317D01*
X184608Y471590D01*
X184150Y471675D01*
X180161Y471675D01*
X178376Y473461D01*
X178376Y487632D01*
X180161Y489417D01*
X200839Y489417D01*
X202625Y487632D01*
X202625Y473461D01*
X200839Y471675D01*
X196850Y471675D01*
X196355Y471574D01*
X195938Y471289D01*
X195665Y470863D01*
X195580Y470405D01*
X195580Y405390D01*
X194807Y403522D01*
X128678Y337393D01*
X126810Y336620D01*
X65557Y336620D01*
X65061Y336519D01*
X64659Y336248D01*
X64149Y335739D01*
X63870Y335317D01*
X63778Y334821D01*
X63886Y334327D01*
X64149Y333943D01*
X65340Y332752D01*
X65340Y324970D01*
X36260Y324970D01*
G37*
G36*
X318770Y478260D02*
X318770Y487530D01*
X332040Y487530D01*
X332040Y479748D01*
X330552Y478260D01*
X318770Y478260D01*
G37*
G36*
X304448Y478260D02*
X302960Y479748D01*
X302960Y487530D01*
X316230Y487530D01*
X316230Y478260D01*
X304448Y478260D01*
G37*
G36*
X548934Y416424D02*
X548934Y422029D01*
X550421Y423517D01*
X557530Y423517D01*
X557530Y416424D01*
X548934Y416424D01*
G37*
G36*
X560070Y416424D02*
X560070Y423517D01*
X567179Y423517D01*
X568667Y422029D01*
X568667Y416424D01*
X560070Y416424D01*
G37*
G36*
X631919Y320012D02*
X623514Y322264D01*
X615978Y326615D01*
X609825Y332768D01*
X605474Y340304D01*
X603222Y348709D01*
X603222Y357411D01*
X605474Y365816D01*
X609825Y373352D01*
X615978Y379505D01*
X623514Y383856D01*
X631919Y386108D01*
X640621Y386108D01*
X649026Y383856D01*
X656562Y379505D01*
X662715Y373352D01*
X667066Y365816D01*
X669318Y357411D01*
X669318Y348709D01*
X667066Y340304D01*
X662715Y332768D01*
X656562Y326615D01*
X649026Y322264D01*
X640621Y320012D01*
X631919Y320012D01*
G37*
G36*
X493941Y348770D02*
X491431Y349810D01*
X489510Y351731D01*
X488470Y354241D01*
X488470Y356959D01*
X489510Y359469D01*
X491431Y361390D01*
X493941Y362430D01*
X496659Y362430D01*
X499169Y361390D01*
X499507Y361052D01*
X499929Y360773D01*
X500405Y360680D01*
X566395Y360680D01*
X566890Y360781D01*
X567293Y361052D01*
X567631Y361390D01*
X570141Y362430D01*
X572859Y362430D01*
X575369Y361390D01*
X577290Y359469D01*
X578330Y356959D01*
X578330Y354241D01*
X577290Y351731D01*
X575369Y349810D01*
X572859Y348770D01*
X570141Y348770D01*
X567631Y349810D01*
X567293Y350148D01*
X566872Y350427D01*
X566395Y350520D01*
X500405Y350520D01*
X499910Y350419D01*
X499507Y350148D01*
X499169Y349810D01*
X496659Y348770D01*
X493941Y348770D01*
G37*
G36*
X52070Y313160D02*
X52070Y322430D01*
X65340Y322430D01*
X65340Y314648D01*
X63852Y313160D01*
X52070Y313160D01*
G37*
G36*
X37748Y313160D02*
X36260Y314648D01*
X36260Y322430D01*
X49530Y322430D01*
X49530Y313160D01*
X37748Y313160D01*
G37*
G36*
X566129Y189072D02*
X555753Y191852D01*
X546450Y197223D01*
X538853Y204820D01*
X533482Y214123D01*
X530702Y224499D01*
X530702Y235241D01*
X533482Y245617D01*
X538853Y254921D01*
X546450Y262517D01*
X555753Y267888D01*
X566129Y270668D01*
X576871Y270668D01*
X587247Y267888D01*
X596551Y262517D01*
X604147Y254921D01*
X609518Y245617D01*
X612298Y235241D01*
X612298Y224499D01*
X609518Y214123D01*
X604147Y204820D01*
X596551Y197223D01*
X587247Y191852D01*
X576871Y189072D01*
X566129Y189072D01*
G37*
G36*
X66040Y217170D02*
X66040Y225541D01*
X67587Y229275D01*
X70445Y232133D01*
X74179Y233680D01*
X74930Y233680D01*
X74930Y217170D01*
X66040Y217170D01*
G37*
G36*
X77470Y217170D02*
X77470Y233680D01*
X78221Y233680D01*
X81955Y232133D01*
X84813Y229275D01*
X86360Y225541D01*
X86360Y217170D01*
X77470Y217170D01*
G37*
G36*
X77470Y198120D02*
X77470Y214630D01*
X86360Y214630D01*
X86360Y206259D01*
X84813Y202525D01*
X81955Y199667D01*
X78221Y198120D01*
X77470Y198120D01*
G37*
G36*
X74179Y198120D02*
X70445Y199667D01*
X67587Y202525D01*
X66040Y206259D01*
X66040Y214630D01*
X74930Y214630D01*
X74930Y198120D01*
X74179Y198120D01*
G37*
G36*
X629629Y22702D02*
X619253Y25482D01*
X609950Y30853D01*
X602353Y38450D01*
X596982Y47753D01*
X594202Y58129D01*
X594202Y68871D01*
X596982Y79247D01*
X602353Y88551D01*
X609950Y96147D01*
X619253Y101518D01*
X629629Y104298D01*
X640371Y104298D01*
X650747Y101518D01*
X660051Y96147D01*
X667647Y88551D01*
X673018Y79247D01*
X675798Y68871D01*
X675798Y58129D01*
X673018Y47753D01*
X667647Y38450D01*
X660051Y30853D01*
X650747Y25482D01*
X640371Y22702D01*
X629629Y22702D01*
G37*
G36*
X58129Y22702D02*
X47753Y25482D01*
X38450Y30853D01*
X30853Y38450D01*
X25482Y47753D01*
X22702Y58129D01*
X22702Y68871D01*
X25482Y79247D01*
X30853Y88551D01*
X38450Y96147D01*
X47753Y101518D01*
X58129Y104298D01*
X68871Y104298D01*
X79247Y101518D01*
X88551Y96147D01*
X96147Y88551D01*
X101518Y79247D01*
X104298Y68871D01*
X104298Y58129D01*
X101518Y47753D01*
X96147Y38450D01*
X88551Y30853D01*
X79247Y25482D01*
X68871Y22702D01*
X58129Y22702D01*
G37*
G36*
X548640Y26670D02*
X548640Y29608D01*
X554592Y35560D01*
X557530Y35560D01*
X557530Y26670D01*
X548640Y26670D01*
G37*
G36*
X560070Y26670D02*
X560070Y35560D01*
X563008Y35560D01*
X568960Y29608D01*
X568960Y26670D01*
X560070Y26670D01*
G37*
G36*
X560070Y15240D02*
X560070Y24130D01*
X568960Y24130D01*
X568960Y21192D01*
X563008Y15240D01*
X560070Y15240D01*
G37*
G36*
X554592Y15240D02*
X548640Y21192D01*
X548640Y24130D01*
X557530Y24130D01*
X557530Y15240D01*
X554592Y15240D01*
G37*
%LPD*%
G36*
X452242Y12801D02*
X452659Y13086D01*
X452932Y13512D01*
X453016Y14010D01*
X452900Y14502D01*
X452645Y14868D01*
X446532Y20981D01*
X446532Y29819D01*
X452510Y35797D01*
X452789Y36218D01*
X452882Y36695D01*
X452882Y260833D01*
X452781Y261328D01*
X452510Y261731D01*
X451410Y262831D01*
X450370Y265341D01*
X450370Y268059D01*
X451410Y270569D01*
X453331Y272490D01*
X455841Y273530D01*
X458559Y273530D01*
X461069Y272490D01*
X462990Y270569D01*
X464030Y268059D01*
X464030Y265341D01*
X462990Y262831D01*
X461890Y261731D01*
X461611Y261310D01*
X461518Y260833D01*
X461518Y36695D01*
X461619Y36200D01*
X461890Y35797D01*
X467868Y29819D01*
X467868Y20981D01*
X461755Y14868D01*
X461476Y14447D01*
X461383Y13950D01*
X461492Y13456D01*
X461784Y13044D01*
X462214Y12778D01*
X462653Y12700D01*
X477147Y12700D01*
X477642Y12801D01*
X478059Y13086D01*
X478332Y13512D01*
X478416Y14010D01*
X478300Y14502D01*
X478045Y14868D01*
X471932Y20981D01*
X471932Y29819D01*
X477910Y35797D01*
X478189Y36218D01*
X478282Y36695D01*
X478282Y298933D01*
X478181Y299428D01*
X477910Y299831D01*
X476810Y300931D01*
X475770Y303441D01*
X475770Y306159D01*
X476810Y308669D01*
X478731Y310590D01*
X481241Y311630D01*
X483959Y311630D01*
X486469Y310590D01*
X488390Y308669D01*
X489430Y306159D01*
X489430Y303441D01*
X488390Y300931D01*
X487290Y299831D01*
X487011Y299410D01*
X486918Y298933D01*
X486918Y36695D01*
X487019Y36200D01*
X487290Y35797D01*
X493268Y29819D01*
X493268Y20981D01*
X487155Y14868D01*
X486876Y14447D01*
X486783Y13950D01*
X486892Y13456D01*
X487184Y13044D01*
X487614Y12778D01*
X488053Y12700D01*
X502547Y12700D01*
X503042Y12801D01*
X503459Y13086D01*
X503732Y13512D01*
X503816Y14010D01*
X503700Y14502D01*
X503445Y14868D01*
X497332Y20981D01*
X497332Y29819D01*
X503310Y35797D01*
X503589Y36218D01*
X503682Y36695D01*
X503682Y302485D01*
X503581Y302981D01*
X503310Y303383D01*
X465582Y341111D01*
X465582Y411959D01*
X465481Y412455D01*
X465196Y412872D01*
X464770Y413144D01*
X464272Y413229D01*
X463780Y413112D01*
X463414Y412857D01*
X461890Y411333D01*
X461611Y410912D01*
X461518Y410435D01*
X461518Y401981D01*
X455269Y395732D01*
X446431Y395732D01*
X440182Y401981D01*
X440182Y410819D01*
X446431Y417068D01*
X454885Y417068D01*
X455381Y417169D01*
X455783Y417440D01*
X465210Y426867D01*
X465489Y427288D01*
X465582Y427765D01*
X465582Y494509D01*
X465481Y495005D01*
X465196Y495422D01*
X464770Y495694D01*
X464272Y495779D01*
X463780Y495662D01*
X463414Y495407D01*
X423790Y455783D01*
X423511Y455362D01*
X423418Y454885D01*
X423418Y379211D01*
X388202Y343995D01*
X387923Y343574D01*
X387830Y343097D01*
X387830Y341541D01*
X386790Y339031D01*
X384869Y337110D01*
X382359Y336070D01*
X379641Y336070D01*
X377131Y337110D01*
X375210Y339031D01*
X374569Y340579D01*
X374286Y340998D01*
X373863Y341274D01*
X373365Y341362D01*
X372872Y341250D01*
X372497Y340991D01*
X347590Y316083D01*
X347311Y315662D01*
X347218Y315185D01*
X347218Y120167D01*
X347319Y119672D01*
X347590Y119269D01*
X348690Y118169D01*
X349730Y115659D01*
X349730Y112941D01*
X348690Y110431D01*
X346769Y108510D01*
X346410Y108361D01*
X345991Y108079D01*
X345716Y107655D01*
X345627Y107158D01*
X345739Y106665D01*
X346035Y106255D01*
X346467Y105993D01*
X346896Y105918D01*
X357389Y105918D01*
X426867Y36440D01*
X427288Y36161D01*
X427765Y36068D01*
X436219Y36068D01*
X442468Y29819D01*
X442468Y20981D01*
X436355Y14868D01*
X436076Y14447D01*
X435983Y13950D01*
X436092Y13456D01*
X436384Y13044D01*
X436814Y12778D01*
X437253Y12700D01*
X451747Y12700D01*
X452242Y12801D01*
G37*
%LPC*%
G36*
X446431Y446532D02*
X440182Y452781D01*
X440182Y461619D01*
X446431Y467868D01*
X455269Y467868D01*
X461518Y461619D01*
X461518Y452781D01*
X455269Y446532D01*
X446431Y446532D01*
G37*
G36*
X440690Y433070D02*
X440690Y436008D01*
X446642Y441960D01*
X449580Y441960D01*
X449580Y433070D01*
X440690Y433070D01*
G37*
G36*
X452120Y433070D02*
X452120Y441960D01*
X455058Y441960D01*
X461010Y436008D01*
X461010Y433070D01*
X452120Y433070D01*
G37*
G36*
X452120Y421640D02*
X452120Y430530D01*
X461010Y430530D01*
X461010Y427592D01*
X455058Y421640D01*
X452120Y421640D01*
G37*
G36*
X446642Y421640D02*
X440690Y427592D01*
X440690Y430530D01*
X449580Y430530D01*
X449580Y421640D01*
X446642Y421640D01*
G37*
G36*
X446431Y370332D02*
X440182Y376581D01*
X440182Y385419D01*
X446431Y391668D01*
X455269Y391668D01*
X461518Y385419D01*
X461518Y376581D01*
X455269Y370332D01*
X446431Y370332D01*
G37*
G36*
X440690Y356870D02*
X440690Y364272D01*
X442178Y365760D01*
X449580Y365760D01*
X449580Y356870D01*
X440690Y356870D01*
G37*
G36*
X452120Y356870D02*
X452120Y365760D01*
X459522Y365760D01*
X461010Y364272D01*
X461010Y356870D01*
X452120Y356870D01*
G37*
G36*
X452120Y345440D02*
X452120Y354330D01*
X461010Y354330D01*
X461010Y346928D01*
X459522Y345440D01*
X452120Y345440D01*
G37*
G36*
X442178Y345440D02*
X440690Y346928D01*
X440690Y354330D01*
X449580Y354330D01*
X449580Y345440D01*
X442178Y345440D01*
G37*
G36*
X388329Y189072D02*
X377953Y191852D01*
X368650Y197223D01*
X361053Y204820D01*
X355682Y214123D01*
X352902Y224499D01*
X352902Y235241D01*
X355682Y245617D01*
X361053Y254921D01*
X368650Y262517D01*
X377953Y267888D01*
X388329Y270668D01*
X399071Y270668D01*
X409447Y267888D01*
X418751Y262517D01*
X426347Y254921D01*
X431718Y245617D01*
X434498Y235241D01*
X434498Y224499D01*
X431718Y214123D01*
X426347Y204820D01*
X418751Y197223D01*
X409447Y191852D01*
X399071Y189072D01*
X388329Y189072D01*
G37*
%LPD*%
G36*
X245222Y12801D02*
X245639Y13086D01*
X245912Y13512D01*
X245996Y14010D01*
X245900Y14456D01*
X244856Y16977D01*
X244856Y24130D01*
X263144Y24130D01*
X263144Y16977D01*
X262100Y14456D01*
X262003Y13960D01*
X262108Y13465D01*
X262397Y13051D01*
X262825Y12782D01*
X263273Y12700D01*
X269577Y12700D01*
X270072Y12801D01*
X270489Y13086D01*
X270762Y13512D01*
X270846Y14010D01*
X270750Y14456D01*
X269748Y16876D01*
X269748Y33924D01*
X271217Y37471D01*
X273933Y40187D01*
X277480Y41656D01*
X281320Y41656D01*
X284867Y40187D01*
X287583Y37471D01*
X289052Y33924D01*
X289052Y16876D01*
X288050Y14456D01*
X287953Y13960D01*
X288057Y13465D01*
X288347Y13051D01*
X288775Y12782D01*
X289223Y12700D01*
X294977Y12700D01*
X295472Y12801D01*
X295889Y13086D01*
X296162Y13512D01*
X296246Y14010D01*
X296150Y14456D01*
X295148Y16876D01*
X295148Y33924D01*
X296617Y37471D01*
X299333Y40187D01*
X299698Y40338D01*
X300117Y40620D01*
X300393Y41044D01*
X300482Y41511D01*
X300482Y57633D01*
X300381Y58128D01*
X300110Y58531D01*
X299010Y59631D01*
X297970Y62141D01*
X297970Y64859D01*
X299010Y67369D01*
X300931Y69290D01*
X301290Y69439D01*
X301709Y69721D01*
X301985Y70145D01*
X302073Y70642D01*
X301961Y71135D01*
X301665Y71545D01*
X301233Y71807D01*
X300804Y71882D01*
X285267Y71882D01*
X284772Y71781D01*
X284369Y71510D01*
X283269Y70410D01*
X280759Y69370D01*
X279203Y69370D01*
X278707Y69269D01*
X278305Y68998D01*
X252623Y43316D01*
X252343Y42895D01*
X252251Y42398D01*
X252359Y41904D01*
X252652Y41492D01*
X252730Y41443D01*
X252730Y26670D01*
X244856Y26670D01*
X244856Y32483D01*
X244755Y32979D01*
X244470Y33396D01*
X244044Y33668D01*
X243546Y33753D01*
X243054Y33636D01*
X242688Y33381D01*
X238624Y29317D01*
X238345Y28896D01*
X238252Y28419D01*
X238252Y16876D01*
X237250Y14456D01*
X237153Y13960D01*
X237257Y13465D01*
X237547Y13051D01*
X237975Y12782D01*
X238423Y12700D01*
X244727Y12700D01*
X245222Y12801D01*
G37*
%LPC*%
G36*
X255270Y26670D02*
X255270Y41148D01*
X255819Y41148D01*
X259180Y39756D01*
X261752Y37184D01*
X263144Y33823D01*
X263144Y26670D01*
X255270Y26670D01*
G37*
%LPD*%
D10*
X232546Y711200D03*
X250054Y711200D03*
X338954Y609600D03*
X321446Y609600D03*
X175396Y673100D03*
X192904Y673100D03*
X250054Y635000D03*
X232546Y635000D03*
X232546Y609600D03*
X250054Y609600D03*
X448446Y622300D03*
X465954Y622300D03*
D11*
X101600Y546100D03*
D12*
X127000Y546100D03*
X152400Y546100D03*
X177800Y546100D03*
X203200Y546100D03*
X228600Y546100D03*
X254000Y546100D03*
X279400Y546100D03*
X304800Y546100D03*
X330200Y546100D03*
X355600Y546100D03*
X381000Y546100D03*
X406400Y546100D03*
X431800Y546100D03*
X457200Y546100D03*
X482600Y546100D03*
D11*
X203200Y749300D03*
D12*
X228600Y749300D03*
X254000Y749300D03*
X279400Y749300D03*
X304800Y749300D03*
X330200Y749300D03*
X355600Y749300D03*
X381000Y749300D03*
X406400Y749300D03*
X431800Y749300D03*
X457200Y749300D03*
X482600Y749300D03*
D11*
X101600Y571500D03*
D12*
X127000Y571500D03*
X152400Y571500D03*
X177800Y571500D03*
X203200Y571500D03*
X228600Y571500D03*
X254000Y571500D03*
X279400Y571500D03*
X304800Y571500D03*
X330200Y571500D03*
X355600Y571500D03*
X381000Y571500D03*
X406400Y571500D03*
X431800Y571500D03*
X457200Y571500D03*
X482600Y571500D03*
D11*
X203200Y774700D03*
D12*
X228600Y774700D03*
X254000Y774700D03*
X279400Y774700D03*
X304800Y774700D03*
X330200Y774700D03*
X355600Y774700D03*
X381000Y774700D03*
X406400Y774700D03*
X431800Y774700D03*
X457200Y774700D03*
X482600Y774700D03*
D13*
X50782Y500600D03*
X50782Y465600D03*
D14*
X291500Y698500D03*
X291500Y635000D03*
X291500Y711200D03*
X291500Y685800D03*
X291500Y673100D03*
X343500Y635000D03*
X291500Y647700D03*
X291500Y660400D03*
X343500Y647700D03*
X343500Y660400D03*
X343500Y673100D03*
X343500Y685800D03*
X343500Y698500D03*
X343500Y711200D03*
D15*
X408454Y622300D03*
X378946Y622300D03*
X408454Y698500D03*
X378946Y698500D03*
X256054Y673100D03*
X226546Y673100D03*
X198904Y635000D03*
X169396Y635000D03*
X198904Y711200D03*
X169396Y711200D03*
X378946Y660400D03*
X408454Y660400D03*
X442446Y660400D03*
X471954Y660400D03*
X471954Y698500D03*
X442446Y698500D03*
D11*
X450850Y355600D03*
D16*
X450850Y381000D03*
X450850Y406400D03*
X450850Y431800D03*
X450850Y457200D03*
D17*
X558800Y397646D03*
X558800Y415154D03*
D18*
X501650Y391646D03*
X501650Y421154D03*
D19*
X152400Y32004D02*
X152400Y18796D01*
X177800Y18796D02*
X177800Y32004D01*
X203200Y32004D02*
X203200Y18796D01*
X228600Y18796D02*
X228600Y32004D01*
X254000Y32004D02*
X254000Y18796D01*
X279400Y18796D02*
X279400Y32004D01*
X304800Y32004D02*
X304800Y18796D01*
X330200Y18796D02*
X330200Y32004D01*
D20*
X50800Y323700D03*
D21*
X50800Y341700D03*
D22*
X50800Y346200D03*
D20*
X317500Y488800D03*
D21*
X317500Y506800D03*
D22*
X317500Y511300D03*
D18*
X241300Y510054D03*
X241300Y480546D03*
X190500Y510054D03*
X190500Y480546D03*
D11*
X381000Y25400D03*
D12*
X406400Y25400D03*
X431800Y25400D03*
X457200Y25400D03*
X482600Y25400D03*
X508000Y25400D03*
X533400Y25400D03*
X558800Y25400D03*
X584200Y25400D03*
D23*
X140970Y422910D03*
X341630Y422910D03*
X571500Y229870D03*
X393700Y229870D03*
D24*
X120650Y634050D03*
X120650Y610550D03*
D18*
X82550Y662454D03*
X82550Y632946D03*
D25*
X50800Y223520D02*
X50800Y208280D01*
X76200Y208280D02*
X76200Y223520D01*
D26*
X636270Y353060D03*
X636270Y459740D03*
D23*
X635000Y63500D03*
X63500Y63500D03*
X63500Y749300D03*
X635000Y749300D03*
D27*
X139700Y673100D03*
X260350Y654050D03*
X215900Y635000D03*
X292100Y609600D03*
X393700Y641350D03*
X317500Y698500D03*
X533400Y736600D03*
X558800Y571500D03*
X558800Y444500D03*
X431800Y330200D03*
X266700Y469900D03*
X101600Y317500D03*
X88900Y482600D03*
X101600Y520700D03*
X63500Y533400D03*
X38100Y546100D03*
X88900Y609600D03*
X152400Y762000D03*
X508000Y762000D03*
X457200Y647700D03*
X431800Y63500D03*
X546100Y63500D03*
X279400Y50800D03*
X152400Y63500D03*
X177800Y203200D03*
X241300Y330200D03*
X203200Y527050D03*
X165100Y476250D03*
X546234Y38234D03*
X177800Y596900D03*
D28*
X241300Y736600D02*
X254000Y749300D01*
X241300Y736600D02*
X133350Y736600D01*
X408454Y622300D02*
X422275Y636121D01*
X422275Y679450D01*
X422275Y684679D01*
X408454Y698500D01*
D27*
X393700Y679450D03*
D28*
X422275Y679450D01*
X82550Y685800D02*
X82550Y662454D01*
X82550Y685800D02*
X133350Y736600D01*
D27*
X330200Y736374D03*
D28*
X343500Y723074D02*
X343500Y711200D01*
X343500Y723074D02*
X330200Y736374D01*
X353546Y647700D02*
X378946Y622300D01*
X353546Y647700D02*
X343500Y647700D01*
X353546Y673100D02*
X378946Y698500D01*
X353546Y673100D02*
X343500Y673100D01*
X291500Y698500D02*
X279400Y698500D01*
X266700Y711200D01*
X266700Y723900D01*
X260350Y730250D01*
X217954Y730250D01*
X198904Y711200D01*
X250054Y711200D02*
X275454Y685800D01*
X291500Y685800D01*
X286249Y660400D02*
X264671Y681978D01*
X286249Y660400D02*
X291500Y660400D01*
X264671Y683961D02*
X263034Y685598D01*
X258149Y685598D01*
X264671Y683961D02*
X264671Y681978D01*
X226546Y673100D02*
X226546Y705200D01*
X232546Y711200D01*
X258149Y685598D01*
X281454Y647700D02*
X291500Y647700D01*
X281454Y647700D02*
X256054Y673100D01*
X237004Y654050D01*
X217954Y654050D01*
X198904Y635000D01*
X169396Y635000D02*
X169396Y667100D01*
X175396Y673100D01*
X343500Y660400D02*
X378946Y660400D01*
X343500Y614146D02*
X338954Y609600D01*
X343500Y614146D02*
X343500Y635000D01*
X291500Y635000D02*
X250054Y635000D01*
X250054Y609600D01*
X307975Y625475D02*
X311150Y628650D01*
X311150Y666750D01*
X304800Y673100D01*
X291500Y673100D01*
X214495Y610550D02*
X120650Y610550D01*
X214495Y610550D02*
X228145Y596900D01*
X76200Y491018D02*
X50782Y465600D01*
X76200Y491018D02*
X76200Y577850D01*
X108900Y610550D01*
X120650Y610550D01*
X228145Y596900D02*
X257175Y596900D01*
X285750Y625475D01*
X307975Y625475D01*
X343500Y698500D02*
X355600Y698500D01*
X374650Y717550D01*
X428625Y641350D02*
X447675Y622300D01*
X448446Y622300D01*
X254000Y571500D02*
X254000Y546100D01*
X254000Y571500D02*
X273050Y590550D01*
X419100Y590550D01*
X448446Y619896D01*
X448446Y622300D01*
X428625Y641350D02*
X428625Y706574D01*
X417649Y717550D02*
X374650Y717550D01*
X417649Y717550D02*
X428625Y706574D01*
X471954Y660400D02*
X471954Y628300D01*
X465954Y622300D01*
X471954Y660400D02*
X471954Y698500D01*
X279400Y571500D02*
X279400Y546100D01*
X427854Y584200D02*
X465954Y622300D01*
X427854Y584200D02*
X292100Y584200D01*
X279400Y571500D01*
X431800Y709146D02*
X431800Y717550D01*
X431800Y709146D02*
X442446Y698500D01*
D27*
X431800Y717550D03*
D28*
X101600Y571500D02*
X101600Y546100D01*
X152400Y546100D02*
X152400Y571500D01*
X203200Y571500D02*
X203200Y546100D01*
D27*
X501424Y450850D03*
D28*
X501650Y450624D01*
X501650Y421154D01*
X228600Y546100D02*
X228600Y571500D01*
X304800Y571500D02*
X304800Y546100D01*
X330200Y546100D02*
X330200Y571500D01*
X355600Y571500D02*
X355600Y546100D01*
X279400Y76200D02*
X228600Y25400D01*
X279400Y76200D02*
X330200Y76200D01*
X381000Y25400D01*
D27*
X279400Y76200D03*
X317500Y114300D03*
D28*
X317500Y317500D01*
X382174Y382174D01*
X382174Y519526D01*
X355600Y546100D01*
X381000Y546100D02*
X381000Y571500D01*
X254000Y101600D02*
X177800Y25400D01*
X254000Y101600D02*
X330200Y101600D01*
X355600Y101600D01*
X431800Y25400D01*
X330200Y101600D02*
X330200Y317500D01*
X393700Y381000D01*
X393700Y533400D01*
X381000Y546100D01*
X406400Y546100D02*
X406400Y571500D01*
X266700Y88900D02*
X203200Y25400D01*
X266700Y88900D02*
X317500Y88900D01*
X342900Y88900D01*
X406400Y25400D01*
X406400Y381000D02*
X406400Y546100D01*
X406400Y381000D02*
X342900Y317500D01*
X342900Y114300D01*
D27*
X342900Y114300D03*
X317500Y88900D03*
D28*
X431800Y546100D02*
X431800Y571500D01*
X520700Y38100D02*
X533400Y25400D01*
X520700Y38100D02*
X520700Y304800D01*
X476250Y349250D01*
X476250Y419100D01*
X488950Y431800D01*
X488950Y476250D01*
D27*
X488950Y476250D03*
D28*
X457200Y546100D02*
X457200Y571500D01*
X508000Y304800D02*
X508000Y25400D01*
X508000Y304800D02*
X469900Y342900D01*
X469900Y419100D01*
D27*
X482600Y495300D03*
D28*
X482600Y479200D02*
X482374Y478974D01*
X482600Y479200D02*
X482600Y495300D01*
X482374Y431574D02*
X469900Y419100D01*
X482374Y431574D02*
X482374Y478974D01*
X482600Y546100D02*
X482600Y571500D01*
X482600Y304800D02*
X482600Y25400D01*
D27*
X482600Y304800D03*
D28*
X203200Y749300D02*
X203200Y774700D01*
X228600Y774700D02*
X228600Y749300D01*
X279400Y749300D02*
X279400Y774700D01*
X457200Y266700D02*
X457200Y25400D01*
D27*
X457200Y266700D03*
D28*
X304800Y749300D02*
X304800Y774700D01*
X330200Y774700D02*
X330200Y749300D01*
X355600Y749300D02*
X355600Y774700D01*
X304800Y177800D02*
X152400Y25400D01*
X304800Y177800D02*
X304800Y317500D01*
X330200Y342900D01*
D27*
X330200Y342900D03*
X381000Y342900D03*
D28*
X419100Y381000D01*
X419100Y457200D01*
X495300Y533400D01*
X495300Y698500D01*
X457200Y736600D01*
X368300Y736600D01*
X355600Y749300D01*
X381000Y749300D02*
X381000Y774700D01*
X469900Y425450D02*
X450850Y406400D01*
X469900Y425450D02*
X469900Y495300D01*
X508000Y533400D01*
X508000Y685800D01*
D27*
X508000Y685800D03*
D28*
X406400Y749300D02*
X406400Y774700D01*
X431800Y774700D02*
X431800Y749300D01*
X457200Y749300D02*
X457200Y774700D01*
X330200Y63500D02*
X330200Y25400D01*
D27*
X330200Y63500D03*
X508000Y723900D03*
D28*
X482600Y723900D01*
X457200Y749300D01*
X482600Y749300D02*
X482600Y774700D01*
X304800Y63500D02*
X304800Y25400D01*
D27*
X304800Y63500D03*
X495300Y355600D03*
D29*
X571500Y355600D01*
D27*
X571500Y355600D03*
D29*
X241300Y510054D02*
X190500Y510054D01*
X179854Y520700D01*
X152400Y520700D01*
X139700Y533400D01*
X139700Y558800D01*
X127000Y571500D01*
X50800Y254000D02*
X50800Y215900D01*
X50800Y254000D02*
X25400Y279400D01*
X25400Y381000D01*
X152400Y508000D02*
X152400Y520700D01*
X152400Y508000D02*
X25400Y381000D01*
D28*
X501650Y391646D02*
X552800Y391646D01*
X558800Y397646D01*
X501650Y391646D02*
X495300Y397996D01*
X495300Y406400D01*
D27*
X495300Y406400D03*
D29*
X190500Y406400D02*
X190500Y480546D01*
X190500Y406400D02*
X125800Y341700D01*
X50800Y341700D01*
D28*
X50800Y346200D01*
D29*
X241300Y480546D02*
X267554Y506800D01*
X317500Y506800D01*
D28*
X317500Y511300D01*
X134300Y634050D02*
X120650Y634050D01*
X134300Y634050D02*
X152400Y615950D01*
X226196Y615950D01*
X232546Y609600D01*
X50782Y601178D02*
X50782Y500600D01*
X50782Y601178D02*
X82550Y632946D01*
X83654Y634050D01*
X120650Y634050D01*
M02*
