G04 EAGLE Gerber RS-274X export*
G75*
%MOMM*%
%FSLAX34Y34*%
%LPD*%
%INSoldermask Top*%
%IPPOS*%
%AMOC8*
5,1,8,0,0,1.08239X$1,22.5*%
G01*
G04 Define Apertures*
%ADD10R,1.367800X1.668500*%
%ADD11R,1.727200X1.727200*%
%ADD12P,1.8695X8X22.5*%
%ADD13C,2.387600*%
%ADD14R,2.403200X0.803200*%
%ADD15R,1.367800X2.018500*%
%ADD16P,1.8695X8X112.5*%
%ADD17R,1.668500X1.367800*%
%ADD18R,2.018500X1.367800*%
%ADD19C,1.524000*%
%ADD20R,2.603200X1.803200*%
%ADD21R,2.603200X0.803200*%
%ADD22R,0.703200X0.503200*%
%ADD23C,2.903200*%
%ADD24C,7.753200*%
%ADD25R,0.703200X1.303200*%
%ADD26C,1.727200*%
%ADD27C,2.403200*%
%ADD28C,6.203200*%
%ADD29C,0.959600*%
D10*
X232546Y711200D03*
X250054Y711200D03*
X338954Y609600D03*
X321446Y609600D03*
X175396Y673100D03*
X192904Y673100D03*
X250054Y635000D03*
X232546Y635000D03*
X232546Y609600D03*
X250054Y609600D03*
X448446Y622300D03*
X465954Y622300D03*
D11*
X101600Y546100D03*
D12*
X127000Y546100D03*
X152400Y546100D03*
X177800Y546100D03*
X203200Y546100D03*
X228600Y546100D03*
X254000Y546100D03*
X279400Y546100D03*
X304800Y546100D03*
X330200Y546100D03*
X355600Y546100D03*
X381000Y546100D03*
X406400Y546100D03*
X431800Y546100D03*
X457200Y546100D03*
X482600Y546100D03*
D11*
X203200Y749300D03*
D12*
X228600Y749300D03*
X254000Y749300D03*
X279400Y749300D03*
X304800Y749300D03*
X330200Y749300D03*
X355600Y749300D03*
X381000Y749300D03*
X406400Y749300D03*
X431800Y749300D03*
X457200Y749300D03*
X482600Y749300D03*
D11*
X101600Y571500D03*
D12*
X127000Y571500D03*
X152400Y571500D03*
X177800Y571500D03*
X203200Y571500D03*
X228600Y571500D03*
X254000Y571500D03*
X279400Y571500D03*
X304800Y571500D03*
X330200Y571500D03*
X355600Y571500D03*
X381000Y571500D03*
X406400Y571500D03*
X431800Y571500D03*
X457200Y571500D03*
X482600Y571500D03*
D11*
X203200Y774700D03*
D12*
X228600Y774700D03*
X254000Y774700D03*
X279400Y774700D03*
X304800Y774700D03*
X330200Y774700D03*
X355600Y774700D03*
X381000Y774700D03*
X406400Y774700D03*
X431800Y774700D03*
X457200Y774700D03*
X482600Y774700D03*
D13*
X50782Y500600D03*
X50782Y465600D03*
D14*
X291500Y698500D03*
X291500Y635000D03*
X291500Y711200D03*
X291500Y685800D03*
X291500Y673100D03*
X343500Y635000D03*
X291500Y647700D03*
X291500Y660400D03*
X343500Y647700D03*
X343500Y660400D03*
X343500Y673100D03*
X343500Y685800D03*
X343500Y698500D03*
X343500Y711200D03*
D15*
X408454Y622300D03*
X378946Y622300D03*
X408454Y698500D03*
X378946Y698500D03*
X256054Y673100D03*
X226546Y673100D03*
X198904Y635000D03*
X169396Y635000D03*
X198904Y711200D03*
X169396Y711200D03*
X378946Y660400D03*
X408454Y660400D03*
X442446Y660400D03*
X471954Y660400D03*
X471954Y698500D03*
X442446Y698500D03*
D11*
X450850Y355600D03*
D16*
X450850Y381000D03*
X450850Y406400D03*
X450850Y431800D03*
X450850Y457200D03*
D17*
X558800Y397646D03*
X558800Y415154D03*
D18*
X501650Y391646D03*
X501650Y421154D03*
D19*
X152400Y32004D02*
X152400Y18796D01*
X177800Y18796D02*
X177800Y32004D01*
X203200Y32004D02*
X203200Y18796D01*
X228600Y18796D02*
X228600Y32004D01*
X254000Y32004D02*
X254000Y18796D01*
X279400Y18796D02*
X279400Y32004D01*
X304800Y32004D02*
X304800Y18796D01*
X330200Y18796D02*
X330200Y32004D01*
D20*
X50800Y323700D03*
D21*
X50800Y341700D03*
D22*
X50800Y346200D03*
D20*
X317500Y488800D03*
D21*
X317500Y506800D03*
D22*
X317500Y511300D03*
D18*
X241300Y510054D03*
X241300Y480546D03*
X190500Y510054D03*
X190500Y480546D03*
D11*
X381000Y25400D03*
D12*
X406400Y25400D03*
X431800Y25400D03*
X457200Y25400D03*
X482600Y25400D03*
X508000Y25400D03*
X533400Y25400D03*
X558800Y25400D03*
X584200Y25400D03*
D23*
X140970Y422910D03*
D24*
X140970Y422910D03*
D23*
X341630Y422910D03*
D24*
X341630Y422910D03*
D23*
X571500Y229870D03*
D24*
X571500Y229870D03*
D23*
X393700Y229870D03*
D24*
X393700Y229870D03*
D25*
X120650Y634050D03*
X120650Y610550D03*
D18*
X82550Y662454D03*
X82550Y632946D03*
D26*
X50800Y223520D02*
X50800Y208280D01*
X76200Y208280D02*
X76200Y223520D01*
D27*
X636270Y353060D03*
D28*
X636270Y353060D03*
D27*
X636270Y459740D03*
D28*
X636270Y459740D03*
D23*
X635000Y63500D03*
D24*
X635000Y63500D03*
D23*
X63500Y63500D03*
D24*
X63500Y63500D03*
D23*
X63500Y749300D03*
D24*
X63500Y749300D03*
D23*
X635000Y749300D03*
D24*
X635000Y749300D03*
D29*
X139700Y673100D03*
X260350Y654050D03*
X215900Y635000D03*
X292100Y609600D03*
X393700Y641350D03*
X317500Y698500D03*
X533400Y736600D03*
X558800Y571500D03*
X558800Y444500D03*
X431800Y330200D03*
X266700Y469900D03*
X101600Y317500D03*
X88900Y482600D03*
X101600Y520700D03*
X63500Y533400D03*
X38100Y546100D03*
X88900Y609600D03*
X152400Y762000D03*
X508000Y762000D03*
X457200Y647700D03*
X431800Y63500D03*
X546100Y63500D03*
X279400Y50800D03*
X152400Y63500D03*
X177800Y203200D03*
X241300Y330200D03*
X203200Y527050D03*
X165100Y476250D03*
X546234Y38234D03*
X177800Y596900D03*
X393700Y679450D03*
X330200Y736374D03*
X431800Y717550D03*
X501424Y450850D03*
X279400Y76200D03*
X317500Y114300D03*
X342900Y114300D03*
X317500Y88900D03*
X488950Y476250D03*
X482600Y495300D03*
X482600Y304800D03*
X457200Y266700D03*
X330200Y342900D03*
X381000Y342900D03*
X508000Y685800D03*
X330200Y63500D03*
X508000Y723900D03*
X304800Y63500D03*
X495300Y355600D03*
X571500Y355600D03*
X495300Y406400D03*
M02*
