G04 EAGLE Gerber RS-274X export*
G75*
%MOMM*%
%FSLAX34Y34*%
%LPD*%
%INSolderpaste Top*%
%IPPOS*%
%AMOC8*
5,1,8,0,0,1.08239X$1,22.5*%
G01*
G04 Define Apertures*
%ADD10R,1.164600X1.465300*%
%ADD11R,2.200000X0.600000*%
%ADD12R,1.164600X1.815300*%
%ADD13R,1.465300X1.164600*%
%ADD14R,1.815300X1.164600*%
%ADD15R,2.400000X1.600000*%
%ADD16R,2.400000X0.600000*%
%ADD17R,0.500000X0.300000*%
%ADD18R,0.500000X1.100000*%
D10*
X232546Y711200D03*
X250054Y711200D03*
X338954Y609600D03*
X321446Y609600D03*
X175396Y673100D03*
X192904Y673100D03*
X250054Y635000D03*
X232546Y635000D03*
X232546Y609600D03*
X250054Y609600D03*
X448446Y622300D03*
X465954Y622300D03*
D11*
X291500Y698500D03*
X291500Y635000D03*
X291500Y711200D03*
X291500Y685800D03*
X291500Y673100D03*
X343500Y635000D03*
X291500Y647700D03*
X291500Y660400D03*
X343500Y647700D03*
X343500Y660400D03*
X343500Y673100D03*
X343500Y685800D03*
X343500Y698500D03*
X343500Y711200D03*
D12*
X408454Y622300D03*
X378946Y622300D03*
X408454Y698500D03*
X378946Y698500D03*
X256054Y673100D03*
X226546Y673100D03*
X198904Y635000D03*
X169396Y635000D03*
X198904Y711200D03*
X169396Y711200D03*
X378946Y660400D03*
X408454Y660400D03*
X442446Y660400D03*
X471954Y660400D03*
X471954Y698500D03*
X442446Y698500D03*
D13*
X558800Y397646D03*
X558800Y415154D03*
D14*
X501650Y391646D03*
X501650Y421154D03*
D15*
X50800Y323700D03*
D16*
X50800Y341700D03*
D17*
X50800Y346200D03*
D15*
X317500Y488800D03*
D16*
X317500Y506800D03*
D17*
X317500Y511300D03*
D14*
X241300Y510054D03*
X241300Y480546D03*
X190500Y510054D03*
X190500Y480546D03*
D18*
X120650Y634050D03*
X120650Y610550D03*
D14*
X82550Y662454D03*
X82550Y632946D03*
M02*
